<svg width="523" height="262" viewBox="0 0 523 262" fill="none" xmlns="http://www.w3.org/2000/svg">
<g filter="url(#filter0_f_126_207)">
<path d="M357.432 78.1148C383.89 51.5204 420.871 45.4913 450.789 75.2555C480.708 105.02 473.121 140.291 446.664 166.885C444.575 168.985 441.267 171.96 441.267 171.96L376.88 107.906C364.006 122.948 359.511 139.363 374.208 153.984C389.079 168.779 405.629 157.393 405.629 157.393L430.123 181.762C430.123 181.762 392.674 208.908 355.056 171.485C324.438 141.025 330.975 104.709 357.432 78.1148ZM432.513 93.6266C420.441 81.6165 406.485 83.7468 393.246 92.8557L431.913 131.323C441.478 118.559 444.585 105.637 432.513 93.6266Z" fill="#092094"/>
<path d="M210.018 147.844C194.761 113.574 202.707 76.8082 241.036 59.7446C292.892 36.6587 316.851 81.3731 316.851 81.3731L285.286 95.4254C285.286 95.4254 274.121 73.3809 251.575 83.4183C231.509 92.3516 232.148 112.598 241.583 133.792C251.018 154.986 265.636 169.009 285.702 160.076C308.248 150.039 299.338 126.99 299.338 126.99L330.903 112.938C330.903 112.938 348.098 160.664 296.241 183.75C257.912 200.813 225.275 182.115 210.018 147.844Z" fill="#092094"/>
<path d="M141.612 208.962L53 116.131L97.6302 73.5287C121.731 50.5236 141.895 46.6284 158.084 63.5879C172.569 78.7622 161.695 95.9653 161.695 95.9653L162.547 96.8579C162.547 96.8579 182.915 84.2395 199.956 102.092C216.997 119.944 213.913 139.946 188.92 163.803L141.612 208.962ZM148.753 127.085L129.115 145.83L149.564 167.252L170.987 146.803C179.02 139.135 180.075 131.304 173.259 124.164C166.443 117.023 157.679 118.565 148.753 127.085ZM113.779 129.763L131.631 112.722C140.557 104.202 141.612 96.3711 135.647 90.1229C129.683 83.8747 122.705 83.7124 114.671 91.3808L95.0338 110.126L113.779 129.763Z" fill="#092094"/>
</g>
<defs>
<filter id="filter0_f_126_207" x="0.400002" y="0.524025" width="522.293" height="261.038" filterUnits="userSpaceOnUse" color-interpolation-filters="sRGB">
<feFlood flood-opacity="0" result="BackgroundImageFix"/>
<feBlend mode="normal" in="SourceGraphic" in2="BackgroundImageFix" result="shape"/>
<feGaussianBlur stdDeviation="26.3" result="effect1_foregroundBlur_126_207"/>
</filter>
</defs>
</svg>
