<svg width="530" height="57" viewBox="0 0 530 57" fill="none" xmlns="http://www.w3.org/2000/svg">
<path d="M498.789 3.09981V0.299805H525.739V3.09981H498.789ZM529.239 6.59981V42.9998H519.789V37.0498H519.439C519.439 37.0498 516.289 44.0498 508.239 44.0498C498.089 44.0498 495.289 37.3998 495.289 28.9998V6.59981H505.089V26.8998C505.089 33.1998 506.839 35.9998 511.389 35.9998C516.639 35.9998 519.439 32.8498 519.439 25.4998V6.59981H529.239Z" fill="white"/>
<path d="M449.42 42.9996V6.59961H459.22V19.8996H463.42C473.57 19.8996 479.17 24.4496 479.17 31.4496C479.17 38.4496 473.57 42.9996 463.42 42.9996H449.42ZM462.02 26.8996H459.22V35.9996H462.02C467.27 35.9996 469.37 34.5996 469.37 31.4496C469.37 28.2996 467.27 26.8996 462.02 26.8996ZM491.77 6.59961V42.9996H481.97V6.59961H491.77Z" fill="white"/>
<path d="M436.093 42.9996V28.6496H422.443V42.9996H412.643V6.59961H422.443V20.9496H436.093V6.59961H445.893V42.9996H436.093Z" fill="white"/>
<path d="M399.315 42.9996V28.6496H385.665V42.9996H375.865V6.59961H385.665V20.9496H399.315V6.59961H409.115V42.9996H399.315Z" fill="white"/>
<path d="M337.029 24.7998C337.029 14.1598 343.259 5.5498 355.229 5.5498C367.199 5.5498 372.729 14.1598 372.729 24.7998C372.729 25.6398 372.659 26.8998 372.659 26.8998H346.899C347.319 32.4998 349.699 36.6998 355.579 36.6998C361.529 36.6998 362.579 31.0998 362.579 31.0998H372.379C372.379 31.0998 370.279 44.0498 355.229 44.0498C342.979 44.0498 337.029 35.4398 337.029 24.7998ZM355.229 12.8998C350.399 12.8998 348.019 16.1198 347.179 20.5998H362.649C362.019 16.1198 360.059 12.8998 355.229 12.8998Z" fill="white"/>
<path d="M302.037 42.9996V6.59961H319.537C328.987 6.59961 333.887 9.74961 333.887 16.3996C333.887 22.3496 328.287 23.7496 328.287 23.7496V24.0996C328.287 24.0996 334.937 25.4996 334.937 32.4996C334.937 39.4996 330.387 42.9996 320.587 42.9996H302.037ZM319.537 27.5996H311.837V35.9996H320.237C323.387 35.9996 325.137 34.5996 325.137 31.7996C325.137 28.9996 323.037 27.5996 319.537 27.5996ZM311.837 21.2996H318.837C322.337 21.2996 324.087 19.8996 324.087 17.4496C324.087 14.9996 322.687 13.5996 319.537 13.5996H311.837V21.2996Z" fill="white"/>
<path d="M267.401 42.9998V22.6998C267.401 16.3998 266.141 13.5998 262.291 13.5998C258.091 13.5998 255.851 16.7498 255.851 24.0998V42.9998H246.051V6.59981H255.501V12.5498H255.851C255.851 12.5498 258.301 5.5498 265.651 5.5498C271.531 5.5498 274.681 8.3498 276.081 12.6198L276.151 12.5498H276.501C276.501 12.5498 279.651 5.5498 287.001 5.5498C296.101 5.5498 298.551 12.1998 298.551 20.5998V42.9998H288.751V22.6998C288.751 16.3998 287.491 13.5998 283.641 13.5998C279.441 13.5998 277.201 16.7498 277.201 24.0998V42.9998H267.401Z" fill="white"/>
<path d="M207.557 24.7998C207.557 14.1598 213.857 5.5498 225.757 5.5498C241.857 5.5498 242.907 19.8998 242.907 19.8998H233.107C233.107 19.8998 232.757 12.8998 225.757 12.8998C219.527 12.8998 217.357 18.2198 217.357 24.7998C217.357 31.3798 219.527 36.6998 225.757 36.6998C232.757 36.6998 233.107 29.6998 233.107 29.6998H242.907C242.907 29.6998 241.857 44.0498 225.757 44.0498C213.857 44.0498 207.557 35.4398 207.557 24.7998Z" fill="white"/>
<path d="M194.579 42.9996V28.6496H180.929V42.9996H171.129V6.59961H180.929V20.9496H194.579V6.59961H204.379V42.9996H194.579Z" fill="white"/>
<path d="M167.618 6.59961V42.9996H158.168V37.0496H157.818C157.818 37.0496 154.668 44.0496 146.618 44.0496C136.468 44.0496 133.668 37.3996 133.668 28.9996V6.59961H143.468V26.8996C143.468 33.1996 145.218 35.9996 149.768 35.9996C155.018 35.9996 157.818 32.8496 157.818 25.4996V6.59961H167.618Z" fill="white"/>
<path d="M130.146 6.59981V38.7998C130.146 49.2998 124.546 56.6498 111.946 56.6498C95.1465 56.6498 94.7965 44.0498 94.7965 44.0498H104.596C104.596 44.0498 104.946 49.2998 111.946 49.2998C118.176 49.2998 120.346 45.7998 120.346 39.4998V37.7498H119.996C119.996 37.7498 116.846 42.6498 109.146 42.6498C98.6465 42.6498 93.3965 33.5498 93.3965 24.0998C93.3965 14.6498 98.6465 5.5498 109.146 5.5498C117.196 5.5498 120.346 11.4998 120.346 11.4998H120.696V6.59981H130.146ZM120.696 24.0998C120.696 18.2198 117.896 12.8998 111.946 12.8998C105.996 12.8998 103.196 18.2198 103.196 24.0998C103.196 29.9798 105.996 35.2998 111.946 35.2998C117.896 35.2998 120.696 29.9798 120.696 24.0998Z" fill="white"/>
<path d="M54.9102 24.7998C54.9102 14.1598 61.1402 5.5498 73.1102 5.5498C85.0802 5.5498 90.6102 14.1598 90.6102 24.7998C90.6102 25.6398 90.5402 26.8998 90.5402 26.8998H64.7802C65.2002 32.4998 67.5802 36.6998 73.4602 36.6998C79.4102 36.6998 80.4602 31.0998 80.4602 31.0998H90.2602C90.2602 31.0998 88.1602 44.0498 73.1102 44.0498C60.8602 44.0498 54.9102 35.4398 54.9102 24.7998ZM73.1102 12.8998C68.2802 12.8998 65.9002 16.1198 65.0602 20.5998H80.5302C79.9002 16.1198 77.9402 12.8998 73.1102 12.8998Z" fill="white"/>
<path d="M34.9324 6.59961V42.9996H25.4824V37.0496H25.1324C25.1324 37.0496 21.9824 44.0496 13.9324 44.0496C3.78242 44.0496 0.982422 37.3996 0.982422 28.9996V6.59961H10.7824V26.8996C10.7824 33.1996 12.5324 35.9996 17.0824 35.9996C22.3324 35.9996 25.1324 32.8496 25.1324 25.4996V6.59961H34.9324Z" fill="white"/>
</svg>
