<svg width="121" height="121" viewBox="0 0 121 121" fill="none" xmlns="http://www.w3.org/2000/svg">
<path d="M20.8757 20.6531C44.3295 -2.92241 77.1127 -8.26717 103.635 18.1184C130.158 44.5039 123.432 75.7713 99.9779 99.3469C98.1263 101.208 95.1938 103.846 95.1938 103.846L38.1161 47.0627C26.7026 60.3967 22.718 74.9491 35.7466 87.9104C48.9303 101.026 63.6009 90.9324 63.6009 90.9324L85.3152 112.535C85.3152 112.535 52.1164 136.599 18.7694 103.425C-8.37349 76.4219 -2.57812 44.2287 20.8757 20.6531ZM87.4335 34.4041C76.7315 23.7573 64.3601 25.6458 52.6236 33.7207L86.9013 67.8213C95.3806 56.5061 98.1356 45.0509 87.4335 34.4041Z" fill="url(#paint0_linear_123_152)"/>
<defs>
<linearGradient id="paint0_linear_123_152" x1="102.86" y1="17.3469" x2="-10.4836" y2="11.15" gradientUnits="userSpaceOnUse">
<stop offset="0.835031" stop-color="#1736D2"/>
<stop offset="1"/>
</linearGradient>
</defs>
</svg>
