<svg width="494" height="63" viewBox="0 0 494 63" fill="none" xmlns="http://www.w3.org/2000/svg">
<path d="M457.914 30.7998C457.914 20.1598 464.144 11.5498 476.114 11.5498C488.084 11.5498 493.614 20.1598 493.614 30.7998C493.614 31.6398 493.544 32.8998 493.544 32.8998H467.784C468.204 38.4998 470.584 42.6998 476.464 42.6998C482.414 42.6998 483.464 37.0998 483.464 37.0998H493.264C493.264 37.0998 491.164 50.0498 476.114 50.0498C463.864 50.0498 457.914 41.4398 457.914 30.7998ZM476.114 18.8998C471.284 18.8998 468.904 22.1198 468.064 26.5998H483.534C482.904 22.1198 480.944 18.8998 476.114 18.8998Z" fill="white"/>
<path d="M454.742 12.5998V44.7998C454.742 55.2998 449.142 62.6498 436.542 62.6498C419.742 62.6498 419.392 50.0498 419.392 50.0498H429.192C429.192 50.0498 429.542 55.2998 436.542 55.2998C442.772 55.2998 444.942 51.7998 444.942 45.4998V43.7498H444.592C444.592 43.7498 441.442 48.6498 433.742 48.6498C423.242 48.6498 417.992 39.5498 417.992 30.0998C417.992 20.6498 423.242 11.5498 433.742 11.5498C441.792 11.5498 444.942 17.4998 444.942 17.4998H445.292V12.5998H454.742ZM445.292 30.0998C445.292 24.2198 442.492 18.8998 436.542 18.8998C430.592 18.8998 427.792 24.2198 427.792 30.0998C427.792 35.9798 430.592 41.2998 436.542 41.2998C442.492 41.2998 445.292 35.9798 445.292 30.0998Z" fill="white"/>
<path d="M406.459 37.0998H415.909C415.909 41.2998 413.109 50.0498 398.759 50.0498C388.259 50.0498 382.309 45.4998 382.309 38.4998C382.309 24.8498 405.409 28.3498 405.409 22.3998C405.409 20.1598 403.309 18.1998 399.459 18.1998C392.809 18.1998 392.809 23.0998 392.809 23.0998H383.359C383.359 19.5998 385.809 11.5498 399.459 11.5498C409.259 11.5498 415.209 16.0998 415.209 22.3998C415.209 36.0498 392.109 31.0798 392.109 38.8498C392.109 40.9498 393.509 43.3998 398.759 43.3998C406.459 43.3998 406.459 37.0998 406.459 37.0998Z" fill="white"/>
<path d="M331.525 48.9996V12.5996H341.325V25.8996H347.275C357.425 25.8996 363.025 30.4496 363.025 37.4496C363.025 44.4496 357.425 48.9996 347.275 48.9996H331.525ZM345.875 32.8996H341.325V41.9996H345.875C351.125 41.9996 353.225 40.5996 353.225 37.4496C353.225 34.2996 351.125 32.8996 345.875 32.8996Z" fill="white"/>
<path d="M291.853 48.9996L304.943 12.5996H316.003L329.093 48.9996H318.593L310.193 23.1696L301.793 48.9996H291.853Z" fill="white"/>
<path d="M267.027 23.7998H257.227C257.787 14.4898 265.277 11.5498 273.677 11.5498C282.427 11.5498 289.427 14.6998 289.427 24.1498V48.9998H279.627V41.9998H279.277C279.277 41.9998 277.037 50.0498 267.727 50.0498C261.077 50.0498 256.177 46.9698 256.177 40.2498C256.177 33.4598 261.777 30.3798 267.797 28.8398C273.887 27.2998 279.627 26.8098 279.627 22.7498C279.627 19.8798 277.527 18.1998 273.677 18.1998C269.477 18.1998 267.167 19.8798 267.027 23.7998ZM279.627 30.6598C278.017 32.1298 274.727 32.8998 271.927 33.5998C268.777 34.3698 266.117 35.9798 266.117 39.1998C266.117 41.9998 268.077 43.7498 271.227 43.7498C277.877 43.7498 279.627 36.0498 279.627 30.6598Z" fill="white"/>
<path d="M221.193 48.9996V12.5996H238.693C248.143 12.5996 253.043 15.7496 253.043 22.3996C253.043 28.3496 247.443 29.7496 247.443 29.7496V30.0996C247.443 30.0996 254.093 31.4996 254.093 38.4996C254.093 45.4996 249.543 48.9996 239.743 48.9996H221.193ZM238.693 33.5996H230.993V41.9996H239.393C242.543 41.9996 244.293 40.5996 244.293 37.7996C244.293 34.9996 242.193 33.5996 238.693 33.5996ZM230.993 27.2996H237.993C241.493 27.2996 243.243 25.8996 243.243 23.4496C243.243 20.9996 241.843 19.5996 238.693 19.5996H230.993V27.2996Z" fill="white"/>
<path d="M217.682 12.5996V48.9996H208.232V43.0496H207.882C207.882 43.0496 204.732 50.0496 196.682 50.0496C186.532 50.0496 183.732 43.3996 183.732 34.9996V12.5996H193.532V32.8996C193.532 39.1996 195.282 41.9996 199.832 41.9996C205.082 41.9996 207.882 38.8496 207.882 31.4996V12.5996H217.682Z" fill="white"/>
<path d="M149.096 48.9998V28.6998C149.096 22.3998 147.836 19.5998 143.986 19.5998C139.786 19.5998 137.546 22.7498 137.546 30.0998V48.9998H127.746V12.5998H137.196V18.5498H137.546C137.546 18.5498 139.996 11.5498 147.346 11.5498C153.226 11.5498 156.376 14.3498 157.776 18.6198L157.846 18.5498H158.196C158.196 18.5498 161.346 11.5498 168.696 11.5498C177.796 11.5498 180.246 18.1998 180.246 26.5998V48.9998H170.446V28.6998C170.446 22.3998 169.186 19.5998 165.336 19.5998C161.136 19.5998 158.896 22.7498 158.896 30.0998V48.9998H149.096Z" fill="white"/>
<path d="M89.252 30.7998C89.252 20.1598 95.552 11.5498 107.452 11.5498C123.552 11.5498 124.602 25.8998 124.602 25.8998H114.802C114.802 25.8998 114.452 18.8998 107.452 18.8998C101.222 18.8998 99.052 24.2198 99.052 30.7998C99.052 37.3798 101.222 42.6998 107.452 42.6998C114.452 42.6998 114.802 35.6998 114.802 35.6998H124.602C124.602 35.6998 123.552 50.0498 107.452 50.0498C95.552 50.0498 89.252 41.4398 89.252 30.7998Z" fill="white"/>
<path d="M50.7656 30.7998C50.7656 20.1598 56.9956 11.5498 68.9656 11.5498C80.9356 11.5498 86.4656 20.1598 86.4656 30.7998C86.4656 31.6398 86.3956 32.8998 86.3956 32.8998H60.6356C61.0556 38.4998 63.4356 42.6998 69.3156 42.6998C75.2656 42.6998 76.3156 37.0998 76.3156 37.0998H86.1156C86.1156 37.0998 84.0156 50.0498 68.9656 50.0498C56.7156 50.0498 50.7656 41.4398 50.7656 30.7998ZM68.9656 18.8998C64.1356 18.8998 61.7556 22.1198 60.9156 26.5998H76.3856C75.7556 22.1198 73.7956 18.8998 68.9656 18.8998Z" fill="white"/>
<path d="M29.0848 49.35V61.6H19.2848V49.35C7.31477 49.35 0.384766 41.65 0.384766 30.8C0.384766 19.95 7.31477 12.25 19.2848 12.25V0H29.0848V12.25C41.0548 12.25 47.9848 19.95 47.9848 30.8C47.9848 41.65 41.0548 49.35 29.0848 49.35ZM19.2848 42.35V19.25C13.0548 19.25 10.1848 24.15 10.1848 30.8C10.1848 37.45 13.0548 42.35 19.2848 42.35ZM38.1848 30.8C38.1848 24.15 35.3148 19.25 29.0848 19.25V42.35C35.3148 42.35 38.1848 37.45 38.1848 30.8Z" fill="white"/>
</svg>
