<svg width="488" height="193" viewBox="0 0 488 193" fill="none" xmlns="http://www.w3.org/2000/svg">
<path d="M23.8324 53.0669H14.1676V93.8908H0V1H14.1676V38.2218H23.8324V1H38V94H23.8324V53.0669Z" fill="white"/>
<path d="M62.8686 95H60.1543C48.9714 95 43 88.878 43 77.3993V58.7054H56.8971V74.9942C56.8971 79.2578 58.3086 81.5535 61.4571 81.5535C64.8229 81.5535 66.0171 79.2578 66.0171 73.5731V71.496C66.0171 64.8274 65.3657 62.5316 60.2629 55.8631L51.4686 44.1657C45.4971 36.4039 43.76 30.3913 43.76 21.099V18.1473C43.76 5.79402 49.9486 0 61.0229 0H63.6286C75.1371 0 79.6971 5.13809 79.6971 16.1795V31.4845H66.1257V18.038C66.1257 14.8677 65.4743 12.5719 62.1086 12.5719C58.7429 12.5719 57.9829 14.649 57.9829 19.1312V20.8803C57.9829 26.1277 58.96 28.9701 63.7371 35.2014L72.64 46.7894C78.9371 55.0978 81 59.7986 81 70.2934V73.2451C81 86.9102 75.1371 95 62.8686 95Z" fill="white"/>
<path d="M118.233 1V14.5511H100.143V38.9213H114.286V53.0188H100.143V79.9025H119V94H86V1H118.233Z" fill="white"/>
<path d="M157.291 76.5352H146.818L144.924 94H132L143.587 1H160.633L173 94H159.073L157.291 76.5352ZM155.731 62.6725L151.943 28.2887L148.266 62.6725H155.731Z" fill="white"/>
<path d="M190.293 93.891H176V1H199.267C208.795 1 213.56 5.034 213.56 15.3916V31.8546C213.56 39.5956 209.903 42.5393 207.355 43.7386C210.568 45.1559 213.56 47.6635 213.56 53.8781V86.4771C213.56 90.1841 214.335 91.9285 215 93.3458V94H200.818C200.153 93.0188 199.378 91.3834 199.378 86.3681V58.2392C199.378 54.0961 198.602 52.3517 194.06 52.3517H190.403V93.891H190.293ZM190.293 39.1594H194.06C198.048 39.1594 199.267 36.6518 199.267 32.5088V19.5346C199.267 15.5006 198.381 13.5381 194.06 13.5381H190.293V39.1594Z" fill="white"/>
<path d="M242.029 14.4418V94H227.971V14.4418H216V1H254V14.5511H242.029V14.4418Z" fill="white"/>
<path d="M292.674 76.5352H282.457L280.609 94H268L279.304 1H295.935L308 94H294.413L292.674 76.5352ZM291.152 62.6725L287.457 28.2887L283.87 62.6725H291.152Z" fill="white"/>
<path d="M323.188 1L335.699 50.8838V1H349V94H337.165L323.188 40.5141V94H310V1H323.188Z" fill="white"/>
<path d="M354 1H376.561C389.145 1 393 7.87676 393 18.9014V75.5528C393 86.9049 388.578 94 376.561 94H354.113V1H354ZM368.738 80.4648H372.253C376.674 80.4648 377.922 78.1725 377.922 73.2606V20.8662C377.922 15.5176 376.448 13.662 372.82 13.662H368.625V80.4648H368.738Z" fill="white"/>
<path d="M0 99H21.3586C33.3324 99 37 105.877 37 116.901V173.553C37 184.905 32.793 192 21.3586 192H0V99ZM13.9155 178.574H17.2595C21.4665 178.574 22.6531 176.282 22.6531 171.37V118.975C22.6531 113.627 21.2507 111.771 17.7988 111.771H13.8076V178.574H13.9155Z" fill="white"/>
<path d="M76.2119 99V112.551H57.6358V136.921H72.1589V151.019H57.6358V177.902H77V192H43V99H76.2119Z" fill="white"/>
<path d="M99.4491 192H96.6555C85.1459 192 79 185.928 79 174.544V156.005H93.3032V172.159C93.3032 176.388 94.7558 178.664 97.9964 178.664C101.46 178.664 102.69 176.388 102.69 170.75V168.69C102.69 162.076 102.019 159.799 96.7672 153.186L87.6042 141.802C81.4584 134.104 79.6705 128.141 79.6705 118.925V115.998C79.6705 103.746 86.0398 98 97.4377 98H100.12C112.076 98 116.658 103.096 116.658 114.046V129.225H102.69V115.889C102.69 112.745 102.019 110.468 98.5551 110.468C95.0911 110.468 94.3089 112.528 94.3089 116.973V118.708C94.3089 123.912 95.3145 126.731 100.231 132.911L109.394 144.404C115.875 152.644 117.998 157.306 117.998 167.714V170.641C118.11 183.977 112.076 192 99.4491 192Z" fill="white"/>
<path d="M136 192H122V99H136V192Z" fill="white"/>
<path d="M154.658 193C146.287 193 141 185.592 141 176.005V117.937C141 107.587 145.075 98 158.513 98H161.267C176.577 98 178.339 107.805 178.339 118.808V128.287H164.461V117.828C164.461 113.688 163.47 111.509 159.945 111.509C156.971 111.509 155.539 113.797 155.539 117.828V172.083C155.539 176.44 157.301 178.728 160.165 178.728C163.8 178.728 165.452 176.222 165.452 172.736V149.531H159.064V135.259H179V191.693H170.959C170.849 191.148 169.748 186.572 168.536 182.541C167.545 185.701 162.699 192.891 155.539 192.891H154.658V193Z" fill="white"/>
<path d="M197.188 99L209.699 148.884V99H223V192H211.165L197.188 138.514V192H184V99H197.188Z" fill="white"/>
<path d="M260.449 192H257.655C246.146 192 240 185.928 240 174.544V156.005H254.303V172.159C254.303 176.388 255.756 178.664 258.996 178.664C262.46 178.664 263.69 176.388 263.69 170.75V168.69C263.69 162.076 263.019 159.799 257.767 153.186L248.604 141.802C242.458 134.104 240.67 128.141 240.67 118.925V115.998C240.67 103.746 247.04 98 258.438 98H261.12C272.964 98 277.658 103.096 277.658 114.046V129.225H263.69V115.889C263.69 112.745 263.019 110.468 259.555 110.468C256.091 110.468 255.309 112.528 255.309 116.973V118.708C255.309 123.912 256.315 126.731 261.231 132.911L270.394 144.404C276.875 152.644 278.998 157.306 278.998 167.714V170.641C279.11 183.977 273.076 192 260.449 192Z" fill="white"/>
<path d="M305.93 173.04V151.444H320V172.931C320 182.966 316.676 193 302.828 193H299.615C285.102 193 282 182.747 282 173.367V116.651C282 107.162 286.21 98 299.172 98H302.496C318.227 98 320 108.253 320 117.305V133.884H305.93V117.524C305.93 113.488 304.711 111.416 301.055 111.416C297.51 111.416 296.624 113.379 296.624 117.524V172.713C296.624 176.858 298.064 179.039 301.166 179.039C304.711 179.366 305.93 176.858 305.93 173.04Z" fill="white"/>
<path d="M348.832 151.176H339.168V192H325V99H339.168V136.222H348.832V99H363V192H348.832V151.176Z" fill="white"/>
<path d="M408 171.161C408 184.155 403.48 193 389.356 193H386.87C372.859 193 368 184.155 368 171.161V119.402C368 106.517 373.085 98 386.757 98H389.243C403.48 98 408 106.517 408 119.293V171.161V171.161ZM393.085 118.638C393.085 113.724 391.39 111.54 388 111.54C384.271 111.54 382.802 113.943 382.802 118.638V172.144C382.802 176.184 383.932 179.241 388.113 179.241C391.955 179.241 393.085 176.075 393.085 172.144V118.638V118.638Z" fill="white"/>
<path d="M451 171.161C451 184.155 446.593 193 432.822 193H430.398C416.737 193 412 184.155 412 171.161V119.402C412 106.517 416.958 98 430.288 98H432.712C446.593 98 451 106.517 451 119.293V171.161V171.161ZM436.458 118.638C436.458 113.724 434.805 111.54 431.5 111.54C427.864 111.54 426.432 113.943 426.432 118.638V172.144C426.432 176.184 427.534 179.241 431.61 179.241C435.356 179.241 436.458 176.075 436.458 172.144V118.638V118.638Z" fill="white"/>
<path d="M470.934 99V177.592H488V192H457V99H470.934Z" fill="white"/>
</svg>
