<svg width="324" height="128" viewBox="0 0 324 128" fill="none" xmlns="http://www.w3.org/2000/svg">
<path d="M16.2379 35.0646H9.78283V62.1035H0.320312V0.579102H9.78283V25.2322H16.2379V0.579102H25.7004V62.1758H16.2379V35.0646Z" fill="#1736D2"/>
<path d="M41.9841 62.8257H40.1503C32.595 62.8257 28.5605 58.7771 28.5605 51.186V38.8233H37.9497V49.5955C37.9497 52.415 38.9033 53.9333 41.0305 53.9333C43.3045 53.9333 44.1114 52.415 44.1114 48.6556V47.282C44.1114 42.8719 43.6712 41.3536 40.2237 36.9436L34.2821 29.2078C30.2477 24.0748 29.074 20.0985 29.074 13.9532V12.0012C29.074 3.83172 33.2551 0 40.7371 0H42.4976C50.273 0 53.3538 3.39794 53.3538 10.6999V20.8214H44.1847V11.9289C44.1847 9.83233 43.7446 8.31411 41.4707 8.31411C39.1967 8.31411 38.6832 9.68774 38.6832 12.6519V13.8086C38.6832 17.2789 39.3434 19.1586 42.5709 23.2795L48.5859 30.9429C52.8403 36.4375 54.2341 39.5462 54.2341 46.4867V48.4387C54.2341 57.4758 50.273 62.8257 41.9841 62.8257Z" fill="#1736D2"/>
<path d="M78.515 0.579102V9.54388H66.4117V25.666H75.8743V34.9923H66.4117V52.7772H79.0284V62.1035H56.9492V0.579102H78.515Z" fill="#1736D2"/>
<path d="M104.628 50.5351H97.7325L96.4855 62.1025H87.9766L95.6053 0.505859H106.828L114.97 62.1025H105.801L104.628 50.5351ZM103.601 41.3534L101.107 18.58L98.6861 41.3534H103.601Z" fill="#1736D2"/>
<path d="M126.047 62.1758H116.585V0.579102H131.989C138.297 0.579102 141.452 3.25407 141.452 10.1223V21.039C141.452 26.1721 139.031 28.1241 137.344 28.9194C139.471 29.8592 141.452 31.522 141.452 35.6429V57.2596C141.452 59.7177 141.965 60.8745 142.405 61.8143V62.2481H133.016C132.576 61.5974 132.062 60.513 132.062 57.1873V38.5348C132.062 35.7875 131.549 34.6308 128.541 34.6308H126.121V62.1758H126.047ZM126.047 25.8829H128.541C131.182 25.8829 131.989 24.2201 131.989 21.4728V12.8695C131.989 10.1945 131.402 8.89321 128.541 8.89321H126.047V25.8829Z" fill="#1736D2"/>
<path d="M160.597 9.47158V62.1035H151.207V9.47158H143.212V0.579102H168.592V9.54388H160.597V9.47158Z" fill="#1736D2"/>
<path d="M193.972 50.5351H187.077L185.83 62.1025H177.321L184.95 0.505859H196.173L204.315 62.1025H195.146L193.972 50.5351ZM192.945 41.3534L190.451 18.58L188.031 41.3534H192.945Z" fill="#1736D2"/>
<path d="M214.438 0.579102L222.58 33.6186V0.579102H231.236V62.1758H223.533L214.438 26.7505V62.1758H205.855V0.579102H214.438Z" fill="#1736D2"/>
<path d="M234.757 0.579102H249.354C257.496 0.579102 259.99 5.13379 259.99 12.4357V49.9577C259.99 57.4765 257.129 62.1758 249.354 62.1758H234.83V0.579102H234.757ZM244.293 53.211H246.567C249.427 53.211 250.234 51.6928 250.234 48.4394V13.7371C250.234 10.1945 249.281 8.96551 246.933 8.96551H244.219V53.211H244.293Z" fill="#1736D2"/>
<path d="M0.320312 65.3584H14.8442C22.9863 65.3584 25.4803 69.9131 25.4803 77.215V114.737C25.4803 122.256 22.6196 126.955 14.8442 126.955H0.320312V65.3584ZM9.78283 118.063H12.0568C14.9175 118.063 15.7244 116.544 15.7244 113.291V78.5887C15.7244 75.0461 14.7708 73.8171 12.4235 73.8171H9.70948V118.063H9.78283Z" fill="#1736D2"/>
<path d="M50.4946 65.3584V74.3232H38.3913V90.4453H47.8539V99.7716H38.3913V117.557H51.008V126.883H28.8555V65.3584H50.4946Z" fill="#1736D2"/>
<path d="M66.1179 127.603H64.2841C56.7287 127.603 52.6943 123.554 52.6943 115.963V103.601H62.0835V114.373C62.0835 117.192 63.0371 118.711 65.1643 118.711C67.4383 118.711 68.2451 117.192 68.2451 113.433V112.059C68.2451 107.649 67.805 106.131 64.3574 101.721L58.3425 94.1297C54.3081 88.9966 53.1345 85.0203 53.1345 78.8751V76.9231C53.1345 68.7536 57.3156 64.9219 64.7976 64.9219H66.558C74.4068 64.9219 77.4143 68.3198 77.4143 75.6218V85.7433H68.2451V76.8508C68.2451 74.7542 67.805 73.236 65.5311 73.236C63.2571 73.236 62.7437 74.6096 62.7437 77.5738V78.7305C62.7437 82.2008 63.4039 84.0805 66.6314 88.2014L72.6463 95.8648C76.9008 101.359 78.2945 104.468 78.2945 111.409V113.361C78.3678 122.253 74.4068 127.603 66.1179 127.603Z" fill="#1736D2"/>
<path d="M90.5436 126.955H81.0811V65.3584H90.5436V126.955Z" fill="#1736D2"/>
<path d="M102.868 127.822C97.2934 127.822 93.7725 122.906 93.7725 116.544V78.0096C93.7725 71.1414 96.4865 64.7793 105.436 64.7793H107.269C117.465 64.7793 118.639 71.286 118.639 78.5879V84.8778H109.397V77.9373C109.397 75.19 108.736 73.7441 106.389 73.7441C104.409 73.7441 103.455 75.2623 103.455 77.9373V113.941C103.455 116.833 104.629 118.351 106.536 118.351C108.957 118.351 110.057 116.688 110.057 114.375V98.9756H105.802V89.5047H119.079V126.954H113.724C113.651 126.593 112.918 123.556 112.111 120.881C111.451 122.978 108.223 127.75 103.455 127.75H102.868V127.822Z" fill="#1736D2"/>
<path d="M130.961 65.3584L139.103 98.3979V65.3584H147.759V126.955H140.057L130.961 91.5298V126.955H122.379V65.3584H130.961Z" fill="#1736D2"/>
<path d="M172.552 127.603H170.719C163.163 127.603 159.129 123.554 159.129 115.963V103.601H168.518V114.373C168.518 117.192 169.472 118.711 171.599 118.711C173.873 118.711 174.68 117.192 174.68 113.433V112.059C174.68 107.649 174.24 106.131 170.792 101.721L164.777 94.1297C160.743 88.9966 159.569 85.0203 159.569 78.8751V76.9231C159.569 68.7536 163.75 64.9219 171.232 64.9219H172.993C180.768 64.9219 183.849 68.3198 183.849 75.6218V85.7433H174.68V76.8508C174.68 74.7542 174.24 73.236 171.966 73.236C169.692 73.236 169.178 74.6096 169.178 77.5738V78.7305C169.178 82.2008 169.838 84.0805 173.066 88.2014L179.081 95.8648C183.335 101.359 184.729 104.468 184.729 111.409V113.361C184.802 122.253 180.841 127.603 172.552 127.603Z" fill="#1736D2"/>
<path d="M202.995 114.447V100.132H212.31V114.375C212.31 121.026 210.11 127.677 200.941 127.677H198.813C189.204 127.677 187.15 120.881 187.15 114.664V77.0697C187.15 70.7799 189.938 64.707 198.52 64.707H200.721C211.137 64.707 212.31 71.5029 212.31 77.5035V88.4926H202.995V77.6481C202.995 74.9731 202.188 73.5995 199.767 73.5995C197.42 73.5995 196.833 74.9009 196.833 77.6481V114.23C196.833 116.977 197.787 118.423 199.84 118.423C202.188 118.64 202.995 116.977 202.995 114.447Z" fill="#1736D2"/>
<path d="M231.308 99.9162H224.853V126.955H215.391V65.3584H224.853V90.0115H231.308V65.3584H240.771V126.955H231.308V99.9162Z" fill="#1736D2"/>
<path d="M270.038 113.218C270.038 121.821 267.104 127.677 257.935 127.677H256.321C247.225 127.677 244.071 121.821 244.071 113.218V78.9494C244.071 70.4184 247.372 64.7793 256.248 64.7793H257.862C267.104 64.7793 270.038 70.4184 270.038 78.8771V113.218V113.218ZM260.356 78.4434C260.356 75.19 259.255 73.7441 257.055 73.7441C254.634 73.7441 253.681 75.3346 253.681 78.4434V113.869C253.681 116.544 254.414 118.568 257.128 118.568C259.622 118.568 260.356 116.471 260.356 113.869V78.4434V78.4434Z" fill="#1736D2"/>
<path d="M299.013 113.218C299.013 121.821 296.079 127.677 286.91 127.677H285.296C276.2 127.677 273.046 121.821 273.046 113.218V78.9494C273.046 70.4184 276.347 64.7793 285.222 64.7793H286.836C296.079 64.7793 299.013 70.4184 299.013 78.8771V113.218V113.218ZM289.33 78.4434C289.33 75.19 288.23 73.7441 286.029 73.7441C283.609 73.7441 282.655 75.3346 282.655 78.4434V113.869C282.655 116.544 283.389 118.568 286.103 118.568C288.597 118.568 289.33 116.471 289.33 113.869V78.4434V78.4434Z" fill="#1736D2"/>
<path d="M311.777 65.3584V117.412H323.367V126.955H302.314V65.3584H311.777Z" fill="#1736D2"/>
</svg>
