<svg width="390" height="138" viewBox="0 0 390 138" fill="none" xmlns="http://www.w3.org/2000/svg">
<path d="M317.081 117.136H309.396C309.835 109.835 315.709 107.529 322.296 107.529C329.158 107.529 334.648 110 334.648 117.41V136.898H326.962V131.409H326.688C326.688 131.409 324.931 137.722 317.63 137.722C312.415 137.722 308.572 135.306 308.572 130.036C308.572 124.712 312.964 122.296 317.685 121.088C322.461 119.881 326.962 119.497 326.962 116.313C326.962 114.062 325.315 112.744 322.296 112.744C319.002 112.744 317.191 114.062 317.081 117.136ZM326.962 122.516C325.7 123.669 323.12 124.272 320.924 124.821C318.453 125.425 316.367 126.688 316.367 129.213C316.367 131.409 317.905 132.781 320.375 132.781C325.59 132.781 326.962 126.743 326.962 122.516Z" fill="#1736D2"/>
<path d="M281.138 136.899V108.354H294.862C302.272 108.354 306.115 110.824 306.115 116.039C306.115 120.705 301.723 121.803 301.723 121.803V122.077C301.723 122.077 306.939 123.175 306.939 128.665C306.939 134.154 303.37 136.899 295.685 136.899H281.138ZM294.862 124.822H288.823V131.41H295.411C297.881 131.41 299.253 130.312 299.253 128.116C299.253 125.92 297.606 124.822 294.862 124.822ZM288.823 119.882H294.313C297.057 119.882 298.43 118.784 298.43 116.862C298.43 114.941 297.332 113.843 294.862 113.843H288.823V119.882Z" fill="#1736D2"/>
<path d="M257.241 122.626C257.241 127.786 259.217 131.958 264.103 131.958C268.989 131.958 270.965 127.786 270.965 122.626C270.965 117.465 268.989 113.293 264.103 113.293C259.217 113.293 257.241 117.465 257.241 122.626ZM249.556 122.626C249.556 114.281 254.716 107.529 264.103 107.529C273.49 107.529 278.65 114.281 278.65 122.626C278.65 130.97 273.49 137.722 264.103 137.722C254.716 137.722 249.556 130.97 249.556 122.626Z" fill="#1736D2"/>
<path d="M223.187 136.899V108.354H230.872V119.882L241.028 108.354H250.085L239.326 119.497L250.634 136.899H241.247L234.001 124.987L230.872 128.226V136.899H223.187Z" fill="#1736D2"/>
<path d="M220.458 108.354V136.899H213.322V116.862H213.047L206.734 136.899H199.598L193.285 116.862H193.01V136.899H185.874V108.354H197.402L203.166 128.116L208.93 108.354H220.458Z" fill="#1736D2"/>
<path d="M161.977 122.626C161.977 127.786 163.954 131.958 168.839 131.958C173.725 131.958 175.701 127.786 175.701 122.626C175.701 117.465 173.725 113.293 168.839 113.293C163.954 113.293 161.977 117.465 161.977 122.626ZM154.292 122.626C154.292 114.281 159.452 107.529 168.839 107.529C178.226 107.529 183.387 114.281 183.387 122.626C183.387 130.97 178.226 137.722 168.839 137.722C159.452 137.722 154.292 130.97 154.292 122.626Z" fill="#1736D2"/>
<path d="M127.923 136.899V108.354H135.608V119.882L145.764 108.354H154.822L144.062 119.497L155.371 136.899H145.983L138.737 124.987L135.608 128.226V136.899H127.923Z" fill="#1736D2"/>
<path d="M94.4443 117.136H86.759C87.1981 109.835 93.072 107.529 99.6594 107.529C106.521 107.529 112.011 110 112.011 117.41V136.898H104.326V131.409H104.051C104.051 131.409 102.294 137.722 94.9933 137.722C89.7782 137.722 85.9355 135.306 85.9355 130.036C85.9355 124.712 90.3272 122.296 95.0482 121.088C99.8241 119.881 104.326 119.497 104.326 116.313C104.326 114.062 102.679 112.744 99.6594 112.744C96.3657 112.744 94.5541 114.062 94.4443 117.136ZM104.326 122.516C103.063 123.669 100.483 124.272 98.287 124.821C95.8167 125.425 93.7307 126.688 93.7307 129.213C93.7307 131.409 95.2678 132.781 97.7381 132.781C102.953 132.781 104.326 126.743 104.326 122.516Z" fill="#1736D2"/>
<path d="M76.0316 136.899V125.646H65.327V136.899H57.6416V108.354H65.327V119.607H76.0316V108.354H83.717V136.899H76.0316Z" fill="#1736D2"/>
<path d="M47.1898 136.899V125.646H36.4852V136.899H28.7998V108.354H36.4852V119.607H47.1898V108.354H54.8752V136.899H47.1898Z" fill="#1736D2"/>
<path d="M8.5088 117.136H0.823432C1.2626 109.835 7.13641 107.529 13.7239 107.529C20.5858 107.529 26.0754 110 26.0754 117.41V136.898H18.39V131.409H18.1155C18.1155 131.409 16.3589 137.722 9.05775 137.722C3.84268 137.722 0 135.306 0 130.036C0 124.712 4.39164 122.296 9.11265 121.088C13.8886 119.881 18.39 119.497 18.39 116.313C18.39 114.062 16.7431 112.744 13.7239 112.744C10.4301 112.744 8.61859 114.062 8.5088 117.136ZM18.39 122.516C17.1274 123.669 14.5473 124.272 12.3515 124.821C9.88119 125.425 7.79516 126.688 7.79516 129.213C7.79516 131.409 9.33223 132.781 11.8025 132.781C17.0176 132.781 18.39 126.743 18.39 122.516Z" fill="#1736D2"/>
<path d="M360.746 93.4524V55.0256H368.157V58.8683H368.431C368.431 58.8683 370.902 54.2021 377.215 54.2021C385.449 54.2021 389.566 61.3386 389.566 69.2984C389.566 77.2582 385.449 84.3947 377.215 84.3947C371.176 84.3947 368.706 80.552 368.706 80.552H368.431V93.4524H360.746ZM368.157 69.2984C368.157 74.4586 370.353 78.6306 375.019 78.6306C379.685 78.6306 381.881 74.4586 381.881 69.2984C381.881 64.1382 379.685 59.9662 375.019 59.9662C370.353 59.9662 368.157 64.1382 368.157 69.2984Z" fill="#1736D2"/>
<path d="M330.29 69.2984C330.29 60.9543 335.176 54.2021 344.563 54.2021C353.95 54.2021 358.287 60.9543 358.287 69.2984C358.287 69.9572 358.232 70.9453 358.232 70.9453H338.03C338.36 75.3369 340.226 78.6306 344.837 78.6306C349.503 78.6306 350.327 74.239 350.327 74.239H358.012C358.012 74.239 356.365 84.3947 344.563 84.3947C334.956 84.3947 330.29 77.6425 330.29 69.2984ZM344.563 59.9662C340.775 59.9662 338.909 62.4914 338.25 66.0047H350.382C349.888 62.4914 348.351 59.9662 344.563 59.9662Z" fill="#1736D2"/>
<path d="M303.401 83.5712V67.6515C303.401 62.7109 302.413 60.5151 299.394 60.5151C296.1 60.5151 294.344 62.9854 294.344 68.7495V83.5712H286.658V55.0256H294.069V59.6917H294.344C294.344 59.6917 296.265 54.2021 302.029 54.2021C306.64 54.2021 309.11 56.398 310.208 59.7466L310.263 59.6917H310.538C310.538 59.6917 313.008 54.2021 318.772 54.2021C325.908 54.2021 327.83 59.4172 327.83 66.0047V83.5712H320.144V67.6515C320.144 62.7109 319.156 60.5151 316.137 60.5151C312.843 60.5151 311.087 62.9854 311.087 68.7495V83.5712H303.401Z" fill="#1736D2"/>
<path d="M264.41 55.0273L269.626 63.2617L274.841 55.0273H283.898L274.017 68.7512L284.722 83.573H275.664L269.626 74.2408L263.587 83.573H254.529L265.234 68.7512L255.353 55.0273H264.41Z" fill="#1736D2"/>
<path d="M252.598 55.0273V83.573H245.187V78.9069H244.913C244.913 78.9069 242.442 84.3964 236.129 84.3964C228.169 84.3964 225.974 79.1814 225.974 72.5939V55.0273H233.659V70.947C233.659 75.8876 235.031 78.0834 238.6 78.0834C242.717 78.0834 244.913 75.6132 244.913 69.8491V55.0273H252.598Z" fill="#1736D2"/>
<path d="M194.666 93.4524V55.0256H202.077V58.8683H202.351C202.351 58.8683 204.822 54.2021 211.135 54.2021C219.369 54.2021 223.486 61.3386 223.486 69.2984C223.486 77.2582 219.369 84.3947 211.135 84.3947C205.096 84.3947 202.626 80.552 202.626 80.552H202.351V93.4524H194.666ZM202.077 69.2984C202.077 74.4586 204.273 78.6306 208.939 78.6306C213.605 78.6306 215.801 74.4586 215.801 69.2984C215.801 64.1382 213.605 59.9662 208.939 59.9662C204.273 59.9662 202.077 64.1382 202.077 69.2984Z" fill="#1736D2"/>
<path d="M161.187 63.8089H153.501C153.94 56.5078 159.814 54.2021 166.402 54.2021C173.264 54.2021 178.753 56.6724 178.753 64.0833V83.5712H171.068V78.0817H170.793C170.793 78.0817 169.037 84.3947 161.735 84.3947C156.52 84.3947 152.678 81.9793 152.678 76.7093C152.678 71.3844 157.069 68.969 161.79 67.7613C166.566 66.5536 171.068 66.1694 171.068 62.9854C171.068 60.7347 169.421 59.4172 166.402 59.4172C163.108 59.4172 161.296 60.7347 161.187 63.8089ZM171.068 69.1886C169.805 70.3414 167.225 70.9453 165.029 71.4942C162.559 72.0981 160.473 73.3607 160.473 75.8859C160.473 78.0817 162.01 79.4541 164.48 79.4541C169.695 79.4541 171.068 73.4156 171.068 69.1886Z" fill="#1736D2"/>
<path d="M122.651 83.573L132.917 55.0273H141.59L151.856 83.573H143.621L137.034 63.3166L130.447 83.573H122.651Z" fill="#1736D2"/>
<path d="M120.72 55.0273V83.573H113.309V78.9069H113.035C113.035 78.9069 110.564 84.3964 104.251 84.3964C96.2915 84.3964 94.0957 79.1814 94.0957 72.5939V55.0273H101.781V70.947C101.781 75.8876 103.153 78.0834 106.722 78.0834C110.839 78.0834 113.035 75.6132 113.035 69.8491V55.0273H120.72Z" fill="#1736D2"/>
<path d="M91.3683 55.0273V83.573H84.2319V63.5361H83.9574L77.6445 83.573H70.508L64.1951 63.5361H63.9206V83.573H56.7842V55.0273H68.3122L74.0763 74.7897L79.8403 55.0273H91.3683Z" fill="#1736D2"/>
<path d="M36.4932 63.8089H28.8078C29.247 56.5078 35.1208 54.2021 41.7082 54.2021C48.5702 54.2021 54.0597 56.6724 54.0597 64.0833V83.5712H46.3744V78.0817H46.0999C46.0999 78.0817 44.3432 84.3947 37.0421 84.3947C31.8271 84.3947 27.9844 81.9793 27.9844 76.7093C27.9844 71.3844 32.376 68.969 37.097 67.7613C41.8729 66.5536 46.3744 66.1694 46.3744 62.9854C46.3744 60.7347 44.7275 59.4172 41.7082 59.4172C38.4145 59.4172 36.603 60.7347 36.4932 63.8089ZM46.3744 69.1886C45.1118 70.3414 42.5317 70.9453 40.3359 71.4942C37.8656 72.0981 35.7795 73.3607 35.7795 75.8859C35.7795 78.0817 37.3166 79.4541 39.7869 79.4541C45.002 79.4541 46.3744 73.4156 46.3744 69.1886Z" fill="#1736D2"/>
<path d="M0.548828 83.573V55.0273H8.23419V66.5554L18.3899 55.0273H27.4476L16.6881 66.1711L27.9966 83.573H18.6094L11.3632 71.6607L8.23419 74.8995V83.573H0.548828Z" fill="#1736D2"/>
<path d="M261.322 26.4022C261.322 23.9868 263.299 22.0105 265.714 22.0105C268.129 22.0105 270.106 23.9868 270.106 26.4022C270.106 28.8176 268.129 30.7938 265.714 30.7938C263.299 30.7938 261.322 28.8176 261.322 26.4022ZM261.322 6.09086C261.322 3.67545 263.299 1.69922 265.714 1.69922C268.129 1.69922 270.106 3.67545 270.106 6.09086C270.106 8.50626 268.129 10.4825 265.714 10.4825C263.299 10.4825 261.322 8.50626 261.322 6.09086Z" fill="#1736D2"/>
<path d="M224.525 30.2449V1.69922H232.211V12.1294H235.504C243.464 12.1294 247.856 15.6976 247.856 21.1871C247.856 26.6767 243.464 30.2449 235.504 30.2449H224.525ZM234.407 17.6189H232.211V24.7553H234.407C238.524 24.7553 240.171 23.6574 240.171 21.1871C240.171 18.7168 238.524 17.6189 234.407 17.6189ZM257.737 1.69922V30.2449H250.052V1.69922H257.737Z" fill="#1736D2"/>
<path d="M193.218 40.1263V1.69941H200.629V5.5421H200.903C200.903 5.5421 203.373 0.875977 209.686 0.875977C217.921 0.875977 222.038 8.01239 222.038 15.9722C222.038 23.9321 217.921 31.0685 209.686 31.0685C203.648 31.0685 201.178 27.2258 201.178 27.2258H200.903V40.1263H193.218ZM200.629 15.9722C200.629 21.1324 202.824 25.3045 207.491 25.3045C212.157 25.3045 214.353 21.1324 214.353 15.9722C214.353 10.8121 212.157 6.64001 207.491 6.64001C202.824 6.64001 200.629 10.8121 200.629 15.9722Z" fill="#1736D2"/>
<path d="M169.322 15.9722C169.322 21.1324 171.298 25.3045 176.184 25.3045C181.07 25.3045 183.046 21.1324 183.046 15.9722C183.046 10.8121 181.07 6.64001 176.184 6.64001C171.298 6.64001 169.322 10.8121 169.322 15.9722ZM161.637 15.9722C161.637 7.62812 166.797 0.875977 176.184 0.875977C185.571 0.875977 190.731 7.62812 190.731 15.9722C190.731 24.3163 185.571 31.0685 176.184 31.0685C166.797 31.0685 161.637 24.3163 161.637 15.9722Z" fill="#1736D2"/>
<path d="M134.748 30.2451V14.3254C134.748 9.38478 133.76 7.18896 130.741 7.18896C127.447 7.18896 125.69 9.65925 125.69 15.4233V30.2451H118.005V1.69941H125.416V6.36552H125.69C125.69 6.36552 127.612 0.875977 133.376 0.875977C137.987 0.875977 140.457 3.07179 141.555 6.42042L141.61 6.36552H141.884C141.884 6.36552 144.355 0.875977 150.119 0.875977C157.255 0.875977 159.176 6.09105 159.176 12.6785V30.2451H151.491V14.3254C151.491 9.38478 150.503 7.18896 147.484 7.18896C144.19 7.18896 142.433 9.65925 142.433 15.4233V30.2451H134.748Z" fill="#1736D2"/>
<path d="M97.7139 10.4827H90.0285C90.4677 3.18159 96.3415 0.875977 102.929 0.875977C109.791 0.875977 115.28 3.34628 115.28 10.7572V30.2451H107.595V24.7555H107.321C107.321 24.7555 105.564 31.0685 98.2628 31.0685C93.0478 31.0685 89.2051 28.6531 89.2051 23.3831C89.2051 18.0583 93.5967 15.6429 98.3177 14.4352C103.094 13.2275 107.595 12.8432 107.595 9.65926C107.595 7.40854 105.948 6.09105 102.929 6.09105C99.6352 6.09105 97.8237 7.40854 97.7139 10.4827ZM107.595 15.8624C106.332 17.0152 103.752 17.6191 101.557 18.1681C99.0863 18.7719 97.0002 20.0345 97.0002 22.5597C97.0002 24.7555 98.5373 26.1279 101.008 26.1279C106.223 26.1279 107.595 20.0894 107.595 15.8624Z" fill="#1736D2"/>
<path d="M58.7139 40.1263V1.69941H66.1248V5.5421H66.3992C66.3992 5.5421 68.8695 0.875977 75.1825 0.875977C83.4168 0.875977 87.534 8.01239 87.534 15.9722C87.534 23.9321 83.4168 31.0685 75.1825 31.0685C69.144 31.0685 66.6737 27.2258 66.6737 27.2258H66.3992V40.1263H58.7139ZM66.1248 15.9722C66.1248 21.1324 68.3206 25.3045 72.9867 25.3045C77.6528 25.3045 79.8486 21.1324 79.8486 15.9722C79.8486 10.8121 77.6528 6.64001 72.9867 6.64001C68.3206 6.64001 66.1248 10.8121 66.1248 15.9722Z" fill="#1736D2"/>
<path d="M56.8046 1.69922L46.6489 31.0683C44.3982 37.6009 41.4338 40.9495 35.6698 40.9495C32.925 40.9495 30.7292 40.1261 30.7292 40.1261V33.8131C30.7292 33.8131 32.3761 34.362 34.2974 34.362C37.0422 34.362 38.1401 32.8798 39.238 30.2449L27.71 1.69922H35.9443L42.916 20.5284L48.5702 1.69922H56.8046Z" fill="#1736D2"/>
<path d="M0.548828 30.2449V1.69922H8.23419V13.2273L18.3899 1.69922H27.4476L16.6881 12.843L27.9966 30.2449H18.6094L11.3632 18.3325L8.23419 21.5714V30.2449H0.548828Z" fill="#1736D2"/>
</svg>
