<svg width="565" height="41" viewBox="0 0 565 41" fill="none" xmlns="http://www.w3.org/2000/svg">
<path d="M547.331 10.1555H539.646C540.085 2.85444 545.959 0.548828 552.546 0.548828C559.408 0.548828 564.898 3.01913 564.898 10.43V29.9179H557.212V24.4284H556.938C556.938 24.4284 555.181 30.7413 547.88 30.7413C542.665 30.7413 538.822 28.3259 538.822 23.056C538.822 17.7311 543.214 15.3157 547.935 14.108C552.711 12.9003 557.212 12.516 557.212 9.3321C557.212 7.08139 555.565 5.7639 552.546 5.7639C549.252 5.7639 547.441 7.08139 547.331 10.1555ZM557.212 15.5353C555.95 16.6881 553.37 17.2919 551.174 17.8409C548.703 18.4448 546.617 19.7074 546.617 22.2325C546.617 24.4284 548.154 25.8007 550.625 25.8007C555.84 25.8007 557.212 19.7622 557.212 15.5353Z" fill="white"/>
<path d="M512.209 29.9179V13.9982C512.209 9.05763 511.221 6.86181 508.202 6.86181C504.908 6.86181 503.151 9.3321 503.151 15.0961V29.9179H495.466V1.37226H502.877V6.03837H503.151C503.151 6.03837 505.073 0.548828 510.837 0.548828C515.448 0.548828 517.918 2.74465 519.016 6.09327L519.071 6.03837H519.345C519.345 6.03837 521.816 0.548828 527.58 0.548828C534.716 0.548828 536.637 5.7639 536.637 12.3514V29.9179H528.952V13.9982C528.952 9.05763 527.964 6.86181 524.945 6.86181C521.651 6.86181 519.894 9.3321 519.894 15.0961V29.9179H512.209Z" fill="white"/>
<path d="M468.303 29.9179V13.9982C468.303 9.05763 467.315 6.86181 464.295 6.86181C461.002 6.86181 459.245 9.3321 459.245 15.0961V29.9179H451.56V1.37226H458.97V6.03837H459.245C459.245 6.03837 461.166 0.548828 466.93 0.548828C471.542 0.548828 474.012 2.74465 475.11 6.09327L475.165 6.03837H475.439C475.439 6.03837 477.909 0.548828 483.673 0.548828C490.81 0.548828 492.731 5.7639 492.731 12.3514V29.9179H485.046V13.9982C485.046 9.05763 484.058 6.86181 481.038 6.86181C477.745 6.86181 475.988 9.3321 475.988 15.0961V29.9179H468.303Z" fill="white"/>
<path d="M421.104 15.6451C421.104 7.30097 425.989 0.548828 435.376 0.548828C444.763 0.548828 449.1 7.30097 449.1 15.6451C449.1 16.3038 449.045 17.292 449.045 17.292H428.844C429.173 21.6836 431.04 24.9773 435.651 24.9773C440.317 24.9773 441.14 20.5857 441.14 20.5857H448.826C448.826 20.5857 447.179 30.7413 435.376 30.7413C425.77 30.7413 421.104 23.9892 421.104 15.6451ZM435.376 6.31285C431.589 6.31285 429.722 8.83805 429.063 12.3514H441.195C440.701 8.83805 439.164 6.31285 435.376 6.31285Z" fill="white"/>
<path d="M392.196 29.9187L402.462 1.37305H411.135L421.401 29.9187H413.166L406.579 9.66226L399.991 29.9187H392.196Z" fill="white"/>
<path d="M371.053 15.6451C371.053 20.8053 373.029 24.9773 377.915 24.9773C382.8 24.9773 384.776 20.8053 384.776 15.6451C384.776 10.4849 382.8 6.31285 377.915 6.31285C373.029 6.31285 371.053 10.4849 371.053 15.6451ZM363.367 15.6451C363.367 7.30097 368.527 0.548828 377.915 0.548828C387.302 0.548828 392.462 7.30097 392.462 15.6451C392.462 23.9892 387.302 30.7413 377.915 30.7413C368.527 30.7413 363.367 23.9892 363.367 15.6451Z" fill="white"/>
<path d="M360.888 1.37305V29.9187H353.477V25.2526H353.203C353.203 25.2526 350.732 30.7421 344.419 30.7421C336.459 30.7421 334.264 25.5271 334.264 18.9396V1.37305H341.949V17.2927C341.949 22.2333 343.321 24.4291 346.89 24.4291C351.007 24.4291 353.203 21.9589 353.203 16.1948V1.37305H360.888Z" fill="white"/>
<path d="M306.28 29.9187V1.37305H320.004C327.415 1.37305 331.258 3.84334 331.258 9.05841C331.258 13.7245 326.866 14.8224 326.866 14.8224V15.0969C326.866 15.0969 332.081 16.1948 332.081 21.6844C332.081 27.1739 328.513 29.9187 320.828 29.9187H306.28ZM320.004 17.8417H313.966V24.4291H320.553C323.023 24.4291 324.396 23.3312 324.396 21.1354C324.396 18.9396 322.749 17.8417 320.004 17.8417ZM313.966 12.9011H319.455C322.2 12.9011 323.572 11.8032 323.572 9.88185C323.572 7.96051 322.474 6.8626 320.004 6.8626H313.966V12.9011Z" fill="white"/>
<path d="M272.801 10.1555H265.115C265.555 2.85444 271.428 0.548828 278.016 0.548828C284.878 0.548828 290.367 3.01913 290.367 10.43V29.9179H282.682V24.4284H282.408C282.408 24.4284 280.651 30.7413 273.35 30.7413C268.135 30.7413 264.292 28.3259 264.292 23.056C264.292 17.7311 268.684 15.3157 273.405 14.108C278.181 12.9003 282.682 12.516 282.682 9.3321C282.682 7.08139 281.035 5.7639 278.016 5.7639C274.722 5.7639 272.911 7.08139 272.801 10.1555ZM282.682 15.5353C281.419 16.6881 278.839 17.2919 276.643 17.8409C274.173 18.4448 272.087 19.7074 272.087 22.2325C272.087 24.4284 273.624 25.8007 276.095 25.8007C281.31 25.8007 282.682 19.7622 282.682 15.5353Z" fill="white"/>
<path d="M236.856 29.9187V1.37305H250.58C257.991 1.37305 261.834 3.84334 261.834 9.05841C261.834 13.7245 257.442 14.8224 257.442 14.8224V15.0969C257.442 15.0969 262.657 16.1948 262.657 21.6844C262.657 27.1739 259.089 29.9187 251.404 29.9187H236.856ZM250.58 17.8417H244.542V24.4291H251.129C253.6 24.4291 254.972 23.3312 254.972 21.1354C254.972 18.9396 253.325 17.8417 250.58 17.8417ZM244.542 12.9011H250.031C252.776 12.9011 254.149 11.8032 254.149 9.88185C254.149 7.96051 253.051 6.8626 250.58 6.8626H244.542V12.9011Z" fill="white"/>
<path d="M206.4 15.6451C206.4 7.30097 211.286 0.548828 220.673 0.548828C230.06 0.548828 234.397 7.30097 234.397 15.6451C234.397 16.3038 234.342 17.292 234.342 17.292H214.141C214.47 21.6836 216.336 24.9773 220.948 24.9773C225.614 24.9773 226.437 20.5857 226.437 20.5857H234.123C234.123 20.5857 232.476 30.7413 220.673 30.7413C211.067 30.7413 206.4 23.9892 206.4 15.6451ZM220.673 6.31285C216.885 6.31285 215.019 8.83805 214.36 12.3514H226.492C225.998 8.83805 224.461 6.31285 220.673 6.31285Z" fill="white"/>
<path d="M205.566 20.0375V37.0551H203.37V20.0375H205.566ZM201.723 1.37305V29.9187H194.312V25.2526H194.038C194.038 25.2526 191.567 30.7421 185.254 30.7421C177.294 30.7421 175.099 25.5271 175.099 18.9396V1.37305H182.784V17.2927C182.784 22.2333 184.156 24.4291 187.725 24.4291C191.842 24.4291 194.038 21.9589 194.038 16.1948V1.37305H201.723Z" fill="white"/>
<path d="M147.115 29.9187V1.37305H160.839C168.25 1.37305 172.093 3.84334 172.093 9.05841C172.093 13.7245 167.701 14.8224 167.701 14.8224V15.0969C167.701 15.0969 172.916 16.1948 172.916 21.6844C172.916 27.1739 169.348 29.9187 161.663 29.9187H147.115ZM160.839 17.8417H154.801V24.4291H161.388C163.858 24.4291 165.231 23.3312 165.231 21.1354C165.231 18.9396 163.584 17.8417 160.839 17.8417ZM154.801 12.9011H160.29C163.035 12.9011 164.407 11.8032 164.407 9.88185C164.407 7.96051 163.309 6.8626 160.839 6.8626H154.801V12.9011Z" fill="white"/>
<path d="M144.39 1.37305V29.9187H136.705V19.4886H131.215L126.659 29.9187H118.04L123.859 18.1162C120.565 16.5791 118.863 13.8892 118.863 10.4308C118.863 4.94125 123.255 1.37305 131.215 1.37305H144.39ZM132.313 13.999H136.705V6.8626H132.313C128.196 6.8626 126.549 7.96051 126.549 10.4308C126.549 12.9011 128.196 13.999 132.313 13.999Z" fill="white"/>
<path d="M88.0918 39.7991V1.37226H95.5027V5.21494H95.7772C95.7772 5.21494 98.2475 0.548828 104.56 0.548828C112.795 0.548828 116.912 7.68524 116.912 15.6451C116.912 23.6049 112.795 30.7413 104.56 30.7413C98.5219 30.7413 96.0516 26.8987 96.0516 26.8987H95.7772V39.7991H88.0918ZM95.5027 15.6451C95.5027 20.8053 97.6985 24.9773 102.365 24.9773C107.031 24.9773 109.227 20.8053 109.227 15.6451C109.227 10.4849 107.031 6.31285 102.365 6.31285C97.6985 6.31285 95.5027 10.4849 95.5027 15.6451Z" fill="white"/>
<path d="M85.3299 1.37226V26.6242C85.3299 34.8585 80.9383 40.6225 71.0571 40.6225C57.8822 40.6225 57.6077 30.7413 57.6077 30.7413H65.293C65.293 30.7413 65.5675 34.8585 71.0571 34.8585C75.9428 34.8585 77.6445 32.1137 77.6445 27.1731V25.8007H77.37C77.37 25.8007 74.8998 29.6434 68.8612 29.6434C60.6269 29.6434 56.5098 22.507 56.5098 15.0961C56.5098 7.68524 60.6269 0.548828 68.8612 0.548828C75.1742 0.548828 77.6445 5.21494 77.6445 5.21494H77.919V1.37226H85.3299ZM77.919 15.0961C77.919 10.4849 75.7232 6.31285 71.0571 6.31285C66.391 6.31285 64.1951 10.4849 64.1951 15.0961C64.1951 19.7073 66.391 23.8794 71.0571 23.8794C75.7232 23.8794 77.919 19.7073 77.919 15.0961Z" fill="white"/>
<path d="M56.8046 1.37305L46.6489 30.7421C44.3982 37.2747 41.4338 40.6233 35.6698 40.6233C32.925 40.6233 30.7292 39.7999 30.7292 39.7999V33.4869C30.7292 33.4869 32.3761 34.0359 34.2974 34.0359C37.0422 34.0359 38.1401 32.5537 39.238 29.9187L27.71 1.37305H35.9443L42.916 20.2022L48.5702 1.37305H56.8046Z" fill="white"/>
<path d="M0.548828 29.9187V1.37305H8.23419V12.9011L18.3899 1.37305H27.4476L16.6881 12.5168L27.9966 29.9187H18.6094L11.3632 18.0064L8.23419 21.2452V29.9187H0.548828Z" fill="white"/>
</svg>
