<svg width="232" height="56" viewBox="0 0 232 56" fill="none" xmlns="http://www.w3.org/2000/svg">
<path d="M200.973 3.0998V0.299805H227.923V3.0998H200.973ZM231.423 6.5998V42.9998H221.973V37.0498H221.623C221.623 37.0498 218.473 44.0498 210.423 44.0498C200.273 44.0498 197.473 37.3998 197.473 28.9998V6.5998H207.273V26.8998C207.273 33.1998 209.023 35.9998 213.573 35.9998C218.823 35.9998 221.623 32.8498 221.623 25.4998V6.5998H231.423Z" fill="white"/>
<path d="M151.604 42.9996V6.59961H161.404V19.8996H165.604C175.754 19.8996 181.354 24.4496 181.354 31.4496C181.354 38.4496 175.754 42.9996 165.604 42.9996H151.604ZM164.204 26.8996H161.404V35.9996H164.204C169.454 35.9996 171.554 34.5996 171.554 31.4496C171.554 28.2996 169.454 26.8996 164.204 26.8996ZM193.954 6.59961V42.9996H184.154V6.59961H193.954Z" fill="white"/>
<path d="M115.92 42.9996V6.59961H133.42C142.87 6.59961 147.77 9.74961 147.77 16.3996C147.77 22.3496 142.17 23.7496 142.17 23.7496V24.0996C142.17 24.0996 148.82 25.4996 148.82 32.4996C148.82 39.4996 144.27 42.9996 134.47 42.9996H115.92ZM133.42 27.5996H125.72V35.9996H134.12C137.27 35.9996 139.02 34.5996 139.02 31.7996C139.02 28.9996 136.92 27.5996 133.42 27.5996ZM125.72 21.2996H132.72C136.22 21.2996 137.97 19.8996 137.97 17.4496C137.97 14.9996 136.57 13.5996 133.42 13.5996H125.72V21.2996Z" fill="white"/>
<path d="M75.998 55.5998V6.5998H85.4481V11.4998H85.798C85.798 11.4998 88.948 5.5498 96.998 5.5498C107.498 5.5498 112.748 14.6498 112.748 24.7998C112.748 34.9498 107.498 44.0498 96.998 44.0498C89.298 44.0498 86.148 39.1498 86.148 39.1498H85.798V55.5998H75.998ZM85.4481 24.7998C85.4481 31.3798 88.2481 36.6998 94.1981 36.6998C100.148 36.6998 102.948 31.3798 102.948 24.7998C102.948 18.2198 100.148 12.8998 94.1981 12.8998C88.2481 12.8998 85.4481 18.2198 85.4481 24.7998Z" fill="white"/>
<path d="M37.1621 24.7998C37.1621 14.1598 43.3921 5.5498 55.3621 5.5498C67.3321 5.5498 72.8621 14.1598 72.8621 24.7998C72.8621 25.6398 72.7921 26.8998 72.7921 26.8998H47.0321C47.4521 32.4998 49.8321 36.6998 55.7121 36.6998C61.6621 36.6998 62.7121 31.0998 62.7121 31.0998H72.5121C72.5121 31.0998 70.4121 44.0498 55.3621 44.0498C43.1121 44.0498 37.1621 35.4398 37.1621 24.7998ZM55.3621 12.8998C50.5321 12.8998 48.1521 16.1198 47.3121 20.5998H62.7821C62.1521 16.1198 60.1921 12.8998 55.3621 12.8998Z" fill="white"/>
<path d="M0.0507812 42.9998V6.5998H9.50079V12.5498H9.85077C9.85077 12.5498 13.0008 5.5498 21.0508 5.5498C31.2008 5.5498 34.0008 12.1998 34.0008 20.5998V42.9998H24.2008V22.6998C24.2008 16.3998 22.4508 13.5998 17.9008 13.5998C12.6508 13.5998 9.85077 16.7498 9.85077 24.0998V42.9998H0.0507812Z" fill="white"/>
</svg>
