<svg width="565" height="191" viewBox="0 0 565 191" fill="none" xmlns="http://www.w3.org/2000/svg">
<path d="M317.081 170.136H309.396C309.835 162.835 315.709 160.529 322.296 160.529C329.158 160.529 334.648 163 334.648 170.41V189.898H326.962V184.409H326.688C326.688 184.409 324.931 190.722 317.63 190.722C312.415 190.722 308.572 188.306 308.572 183.036C308.572 177.712 312.964 175.296 317.685 174.088C322.461 172.881 326.962 172.497 326.962 169.313C326.962 167.062 325.315 165.744 322.296 165.744C319.002 165.744 317.191 167.062 317.081 170.136ZM326.962 175.516C325.7 176.669 323.12 177.272 320.924 177.821C318.453 178.425 316.367 179.688 316.367 182.213C316.367 184.409 317.905 185.781 320.375 185.781C325.59 185.781 326.962 179.743 326.962 175.516Z" fill="white"/>
<path d="M281.138 189.899V161.354H294.862C302.272 161.354 306.115 163.824 306.115 169.039C306.115 173.705 301.723 174.803 301.723 174.803V175.077C301.723 175.077 306.939 176.175 306.939 181.665C306.939 187.154 303.37 189.899 295.685 189.899H281.138ZM294.862 177.822H288.823V184.41H295.411C297.881 184.41 299.253 183.312 299.253 181.116C299.253 178.92 297.606 177.822 294.862 177.822ZM288.823 172.882H294.313C297.057 172.882 298.43 171.784 298.43 169.862C298.43 167.941 297.332 166.843 294.862 166.843H288.823V172.882Z" fill="white"/>
<path d="M257.241 175.626C257.241 180.786 259.217 184.958 264.103 184.958C268.989 184.958 270.965 180.786 270.965 175.626C270.965 170.465 268.989 166.293 264.103 166.293C259.217 166.293 257.241 170.465 257.241 175.626ZM249.556 175.626C249.556 167.281 254.716 160.529 264.103 160.529C273.49 160.529 278.65 167.281 278.65 175.626C278.65 183.97 273.49 190.722 264.103 190.722C254.716 190.722 249.556 183.97 249.556 175.626Z" fill="white"/>
<path d="M223.187 189.899V161.354H230.872V172.882L241.028 161.354H250.085L239.326 172.497L250.634 189.899H241.247L234.001 177.987L230.872 181.226V189.899H223.187Z" fill="white"/>
<path d="M220.458 161.354V189.899H213.322V169.862H213.047L206.734 189.899H199.598L193.285 169.862H193.01V189.899H185.874V161.354H197.402L203.166 181.116L208.93 161.354H220.458Z" fill="white"/>
<path d="M161.977 175.626C161.977 180.786 163.954 184.958 168.839 184.958C173.725 184.958 175.701 180.786 175.701 175.626C175.701 170.465 173.725 166.293 168.839 166.293C163.954 166.293 161.977 170.465 161.977 175.626ZM154.292 175.626C154.292 167.281 159.452 160.529 168.839 160.529C178.226 160.529 183.387 167.281 183.387 175.626C183.387 183.97 178.226 190.722 168.839 190.722C159.452 190.722 154.292 183.97 154.292 175.626Z" fill="white"/>
<path d="M127.923 189.899V161.354H135.608V172.882L145.764 161.354H154.822L144.062 172.497L155.371 189.899H145.983L138.737 177.987L135.608 181.226V189.899H127.923Z" fill="white"/>
<path d="M94.4443 170.136H86.759C87.1981 162.835 93.072 160.529 99.6594 160.529C106.521 160.529 112.011 163 112.011 170.41V189.898H104.326V184.409H104.051C104.051 184.409 102.294 190.722 94.9933 190.722C89.7782 190.722 85.9355 188.306 85.9355 183.036C85.9355 177.712 90.3272 175.296 95.0482 174.088C99.8241 172.881 104.326 172.497 104.326 169.313C104.326 167.062 102.679 165.744 99.6594 165.744C96.3657 165.744 94.5541 167.062 94.4443 170.136ZM104.326 175.516C103.063 176.669 100.483 177.272 98.287 177.821C95.8167 178.425 93.7307 179.688 93.7307 182.213C93.7307 184.409 95.2678 185.781 97.7381 185.781C102.953 185.781 104.326 179.743 104.326 175.516Z" fill="white"/>
<path d="M76.0316 189.899V178.646H65.327V189.899H57.6416V161.354H65.327V172.607H76.0316V161.354H83.717V189.899H76.0316Z" fill="white"/>
<path d="M47.1898 189.899V178.646H36.4852V189.899H28.7998V161.354H36.4852V172.607H47.1898V161.354H54.8752V189.899H47.1898Z" fill="white"/>
<path d="M8.5088 170.136H0.823432C1.2626 162.835 7.13641 160.529 13.7239 160.529C20.5858 160.529 26.0754 163 26.0754 170.41V189.898H18.39V184.409H18.1155C18.1155 184.409 16.3589 190.722 9.05775 190.722C3.84268 190.722 0 188.306 0 183.036C0 177.712 4.39164 175.296 9.11265 174.088C13.8886 172.881 18.39 172.497 18.39 169.313C18.39 167.062 16.7431 165.744 13.7239 165.744C10.4301 165.744 8.61859 167.062 8.5088 170.136ZM18.39 175.516C17.1274 176.669 14.5473 177.272 12.3515 177.821C9.88119 178.425 7.79516 179.688 7.79516 182.213C7.79516 184.409 9.33223 185.781 11.8025 185.781C17.0176 185.781 18.39 179.743 18.39 175.516Z" fill="white"/>
<path d="M360.746 146.452V108.026H368.157V111.868H368.431C368.431 111.868 370.902 107.202 377.215 107.202C385.449 107.202 389.566 114.339 389.566 122.298C389.566 130.258 385.449 137.395 377.215 137.395C371.176 137.395 368.706 133.552 368.706 133.552H368.431V146.452H360.746ZM368.157 122.298C368.157 127.459 370.353 131.631 375.019 131.631C379.685 131.631 381.881 127.459 381.881 122.298C381.881 117.138 379.685 112.966 375.019 112.966C370.353 112.966 368.157 117.138 368.157 122.298Z" fill="white"/>
<path d="M330.29 122.298C330.29 113.954 335.176 107.202 344.563 107.202C353.95 107.202 358.287 113.954 358.287 122.298C358.287 122.957 358.232 123.945 358.232 123.945H338.03C338.36 128.337 340.226 131.631 344.837 131.631C349.503 131.631 350.327 127.239 350.327 127.239H358.012C358.012 127.239 356.365 137.395 344.563 137.395C334.956 137.395 330.29 130.643 330.29 122.298ZM344.563 112.966C340.775 112.966 338.909 115.491 338.25 119.005H350.382C349.888 115.491 348.351 112.966 344.563 112.966Z" fill="white"/>
<path d="M303.401 136.571V120.652C303.401 115.711 302.413 113.515 299.394 113.515C296.1 113.515 294.344 115.985 294.344 121.749V136.571H286.658V108.026H294.069V112.692H294.344C294.344 112.692 296.265 107.202 302.029 107.202C306.64 107.202 309.11 109.398 310.208 112.747L310.263 112.692H310.538C310.538 112.692 313.008 107.202 318.772 107.202C325.908 107.202 327.83 112.417 327.83 119.005V136.571H320.144V120.652C320.144 115.711 319.156 113.515 316.137 113.515C312.843 113.515 311.087 115.985 311.087 121.749V136.571H303.401Z" fill="white"/>
<path d="M264.41 108.027L269.626 116.262L274.841 108.027H283.898L274.017 121.751L284.722 136.573H275.664L269.626 127.241L263.587 136.573H254.529L265.234 121.751L255.353 108.027H264.41Z" fill="white"/>
<path d="M252.598 108.027V136.573H245.187V131.907H244.913C244.913 131.907 242.442 137.396 236.129 137.396C228.169 137.396 225.974 132.181 225.974 125.594V108.027H233.659V123.947C233.659 128.888 235.031 131.083 238.6 131.083C242.717 131.083 244.913 128.613 244.913 122.849V108.027H252.598Z" fill="white"/>
<path d="M194.666 146.452V108.026H202.077V111.868H202.351C202.351 111.868 204.822 107.202 211.135 107.202C219.369 107.202 223.486 114.339 223.486 122.298C223.486 130.258 219.369 137.395 211.135 137.395C205.096 137.395 202.626 133.552 202.626 133.552H202.351V146.452H194.666ZM202.077 122.298C202.077 127.459 204.273 131.631 208.939 131.631C213.605 131.631 215.801 127.459 215.801 122.298C215.801 117.138 213.605 112.966 208.939 112.966C204.273 112.966 202.077 117.138 202.077 122.298Z" fill="white"/>
<path d="M161.187 116.809H153.501C153.94 109.508 159.814 107.202 166.402 107.202C173.264 107.202 178.753 109.672 178.753 117.083V136.571H171.068V131.082H170.793C170.793 131.082 169.037 137.395 161.735 137.395C156.52 137.395 152.678 134.979 152.678 129.709C152.678 124.384 157.069 121.969 161.79 120.761C166.566 119.554 171.068 119.169 171.068 115.985C171.068 113.735 169.421 112.417 166.402 112.417C163.108 112.417 161.296 113.735 161.187 116.809ZM171.068 122.189C169.805 123.341 167.225 123.945 165.029 124.494C162.559 125.098 160.473 126.361 160.473 128.886C160.473 131.082 162.01 132.454 164.48 132.454C169.695 132.454 171.068 126.416 171.068 122.189Z" fill="white"/>
<path d="M122.651 136.573L132.917 108.027H141.59L151.856 136.573H143.621L137.034 116.317L130.447 136.573H122.651Z" fill="white"/>
<path d="M120.72 108.027V136.573H113.309V131.907H113.035C113.035 131.907 110.564 137.396 104.251 137.396C96.2915 137.396 94.0957 132.181 94.0957 125.594V108.027H101.781V123.947C101.781 128.888 103.153 131.083 106.722 131.083C110.839 131.083 113.035 128.613 113.035 122.849V108.027H120.72Z" fill="white"/>
<path d="M91.3683 108.027V136.573H84.2319V116.536H83.9574L77.6445 136.573H70.508L64.1951 116.536H63.9206V136.573H56.7842V108.027H68.3122L74.0763 127.79L79.8403 108.027H91.3683Z" fill="white"/>
<path d="M36.4932 116.809H28.8078C29.247 109.508 35.1208 107.202 41.7082 107.202C48.5702 107.202 54.0597 109.672 54.0597 117.083V136.571H46.3744V131.082H46.0999C46.0999 131.082 44.3432 137.395 37.0421 137.395C31.8271 137.395 27.9844 134.979 27.9844 129.709C27.9844 124.384 32.376 121.969 37.097 120.761C41.8729 119.554 46.3744 119.169 46.3744 115.985C46.3744 113.735 44.7275 112.417 41.7082 112.417C38.4145 112.417 36.603 113.735 36.4932 116.809ZM46.3744 122.189C45.1118 123.341 42.5317 123.945 40.3359 124.494C37.8656 125.098 35.7795 126.361 35.7795 128.886C35.7795 131.082 37.3166 132.454 39.7869 132.454C45.002 132.454 46.3744 126.416 46.3744 122.189Z" fill="white"/>
<path d="M0.548828 136.573V108.027H8.23419V119.555L18.3899 108.027H27.4476L16.6881 119.171L27.9966 136.573H18.6094L11.3632 124.661L8.23419 127.9V136.573H0.548828Z" fill="white"/>
<path d="M261.322 79.4022C261.322 76.9868 263.299 75.0105 265.714 75.0105C268.129 75.0105 270.106 76.9868 270.106 79.4022C270.106 81.8176 268.129 83.7938 265.714 83.7938C263.299 83.7938 261.322 81.8176 261.322 79.4022ZM261.322 59.0909C261.322 56.6755 263.299 54.6992 265.714 54.6992C268.129 54.6992 270.106 56.6755 270.106 59.0909C270.106 61.5063 268.129 63.4825 265.714 63.4825C263.299 63.4825 261.322 61.5063 261.322 59.0909Z" fill="white"/>
<path d="M224.525 83.2449V54.6992H232.211V65.1294H235.504C243.464 65.1294 247.856 68.6976 247.856 74.1871C247.856 79.6767 243.464 83.2449 235.504 83.2449H224.525ZM234.407 70.6189H232.211V77.7553H234.407C238.524 77.7553 240.171 76.6574 240.171 74.1871C240.171 71.7168 238.524 70.6189 234.407 70.6189ZM257.737 54.6992V83.2449H250.052V54.6992H257.737Z" fill="white"/>
<path d="M193.218 93.1263V54.6994H200.629V58.5421H200.903C200.903 58.5421 203.373 53.876 209.686 53.876C217.921 53.876 222.038 61.0124 222.038 68.9722C222.038 76.9321 217.921 84.0685 209.686 84.0685C203.648 84.0685 201.178 80.2258 201.178 80.2258H200.903V93.1263H193.218ZM200.629 68.9722C200.629 74.1324 202.824 78.3045 207.491 78.3045C212.157 78.3045 214.353 74.1324 214.353 68.9722C214.353 63.8121 212.157 59.64 207.491 59.64C202.824 59.64 200.629 63.8121 200.629 68.9722Z" fill="white"/>
<path d="M169.322 68.9722C169.322 74.1324 171.298 78.3045 176.184 78.3045C181.07 78.3045 183.046 74.1324 183.046 68.9722C183.046 63.8121 181.07 59.64 176.184 59.64C171.298 59.64 169.322 63.8121 169.322 68.9722ZM161.637 68.9722C161.637 60.6281 166.797 53.876 176.184 53.876C185.571 53.876 190.731 60.6281 190.731 68.9722C190.731 77.3163 185.571 84.0685 176.184 84.0685C166.797 84.0685 161.637 77.3163 161.637 68.9722Z" fill="white"/>
<path d="M134.748 83.2451V67.3254C134.748 62.3848 133.76 60.189 130.741 60.189C127.447 60.189 125.69 62.6593 125.69 68.4233V83.2451H118.005V54.6994H125.416V59.3655H125.69C125.69 59.3655 127.612 53.876 133.376 53.876C137.987 53.876 140.457 56.0718 141.555 59.4204L141.61 59.3655H141.884C141.884 59.3655 144.355 53.876 150.119 53.876C157.255 53.876 159.176 59.091 159.176 65.6785V83.2451H151.491V67.3254C151.491 62.3848 150.503 60.189 147.484 60.189C144.19 60.189 142.433 62.6593 142.433 68.4233V83.2451H134.748Z" fill="white"/>
<path d="M97.7139 63.4827H90.0285C90.4677 56.1816 96.3415 53.876 102.929 53.876C109.791 53.876 115.28 56.3463 115.28 63.7572V83.2451H107.595V77.7555H107.321C107.321 77.7555 105.564 84.0685 98.2628 84.0685C93.0478 84.0685 89.2051 81.6531 89.2051 76.3831C89.2051 71.0583 93.5967 68.6429 98.3177 67.4352C103.094 66.2275 107.595 65.8432 107.595 62.6593C107.595 60.4085 105.948 59.091 102.929 59.091C99.6352 59.091 97.8237 60.4085 97.7139 63.4827ZM107.595 68.8624C106.332 70.0152 103.752 70.6191 101.557 71.1681C99.0863 71.7719 97.0002 73.0345 97.0002 75.5597C97.0002 77.7555 98.5373 79.1279 101.008 79.1279C106.223 79.1279 107.595 73.0894 107.595 68.8624Z" fill="white"/>
<path d="M58.7139 93.1263V54.6994H66.1248V58.5421H66.3992C66.3992 58.5421 68.8695 53.876 75.1825 53.876C83.4168 53.876 87.534 61.0124 87.534 68.9722C87.534 76.9321 83.4168 84.0685 75.1825 84.0685C69.144 84.0685 66.6737 80.2258 66.6737 80.2258H66.3992V93.1263H58.7139ZM66.1248 68.9722C66.1248 74.1324 68.3206 78.3045 72.9867 78.3045C77.6528 78.3045 79.8486 74.1324 79.8486 68.9722C79.8486 63.8121 77.6528 59.64 72.9867 59.64C68.3206 59.64 66.1248 63.8121 66.1248 68.9722Z" fill="white"/>
<path d="M56.8046 54.6992L46.6489 84.0683C44.3982 90.6009 41.4338 93.9495 35.6698 93.9495C32.925 93.9495 30.7292 93.1261 30.7292 93.1261V86.8131C30.7292 86.8131 32.3761 87.362 34.2974 87.362C37.0422 87.362 38.1401 85.8798 39.238 83.2449L27.71 54.6992H35.9443L42.916 73.5284L48.5702 54.6992H56.8046Z" fill="white"/>
<path d="M0.548828 83.2449V54.6992H8.23419V66.2273L18.3899 54.6992H27.4476L16.6881 65.843L27.9966 83.2449H18.6094L11.3632 71.3325L8.23419 74.5714V83.2449H0.548828Z" fill="white"/>
<path d="M547.331 10.1555H539.646C540.085 2.85444 545.959 0.548828 552.546 0.548828C559.408 0.548828 564.898 3.01913 564.898 10.43V29.9179H557.212V24.4284H556.938C556.938 24.4284 555.181 30.7413 547.88 30.7413C542.665 30.7413 538.822 28.3259 538.822 23.056C538.822 17.7311 543.214 15.3157 547.935 14.108C552.711 12.9003 557.212 12.516 557.212 9.3321C557.212 7.08139 555.565 5.7639 552.546 5.7639C549.252 5.7639 547.441 7.08139 547.331 10.1555ZM557.212 15.5353C555.95 16.6881 553.37 17.2919 551.174 17.8409C548.703 18.4448 546.617 19.7074 546.617 22.2325C546.617 24.4284 548.154 25.8007 550.625 25.8007C555.84 25.8007 557.212 19.7622 557.212 15.5353Z" fill="#1736D2"/>
<path d="M512.209 29.9179V13.9982C512.209 9.05763 511.221 6.86181 508.202 6.86181C504.908 6.86181 503.151 9.3321 503.151 15.0961V29.9179H495.466V1.37226H502.877V6.03837H503.151C503.151 6.03837 505.073 0.548828 510.837 0.548828C515.448 0.548828 517.918 2.74465 519.016 6.09327L519.071 6.03837H519.345C519.345 6.03837 521.816 0.548828 527.58 0.548828C534.716 0.548828 536.637 5.7639 536.637 12.3514V29.9179H528.952V13.9982C528.952 9.05763 527.964 6.86181 524.945 6.86181C521.651 6.86181 519.894 9.3321 519.894 15.0961V29.9179H512.209Z" fill="#1736D2"/>
<path d="M468.303 29.9179V13.9982C468.303 9.05763 467.315 6.86181 464.295 6.86181C461.002 6.86181 459.245 9.3321 459.245 15.0961V29.9179H451.56V1.37226H458.97V6.03837H459.245C459.245 6.03837 461.166 0.548828 466.93 0.548828C471.542 0.548828 474.012 2.74465 475.11 6.09327L475.165 6.03837H475.439C475.439 6.03837 477.909 0.548828 483.673 0.548828C490.81 0.548828 492.731 5.7639 492.731 12.3514V29.9179H485.046V13.9982C485.046 9.05763 484.058 6.86181 481.038 6.86181C477.745 6.86181 475.988 9.3321 475.988 15.0961V29.9179H468.303Z" fill="#1736D2"/>
<path d="M421.104 15.6451C421.104 7.30097 425.989 0.548828 435.376 0.548828C444.763 0.548828 449.1 7.30097 449.1 15.6451C449.1 16.3038 449.045 17.292 449.045 17.292H428.844C429.173 21.6836 431.04 24.9773 435.651 24.9773C440.317 24.9773 441.14 20.5857 441.14 20.5857H448.826C448.826 20.5857 447.179 30.7413 435.376 30.7413C425.77 30.7413 421.104 23.9892 421.104 15.6451ZM435.376 6.31285C431.589 6.31285 429.722 8.83805 429.063 12.3514H441.195C440.701 8.83805 439.164 6.31285 435.376 6.31285Z" fill="#1736D2"/>
<path d="M392.196 29.9187L402.462 1.37305H411.135L421.401 29.9187H413.166L406.579 9.66226L399.991 29.9187H392.196Z" fill="#1736D2"/>
<path d="M371.053 15.6451C371.053 20.8053 373.029 24.9773 377.915 24.9773C382.8 24.9773 384.776 20.8053 384.776 15.6451C384.776 10.4849 382.8 6.31285 377.915 6.31285C373.029 6.31285 371.053 10.4849 371.053 15.6451ZM363.367 15.6451C363.367 7.30097 368.527 0.548828 377.915 0.548828C387.302 0.548828 392.462 7.30097 392.462 15.6451C392.462 23.9892 387.302 30.7413 377.915 30.7413C368.527 30.7413 363.367 23.9892 363.367 15.6451Z" fill="#1736D2"/>
<path d="M360.888 1.37305V29.9187H353.477V25.2526H353.203C353.203 25.2526 350.732 30.7421 344.419 30.7421C336.459 30.7421 334.264 25.5271 334.264 18.9396V1.37305H341.949V17.2927C341.949 22.2333 343.321 24.4291 346.89 24.4291C351.007 24.4291 353.203 21.9589 353.203 16.1948V1.37305H360.888Z" fill="#1736D2"/>
<path d="M306.28 29.9187V1.37305H320.004C327.415 1.37305 331.258 3.84334 331.258 9.05841C331.258 13.7245 326.866 14.8224 326.866 14.8224V15.0969C326.866 15.0969 332.081 16.1948 332.081 21.6844C332.081 27.1739 328.513 29.9187 320.828 29.9187H306.28ZM320.004 17.8417H313.966V24.4291H320.553C323.023 24.4291 324.396 23.3312 324.396 21.1354C324.396 18.9396 322.749 17.8417 320.004 17.8417ZM313.966 12.9011H319.455C322.2 12.9011 323.572 11.8032 323.572 9.88185C323.572 7.96051 322.474 6.8626 320.004 6.8626H313.966V12.9011Z" fill="#1736D2"/>
<path d="M272.801 10.1555H265.115C265.555 2.85444 271.428 0.548828 278.016 0.548828C284.878 0.548828 290.367 3.01913 290.367 10.43V29.9179H282.682V24.4284H282.408C282.408 24.4284 280.651 30.7413 273.35 30.7413C268.135 30.7413 264.292 28.3259 264.292 23.056C264.292 17.7311 268.684 15.3157 273.405 14.108C278.181 12.9003 282.682 12.516 282.682 9.3321C282.682 7.08139 281.035 5.7639 278.016 5.7639C274.722 5.7639 272.911 7.08139 272.801 10.1555ZM282.682 15.5353C281.419 16.6881 278.839 17.2919 276.643 17.8409C274.173 18.4448 272.087 19.7074 272.087 22.2325C272.087 24.4284 273.624 25.8007 276.095 25.8007C281.31 25.8007 282.682 19.7622 282.682 15.5353Z" fill="#1736D2"/>
<path d="M236.856 29.9187V1.37305H250.58C257.991 1.37305 261.834 3.84334 261.834 9.05841C261.834 13.7245 257.442 14.8224 257.442 14.8224V15.0969C257.442 15.0969 262.657 16.1948 262.657 21.6844C262.657 27.1739 259.089 29.9187 251.404 29.9187H236.856ZM250.58 17.8417H244.542V24.4291H251.129C253.6 24.4291 254.972 23.3312 254.972 21.1354C254.972 18.9396 253.325 17.8417 250.58 17.8417ZM244.542 12.9011H250.031C252.776 12.9011 254.149 11.8032 254.149 9.88185C254.149 7.96051 253.051 6.8626 250.58 6.8626H244.542V12.9011Z" fill="#1736D2"/>
<path d="M206.4 15.6451C206.4 7.30097 211.286 0.548828 220.673 0.548828C230.06 0.548828 234.397 7.30097 234.397 15.6451C234.397 16.3038 234.342 17.292 234.342 17.292H214.141C214.47 21.6836 216.336 24.9773 220.948 24.9773C225.614 24.9773 226.437 20.5857 226.437 20.5857H234.123C234.123 20.5857 232.476 30.7413 220.673 30.7413C211.067 30.7413 206.4 23.9892 206.4 15.6451ZM220.673 6.31285C216.885 6.31285 215.019 8.83805 214.36 12.3514H226.492C225.998 8.83805 224.461 6.31285 220.673 6.31285Z" fill="#1736D2"/>
<path d="M205.566 20.0375V37.0551H203.37V20.0375H205.566ZM201.723 1.37305V29.9187H194.312V25.2526H194.038C194.038 25.2526 191.567 30.7421 185.254 30.7421C177.294 30.7421 175.099 25.5271 175.099 18.9396V1.37305H182.784V17.2927C182.784 22.2333 184.156 24.4291 187.725 24.4291C191.842 24.4291 194.038 21.9589 194.038 16.1948V1.37305H201.723Z" fill="#1736D2"/>
<path d="M147.115 29.9187V1.37305H160.839C168.25 1.37305 172.093 3.84334 172.093 9.05841C172.093 13.7245 167.701 14.8224 167.701 14.8224V15.0969C167.701 15.0969 172.916 16.1948 172.916 21.6844C172.916 27.1739 169.348 29.9187 161.663 29.9187H147.115ZM160.839 17.8417H154.801V24.4291H161.388C163.858 24.4291 165.231 23.3312 165.231 21.1354C165.231 18.9396 163.584 17.8417 160.839 17.8417ZM154.801 12.9011H160.29C163.035 12.9011 164.407 11.8032 164.407 9.88185C164.407 7.96051 163.309 6.8626 160.839 6.8626H154.801V12.9011Z" fill="#1736D2"/>
<path d="M144.39 1.37305V29.9187H136.705V19.4886H131.215L126.659 29.9187H118.04L123.859 18.1162C120.565 16.5791 118.863 13.8892 118.863 10.4308C118.863 4.94125 123.255 1.37305 131.215 1.37305H144.39ZM132.313 13.999H136.705V6.8626H132.313C128.196 6.8626 126.549 7.96051 126.549 10.4308C126.549 12.9011 128.196 13.999 132.313 13.999Z" fill="#1736D2"/>
<path d="M88.0918 39.7991V1.37226H95.5027V5.21494H95.7772C95.7772 5.21494 98.2475 0.548828 104.56 0.548828C112.795 0.548828 116.912 7.68524 116.912 15.6451C116.912 23.6049 112.795 30.7413 104.56 30.7413C98.5219 30.7413 96.0516 26.8987 96.0516 26.8987H95.7772V39.7991H88.0918ZM95.5027 15.6451C95.5027 20.8053 97.6985 24.9773 102.365 24.9773C107.031 24.9773 109.227 20.8053 109.227 15.6451C109.227 10.4849 107.031 6.31285 102.365 6.31285C97.6985 6.31285 95.5027 10.4849 95.5027 15.6451Z" fill="#1736D2"/>
<path d="M85.3299 1.37226V26.6242C85.3299 34.8585 80.9383 40.6225 71.0571 40.6225C57.8822 40.6225 57.6077 30.7413 57.6077 30.7413H65.293C65.293 30.7413 65.5675 34.8585 71.0571 34.8585C75.9428 34.8585 77.6445 32.1137 77.6445 27.1731V25.8007H77.37C77.37 25.8007 74.8998 29.6434 68.8612 29.6434C60.6269 29.6434 56.5098 22.507 56.5098 15.0961C56.5098 7.68524 60.6269 0.548828 68.8612 0.548828C75.1742 0.548828 77.6445 5.21494 77.6445 5.21494H77.919V1.37226H85.3299ZM77.919 15.0961C77.919 10.4849 75.7232 6.31285 71.0571 6.31285C66.391 6.31285 64.1951 10.4849 64.1951 15.0961C64.1951 19.7073 66.391 23.8794 71.0571 23.8794C75.7232 23.8794 77.919 19.7073 77.919 15.0961Z" fill="#1736D2"/>
<path d="M56.8046 1.37305L46.6489 30.7421C44.3982 37.2747 41.4338 40.6233 35.6698 40.6233C32.925 40.6233 30.7292 39.7999 30.7292 39.7999V33.4869C30.7292 33.4869 32.3761 34.0359 34.2974 34.0359C37.0422 34.0359 38.1401 32.5537 39.238 29.9187L27.71 1.37305H35.9443L42.916 20.2022L48.5702 1.37305H56.8046Z" fill="#1736D2"/>
<path d="M0.548828 29.9187V1.37305H8.23419V12.9011L18.3899 1.37305H27.4476L16.6881 12.5168L27.9966 29.9187H18.6094L11.3632 18.0064L8.23419 21.2452V29.9187H0.548828Z" fill="#1736D2"/>
</svg>
