<svg width="1190" height="144" viewBox="0 0 1190 144" fill="none" xmlns="http://www.w3.org/2000/svg">
<path d="M0.875 28.0752V9.87519H5.775V17.2252L12.25 9.87519H18.025L11.165 16.9802L18.375 28.0752H12.39L7.77 20.4802L5.775 22.5452V28.0752H0.875ZM36.7418 9.87519L30.2668 28.6002C28.8318 32.7652 26.9418 34.9002 23.2668 34.9002C21.5168 34.9002 20.1168 34.3752 20.1168 34.3752V30.3502C20.1168 30.3502 21.1668 30.7002 22.3918 30.7002C24.1418 30.7002 24.8418 29.7552 25.5418 28.0752L18.1918 9.87519H23.4418L27.8868 21.8802L31.4918 9.87519H36.7418ZM54.9295 9.87519V25.9752C54.9295 31.2252 52.1295 34.9002 45.8295 34.9002C37.4295 34.9002 37.2545 28.6002 37.2545 28.6002H42.1545C42.1545 28.6002 42.3295 31.2252 45.8295 31.2252C48.9445 31.2252 50.0295 29.4752 50.0295 26.3252V25.4502H49.8545C49.8545 25.4502 48.2795 27.9002 44.4295 27.9002C39.1795 27.9002 36.5545 23.3502 36.5545 18.6252C36.5545 13.9002 39.1795 9.35019 44.4295 9.35019C48.4545 9.35019 50.0295 12.3252 50.0295 12.3252H50.2045V9.87519H54.9295ZM50.2045 18.6252C50.2045 15.6852 48.8045 13.0252 45.8295 13.0252C42.8545 13.0252 41.4545 15.6852 41.4545 18.6252C41.4545 21.5652 42.8545 24.2252 45.8295 24.2252C48.8045 24.2252 50.2045 21.5652 50.2045 18.6252ZM56.6904 34.3752V9.87519H61.4154V12.3252H61.5904C61.5904 12.3252 63.1654 9.35019 67.1904 9.35019C72.4404 9.35019 75.0654 13.9002 75.0654 18.9752C75.0654 24.0502 72.4404 28.6002 67.1904 28.6002C63.3404 28.6002 61.7654 26.1502 61.7654 26.1502H61.5904V34.3752H56.6904ZM61.4154 18.9752C61.4154 22.2652 62.8154 24.9252 65.7904 24.9252C68.7654 24.9252 70.1654 22.2652 70.1654 18.9752C70.1654 15.6852 68.7654 13.0252 65.7904 13.0252C62.8154 13.0252 61.4154 15.6852 61.4154 18.9752ZM92.5846 9.87519V28.0752H87.6846V21.4252H84.1846L81.2796 28.0752H75.7846L79.4946 20.5502C77.3946 19.5702 76.3096 17.8552 76.3096 15.6502C76.3096 12.1502 79.1096 9.87519 84.1846 9.87519H92.5846ZM84.8846 17.9252H87.6846V13.3752H84.8846C82.2596 13.3752 81.2096 14.0752 81.2096 15.6502C81.2096 17.2252 82.2596 17.9252 84.8846 17.9252ZM94.3223 28.0752V9.87519H103.072C107.797 9.87519 110.247 11.4502 110.247 14.7752C110.247 17.7502 107.447 18.4502 107.447 18.4502V18.6252C107.447 18.6252 110.772 19.3252 110.772 22.8252C110.772 26.3252 108.497 28.0752 103.597 28.0752H94.3223ZM103.072 20.3752H99.2223V24.5752H103.422C104.997 24.5752 105.872 23.8752 105.872 22.4752C105.872 21.0752 104.822 20.3752 103.072 20.3752ZM99.2223 17.2252H102.722C104.472 17.2252 105.347 16.5252 105.347 15.3002C105.347 14.0752 104.647 13.3752 103.072 13.3752H99.2223V17.2252ZM131.589 21.7752V32.6252H130.189V21.7752H131.589ZM129.139 9.87519V28.0752H124.414V25.1002H124.239C124.239 25.1002 122.664 28.6002 118.639 28.6002C113.564 28.6002 112.164 25.2752 112.164 21.0752V9.87519H117.064V20.0252C117.064 23.1752 117.939 24.5752 120.214 24.5752C122.839 24.5752 124.239 23.0002 124.239 19.3252V9.87519H129.139ZM132.121 18.9752C132.121 13.6552 135.236 9.35019 141.221 9.35019C147.206 9.35019 149.971 13.6552 149.971 18.9752C149.971 19.3952 149.936 20.0252 149.936 20.0252H137.056C137.266 22.8252 138.456 24.9252 141.396 24.9252C144.371 24.9252 144.896 22.1252 144.896 22.1252H149.796C149.796 22.1252 148.746 28.6002 141.221 28.6002C135.096 28.6002 132.121 24.2952 132.121 18.9752ZM141.221 13.0252C138.806 13.0252 137.616 14.6352 137.196 16.8752H144.931C144.616 14.6352 143.636 13.0252 141.221 13.0252ZM151.539 28.0752V9.87519H160.289C165.014 9.87519 167.464 11.4502 167.464 14.7752C167.464 17.7502 164.664 18.4502 164.664 18.4502V18.6252C164.664 18.6252 167.989 19.3252 167.989 22.8252C167.989 26.3252 165.714 28.0752 160.814 28.0752H151.539ZM160.289 20.3752H156.439V24.5752H160.639C162.214 24.5752 163.089 23.8752 163.089 22.4752C163.089 21.0752 162.039 20.3752 160.289 20.3752ZM156.439 17.2252H159.939C161.689 17.2252 162.564 16.5252 162.564 15.3002C162.564 14.0752 161.864 13.3752 160.289 13.3752H156.439V17.2252ZM174.456 15.4752H169.556C169.836 10.8202 173.581 9.35019 177.781 9.35019C182.156 9.35019 185.656 10.9252 185.656 15.6502V28.0752H180.756V24.5752H180.581C180.581 24.5752 179.461 28.6002 174.806 28.6002C171.481 28.6002 169.031 27.0602 169.031 23.7002C169.031 20.3052 171.831 18.7652 174.841 17.9952C177.886 17.2252 180.756 16.9802 180.756 14.9502C180.756 13.5152 179.706 12.6752 177.781 12.6752C175.681 12.6752 174.526 13.5152 174.456 15.4752ZM180.756 18.9052C179.951 19.6402 178.306 20.0252 176.906 20.3752C175.331 20.7602 174.001 21.5652 174.001 23.1752C174.001 24.5752 174.981 25.4502 176.556 25.4502C179.881 25.4502 180.756 21.6002 180.756 18.9052ZM195.802 28.0752V9.87519H204.552C209.277 9.87519 211.727 11.4502 211.727 14.7752C211.727 17.7502 208.927 18.4502 208.927 18.4502V18.6252C208.927 18.6252 212.252 19.3252 212.252 22.8252C212.252 26.3252 209.977 28.0752 205.077 28.0752H195.802ZM204.552 20.3752H200.702V24.5752H204.902C206.477 24.5752 207.352 23.8752 207.352 22.4752C207.352 21.0752 206.302 20.3752 204.552 20.3752ZM200.702 17.2252H204.202C205.952 17.2252 206.827 16.5252 206.827 15.3002C206.827 14.0752 206.127 13.3752 204.552 13.3752H200.702V17.2252ZM230.619 9.87519V28.0752H225.894V25.1002H225.719C225.719 25.1002 224.144 28.6002 220.119 28.6002C215.044 28.6002 213.644 25.2752 213.644 21.0752V9.87519H218.544V20.0252C218.544 23.1752 219.419 24.5752 221.694 24.5752C224.319 24.5752 225.719 23.0002 225.719 19.3252V9.87519H230.619ZM237.099 18.9752C237.099 22.2652 238.359 24.9252 241.474 24.9252C244.589 24.9252 245.849 22.2652 245.849 18.9752C245.849 15.6852 244.589 13.0252 241.474 13.0252C238.359 13.0252 237.099 15.6852 237.099 18.9752ZM232.199 18.9752C232.199 13.6552 235.489 9.35019 241.474 9.35019C247.459 9.35019 250.749 13.6552 250.749 18.9752C250.749 24.2952 247.459 28.6002 241.474 28.6002C235.489 28.6002 232.199 24.2952 232.199 18.9752ZM250.579 28.0752L257.124 9.87519H262.654L269.199 28.0752H263.949L259.749 15.1602L255.549 28.0752H250.579ZM269.011 18.9752C269.011 13.6552 272.126 9.35019 278.111 9.35019C284.096 9.35019 286.861 13.6552 286.861 18.9752C286.861 19.3952 286.826 20.0252 286.826 20.0252H273.946C274.156 22.8252 275.346 24.9252 278.286 24.9252C281.261 24.9252 281.786 22.1252 281.786 22.1252H286.686C286.686 22.1252 285.636 28.6002 278.111 28.6002C271.986 28.6002 269.011 24.2952 269.011 18.9752ZM278.111 13.0252C275.696 13.0252 274.506 14.6352 274.086 16.8752H281.821C281.506 14.6352 280.526 13.0252 278.111 13.0252ZM299.104 28.0752V17.9252C299.104 14.7752 298.474 13.3752 296.549 13.3752C294.449 13.3752 293.329 14.9502 293.329 18.6252V28.0752H288.429V9.87519H293.154V12.8502H293.329C293.329 12.8502 294.554 9.35019 298.229 9.35019C301.169 9.35019 302.744 10.7502 303.444 12.8852L303.479 12.8502H303.654C303.654 12.8502 305.229 9.35019 308.904 9.35019C313.454 9.35019 314.679 12.6752 314.679 16.8752V28.0752H309.779V17.9252C309.779 14.7752 309.149 13.3752 307.224 13.3752C305.124 13.3752 304.004 14.9502 304.004 18.6252V28.0752H299.104ZM327.097 28.0752V17.9252C327.097 14.7752 326.467 13.3752 324.542 13.3752C322.442 13.3752 321.322 14.9502 321.322 18.6252V28.0752H316.422V9.87519H321.147V12.8502H321.322C321.322 12.8502 322.547 9.35019 326.222 9.35019C329.162 9.35019 330.737 10.7502 331.437 12.8852L331.472 12.8502H331.647C331.647 12.8502 333.222 9.35019 336.897 9.35019C341.447 9.35019 342.672 12.6752 342.672 16.8752V28.0752H337.772V17.9252C337.772 14.7752 337.142 13.3752 335.217 13.3752C333.117 13.3752 331.997 14.9502 331.997 18.6252V28.0752H327.097ZM349.49 15.4752H344.59C344.87 10.8202 348.615 9.35019 352.815 9.35019C357.19 9.35019 360.69 10.9252 360.69 15.6502V28.0752H355.79V24.5752H355.615C355.615 24.5752 354.495 28.6002 349.84 28.6002C346.515 28.6002 344.065 27.0602 344.065 23.7002C344.065 20.3052 346.865 18.7652 349.875 17.9952C352.92 17.2252 355.79 16.9802 355.79 14.9502C355.79 13.5152 354.74 12.6752 352.815 12.6752C350.715 12.6752 349.56 13.5152 349.49 15.4752ZM355.79 18.9052C354.985 19.6402 353.34 20.0252 351.94 20.3752C350.365 20.7602 349.035 21.5652 349.035 23.1752C349.035 24.5752 350.015 25.4502 351.59 25.4502C354.915 25.4502 355.79 21.6002 355.79 18.9052Z" fill="white"/>
<path d="M0.875 62.0752V43.8752H5.775V51.2252L12.25 43.8752H18.025L11.165 50.9802L18.375 62.0752H12.39L7.77 54.4802L5.775 56.5452V62.0752H0.875ZM36.7418 43.8752L30.2668 62.6002C28.8318 66.7652 26.9418 68.9002 23.2668 68.9002C21.5168 68.9002 20.1168 68.3752 20.1168 68.3752V64.3502C20.1168 64.3502 21.1668 64.7002 22.3918 64.7002C24.1418 64.7002 24.8418 63.7552 25.5418 62.0752L18.1918 43.8752H23.4418L27.8868 55.8802L31.4918 43.8752H36.7418ZM37.96 68.3752V43.8752H42.685V46.3252H42.86C42.86 46.3252 44.435 43.3502 48.46 43.3502C53.71 43.3502 56.335 47.9002 56.335 52.9752C56.335 58.0502 53.71 62.6002 48.46 62.6002C44.61 62.6002 43.035 60.1502 43.035 60.1502H42.86V68.3752H37.96ZM42.685 52.9752C42.685 56.2652 44.085 58.9252 47.06 58.9252C50.035 58.9252 51.435 56.2652 51.435 52.9752C51.435 49.6852 50.035 47.0252 47.06 47.0252C44.085 47.0252 42.685 49.6852 42.685 52.9752ZM62.825 49.4752H57.925C58.205 44.8202 61.95 43.3502 66.15 43.3502C70.525 43.3502 74.025 44.9252 74.025 49.6502V62.0752H69.125V58.5752H68.95C68.95 58.5752 67.83 62.6002 63.175 62.6002C59.85 62.6002 57.4 61.0602 57.4 57.7002C57.4 54.3052 60.2 52.7652 63.21 51.9952C66.255 51.2252 69.125 50.9802 69.125 48.9502C69.125 47.5152 68.075 46.6752 66.15 46.6752C64.05 46.6752 62.895 47.5152 62.825 49.4752ZM69.125 52.9052C68.32 53.6402 66.675 54.0252 65.275 54.3752C63.7 54.7602 62.37 55.5652 62.37 57.1752C62.37 58.5752 63.35 59.4502 64.925 59.4502C68.25 59.4502 69.125 55.6002 69.125 52.9052ZM86.4377 62.0752V51.9252C86.4377 48.7752 85.8077 47.3752 83.8827 47.3752C81.7827 47.3752 80.6627 48.9502 80.6627 52.6252V62.0752H75.7627V43.8752H80.4877V46.8502H80.6627C80.6627 46.8502 81.8877 43.3502 85.5627 43.3502C88.5027 43.3502 90.0777 44.7502 90.7777 46.8852L90.8127 46.8502H90.9877C90.9877 46.8502 92.5627 43.3502 96.2377 43.3502C100.788 43.3502 102.013 46.6752 102.013 50.8752V62.0752H97.1127V51.9252C97.1127 48.7752 96.4827 47.3752 94.5577 47.3752C92.4577 47.3752 91.3377 48.9502 91.3377 52.6252V62.0752H86.4377ZM108.481 52.9752C108.481 56.2652 109.741 58.9252 112.856 58.9252C115.971 58.9252 117.231 56.2652 117.231 52.9752C117.231 49.6852 115.971 47.0252 112.856 47.0252C109.741 47.0252 108.481 49.6852 108.481 52.9752ZM103.581 52.9752C103.581 47.6552 106.871 43.3502 112.856 43.3502C118.841 43.3502 122.131 47.6552 122.131 52.9752C122.131 58.2952 118.841 62.6002 112.856 62.6002C106.871 62.6002 103.581 58.2952 103.581 52.9752ZM123.717 68.3752V43.8752H128.442V46.3252H128.617C128.617 46.3252 130.192 43.3502 134.217 43.3502C139.467 43.3502 142.092 47.9002 142.092 52.9752C142.092 58.0502 139.467 62.6002 134.217 62.6002C130.367 62.6002 128.792 60.1502 128.792 60.1502H128.617V68.3752H123.717ZM128.442 52.9752C128.442 56.2652 129.842 58.9252 132.817 58.9252C135.792 58.9252 137.192 56.2652 137.192 52.9752C137.192 49.6852 135.792 47.0252 132.817 47.0252C129.842 47.0252 128.442 49.6852 128.442 52.9752ZM143.678 62.0752V43.8752H148.578V50.5252H150.678C155.753 50.5252 158.553 52.8002 158.553 56.3002C158.553 59.8002 155.753 62.0752 150.678 62.0752H143.678ZM149.978 54.0252H148.578V58.5752H149.978C152.603 58.5752 153.653 57.8752 153.653 56.3002C153.653 54.7252 152.603 54.0252 149.978 54.0252ZM164.853 43.8752V62.0752H159.953V43.8752H164.853ZM167.137 59.6252C167.137 58.0852 168.397 56.8252 169.937 56.8252C171.477 56.8252 172.737 58.0852 172.737 59.6252C172.737 61.1652 171.477 62.4252 169.937 62.4252C168.397 62.4252 167.137 61.1652 167.137 59.6252ZM167.137 46.6752C167.137 45.1352 168.397 43.8752 169.937 43.8752C171.477 43.8752 172.737 45.1352 172.737 46.6752C172.737 48.2152 171.477 49.4752 169.937 49.4752C168.397 49.4752 167.137 48.2152 167.137 46.6752ZM0.875 96.0752V77.8752H5.775V85.2252L12.25 77.8752H18.025L11.165 84.9802L18.375 96.0752H12.39L7.77 88.4802L5.775 90.5452V96.0752H0.875ZM23.7918 83.4752H18.8918C19.1718 78.8202 22.9168 77.3502 27.1168 77.3502C31.4918 77.3502 34.9918 78.9252 34.9918 83.6502V96.0752H30.0918V92.5752H29.9168C29.9168 92.5752 28.7968 96.6002 24.1418 96.6002C20.8168 96.6002 18.3668 95.0602 18.3668 91.7002C18.3668 88.3052 21.1668 86.7652 24.1768 85.9952C27.2218 85.2252 30.0918 84.9802 30.0918 82.9502C30.0918 81.5152 29.0418 80.6752 27.1168 80.6752C25.0168 80.6752 23.8618 81.5152 23.7918 83.4752ZM30.0918 86.9052C29.2868 87.6402 27.6418 88.0252 26.2418 88.3752C24.6668 88.7602 23.3368 89.5652 23.3368 91.1752C23.3368 92.5752 24.3168 93.4502 25.8918 93.4502C29.2168 93.4502 30.0918 89.6002 30.0918 86.9052ZM58.7795 77.8752V96.0752H54.2295V83.3002H54.0545L50.0295 96.0752H45.4795L41.4545 83.3002H41.2795V96.0752H36.7295V77.8752H44.0795L47.7545 90.4752L51.4295 77.8752H58.7795ZM77.4936 77.8752V96.0752H72.7686V93.1002H72.5936C72.5936 93.1002 71.0186 96.6002 66.9936 96.6002C61.9186 96.6002 60.5186 93.2752 60.5186 89.0752V77.8752H65.4186V88.0252C65.4186 91.1752 66.2936 92.5752 68.5686 92.5752C71.1936 92.5752 72.5936 91.0002 72.5936 87.3252V77.8752H77.4936ZM78.724 96.0752L85.269 77.8752H90.799L97.344 96.0752H92.094L87.894 83.1602L83.694 96.0752H78.724ZM103.294 83.4752H98.3938C98.6738 78.8202 102.419 77.3502 106.619 77.3502C110.994 77.3502 114.494 78.9252 114.494 83.6502V96.0752H109.594V92.5752H109.419C109.419 92.5752 108.299 96.6002 103.644 96.6002C100.319 96.6002 97.8688 95.0602 97.8688 91.7002C97.8688 88.3052 100.669 86.7652 103.679 85.9952C106.724 85.2252 109.594 84.9802 109.594 82.9502C109.594 81.5152 108.544 80.6752 106.619 80.6752C104.519 80.6752 103.364 81.5152 103.294 83.4752ZM109.594 86.9052C108.789 87.6402 107.144 88.0252 105.744 88.3752C104.169 88.7602 102.839 89.5652 102.839 91.1752C102.839 92.5752 103.819 93.4502 105.394 93.4502C108.719 93.4502 109.594 89.6002 109.594 86.9052ZM124.64 102.375V77.8752H129.365V80.3252H129.54C129.54 80.3252 131.115 77.3502 135.14 77.3502C140.39 77.3502 143.015 81.9002 143.015 86.9752C143.015 92.0502 140.39 96.6002 135.14 96.6002C131.29 96.6002 129.715 94.1502 129.715 94.1502H129.54V102.375H124.64ZM129.365 86.9752C129.365 90.2652 130.765 92.9252 133.74 92.9252C136.715 92.9252 138.115 90.2652 138.115 86.9752C138.115 83.6852 136.715 81.0252 133.74 81.0252C130.765 81.0252 129.365 83.6852 129.365 86.9752ZM161.576 77.8752V96.0752H156.851V93.1002H156.676C156.676 93.1002 155.101 96.6002 151.076 96.6002C146.001 96.6002 144.601 93.2752 144.601 89.0752V77.8752H149.501V88.0252C149.501 91.1752 150.376 92.5752 152.651 92.5752C155.276 92.5752 156.676 91.0002 156.676 87.3252V77.8752H161.576ZM169.106 77.8752L172.431 83.1252L175.756 77.8752H181.531L175.231 86.6252L182.056 96.0752H176.281L172.431 90.1252L168.581 96.0752H162.806L169.631 86.6252L163.331 77.8752H169.106ZM193.967 96.0752V85.9252C193.967 82.7752 193.337 81.3752 191.412 81.3752C189.312 81.3752 188.192 82.9502 188.192 86.6252V96.0752H183.292V77.8752H188.017V80.8502H188.192C188.192 80.8502 189.417 77.3502 193.092 77.3502C196.032 77.3502 197.607 78.7502 198.307 80.8852L198.342 80.8502H198.517C198.517 80.8502 200.092 77.3502 203.767 77.3502C208.317 77.3502 209.542 80.6752 209.542 84.8752V96.0752H204.642V85.9252C204.642 82.7752 204.012 81.3752 202.087 81.3752C199.987 81.3752 198.867 82.9502 198.867 86.6252V96.0752H193.967ZM211.11 86.9752C211.11 81.6552 214.225 77.3502 220.21 77.3502C226.195 77.3502 228.96 81.6552 228.96 86.9752C228.96 87.3952 228.925 88.0252 228.925 88.0252H216.045C216.255 90.8252 217.445 92.9252 220.385 92.9252C223.36 92.9252 223.885 90.1252 223.885 90.1252H228.785C228.785 90.1252 227.735 96.6002 220.21 96.6002C214.085 96.6002 211.11 92.2952 211.11 86.9752ZM220.21 81.0252C217.795 81.0252 216.605 82.6352 216.185 84.8752H223.92C223.605 82.6352 222.625 81.0252 220.21 81.0252ZM230.528 102.375V77.8752H235.253V80.3252H235.428C235.428 80.3252 237.003 77.3502 241.028 77.3502C246.278 77.3502 248.903 81.9002 248.903 86.9752C248.903 92.0502 246.278 96.6002 241.028 96.6002C237.178 96.6002 235.603 94.1502 235.603 94.1502H235.428V102.375H230.528ZM235.253 86.9752C235.253 90.2652 236.653 92.9252 239.628 92.9252C242.603 92.9252 244.003 90.2652 244.003 86.9752C244.003 83.6852 242.603 81.0252 239.628 81.0252C236.653 81.0252 235.253 83.6852 235.253 86.9752ZM5.95 117.475H1.05C1.33 112.82 5.075 111.35 9.275 111.35C13.65 111.35 17.15 112.925 17.15 117.65V130.075H12.25V126.575H12.075C12.075 126.575 10.955 130.6 6.3 130.6C2.975 130.6 0.525 129.06 0.525 125.7C0.525 122.305 3.325 120.765 6.335 119.995C9.38 119.225 12.25 118.98 12.25 116.95C12.25 115.515 11.2 114.675 9.275 114.675C7.175 114.675 6.02 115.515 5.95 117.475ZM12.25 120.905C11.445 121.64 9.8 122.025 8.4 122.375C6.825 122.76 5.495 123.565 5.495 125.175C5.495 126.575 6.475 127.45 8.05 127.45C11.375 127.45 12.25 123.6 12.25 120.905ZM30.6127 130.075V122.9H23.7877V130.075H18.8877V111.875H23.7877V119.05H30.6127V111.875H35.5127V130.075H30.6127ZM49.0014 130.075V122.9H42.1764V130.075H37.2764V111.875H42.1764V119.05H49.0014V111.875H53.9014V130.075H49.0014ZM60.74 117.475H55.84C56.12 112.82 59.865 111.35 64.065 111.35C68.44 111.35 71.94 112.925 71.94 117.65V130.075H67.04V126.575H66.865C66.865 126.575 65.745 130.6 61.09 130.6C57.765 130.6 55.315 129.06 55.315 125.7C55.315 122.305 58.115 120.765 61.125 119.995C64.17 119.225 67.04 118.98 67.04 116.95C67.04 115.515 65.99 114.675 64.065 114.675C61.965 114.675 60.81 115.515 60.74 117.475ZM67.04 120.905C66.235 121.64 64.59 122.025 63.19 122.375C61.615 122.76 60.285 123.565 60.285 125.175C60.285 126.575 61.265 127.45 62.84 127.45C66.165 127.45 67.04 123.6 67.04 120.905ZM82.0859 130.075V111.875H86.9859V119.225L93.4609 111.875H99.2359L92.3759 118.98L99.5859 130.075H93.6009L88.9809 122.48L86.9859 124.545V130.075H82.0859ZM103.798 120.975C103.798 124.265 105.058 126.925 108.173 126.925C111.288 126.925 112.548 124.265 112.548 120.975C112.548 117.685 111.288 115.025 108.173 115.025C105.058 115.025 103.798 117.685 103.798 120.975ZM98.8982 120.975C98.8982 115.655 102.188 111.35 108.173 111.35C114.158 111.35 117.448 115.655 117.448 120.975C117.448 126.295 114.158 130.6 108.173 130.6C102.188 130.6 98.8982 126.295 98.8982 120.975ZM141.084 111.875V130.075H136.534V117.3H136.359L132.334 130.075H127.784L123.759 117.3H123.584V130.075H119.034V111.875H126.384L130.059 124.475L133.734 111.875H141.084ZM142.823 130.075V111.875H147.723V119.225L154.198 111.875H159.973L153.113 118.98L160.323 130.075H154.338L149.718 122.48L147.723 124.545V130.075H142.823ZM164.536 120.975C164.536 124.265 165.796 126.925 168.911 126.925C172.026 126.925 173.286 124.265 173.286 120.975C173.286 117.685 172.026 115.025 168.911 115.025C165.796 115.025 164.536 117.685 164.536 120.975ZM159.636 120.975C159.636 115.655 162.926 111.35 168.911 111.35C174.896 111.35 178.186 115.655 178.186 120.975C178.186 126.295 174.896 130.6 168.911 130.6C162.926 130.6 159.636 126.295 159.636 120.975ZM179.771 130.075V111.875H188.521C193.246 111.875 195.696 113.45 195.696 116.775C195.696 119.75 192.896 120.45 192.896 120.45V120.625C192.896 120.625 196.221 121.325 196.221 124.825C196.221 128.325 193.946 130.075 189.046 130.075H179.771ZM188.521 122.375H184.671V126.575H188.871C190.446 126.575 191.321 125.875 191.321 124.475C191.321 123.075 190.271 122.375 188.521 122.375ZM184.671 119.225H188.171C189.921 119.225 190.796 118.525 190.796 117.3C190.796 116.075 190.096 115.375 188.521 115.375H184.671V119.225ZM202.688 117.475H197.788C198.068 112.82 201.813 111.35 206.013 111.35C210.388 111.35 213.888 112.925 213.888 117.65V130.075H208.988V126.575H208.813C208.813 126.575 207.693 130.6 203.038 130.6C199.713 130.6 197.263 129.06 197.263 125.7C197.263 122.305 200.063 120.765 203.073 119.995C206.118 119.225 208.988 118.98 208.988 116.95C208.988 115.515 207.938 114.675 206.013 114.675C203.913 114.675 202.758 115.515 202.688 117.475ZM208.988 120.905C208.183 121.64 206.538 122.025 205.138 122.375C203.563 122.76 202.233 123.565 202.233 125.175C202.233 126.575 203.213 127.45 204.788 127.45C208.113 127.45 208.988 123.6 208.988 120.905Z" fill="#1736D2"/>
<path d="M882.238 35.0646H875.783V62.1035H866.32V0.579102H875.783V25.2322H882.238V0.579102H891.7V62.1758H882.238V35.0646Z" fill="white"/>
<path d="M907.984 62.8257H906.15C898.595 62.8257 894.561 58.7771 894.561 51.186V38.8233H903.95V49.5955C903.95 52.415 904.903 53.9333 907.031 53.9333C909.304 53.9333 910.111 52.415 910.111 48.6556V47.282C910.111 42.8719 909.671 41.3536 906.224 36.9436L900.282 29.2078C896.248 24.0748 895.074 20.0985 895.074 13.9532V12.0012C895.074 3.83172 899.255 0 906.737 0H908.498C916.273 0 919.354 3.39794 919.354 10.6999V20.8214H910.185V11.9289C910.185 9.83233 909.745 8.31411 907.471 8.31411C905.197 8.31411 904.683 9.68774 904.683 12.6519V13.8086C904.683 17.2789 905.343 19.1586 908.571 23.2795L914.586 30.9429C918.84 36.4375 920.234 39.5462 920.234 46.4867V48.4387C920.234 57.4758 916.273 62.8257 907.984 62.8257Z" fill="white"/>
<path d="M944.515 0.579102V9.54388H932.412V25.666H941.874V34.9923H932.412V52.7772H945.028V62.1035H922.949V0.579102H944.515Z" fill="white"/>
<path d="M970.628 50.5351H963.732L962.485 62.1025H953.977L961.605 0.505859H972.828L980.97 62.1025H971.801L970.628 50.5351ZM969.601 41.3534L967.107 18.58L964.686 41.3534H969.601Z" fill="white"/>
<path d="M992.047 62.1758H982.585V0.579102H997.989C1004.3 0.579102 1007.45 3.25407 1007.45 10.1223V21.039C1007.45 26.1721 1005.03 28.1241 1003.34 28.9194C1005.47 29.8592 1007.45 31.522 1007.45 35.6429V57.2596C1007.45 59.7177 1007.97 60.8745 1008.41 61.8143V62.2481H999.016C998.576 61.5974 998.062 60.513 998.062 57.1873V38.5348C998.062 35.7875 997.549 34.6308 994.541 34.6308H992.121V62.1758H992.047ZM992.047 25.8829H994.541C997.182 25.8829 997.989 24.2201 997.989 21.4728V12.8695C997.989 10.1945 997.402 8.89321 994.541 8.89321H992.047V25.8829Z" fill="white"/>
<path d="M1026.6 9.47158V62.1035H1017.21V9.47158H1009.21V0.579102H1034.59V9.54388H1026.6V9.47158Z" fill="white"/>
<path d="M1059.97 50.5351H1053.08L1051.83 62.1025H1043.32L1050.95 0.505859H1062.17L1070.32 62.1025H1061.15L1059.97 50.5351ZM1058.95 41.3534L1056.45 18.58L1054.03 41.3534H1058.95Z" fill="white"/>
<path d="M1080.44 0.579102L1088.58 33.6186V0.579102H1097.24V62.1758H1089.53L1080.44 26.7505V62.1758H1071.86V0.579102H1080.44Z" fill="white"/>
<path d="M1100.76 0.579102H1115.35C1123.5 0.579102 1125.99 5.13379 1125.99 12.4357V49.9577C1125.99 57.4765 1123.13 62.1758 1115.35 62.1758H1100.83V0.579102H1100.76ZM1110.29 53.211H1112.57C1115.43 53.211 1116.23 51.6928 1116.23 48.4394V13.7371C1116.23 10.1945 1115.28 8.96551 1112.93 8.96551H1110.22V53.211H1110.29Z" fill="white"/>
<path d="M866.32 65.3584H880.844C888.986 65.3584 891.48 69.9131 891.48 77.215V114.737C891.48 122.256 888.62 126.955 880.844 126.955H866.32V65.3584ZM875.783 118.063H878.057C880.918 118.063 881.724 116.544 881.724 113.291V78.5887C881.724 75.0461 880.771 73.8171 878.424 73.8171H875.709V118.063H875.783Z" fill="white"/>
<path d="M916.495 65.3584V74.3232H904.391V90.4453H913.854V99.7716H904.391V117.557H917.008V126.883H894.855V65.3584H916.495Z" fill="white"/>
<path d="M932.118 127.603H930.284C922.729 127.603 918.694 123.554 918.694 115.963V103.601H928.083V114.373C928.083 117.192 929.037 118.711 931.164 118.711C933.438 118.711 934.245 117.192 934.245 113.433V112.059C934.245 107.649 933.805 106.131 930.357 101.721L924.343 94.1297C920.308 88.9966 919.134 85.0203 919.134 78.8751V76.9231C919.134 68.7536 923.316 64.9219 930.798 64.9219H932.558C940.407 64.9219 943.414 68.3198 943.414 75.6218V85.7433H934.245V76.8508C934.245 74.7542 933.805 73.236 931.531 73.236C929.257 73.236 928.744 74.6096 928.744 77.5738V78.7305C928.744 82.2008 929.404 84.0805 932.631 88.2014L938.646 95.8648C942.901 101.359 944.294 104.468 944.294 111.409V113.361C944.368 122.253 940.407 127.603 932.118 127.603Z" fill="white"/>
<path d="M956.544 126.955H947.081V65.3584H956.544V126.955Z" fill="white"/>
<path d="M968.868 127.822C963.293 127.822 959.772 122.906 959.772 116.544V78.0096C959.772 71.1414 962.487 64.7793 971.436 64.7793H973.269C983.465 64.7793 984.639 71.286 984.639 78.5879V84.8778H975.397V77.9373C975.397 75.19 974.736 73.7441 972.389 73.7441C970.409 73.7441 969.455 75.2623 969.455 77.9373V113.941C969.455 116.833 970.629 118.351 972.536 118.351C974.957 118.351 976.057 116.688 976.057 114.375V98.9756H971.802V89.5047H985.079V126.954H979.724C979.651 126.593 978.918 123.556 978.111 120.881C977.451 122.978 974.223 127.75 969.455 127.75H968.868V127.822Z" fill="white"/>
<path d="M996.961 65.3584L1005.1 98.3979V65.3584H1013.76V126.955H1006.06L996.961 91.5298V126.955H988.379V65.3584H996.961Z" fill="white"/>
<path d="M1038.55 127.603H1036.72C1029.16 127.603 1025.13 123.554 1025.13 115.963V103.601H1034.52V114.373C1034.52 117.192 1035.47 118.711 1037.6 118.711C1039.87 118.711 1040.68 117.192 1040.68 113.433V112.059C1040.68 107.649 1040.24 106.131 1036.79 101.721L1030.78 94.1297C1026.74 88.9966 1025.57 85.0203 1025.57 78.8751V76.9231C1025.57 68.7536 1029.75 64.9219 1037.23 64.9219H1038.99C1046.77 64.9219 1049.85 68.3198 1049.85 75.6218V85.7433H1040.68V76.8508C1040.68 74.7542 1040.24 73.236 1037.97 73.236C1035.69 73.236 1035.18 74.6096 1035.18 77.5738V78.7305C1035.18 82.2008 1035.84 84.0805 1039.07 88.2014L1045.08 95.8648C1049.34 101.359 1050.73 104.468 1050.73 111.409V113.361C1050.8 122.253 1046.84 127.603 1038.55 127.603Z" fill="white"/>
<path d="M1068.99 114.447V100.132H1078.31V114.375C1078.31 121.026 1076.11 127.677 1066.94 127.677H1064.81C1055.2 127.677 1053.15 120.881 1053.15 114.664V77.0697C1053.15 70.7799 1055.94 64.707 1064.52 64.707H1066.72C1077.14 64.707 1078.31 71.5029 1078.31 77.5035V88.4926H1068.99V77.6481C1068.99 74.9731 1068.19 73.5995 1065.77 73.5995C1063.42 73.5995 1062.83 74.9009 1062.83 77.6481V114.23C1062.83 116.977 1063.79 118.423 1065.84 118.423C1068.19 118.64 1068.99 116.977 1068.99 114.447Z" fill="white"/>
<path d="M1097.31 99.9162H1090.85V126.955H1081.39V65.3584H1090.85V90.0115H1097.31V65.3584H1106.77V126.955H1097.31V99.9162Z" fill="white"/>
<path d="M1136.04 113.218C1136.04 121.821 1133.1 127.677 1123.93 127.677H1122.32C1113.23 127.677 1110.07 121.821 1110.07 113.218V78.9494C1110.07 70.4184 1113.37 64.7793 1122.25 64.7793H1123.86C1133.1 64.7793 1136.04 70.4184 1136.04 78.8771V113.218ZM1126.36 78.4434C1126.36 75.19 1125.26 73.7441 1123.05 73.7441C1120.63 73.7441 1119.68 75.3346 1119.68 78.4434V113.869C1119.68 116.544 1120.41 118.568 1123.13 118.568C1125.62 118.568 1126.36 116.471 1126.36 113.869V78.4434Z" fill="white"/>
<path d="M1165.01 113.218C1165.01 121.821 1162.08 127.677 1152.91 127.677H1151.3C1142.2 127.677 1139.05 121.821 1139.05 113.218V78.9494C1139.05 70.4184 1142.35 64.7793 1151.22 64.7793H1152.84C1162.08 64.7793 1165.01 70.4184 1165.01 78.8771V113.218ZM1155.33 78.4434C1155.33 75.19 1154.23 73.7441 1152.03 73.7441C1149.61 73.7441 1148.66 75.3346 1148.66 78.4434V113.869C1148.66 116.544 1149.39 118.568 1152.1 118.568C1154.6 118.568 1155.33 116.471 1155.33 113.869V78.4434Z" fill="white"/>
<path d="M1177.78 65.3584V117.412H1189.37V126.955H1168.31V65.3584H1177.78Z" fill="white"/>
</svg>
