<svg width="370" height="228" viewBox="0 0 370 228" fill="none" xmlns="http://www.w3.org/2000/svg">
<path d="M331.034 211.065V186.249C331.034 178.547 329.494 175.124 324.788 175.124C319.653 175.124 316.915 178.975 316.915 187.96V211.065H304.935V166.567H316.487V173.841H316.915C316.915 173.841 319.91 165.283 328.895 165.283C336.083 165.283 339.934 168.706 341.646 173.926L341.731 173.841H342.159C342.159 173.841 346.01 165.283 354.995 165.283C366.12 165.283 369.115 173.413 369.115 183.682V211.065H357.134V186.249C357.134 178.547 355.594 175.124 350.888 175.124C345.753 175.124 343.015 178.975 343.015 187.96V211.065H331.034Z" fill="white"/>
<path d="M273.303 180.259H261.323C262.007 168.877 271.164 165.283 281.432 165.283C292.129 165.283 300.687 169.134 300.687 180.686V211.065H288.706V202.508H288.278C288.278 202.508 285.54 212.349 274.159 212.349C266.029 212.349 260.039 208.583 260.039 200.368C260.039 192.068 266.885 188.302 274.244 186.42C281.689 184.537 288.706 183.938 288.706 178.975C288.706 175.466 286.139 173.413 281.432 173.413C276.298 173.413 273.474 175.466 273.303 180.259ZM288.706 188.645C286.738 190.442 282.716 191.383 279.293 192.239C275.442 193.18 272.191 195.148 272.191 199.085C272.191 202.508 274.587 204.647 278.437 204.647C286.567 204.647 288.706 195.234 288.706 188.645Z" fill="white"/>
<path d="M230.532 166.567V191.384C230.532 199.085 232.073 202.508 236.779 202.508C241.914 202.508 244.652 198.657 244.652 189.672V166.567H256.632V211.066H245.08V203.792H244.652C244.652 203.792 241.657 212.349 232.672 212.349C225.484 212.349 221.718 209.012 219.921 203.792H219.408C219.408 203.792 215.557 212.349 206.572 212.349C195.447 212.349 192.452 204.22 192.452 193.951V166.567H204.432V191.384C204.432 199.085 205.973 202.508 210.679 202.508C215.814 202.508 218.552 198.657 218.552 189.672V166.567H230.532Z" fill="white"/>
<path d="M136.379 211.066V166.567H148.359V182.826H153.494C165.902 182.826 172.748 188.389 172.748 196.946C172.748 205.503 165.902 211.066 153.494 211.066H136.379ZM151.782 191.384H148.359V202.508H151.782C158.2 202.508 160.767 200.797 160.767 196.946C160.767 193.095 158.2 191.384 151.782 191.384ZM188.151 166.567V211.066H176.171V166.567H188.151Z" fill="white"/>
<path d="M87.8789 211.066L103.881 166.567H117.402L133.404 211.066H120.568L110.299 179.489L100.03 211.066H87.8789Z" fill="white"/>
<path d="M45.1113 188.816C45.1113 175.809 52.813 165.283 67.3605 165.283C87.0424 165.283 88.326 182.826 88.326 182.826H76.3457C76.3457 182.826 75.9178 174.268 67.3605 174.268C59.7444 174.268 57.0916 180.772 57.0916 188.816C57.0916 196.86 59.7444 203.363 67.3605 203.363C75.9178 203.363 76.3457 194.806 76.3457 194.806H88.326C88.326 194.806 87.0424 212.349 67.3605 212.349C52.813 212.349 45.1113 201.823 45.1113 188.816Z" fill="white"/>
<path d="M45.5698 166.567L29.7387 212.349C26.2302 222.532 21.6092 227.752 12.624 227.752C8.34531 227.752 4.92237 226.469 4.92237 226.469V216.628C4.92237 216.628 7.48957 217.484 10.4846 217.484C14.7633 217.484 16.4748 215.173 18.1863 211.066L0.21582 166.567H13.0519L23.9197 195.919L32.7338 166.567H45.5698Z" fill="white"/>
<path d="M205.168 84.2031V128.701H193.188V112.442H184.63L177.528 128.701H164.093L173.164 110.303C168.029 107.907 165.376 103.714 165.376 98.3228C165.376 89.7654 172.222 84.2031 184.63 84.2031H205.168ZM186.342 103.885H193.188V92.7605H186.342C179.924 92.7605 177.357 94.472 177.357 98.3228C177.357 102.174 179.924 103.885 186.342 103.885Z" fill="white"/>
<path d="M128.971 107.736C128.971 114.924 132.051 121 139.667 121C147.283 121 150.364 114.924 150.364 107.736C150.364 100.548 147.283 94.4719 139.667 94.4719C132.051 94.4719 128.971 100.548 128.971 107.736ZM139.667 129.985C127.687 129.985 116.562 123.139 116.562 101.746C116.562 73.0785 130.169 68.7998 142.577 68.7998H158.921V78.6408H141.55C131.88 78.6408 128.286 82.9194 126.831 92.3325H127.259C127.259 92.3325 131.11 85.4866 141.379 85.4866C154.643 85.4866 162.344 95.3276 162.344 107.736C162.344 119.716 154.643 129.985 139.667 129.985Z" fill="white"/>
<path d="M69.5137 106.452C69.5137 93.4445 77.1297 82.9189 91.7628 82.9189C106.396 82.9189 113.156 93.4445 113.156 106.452C113.156 107.479 113.071 109.019 113.071 109.019H81.5795C82.093 115.865 85.0025 120.999 92.1907 120.999C99.4644 120.999 100.748 114.153 100.748 114.153H112.728C112.728 114.153 110.161 129.984 91.7628 129.984C76.7874 129.984 69.5137 119.459 69.5137 106.452ZM91.7628 91.9042C85.8582 91.9042 82.9487 95.8406 81.9218 101.317H100.834C100.063 95.8406 97.6674 91.9042 91.7628 91.9042Z" fill="white"/>
<path d="M27.5999 128.701V103.884C27.5999 96.1828 26.0596 92.7599 21.3531 92.7599C16.2186 92.7599 13.4803 96.6107 13.4803 105.596V128.701H1.5V84.2025H13.0524V91.4763H13.4803C13.4803 91.4763 16.4754 82.9189 25.4606 82.9189C32.6488 82.9189 36.4996 86.3419 38.2111 91.5619L38.2966 91.4763H38.7245C38.7245 91.4763 42.5753 82.9189 51.5605 82.9189C62.6851 82.9189 65.6802 91.0484 65.6802 101.317V128.701H53.6999V103.884C53.6999 96.1828 52.1595 92.7599 47.453 92.7599C42.3186 92.7599 39.5802 96.6107 39.5802 105.596V128.701H27.5999Z" fill="white"/>
<path d="M205.154 46.3371V1.83887H217.135V18.0978H224.408C236.817 18.0978 243.662 23.6601 243.662 32.2175C243.662 40.7748 236.817 46.3371 224.408 46.3371H205.154ZM222.697 26.6552H217.135V37.7798H222.697C229.115 37.7798 231.682 36.0683 231.682 32.2175C231.682 28.3667 229.115 26.6552 222.697 26.6552Z" fill="white"/>
<path d="M162.813 46.3365V21.5202C162.813 13.8186 161.272 10.3956 156.566 10.3956C151.432 10.3956 148.693 14.2465 148.693 23.2317V46.3365H136.713V1.83829H148.265V9.11204H148.693C148.693 9.11204 151.688 0.554688 160.673 0.554688C167.862 0.554688 171.712 3.97763 173.424 9.19762L173.51 9.11204H173.937C173.937 9.11204 177.788 0.554688 186.773 0.554688C197.898 0.554688 200.893 8.68417 200.893 18.953V46.3365H188.913V21.5202C188.913 13.8186 187.372 10.3956 182.666 10.3956C177.531 10.3956 174.793 14.2465 174.793 23.2317V46.3365H162.813Z" fill="white"/>
<path d="M89.6533 24.0874C89.6533 11.0802 97.3549 0.554688 111.902 0.554688C131.584 0.554688 132.868 18.0973 132.868 18.0973H120.888C120.888 18.0973 120.46 9.53991 111.902 9.53991C104.286 9.53991 101.634 16.0435 101.634 24.0874C101.634 32.1313 104.286 38.6349 111.902 38.6349C120.46 38.6349 120.888 30.0776 120.888 30.0776H132.868C132.868 30.0776 131.584 47.6201 111.902 47.6201C97.3549 47.6201 89.6533 37.0946 89.6533 24.0874Z" fill="white"/>
<path d="M90.1118 1.83887L74.2807 47.6207C70.7722 57.804 66.1512 63.024 57.166 63.024C52.8873 63.024 49.4644 61.7404 49.4644 61.7404V51.8994C49.4644 51.8994 52.0316 52.7551 55.0266 52.7551C59.3053 52.7551 61.0168 50.4446 62.7283 46.3371L44.7578 1.83887H57.5938L68.4617 31.1906L77.2758 1.83887H90.1118Z" fill="white"/>
<path d="M1.5 46.3365V1.83829H13.0524V9.11204H13.4803C13.4803 9.11204 17.3311 0.554688 27.1721 0.554688C39.5802 0.554688 43.0032 8.68417 43.0032 18.953V46.3365H31.0229V21.5202C31.0229 13.8186 28.8835 10.3956 23.3213 10.3956C16.9032 10.3956 13.4803 14.2465 13.4803 23.2317V46.3365H1.5Z" fill="white"/>
</svg>
