<svg width="1280" height="78" viewBox="0 0 1280 78" fill="none" xmlns="http://www.w3.org/2000/svg">
<path d="M285.738 77.4832C280.36 77.4832 275.72 76.296 271.82 73.9217C267.943 71.5231 264.951 68.1797 262.843 63.8914C260.76 59.5788 259.718 54.5636 259.718 48.8459C259.718 43.1281 260.76 38.0887 262.843 33.7277C264.951 29.3425 267.883 25.9263 271.638 23.4793C275.417 21.0081 279.827 19.7725 284.866 19.7725C287.774 19.7725 290.645 20.257 293.479 21.2261C296.314 22.1952 298.894 23.7701 301.22 25.9506C303.546 28.1068 305.399 30.9657 306.78 34.5272C308.161 38.0887 308.852 42.4739 308.852 47.6829V51.3171H265.823V43.9034H300.13C300.13 40.7538 299.5 37.9433 298.24 35.4721C297.004 33.0009 295.236 31.0505 292.934 29.6211C290.657 28.1916 287.967 27.4769 284.866 27.4769C281.45 27.4769 278.494 28.3249 275.999 30.0208C273.528 31.6926 271.626 33.8731 270.293 36.5624C268.961 39.2516 268.294 42.1348 268.294 45.2117V50.1542C268.294 54.3698 269.021 57.9434 270.475 60.875C271.953 63.7823 274 65.9992 276.617 67.5255C279.233 69.0277 282.274 69.7787 285.738 69.7787C287.992 69.7787 290.027 69.4638 291.844 68.8338C293.685 68.1797 295.272 67.2106 296.605 65.9265C297.937 64.6182 298.967 62.9949 299.694 61.0567L307.98 63.3826C307.107 66.193 305.642 68.6643 303.582 70.7963C301.523 72.9041 298.979 74.5516 295.951 75.7388C292.922 76.9017 289.518 77.4832 285.738 77.4832Z" fill="white"/>
<path d="M246.626 1.89258V76.3205H238.049V1.89258H246.626Z" fill="white"/>
<path d="M175.651 76.3205V1.89258H184.228V29.367H184.955C185.585 28.3978 186.457 27.1622 187.571 25.6601C188.71 24.1337 190.333 22.777 192.441 21.5898C194.573 20.3784 197.456 19.7727 201.091 19.7727C205.791 19.7727 209.934 20.9478 213.519 23.2979C217.105 25.648 219.904 28.9793 221.914 33.2919C223.925 37.6044 224.931 42.6923 224.931 48.5554C224.931 54.467 223.925 59.5912 221.914 63.928C219.904 68.2405 217.117 71.584 213.556 73.9583C209.994 76.3084 205.888 77.4835 201.236 77.4835C197.65 77.4835 194.779 76.8899 192.623 75.7027C190.467 74.4913 188.807 73.1225 187.644 71.5961C186.481 70.0455 185.585 68.7614 184.955 67.7439H183.937V76.3205H175.651ZM184.083 48.41C184.083 52.6257 184.7 56.3447 185.936 59.567C187.172 62.765 188.977 65.2726 191.351 67.0897C193.725 68.8826 196.633 69.779 200.073 69.779C203.659 69.779 206.651 68.8341 209.049 66.9443C211.472 65.0303 213.289 62.4622 214.501 59.2399C215.736 55.9934 216.354 52.3834 216.354 48.41C216.354 44.4851 215.748 40.9479 214.537 37.7982C213.35 34.6244 211.545 32.1168 209.122 30.2755C206.724 28.41 203.707 27.4772 200.073 27.4772C196.584 27.4772 193.653 28.3615 191.278 30.1301C188.904 31.8745 187.111 34.3216 185.9 37.4712C184.688 40.5966 184.083 44.2429 184.083 48.41Z" fill="white"/>
<path d="M61.256 53.4974V20.499H69.8326V76.32H61.256V66.8711H60.6745C59.3662 69.7058 57.3311 72.1165 54.5691 74.1031C51.8071 76.0656 48.3183 77.0468 44.1027 77.0468C40.6139 77.0468 37.5127 76.2837 34.7992 74.7573C32.0857 73.2067 29.9536 70.8808 28.403 67.7797C26.8524 64.6543 26.0771 60.7173 26.0771 55.9686V20.499H34.6538V55.3871C34.6538 59.4574 35.7925 62.7039 38.0699 65.1267C40.3716 67.5495 43.3031 68.7609 46.8646 68.7609C48.9967 68.7609 51.1651 68.2158 53.3698 67.1255C55.5988 66.0353 57.4643 64.3635 58.9665 62.1104C60.4928 59.8572 61.256 56.9862 61.256 53.4974Z" fill="white"/>
<path d="M-12 76.3211V20.5001H-3.71408V28.9314H-3.13261C-2.11504 26.1695 -0.27372 23.9284 2.39134 22.2082C5.05641 20.488 8.06066 19.6279 11.4041 19.6279C12.034 19.6279 12.8214 19.64 13.7663 19.6643C14.7112 19.6885 15.4259 19.7248 15.9105 19.7733V28.4953C15.6198 28.4226 14.9535 28.3136 13.9117 28.1682C12.8941 27.9987 11.816 27.9139 10.6773 27.9139C7.96375 27.9139 5.54097 28.4832 3.40891 29.6219C1.30109 30.7364 -0.370632 32.287 -1.60625 34.2737C-2.81764 36.2361 -3.42334 38.4772 -3.42334 40.9969V76.3211H-12Z" fill="white"/>
<path fill-rule="evenodd" clip-rule="evenodd" d="M96.6963 31.9086C101.874 37.1292 106.422 42.765 111.084 48.5431C112.831 50.709 114.595 52.8949 116.414 55.0864L118.636 57.7637L125.347 54.2171L123.125 51.5397C121.44 49.5096 119.764 47.4311 118.071 45.331C111.749 37.4903 105.185 29.3483 96.9838 22.2979C96.9666 22.2831 96.9483 22.2673 96.929 22.2507C96.6012 21.9687 95.9734 21.4287 95.2849 20.8841C94.638 20.3724 93.638 19.6126 92.679 19.1326C92.4228 19.0043 92.022 18.8216 91.52 18.6886C91.0905 18.5748 90.0341 18.3468 88.7889 18.683C87.2689 19.0934 86.4709 20.05 86.1632 20.8219C85.908 21.4624 85.9557 22.0112 85.984 22.2396C86.0428 22.7147 86.2135 23.1274 86.2679 23.2589C86.2692 23.2621 86.2705 23.2652 86.2717 23.2681C86.3393 23.4319 86.3585 23.4752 86.3599 23.4752C87.1621 25.7758 87.7895 27.9552 88.2324 30.2637C88.5087 31.7044 88.7889 33.1355 89.0678 34.5596C90.5256 42.0048 91.9453 49.2553 92.5722 56.6474C92.8283 59.667 92.9882 62.5069 93.1503 65.3859C93.2895 67.8583 93.4303 70.3594 93.6351 73.0278L93.881 76.2332H101.915L101.669 72.6353C101.49 70.3026 101.347 67.8042 101.202 65.2753C101.027 62.2199 100.85 59.1199 100.603 56.2138C99.9503 48.5158 98.4666 40.9442 97.008 33.5008C96.9038 32.9694 96.7998 32.4386 96.6963 31.9086ZM93.9158 21.2561C93.9068 21.2342 93.9034 21.2243 93.904 21.2248C93.9045 21.2253 93.909 21.2362 93.9158 21.2561Z" fill="white"/>
<path fill-rule="evenodd" clip-rule="evenodd" d="M145.113 31.9086C139.935 37.1292 135.388 42.765 130.726 48.5431C128.978 50.709 127.215 52.8949 125.396 55.0864L123.173 57.7637L116.462 54.2171L118.685 51.5397C120.37 49.5096 122.046 47.4311 123.739 45.331C130.06 37.4903 136.625 29.3483 144.826 22.2979C144.843 22.2831 144.861 22.2673 144.881 22.2507C145.208 21.9687 145.836 21.4287 146.525 20.8841C147.172 20.3724 148.172 19.6126 149.131 19.1326C149.387 19.0043 149.788 18.8216 150.29 18.6886C150.719 18.5748 151.775 18.3468 153.021 18.683C154.541 19.0934 155.339 20.05 155.646 20.8219C155.902 21.4624 155.854 22.0112 155.826 22.2396C155.767 22.7147 155.596 23.1274 155.542 23.2589C155.54 23.2621 155.539 23.2652 155.538 23.2681C155.47 23.4319 155.451 23.4752 155.45 23.4752C154.647 25.7758 154.02 27.9552 153.577 30.2637C153.301 31.7044 153.021 33.1355 152.742 34.5596C151.284 42.0048 149.864 49.2553 149.237 56.6474C148.981 59.667 148.821 62.5069 148.659 65.3859C148.52 67.8583 148.379 70.3594 148.174 73.0278L147.929 76.2332H139.894L140.14 72.6353C140.319 70.3026 140.462 67.8042 140.607 65.2753C140.782 62.2199 140.96 59.1199 141.206 56.2138C141.859 48.5158 143.343 40.9442 144.802 33.5008C144.906 32.9694 145.01 32.4386 145.113 31.9086ZM147.894 21.2561C147.903 21.2342 147.906 21.2243 147.906 21.2248C147.905 21.2253 147.901 21.2362 147.894 21.2561Z" fill="white"/>
<path fill-rule="evenodd" clip-rule="evenodd" d="M124.358 54.646C124.865 54.8789 125.04 55.3956 124.748 55.8001C124.641 55.9477 124.535 56.096 124.428 56.2447C124.148 56.6335 123.866 57.0249 123.582 57.4139C123.534 57.4793 123.485 57.5471 123.435 57.6166C123.146 58.0165 122.814 58.4756 122.419 58.8905C122.418 58.8909 122.417 58.8921 122.416 58.8942C122.39 58.9224 122.227 59.1042 122.046 59.2433C121.945 59.3206 121.774 59.4376 121.541 59.5165C121.287 59.6027 120.901 59.6586 120.496 59.5107C120.144 59.3824 119.919 59.1602 119.82 59.0599C119.761 58.9987 119.707 58.9381 119.671 58.8969L119.67 58.8961C119.627 58.8468 119.609 58.8275 119.597 58.8152C119.288 58.5014 118.981 58.175 118.69 57.8252C118.624 57.7454 118.544 57.6545 118.457 57.555C118.182 57.2424 117.834 56.8456 117.598 56.4465C117.349 56.0243 117.576 55.5208 118.105 55.3217C118.634 55.1227 119.265 55.3036 119.514 55.7258C119.668 55.985 119.857 56.2005 120.094 56.471C120.204 56.596 120.324 56.7328 120.455 56.891C120.635 57.1068 120.826 57.3174 121.029 57.5301C121.216 57.3014 121.393 57.0566 121.587 56.7901C121.64 56.716 121.695 56.6403 121.752 56.5627C122.032 56.1787 122.309 55.7944 122.588 55.4074C122.695 55.2576 122.803 55.1075 122.912 54.9568C123.204 54.5523 123.852 54.4132 124.358 54.646ZM120.578 58.0245C120.574 58.0278 120.575 58.027 120.58 58.0234C120.579 58.0238 120.579 58.0242 120.578 58.0245Z" fill="white"/>
<path fill-rule="evenodd" clip-rule="evenodd" d="M120.121 53.9599C120.679 53.8202 121.274 54.0679 121.449 54.5133C121.63 54.973 121.768 55.4802 121.893 55.9361C121.919 56.0319 121.945 56.1254 121.97 56.2157C122.127 56.3706 122.216 56.5699 122.203 56.7843C122.202 56.8086 122.195 56.8936 122.188 56.9655C122.185 57.0013 122.18 57.0469 122.174 57.0858L122.174 57.0868C122.172 57.0999 122.166 57.142 122.154 57.1875C122.151 57.2012 122.144 57.2271 122.132 57.2587C122.132 57.2591 122.132 57.2596 122.132 57.2602C122.125 57.2789 122.094 57.3637 122.022 57.458C121.99 57.5003 121.89 57.6276 121.693 57.7302C121.437 57.8634 121.048 57.9313 120.664 57.787C120.373 57.6781 120.237 57.5006 120.197 57.4451C120.144 57.3713 120.116 57.3072 120.104 57.2769C120.064 57.1752 120.038 57.0785 120.022 57.0139C120.015 56.987 120.01 56.9659 120.006 56.9484C119.997 56.9137 119.992 56.8927 119.985 56.8682C119.915 56.6339 119.855 56.4143 119.797 56.2039C119.684 55.7869 119.58 55.4062 119.428 55.0192C119.253 54.5739 119.563 54.0996 120.121 53.9599ZM120.07 56.8945C120.069 56.8988 120.069 56.8979 120.07 56.8931C120.07 56.8936 120.07 56.8941 120.07 56.8945Z" fill="white"/>
<path d="M620.787 76.5379C615.409 76.5379 610.769 75.3507 606.868 72.9764C602.992 70.5778 600 67.2344 597.892 62.9461C595.808 58.6335 594.767 53.6183 594.767 47.9006C594.767 42.1828 595.808 37.1434 597.892 32.7824C600 28.3971 602.931 24.981 606.687 22.534C610.466 20.0628 614.876 18.8271 619.915 18.8271C622.822 18.8271 625.693 19.3117 628.528 20.2808C631.363 21.2499 633.943 22.8247 636.269 25.0052C638.595 27.1615 640.448 30.0204 641.829 33.5819C643.21 37.1434 643.901 41.5286 643.901 46.7376V50.3718H600.872V42.9581H635.179C635.179 39.8085 634.549 36.998 633.289 34.5268C632.053 32.0555 630.285 30.1052 627.983 28.6758C625.706 27.2463 623.016 26.5316 619.915 26.5316C616.499 26.5316 613.543 27.3796 611.048 29.0755C608.576 30.7472 606.675 32.9278 605.342 35.617C604.01 38.3063 603.343 41.1894 603.343 44.2664V49.2089C603.343 53.4245 604.07 56.9981 605.524 59.9297C607.002 62.837 609.049 65.0539 611.666 66.5802C614.282 68.0824 617.323 68.8334 620.787 68.8334C623.041 68.8334 625.076 68.5185 626.893 67.8885C628.734 67.2344 630.321 66.2653 631.654 64.9812C632.986 63.6729 634.016 62.0496 634.743 60.1114L643.028 62.4373C642.156 65.2477 640.69 67.7189 638.631 69.851C636.572 71.9588 634.028 73.6063 630.999 74.7935C627.971 75.9564 624.567 76.5379 620.787 76.5379Z" fill="white"/>
<path d="M581.674 0.946289V75.3742H573.098V0.946289H581.674Z" fill="white"/>
<path d="M510.7 75.3742V0.946289H519.277V28.4207H520.004C520.634 27.4516 521.506 26.2159 522.62 24.7138C523.759 23.1875 525.382 21.8307 527.49 20.6435C529.622 19.4321 532.505 18.8264 536.139 18.8264C540.84 18.8264 544.983 20.0015 548.568 22.3516C552.154 24.7017 554.952 28.033 556.963 32.3456C558.974 36.6581 559.98 41.746 559.98 47.6091C559.98 53.5207 558.974 58.6449 556.963 62.9817C554.952 67.2942 552.166 70.6377 548.605 73.012C545.043 75.3621 540.937 76.5372 536.285 76.5372C532.699 76.5372 529.828 75.9436 527.672 74.7564C525.516 73.545 523.856 72.1762 522.693 70.6498C521.53 69.0992 520.634 67.8151 520.004 66.7976H518.986V75.3742H510.7ZM519.131 47.4638C519.131 51.6794 519.749 55.3984 520.985 58.6207C522.221 61.8188 524.026 64.3263 526.4 66.1434C528.774 67.9363 531.681 68.8327 535.122 68.8327C538.708 68.8327 541.7 67.8878 544.098 65.9981C546.521 64.0841 548.338 61.5159 549.55 58.2936C550.785 55.0471 551.403 51.4371 551.403 47.4638C551.403 43.5388 550.797 40.0016 549.586 36.852C548.399 33.6781 546.594 31.1705 544.171 29.3292C541.772 27.4637 538.756 26.5309 535.122 26.5309C531.633 26.5309 528.701 27.4152 526.327 29.1838C523.953 30.9283 522.16 33.3753 520.949 36.5249C519.737 39.6503 519.131 43.2966 519.131 47.4638Z" fill="white"/>
<path d="M396.305 52.552V19.5537H404.881V75.3747H396.305V65.9258H395.723C394.415 68.7605 392.38 71.1712 389.618 73.1578C386.856 75.1203 383.367 76.1015 379.151 76.1015C375.663 76.1015 372.562 75.3383 369.848 73.812C367.134 72.2614 365.002 69.9355 363.452 66.8344C361.901 63.709 361.126 59.7719 361.126 55.0233V19.5537H369.703V54.4418C369.703 58.5121 370.841 61.7586 373.119 64.1814C375.42 66.6042 378.352 67.8156 381.913 67.8156C384.046 67.8156 386.214 67.2705 388.419 66.1802C390.648 65.09 392.513 63.4182 394.015 61.165C395.542 58.9119 396.305 56.0409 396.305 52.552Z" fill="white"/>
<path d="M323.049 75.3748V19.5538H331.335V27.9851H331.916C332.934 25.2232 334.775 22.9821 337.44 21.2619C340.105 19.5417 343.109 18.6816 346.453 18.6816C347.083 18.6816 347.87 18.6938 348.815 18.718C349.76 18.7422 350.475 18.7786 350.959 18.827V27.549C350.669 27.4764 350.002 27.3673 348.961 27.222C347.943 27.0524 346.865 26.9676 345.726 26.9676C343.013 26.9676 340.59 27.5369 338.458 28.6756C336.35 29.7901 334.678 31.3407 333.443 33.3274C332.231 35.2898 331.625 37.5309 331.625 40.0506V75.3748H323.049Z" fill="white"/>
<path fill-rule="evenodd" clip-rule="evenodd" d="M431.745 30.9623C436.923 36.1829 441.47 41.8187 446.132 47.5968C447.88 49.7627 449.644 51.9486 451.463 54.1401L453.685 56.8175L460.396 53.2708L458.174 50.5934C456.489 48.5633 454.813 46.4848 453.12 44.3847C446.798 36.544 440.234 28.4021 432.033 21.3516C432.015 21.3368 431.997 21.3211 431.978 21.3044C431.65 21.0224 431.022 20.4824 430.334 19.9378C429.687 19.4261 428.687 18.6663 427.728 18.1863C427.472 18.058 427.071 17.8753 426.569 17.7423C426.139 17.6286 425.083 17.4005 423.838 17.7367C422.318 18.1471 421.52 19.1037 421.212 19.8756C420.957 20.5161 421.005 21.0649 421.033 21.2933C421.092 21.7684 421.262 22.1811 421.317 22.3126C421.318 22.3158 421.319 22.3189 421.32 22.3218C421.388 22.4856 421.407 22.5289 421.409 22.5289C422.211 24.8295 422.838 27.0089 423.281 29.3174C423.558 30.7581 423.838 32.1892 424.117 33.6133C425.574 41.0585 426.994 48.309 427.621 55.7011C427.877 58.7207 428.037 61.5606 428.199 64.4397C428.338 66.912 428.479 69.4131 428.684 72.0815L428.93 75.2869H436.964L436.718 71.689C436.539 69.3563 436.396 66.8579 436.251 64.329C436.076 61.2736 435.898 58.1736 435.652 55.2675C434.999 47.5695 433.515 39.9979 432.057 32.5545C431.953 32.0231 431.849 31.4924 431.745 30.9623ZM428.965 20.3098C428.956 20.2879 428.952 20.278 428.953 20.2785C428.953 20.279 428.958 20.2899 428.965 20.3098Z" fill="white"/>
<path fill-rule="evenodd" clip-rule="evenodd" d="M480.163 30.9623C474.985 36.1829 470.438 41.8187 465.776 47.5968C464.028 49.7627 462.264 51.9486 460.445 54.1401L458.223 56.8175L451.512 53.2708L453.735 50.5934C455.42 48.5633 457.095 46.4848 458.789 44.3847C465.11 36.544 471.675 28.4021 479.876 21.3516C479.893 21.3368 479.911 21.3211 479.93 21.3044C480.258 21.0224 480.886 20.4824 481.574 19.9378C482.221 19.4261 483.221 18.6663 484.18 18.1863C484.437 18.058 484.837 17.8753 485.339 17.7423C485.769 17.6286 486.825 17.4005 488.07 17.7367C489.59 18.1471 490.388 19.1037 490.696 19.8756C490.951 20.5161 490.904 21.0649 490.875 21.2933C490.817 21.7684 490.646 22.1811 490.592 22.3126C490.59 22.3158 490.589 22.3189 490.588 22.3218C490.52 22.4856 490.501 22.5289 490.499 22.5289C489.697 24.8295 489.07 27.0089 488.627 29.3174C488.351 30.7581 488.07 32.1892 487.792 33.6133C486.334 41.0585 484.914 48.309 484.287 55.7011C484.031 58.7207 483.871 61.5606 483.709 64.4397C483.57 66.912 483.429 69.4131 483.224 72.0815L482.978 75.2869H474.944L475.19 71.689C475.369 69.3563 475.512 66.8579 475.657 64.329C475.832 61.2736 476.01 58.1736 476.256 55.2675C476.909 47.5695 478.393 39.9979 479.851 32.5545C479.956 32.0231 480.06 31.4924 480.163 30.9623ZM482.944 20.3098C482.953 20.2879 482.956 20.278 482.955 20.2785C482.955 20.279 482.95 20.2899 482.944 20.3098Z" fill="white"/>
<path fill-rule="evenodd" clip-rule="evenodd" d="M459.408 53.6997C459.915 53.9326 460.09 54.4493 459.798 54.8538C459.691 55.0014 459.584 55.1497 459.477 55.2984C459.198 55.6872 458.916 56.0786 458.632 56.4676C458.584 56.533 458.535 56.6008 458.485 56.6703C458.196 57.0702 457.864 57.5293 457.469 57.9442C457.468 57.9446 457.467 57.9458 457.465 57.9479C457.44 57.9761 457.277 58.1579 457.096 58.297C456.995 58.3743 456.824 58.4913 456.591 58.5703C456.336 58.6564 455.951 58.7123 455.545 58.5644C455.194 58.4361 454.968 58.2139 454.87 58.1136C454.81 58.0524 454.757 57.9918 454.721 57.9506L454.72 57.9498C454.676 57.9005 454.659 57.8812 454.647 57.8689C454.338 57.5551 454.03 57.2287 453.74 56.8789C453.673 56.7991 453.594 56.7082 453.506 56.6087C453.232 56.2961 452.884 55.8993 452.648 55.5002C452.399 55.0781 452.626 54.5745 453.155 54.3754C453.684 54.1764 454.315 54.3573 454.564 54.7795C454.717 55.0387 454.906 55.2542 455.144 55.5248C455.253 55.6497 455.373 55.7865 455.505 55.9447C455.684 56.1606 455.876 56.3711 456.079 56.5838C456.266 56.3551 456.443 56.1103 456.636 55.8438C456.69 55.7697 456.745 55.694 456.802 55.6164C457.082 55.2325 457.359 54.8481 457.637 54.4611C457.745 54.3113 457.853 54.1612 457.962 54.0105C458.254 53.606 458.901 53.4669 459.408 53.6997ZM455.628 57.0782C455.624 57.0815 455.624 57.0807 455.63 57.0771C455.629 57.0775 455.629 57.0779 455.628 57.0782Z" fill="white"/>
<path fill-rule="evenodd" clip-rule="evenodd" d="M455.17 53.0136C455.728 52.8739 456.323 53.1216 456.498 53.567C456.678 54.0267 456.817 54.5339 456.942 54.9898C456.968 55.0856 456.994 55.1791 457.019 55.2694C457.176 55.4243 457.265 55.6236 457.252 55.838C457.251 55.8623 457.244 55.9473 457.237 56.0192C457.233 56.0551 457.229 56.1007 457.223 56.1395L457.223 56.1405C457.221 56.1536 457.215 56.1957 457.203 56.2412C457.2 56.2549 457.193 56.2808 457.181 56.3124C457.181 56.3128 457.181 56.3133 457.18 56.3139C457.174 56.3327 457.142 56.4174 457.071 56.5117C457.039 56.554 456.939 56.6813 456.742 56.7839C456.486 56.9171 456.097 56.985 455.712 56.8407C455.422 56.7318 455.286 56.5543 455.246 56.4988C455.192 56.425 455.165 56.361 455.153 56.3306C455.112 56.2289 455.087 56.1322 455.071 56.0676C455.064 56.0407 455.059 56.0196 455.054 56.0021C455.046 55.9674 455.041 55.9464 455.033 55.9219C454.964 55.6876 454.904 55.468 454.846 55.2576C454.733 54.8406 454.629 54.4599 454.477 54.0729C454.301 53.6276 454.612 53.1533 455.17 53.0136ZM455.118 55.9482C455.118 55.9525 455.118 55.9516 455.119 55.9468C455.119 55.9473 455.119 55.9478 455.118 55.9482Z" fill="white"/>
<path d="M955.837 76.5379C950.459 76.5379 945.819 75.3507 941.918 72.9764C938.042 70.5778 935.05 67.2344 932.942 62.9461C930.858 58.6335 929.816 53.6183 929.816 47.9006C929.816 42.1828 930.858 37.1434 932.942 32.7824C935.05 28.3971 937.981 24.981 941.737 22.534C945.516 20.0628 949.926 18.8271 954.965 18.8271C957.872 18.8271 960.743 19.3117 963.578 20.2808C966.413 21.2499 968.993 22.8247 971.319 25.0052C973.645 27.1615 975.498 30.0204 976.879 33.5819C978.26 37.1434 978.95 41.5286 978.95 46.7376V50.3718H935.922V42.9581H970.228C970.228 39.8085 969.599 36.998 968.339 34.5268C967.103 32.0555 965.334 30.1052 963.033 28.6758C960.755 27.2463 958.066 26.5316 954.965 26.5316C951.549 26.5316 948.593 27.3796 946.098 29.0755C943.626 30.7472 941.724 32.9278 940.392 35.617C939.059 38.3063 938.393 41.1894 938.393 44.2664V49.2089C938.393 53.4245 939.12 56.9981 940.574 59.9297C942.051 62.837 944.099 65.0539 946.715 66.5802C949.332 68.0824 952.373 68.8334 955.837 68.8334C958.09 68.8334 960.125 68.5185 961.943 67.8885C963.784 67.2344 965.371 66.2653 966.703 64.9812C968.036 63.6729 969.066 62.0496 969.792 60.1114L978.078 62.4373C977.206 65.2477 975.74 67.7189 973.681 69.851C971.622 71.9588 969.078 73.6063 966.049 74.7935C963.021 75.9564 959.617 76.5379 955.837 76.5379Z" fill="white"/>
<path d="M916.724 0.946289V75.3742H908.147V0.946289H916.724Z" fill="white"/>
<path d="M845.75 75.3742V0.946289H854.327V28.4207H855.053C855.683 27.4516 856.556 26.2159 857.67 24.7138C858.809 23.1875 860.432 21.8307 862.54 20.6435C864.672 19.4321 867.555 18.8264 871.189 18.8264C875.889 18.8264 880.032 20.0015 883.618 22.3516C887.204 24.7017 890.002 28.033 892.013 32.3456C894.024 36.6581 895.029 41.746 895.029 47.6091C895.029 53.5207 894.024 58.6449 892.013 62.9817C890.002 67.2942 887.216 70.6377 883.654 73.012C880.093 75.3621 875.986 76.5372 871.335 76.5372C867.749 76.5372 864.878 75.9436 862.722 74.7564C860.565 73.545 858.906 72.1762 857.743 70.6498C856.58 69.0992 855.683 67.8151 855.053 66.7976H854.036V75.3742H845.75ZM854.181 47.4638C854.181 51.6794 854.799 55.3984 856.035 58.6207C857.27 61.8188 859.075 64.3263 861.45 66.1434C863.824 67.9363 866.731 68.8327 870.172 68.8327C873.757 68.8327 876.75 67.8878 879.148 65.9981C881.571 64.0841 883.388 61.5159 884.599 58.2936C885.835 55.0471 886.453 51.4371 886.453 47.4638C886.453 43.5388 885.847 40.0016 884.636 36.852C883.449 33.6781 881.644 31.1705 879.221 29.3292C876.822 27.4637 873.806 26.5309 870.172 26.5309C866.683 26.5309 863.751 27.4152 861.377 29.1838C859.003 30.9283 857.21 33.3753 855.998 36.5249C854.787 39.6503 854.181 43.2966 854.181 47.4638Z" fill="white"/>
<path d="M731.355 52.552V19.5537H739.931V75.3747H731.355V65.9258H730.773C729.465 68.7605 727.43 71.1712 724.668 73.1578C721.906 75.1203 718.417 76.1015 714.201 76.1015C710.712 76.1015 707.611 75.3383 704.898 73.812C702.184 72.2614 700.052 69.9355 698.502 66.8344C696.951 63.709 696.176 59.7719 696.176 55.0233V19.5537H704.752V54.4418C704.752 58.5121 705.891 61.7586 708.169 64.1814C710.47 66.6042 713.402 67.8156 716.963 67.8156C719.095 67.8156 721.264 67.2705 723.468 66.1802C725.697 65.09 727.563 63.4182 729.065 61.165C730.591 58.9119 731.355 56.0409 731.355 52.552Z" fill="white"/>
<path d="M658.099 75.3748V19.5538H666.385V27.9851H666.966C667.984 25.2232 669.825 22.9821 672.49 21.2619C675.155 19.5417 678.159 18.6816 681.503 18.6816C682.133 18.6816 682.92 18.6938 683.865 18.718C684.81 18.7422 685.525 18.7786 686.009 18.827V27.549C685.718 27.4764 685.052 27.3673 684.01 27.222C682.993 27.0524 681.915 26.9676 680.776 26.9676C678.062 26.9676 675.64 27.5369 673.508 28.6756C671.4 29.7901 669.728 31.3407 668.492 33.3274C667.281 35.2898 666.675 37.5309 666.675 40.0506V75.3748H658.099Z" fill="white"/>
<path fill-rule="evenodd" clip-rule="evenodd" d="M766.794 30.9623C771.972 36.1829 776.519 41.8187 781.181 47.5968C782.929 49.7627 784.693 51.9486 786.512 54.1401L788.734 56.8175L795.445 53.2708L793.222 50.5934C791.537 48.5633 789.862 46.4848 788.168 44.3847C781.847 36.544 775.282 28.4021 767.081 21.3516C767.064 21.3368 767.046 21.3211 767.027 21.3044C766.699 21.0224 766.071 20.4824 765.383 19.9378C764.736 19.4261 763.736 18.6663 762.777 18.1863C762.52 18.058 762.12 17.8753 761.618 17.7423C761.188 17.6286 760.132 17.4005 758.887 17.7367C757.367 18.1471 756.569 19.1037 756.261 19.8756C756.006 20.5161 756.053 21.0649 756.082 21.2933C756.141 21.7684 756.311 22.1811 756.366 22.3126C756.367 22.3158 756.368 22.3189 756.369 22.3218C756.437 22.4856 756.456 22.5289 756.458 22.5289C757.26 24.8295 757.887 27.0089 758.33 29.3174C758.606 30.7581 758.887 32.1892 759.165 33.6133C760.623 41.0585 762.043 48.309 762.67 55.7011C762.926 58.7207 763.086 61.5606 763.248 64.4397C763.387 66.912 763.528 69.4131 763.733 72.0815L763.979 75.2869H772.013L771.767 71.689C771.588 69.3563 771.445 66.8579 771.3 64.329C771.125 61.2736 770.947 58.1736 770.701 55.2675C770.048 47.5695 768.564 39.9979 767.106 32.5545C767.001 32.0231 766.897 31.4924 766.794 30.9623ZM764.013 20.3098C764.005 20.2879 764.001 20.278 764.002 20.2785C764.002 20.279 764.007 20.2899 764.013 20.3098Z" fill="white"/>
<path fill-rule="evenodd" clip-rule="evenodd" d="M815.212 30.9623C810.034 36.1829 805.487 41.8187 800.825 47.5968C799.077 49.7627 797.313 51.9486 795.494 54.1401L793.272 56.8175L786.561 53.2708L788.783 50.5934C790.469 48.5633 792.144 46.4848 793.837 44.3847C800.159 36.544 806.723 28.4021 814.924 21.3516C814.942 21.3368 814.96 21.3211 814.979 21.3044C815.307 21.0224 815.935 20.4824 816.623 19.9378C817.27 19.4261 818.27 18.6663 819.229 18.1863C819.485 18.058 819.886 17.8753 820.388 17.7423C820.818 17.6286 821.874 17.4005 823.119 17.7367C824.639 18.1471 825.437 19.1037 825.745 19.8756C826 20.5161 825.952 21.0649 825.924 21.2933C825.865 21.7684 825.695 22.1811 825.64 22.3126C825.639 22.3158 825.638 22.3189 825.637 22.3218C825.569 22.4856 825.55 22.5289 825.548 22.5289C824.746 24.8295 824.119 27.0089 823.676 29.3174C823.4 30.7581 823.119 32.1892 822.84 33.6133C821.383 41.0585 819.963 48.309 819.336 55.7011C819.08 58.7207 818.92 61.5606 818.758 64.4397C818.619 66.912 818.478 69.4131 818.273 72.0815L818.027 75.2869H809.993L810.239 71.689C810.418 69.3563 810.561 66.8579 810.706 64.329C810.881 61.2736 811.059 58.1736 811.305 55.2675C811.958 47.5695 813.442 39.9979 814.9 32.5545C815.004 32.0231 815.108 31.4924 815.212 30.9623ZM817.992 20.3098C818.001 20.2879 818.005 20.278 818.004 20.2785C818.004 20.279 817.999 20.2899 817.992 20.3098Z" fill="white"/>
<path fill-rule="evenodd" clip-rule="evenodd" d="M794.457 53.6997C794.964 53.9326 795.138 54.4493 794.847 54.8538C794.74 55.0014 794.633 55.1497 794.526 55.2984C794.246 55.6872 793.965 56.0786 793.68 56.4676C793.633 56.533 793.584 56.6008 793.533 56.6703C793.244 57.0702 792.912 57.5293 792.517 57.9442C792.517 57.9446 792.516 57.9458 792.514 57.9479C792.489 57.9761 792.326 58.1579 792.145 58.297C792.044 58.3743 791.873 58.4913 791.64 58.5703C791.385 58.6564 791 58.7123 790.594 58.5644C790.243 58.4361 790.017 58.2139 789.919 58.1136C789.859 58.0524 789.806 57.9918 789.769 57.9506L789.769 57.9498C789.725 57.9005 789.708 57.8812 789.696 57.8689C789.387 57.5551 789.079 57.2287 788.789 56.8789C788.722 56.7991 788.642 56.7082 788.555 56.6087C788.281 56.2961 787.933 55.8993 787.697 55.5002C787.448 55.0781 787.674 54.5745 788.203 54.3754C788.733 54.1764 789.364 54.3573 789.613 54.7795C789.766 55.0387 789.955 55.2542 790.193 55.5248C790.302 55.6497 790.422 55.7865 790.554 55.9447C790.733 56.1606 790.925 56.3711 791.128 56.5838C791.315 56.3551 791.492 56.1103 791.685 55.8438C791.739 55.7697 791.794 55.694 791.85 55.6164C792.131 55.2325 792.408 54.8481 792.686 54.4611C792.794 54.3113 792.902 54.1612 793.011 54.0105C793.303 53.606 793.95 53.4669 794.457 53.6997ZM790.677 57.0782C790.673 57.0815 790.673 57.0807 790.679 57.0771C790.678 57.0775 790.678 57.0779 790.677 57.0782Z" fill="white"/>
<path fill-rule="evenodd" clip-rule="evenodd" d="M790.219 53.0136C790.777 52.8739 791.371 53.1216 791.547 53.567C791.727 54.0267 791.866 54.5339 791.991 54.9898C792.017 55.0856 792.043 55.1791 792.068 55.2694C792.224 55.4243 792.313 55.6236 792.301 55.838C792.3 55.8623 792.293 55.9473 792.286 56.0192C792.282 56.0551 792.277 56.1007 792.272 56.1395L792.272 56.1405C792.27 56.1536 792.264 56.1957 792.252 56.2412C792.249 56.2549 792.241 56.2808 792.23 56.3124C792.23 56.3128 792.229 56.3133 792.229 56.3139C792.222 56.3327 792.191 56.4174 792.12 56.5117C792.088 56.554 791.988 56.6813 791.791 56.7839C791.535 56.9171 791.146 56.985 790.761 56.8407C790.471 56.7318 790.335 56.5543 790.295 56.4988C790.241 56.425 790.214 56.361 790.202 56.3306C790.161 56.2289 790.136 56.1322 790.12 56.0676C790.113 56.0407 790.108 56.0196 790.103 56.0021C790.095 55.9674 790.09 55.9464 790.082 55.9219C790.012 55.6876 789.952 55.468 789.895 55.2576C789.781 54.8406 789.678 54.4599 789.525 54.0729C789.35 53.6276 789.661 53.1533 790.219 53.0136ZM790.167 55.9482C790.167 55.9525 790.167 55.9516 790.167 55.9468C790.167 55.9473 790.167 55.9478 790.167 55.9482Z" fill="white"/>
<path d="M1290.89 75.5906C1285.51 75.5906 1280.87 74.4034 1276.97 72.0291C1273.09 69.6306 1270.1 66.2871 1267.99 61.9988C1265.91 57.6862 1264.87 52.6711 1264.87 46.9533C1264.87 41.2355 1265.91 36.1961 1267.99 31.8351C1270.1 27.4499 1273.03 24.0338 1276.79 21.5867C1280.56 19.1155 1284.97 17.8799 1290.01 17.8799C1292.92 17.8799 1295.79 18.3644 1298.63 19.3335C1301.46 20.3027 1304.04 21.8775 1306.37 24.058C1308.69 26.2143 1310.55 29.0731 1311.93 32.6346C1313.31 36.1961 1314 40.5814 1314 45.7904V49.4245H1270.97V42.0108H1305.28C1305.28 38.8612 1304.65 36.0508 1303.39 33.5795C1302.15 31.1083 1300.38 29.1579 1298.08 27.7285C1295.8 26.2991 1293.11 25.5843 1290.01 25.5843C1286.6 25.5843 1283.64 26.4323 1281.15 28.1283C1278.68 29.8 1276.77 31.9805 1275.44 34.6698C1274.11 37.3591 1273.44 40.2422 1273.44 43.3191V48.2616C1273.44 52.4772 1274.17 56.0509 1275.62 58.9824C1277.1 61.8898 1279.15 64.1066 1281.76 65.633C1284.38 67.1351 1287.42 67.8861 1290.89 67.8861C1293.14 67.8861 1295.17 67.5712 1296.99 66.9413C1298.83 66.2871 1300.42 65.318 1301.75 64.0339C1303.08 62.7256 1304.11 61.1024 1304.84 59.1641L1313.13 61.49C1312.25 64.3004 1310.79 66.7717 1308.73 68.9037C1306.67 71.0115 1304.13 72.659 1301.1 73.8462C1298.07 75.0091 1294.67 75.5906 1290.89 75.5906Z" fill="white"/>
<path d="M1251.77 0V74.428H1243.2V0H1251.77Z" fill="white"/>
<path d="M1180.8 74.4279V0H1189.38V27.4744H1190.1C1190.73 26.5053 1191.6 25.2696 1192.72 23.7675C1193.86 22.2412 1195.48 20.8844 1197.59 19.6972C1199.72 18.4858 1202.6 17.8802 1206.24 17.8802C1210.94 17.8802 1215.08 19.0552 1218.67 21.4053C1222.25 23.7554 1225.05 27.0867 1227.06 31.3993C1229.07 35.7118 1230.08 40.7997 1230.08 46.6628C1230.08 52.5744 1229.07 57.6986 1227.06 62.0354C1225.05 66.348 1222.26 69.6914 1218.7 72.0657C1215.14 74.4158 1211.04 75.5909 1206.38 75.5909C1202.8 75.5909 1199.93 74.9973 1197.77 73.8101C1195.61 72.5987 1193.95 71.2299 1192.79 69.7035C1191.63 68.1529 1190.73 66.8689 1190.1 65.8513H1189.08V74.4279H1180.8ZM1189.23 46.5175C1189.23 50.7331 1189.85 54.4521 1191.08 57.6744C1192.32 60.8725 1194.12 63.38 1196.5 65.1971C1198.87 66.99 1201.78 67.8864 1205.22 67.8864C1208.81 67.8864 1211.8 66.9415 1214.2 65.0518C1216.62 63.1378 1218.44 60.5696 1219.65 57.3473C1220.88 54.1008 1221.5 50.4908 1221.5 46.5175C1221.5 42.5926 1220.9 39.0553 1219.68 35.9057C1218.5 32.7318 1216.69 30.2242 1214.27 28.3829C1211.87 26.5174 1208.85 25.5846 1205.22 25.5846C1201.73 25.5846 1198.8 26.4689 1196.43 28.2376C1194.05 29.982 1192.26 32.429 1191.05 35.5786C1189.84 38.704 1189.23 42.3503 1189.23 46.5175Z" fill="white"/>
<path d="M1066.4 51.6048V18.6064H1074.98V74.4274H1066.4V64.9786H1065.82C1064.51 67.8132 1062.48 70.2239 1059.72 72.2106C1056.95 74.173 1053.47 75.1542 1049.25 75.1542C1045.76 75.1542 1042.66 74.3911 1039.95 72.8647C1037.23 71.3141 1035.1 68.9883 1033.55 65.8871C1032 62.7617 1031.22 58.8247 1031.22 54.076V18.6064H1039.8V53.4945C1039.8 57.5648 1040.94 60.8114 1043.22 63.2341C1045.52 65.6569 1048.45 66.8683 1052.01 66.8683C1054.14 66.8683 1056.31 66.3232 1058.52 65.2329C1060.75 64.1427 1062.61 62.471 1064.11 60.2178C1065.64 57.9646 1066.4 55.0936 1066.4 51.6048Z" fill="white"/>
<path d="M993.147 74.4285V18.6076H1001.43V27.0388H1002.01C1003.03 24.2769 1004.87 22.0358 1007.54 20.3156C1010.2 18.5954 1013.21 17.7354 1016.55 17.7354C1017.18 17.7354 1017.97 17.7475 1018.91 17.7717C1019.86 17.7959 1020.57 17.8323 1021.06 17.8807V26.6027C1020.77 26.5301 1020.1 26.421 1019.06 26.2757C1018.04 26.1061 1016.96 26.0213 1015.82 26.0213C1013.11 26.0213 1010.69 26.5906 1008.56 27.7293C1006.45 28.8438 1004.78 30.3944 1003.54 32.3811C1002.33 34.3435 1001.72 36.5846 1001.72 39.1043V74.4285H993.147Z" fill="white"/>
<path fill-rule="evenodd" clip-rule="evenodd" d="M1101.84 30.016C1107.02 35.2366 1111.57 40.8724 1116.23 46.6505C1117.98 48.8164 1119.74 51.0023 1121.56 53.1938L1123.78 55.8712L1130.49 52.3245L1128.27 49.6471C1126.59 47.617 1124.91 45.5385 1123.22 43.4385C1116.9 35.5977 1110.33 27.4558 1102.13 20.4053C1102.11 20.3905 1102.1 20.3748 1102.08 20.3581C1101.75 20.0762 1101.12 19.5361 1100.43 18.9915C1099.79 18.4798 1098.79 17.72 1097.83 17.24C1097.57 17.1117 1097.17 16.929 1096.67 16.796C1096.24 16.6823 1095.18 16.4542 1093.94 16.7904C1092.42 17.2008 1091.62 18.1574 1091.31 18.9293C1091.06 19.5698 1091.1 20.1186 1091.13 20.347C1091.19 20.8221 1091.36 21.2348 1091.42 21.3663C1091.42 21.3696 1091.42 21.3726 1091.42 21.3755C1091.49 21.5393 1091.51 21.5826 1091.51 21.5826C1092.31 23.8832 1092.94 26.0626 1093.38 28.3711C1093.66 29.8118 1093.94 31.243 1094.22 32.667C1095.67 40.1122 1097.09 47.3627 1097.72 54.7548C1097.98 57.7744 1098.14 60.6144 1098.3 63.4934C1098.44 65.9657 1098.58 68.4668 1098.78 71.1353L1099.03 74.3406H1107.06L1106.82 70.7428C1106.64 68.41 1106.49 65.9116 1106.35 63.3827C1106.17 60.3273 1106 57.2274 1105.75 54.3212C1105.1 46.6233 1103.61 39.0516 1102.16 31.6082C1102.05 31.0768 1101.95 30.5461 1101.84 30.016ZM1099.06 19.3635C1099.05 19.3416 1099.05 19.3317 1099.05 19.3322C1099.05 19.3327 1099.06 19.3436 1099.06 19.3635Z" fill="white"/>
<path fill-rule="evenodd" clip-rule="evenodd" d="M1150.26 30.016C1145.08 35.2366 1140.54 40.8724 1135.87 46.6505C1134.13 48.8164 1132.36 51.0023 1130.54 53.1938L1128.32 55.8712L1121.61 52.3245L1123.83 49.6471C1125.52 47.617 1127.19 45.5385 1128.89 43.4385C1135.21 35.5977 1141.77 27.4558 1149.97 20.4053C1149.99 20.3905 1150.01 20.3748 1150.03 20.3581C1150.36 20.0762 1150.98 19.5361 1151.67 18.9915C1152.32 18.4798 1153.32 17.72 1154.28 17.24C1154.54 17.1117 1154.94 16.929 1155.44 16.796C1155.87 16.6823 1156.92 16.4542 1158.17 16.7904C1159.69 17.2008 1160.49 18.1574 1160.79 18.9293C1161.05 19.5698 1161 20.1186 1160.97 20.347C1160.92 20.8221 1160.74 21.2348 1160.69 21.3663C1160.69 21.3696 1160.69 21.3726 1160.69 21.3755C1160.62 21.5393 1160.6 21.5826 1160.6 21.5826C1159.8 23.8832 1159.17 26.0626 1158.73 28.3711C1158.45 29.8118 1158.17 31.243 1157.89 32.667C1156.43 40.1122 1155.01 47.3627 1154.39 54.7548C1154.13 57.7744 1153.97 60.6144 1153.81 63.4934C1153.67 65.9657 1153.53 68.4668 1153.32 71.1353L1153.08 74.3406H1145.04L1145.29 70.7428C1145.47 68.41 1145.61 65.9116 1145.76 63.3827C1145.93 60.3273 1146.11 57.2274 1146.35 54.3212C1147.01 46.6233 1148.49 39.0516 1149.95 31.6082C1150.05 31.0768 1150.16 30.5461 1150.26 30.016ZM1153.04 19.3635C1153.05 19.3416 1153.05 19.3317 1153.05 19.3322C1153.05 19.3327 1153.05 19.3436 1153.04 19.3635Z" fill="white"/>
<path fill-rule="evenodd" clip-rule="evenodd" d="M1129.51 52.7544C1130.01 52.9873 1130.19 53.504 1129.9 53.9085C1129.79 54.0561 1129.68 54.2044 1129.58 54.3531C1129.3 54.7419 1129.01 55.1333 1128.73 55.5223C1128.68 55.5877 1128.63 55.6555 1128.58 55.725C1128.29 56.1249 1127.96 56.584 1127.57 56.9989C1127.57 56.9993 1127.57 57.0005 1127.56 57.0026C1127.54 57.0308 1127.38 57.2126 1127.19 57.3517C1127.09 57.429 1126.92 57.546 1126.69 57.6249C1126.44 57.7111 1126.05 57.767 1125.64 57.6191C1125.29 57.4908 1125.07 57.2686 1124.97 57.1683C1124.91 57.1071 1124.86 57.0465 1124.82 57.0053L1124.82 57.0045C1124.78 56.9552 1124.76 56.9359 1124.75 56.9236C1124.44 56.6098 1124.13 56.2834 1123.84 55.9336C1123.77 55.8538 1123.69 55.7629 1123.61 55.6634C1123.33 55.3508 1122.98 54.954 1122.75 54.5549C1122.5 54.1327 1122.72 53.6292 1123.25 53.4301C1123.78 53.2311 1124.41 53.412 1124.66 53.8342C1124.82 54.0934 1125.01 54.3089 1125.24 54.5794C1125.35 54.7044 1125.47 54.8412 1125.6 54.9994C1125.78 55.2152 1125.97 55.4258 1126.18 55.6385C1126.36 55.4098 1126.54 55.165 1126.74 54.8985C1126.79 54.8244 1126.84 54.7487 1126.9 54.6711C1127.18 54.2871 1127.46 53.9028 1127.74 53.5158C1127.84 53.366 1127.95 53.2159 1128.06 53.0652C1128.35 52.6607 1129 52.5216 1129.51 52.7544ZM1125.73 56.1329C1125.72 56.1362 1125.72 56.1354 1125.73 56.1318C1125.73 56.1322 1125.73 56.1326 1125.73 56.1329Z" fill="white"/>
<path fill-rule="evenodd" clip-rule="evenodd" d="M1125.27 52.0683C1125.83 51.9286 1126.42 52.1763 1126.6 52.6217C1126.78 53.0814 1126.92 53.5886 1127.04 54.0445C1127.07 54.1403 1127.09 54.2338 1127.12 54.3241C1127.27 54.479 1127.36 54.6783 1127.35 54.8927C1127.35 54.917 1127.34 55.002 1127.34 55.0739C1127.33 55.1097 1127.33 55.1553 1127.32 55.1942L1127.32 55.1952C1127.32 55.2083 1127.31 55.2504 1127.3 55.2959C1127.3 55.3096 1127.29 55.3355 1127.28 55.3671C1127.28 55.3675 1127.28 55.368 1127.28 55.3686C1127.27 55.3873 1127.24 55.4721 1127.17 55.5664C1127.14 55.6087 1127.04 55.736 1126.84 55.8386C1126.58 55.9718 1126.2 56.0397 1125.81 55.8954C1125.52 55.7865 1125.38 55.609 1125.34 55.5535C1125.29 55.4797 1125.26 55.4156 1125.25 55.3853C1125.21 55.2836 1125.19 55.1869 1125.17 55.1223C1125.16 55.0954 1125.16 55.0743 1125.15 55.0568C1125.14 55.022 1125.14 55.0011 1125.13 54.9766C1125.06 54.7423 1125 54.5227 1124.94 54.3123C1124.83 53.8953 1124.73 53.5146 1124.58 53.1276C1124.4 52.6823 1124.71 52.208 1125.27 52.0683ZM1125.22 55.0029C1125.22 55.0072 1125.22 55.0063 1125.22 55.0015C1125.22 55.002 1125.22 55.0025 1125.22 55.0029Z" fill="white"/>
</svg>
