<svg width="1278" height="78" viewBox="0 0 1278 78" fill="none" xmlns="http://www.w3.org/2000/svg">
<path d="M286.962 77.4832C281.778 77.4832 277.306 76.296 273.547 73.9217C269.81 71.5231 266.927 68.1797 264.895 63.8914C262.887 59.5788 261.883 54.5636 261.883 48.8459C261.883 43.1281 262.887 38.0887 264.895 33.7277C266.927 29.3425 269.752 25.9263 273.371 23.4793C277.014 21.0081 281.264 19.7725 286.121 19.7725C288.923 19.7725 291.69 20.257 294.422 21.2261C297.154 22.1952 299.641 23.7701 301.883 25.9506C304.124 28.1068 305.911 30.9657 307.242 34.5272C308.573 38.0887 309.238 42.4739 309.238 47.6829V51.3171H267.767V43.9034H300.832C300.832 40.7538 300.225 37.9433 299.011 35.4721C297.82 33.0009 296.115 31.0505 293.897 29.6211C291.702 28.1916 289.11 27.4769 286.121 27.4769C282.829 27.4769 279.98 28.3249 277.575 30.0208C275.193 31.6926 273.36 33.8731 272.075 36.5624C270.791 39.2516 270.149 42.1348 270.149 45.2117V50.1542C270.149 54.3698 270.85 57.9434 272.251 60.875C273.675 63.7823 275.648 65.9992 278.17 67.5255C280.692 69.0277 283.622 69.7787 286.962 69.7787C289.133 69.7787 291.095 69.4638 292.846 68.8338C294.621 68.1797 296.15 67.2106 297.434 65.9265C298.719 64.6182 299.711 62.9949 300.412 61.0567L308.398 63.3826C307.557 66.193 306.144 68.6643 304.159 70.7963C302.175 72.9041 299.723 74.5516 296.804 75.7388C293.885 76.9017 290.604 77.4832 286.962 77.4832Z" fill="white"/>
<path d="M249.263 1.89258V76.3205H240.997V1.89258H249.263Z" fill="white"/>
<path d="M180.858 76.3205V1.89258H189.125V29.367H189.825C190.432 28.3978 191.273 27.1622 192.347 25.6601C193.444 24.1337 195.009 22.777 197.041 21.5898C199.095 20.3784 201.874 19.7727 205.377 19.7727C209.907 19.7727 213.9 20.9478 217.356 23.2979C220.812 25.648 223.509 28.9793 225.447 33.2919C227.385 37.6044 228.354 42.6923 228.354 48.5554C228.354 54.467 227.385 59.5912 225.447 63.928C223.509 68.2405 220.823 71.584 217.391 73.9583C213.958 76.3084 210 77.4835 205.517 77.4835C202.061 77.4835 199.294 76.8899 197.216 75.7027C195.137 74.4913 193.538 73.1225 192.417 71.5961C191.296 70.0455 190.432 68.7614 189.825 67.7439H188.844V76.3205H180.858ZM188.984 48.41C188.984 52.6257 189.58 56.3447 190.771 59.567C191.962 62.765 193.701 65.2726 195.99 67.0897C198.278 68.8826 201.08 69.779 204.396 69.779C207.852 69.779 210.736 68.8341 213.047 66.9443C215.383 65.0303 217.134 62.4622 218.301 59.2399C219.492 55.9934 220.088 52.3834 220.088 48.41C220.088 44.4851 219.504 40.9479 218.336 37.7982C217.192 34.6244 215.453 32.1168 213.118 30.2755C210.806 28.41 207.899 27.4772 204.396 27.4772C201.033 27.4772 198.208 28.3615 195.92 30.1301C193.631 31.8745 191.903 34.3216 190.736 37.4712C189.568 40.5966 188.984 44.2429 188.984 48.41Z" fill="white"/>
<path d="M70.6036 53.4974V20.499H78.8698V76.32H70.6036V66.8711H70.0432C68.7823 69.7058 66.8208 72.1165 64.1588 74.1031C61.4968 76.0656 58.1343 77.0468 54.0712 77.0468C50.7087 77.0468 47.7198 76.2837 45.1045 74.7573C42.4892 73.2067 40.4344 70.8808 38.9399 67.7797C37.4455 64.6543 36.6982 60.7173 36.6982 55.9686V20.499H44.9644V55.3871C44.9644 59.4574 46.0619 62.7039 48.2569 65.1267C50.4752 67.5495 53.3007 68.7609 56.7332 68.7609C58.7881 68.7609 60.878 68.2158 63.0029 67.1255C65.1512 66.0353 66.9492 64.3635 68.397 62.1104C69.8681 59.8572 70.6036 56.9862 70.6036 53.4974Z" fill="white"/>
<path d="M0 76.3211V20.5001H7.98598V28.9314H8.5464C9.52713 26.1695 11.3018 23.9284 13.8704 22.2082C16.439 20.488 19.3345 19.6279 22.5569 19.6279C23.164 19.6279 23.9229 19.64 24.8336 19.6643C25.7443 19.6885 26.4331 19.7248 26.9001 19.7733V28.4953C26.6199 28.4226 25.9778 28.3136 24.9737 28.1682C23.993 27.9987 22.9539 27.9139 21.8564 27.9139C19.2411 27.9139 16.906 28.4832 14.8511 29.6219C12.8196 30.7364 11.2084 32.287 10.0175 34.2737C8.84996 36.2361 8.26619 38.4772 8.26619 40.9969V76.3211H0Z" fill="white"/>
<path fill-rule="evenodd" clip-rule="evenodd" d="M104.761 31.9086C109.751 37.1292 114.134 42.765 118.627 48.5431C120.312 50.709 122.012 52.8949 123.765 55.0864L125.907 57.7637L132.375 54.2171L130.233 51.5397C128.609 49.5096 126.993 47.4311 125.361 45.331C119.269 37.4903 112.942 29.3483 105.038 22.2979C105.021 22.2831 105.004 22.2673 104.985 22.2507C104.669 21.9687 104.064 21.4287 103.401 20.8841C102.777 20.3724 101.813 19.6126 100.889 19.1326C100.642 19.0043 100.256 18.8216 99.7719 18.6886C99.358 18.5748 98.3398 18.3468 97.1397 18.683C95.6747 19.0934 94.9056 20.05 94.609 20.8219C94.363 21.4624 94.409 22.0112 94.4363 22.2396C94.493 22.7147 94.6575 23.1274 94.7099 23.2589C94.7112 23.2621 94.7124 23.2652 94.7135 23.2681C94.7787 23.4319 94.7972 23.4752 94.7986 23.4752C95.5718 25.7758 96.1765 27.9552 96.6033 30.2637C96.8696 31.7044 97.1397 33.1355 97.4084 34.5596C98.8135 42.0048 100.182 49.2553 100.786 56.6474C101.033 59.667 101.187 62.5069 101.343 65.3859C101.477 67.8583 101.613 70.3594 101.81 73.0278L102.047 76.2332H109.791L109.554 72.6353C109.381 70.3026 109.243 67.8042 109.104 65.2753C108.935 62.2199 108.764 59.1199 108.526 56.2138C107.897 48.5158 106.467 40.9442 105.061 33.5008C104.961 32.9694 104.861 32.4386 104.761 31.9086ZM102.081 21.2561C102.072 21.2342 102.069 21.2243 102.07 21.2248C102.07 21.2253 102.074 21.2362 102.081 21.2561Z" fill="white"/>
<path fill-rule="evenodd" clip-rule="evenodd" d="M151.426 31.9086C146.435 37.1292 142.052 42.765 137.559 48.5431C135.875 50.709 134.175 52.8949 132.422 55.0864L130.28 57.7637L123.812 54.2171L125.954 51.5397C127.578 49.5096 129.193 47.4311 130.825 45.331C136.918 37.4903 143.245 29.3483 151.149 22.2979C151.165 22.2831 151.183 22.2673 151.201 22.2507C151.517 21.9687 152.122 21.4287 152.786 20.8841C153.409 20.3724 154.373 19.6126 155.298 19.1326C155.544 19.0043 155.931 18.8216 156.415 18.6886C156.829 18.5748 157.847 18.3468 159.047 18.683C160.512 19.0934 161.281 20.05 161.577 20.8219C161.824 21.4624 161.777 22.0112 161.75 22.2396C161.694 22.7147 161.529 23.1274 161.477 23.2589C161.475 23.2621 161.474 23.2652 161.473 23.2681C161.408 23.4319 161.389 23.4752 161.388 23.4752C160.615 25.7758 160.01 27.9552 159.583 30.2637C159.317 31.7044 159.047 33.1355 158.778 34.5596C157.373 42.0048 156.005 49.2553 155.401 56.6474C155.154 59.667 155 62.5069 154.843 65.3859C154.709 67.8583 154.573 70.3594 154.376 73.0278L154.139 76.2332H146.396L146.633 72.6353C146.805 70.3026 146.943 67.8042 147.083 65.2753C147.252 62.2199 147.423 59.1199 147.66 56.2138C148.289 48.5158 149.72 40.9442 151.125 33.5008C151.226 32.9694 151.326 32.4386 151.426 31.9086ZM154.106 21.2561C154.114 21.2342 154.117 21.2243 154.117 21.2248C154.116 21.2253 154.112 21.2362 154.106 21.2561Z" fill="white"/>
<path fill-rule="evenodd" clip-rule="evenodd" d="M131.422 54.646C131.91 54.8789 132.078 55.3956 131.797 55.8001C131.694 55.9477 131.591 56.096 131.488 56.2447C131.219 56.6335 130.947 57.0249 130.673 57.4139C130.627 57.4793 130.58 57.5471 130.531 57.6166C130.253 58.0165 129.933 58.4756 129.552 58.8905C129.552 58.8909 129.551 58.8921 129.549 58.8942C129.525 58.9224 129.368 59.1042 129.193 59.2433C129.096 59.3206 128.931 59.4376 128.706 59.5165C128.461 59.6027 128.089 59.6586 127.699 59.5107C127.36 59.3824 127.142 59.1602 127.048 59.0599C126.99 58.9987 126.939 58.9381 126.904 58.8969L126.903 58.8961C126.861 58.8468 126.844 58.8275 126.833 58.8152C126.535 58.5014 126.238 58.175 125.958 57.8252C125.894 57.7454 125.817 57.6545 125.733 57.555C125.469 57.2424 125.134 56.8456 124.906 56.4465C124.666 56.0243 124.884 55.5208 125.394 55.3217C125.904 55.1227 126.513 55.3036 126.753 55.7258C126.901 55.985 127.083 56.2005 127.312 56.471C127.417 56.596 127.533 56.7328 127.66 56.891C127.833 57.1068 128.017 57.3174 128.213 57.5301C128.393 57.3014 128.564 57.0566 128.75 56.7901C128.802 56.716 128.855 56.6403 128.909 56.5627C129.18 56.1787 129.446 55.7944 129.715 55.4074C129.819 55.2576 129.923 55.1075 130.028 54.9568C130.309 54.5523 130.933 54.4132 131.422 54.646ZM127.778 58.0245C127.774 58.0278 127.775 58.027 127.78 58.0234C127.779 58.0238 127.779 58.0242 127.778 58.0245Z" fill="white"/>
<path fill-rule="evenodd" clip-rule="evenodd" d="M127.339 53.9599C127.876 53.8202 128.449 54.0679 128.618 54.5133C128.792 54.973 128.926 55.4802 129.046 55.9361C129.072 56.0319 129.096 56.1254 129.121 56.2157C129.271 56.3706 129.357 56.5699 129.345 56.7843C129.344 56.8086 129.337 56.8936 129.331 56.9655C129.327 57.0013 129.323 57.0469 129.317 57.0858L129.317 57.0868C129.315 57.0999 129.309 57.142 129.298 57.1875C129.295 57.2012 129.288 57.2271 129.277 57.2587C129.276 57.2591 129.276 57.2596 129.276 57.2602C129.269 57.2789 129.239 57.3637 129.171 57.458C129.14 57.5003 129.044 57.6276 128.854 57.7302C128.607 57.8634 128.232 57.9313 127.861 57.787C127.582 57.6781 127.45 57.5006 127.412 57.4451C127.36 57.3713 127.334 57.3072 127.322 57.2769C127.283 57.1752 127.258 57.0785 127.243 57.0139C127.236 56.987 127.231 56.9659 127.227 56.9484C127.219 56.9137 127.214 56.8927 127.207 56.8682C127.139 56.6339 127.082 56.4143 127.026 56.2039C126.917 55.7869 126.817 55.4062 126.67 55.0192C126.501 54.5739 126.801 54.0996 127.339 53.9599ZM127.289 56.8945C127.288 56.8988 127.288 56.8979 127.289 56.8931C127.289 56.8936 127.289 56.8941 127.289 56.8945Z" fill="white"/>
<path d="M609.882 76.5379C604.698 76.5379 600.226 75.3507 596.466 72.9764C592.73 70.5778 589.847 67.2344 587.815 62.9461C585.807 58.6335 584.803 53.6183 584.803 47.9006C584.803 42.1828 585.807 37.1434 587.815 32.7824C589.847 28.3971 592.672 24.981 596.291 22.534C599.934 20.0628 604.184 18.8271 609.041 18.8271C611.843 18.8271 614.61 19.3117 617.342 20.2808C620.074 21.2499 622.561 22.8247 624.803 25.0052C627.044 27.1615 628.831 30.0204 630.162 33.5819C631.493 37.1434 632.158 41.5286 632.158 46.7376V50.3718H590.687V42.9581H623.752C623.752 39.8085 623.145 36.998 621.931 34.5268C620.74 32.0555 619.035 30.1052 616.817 28.6758C614.622 27.2463 612.03 26.5316 609.041 26.5316C605.748 26.5316 602.9 27.3796 600.494 29.0755C598.113 30.7472 596.28 32.9278 594.995 35.617C593.711 38.3063 593.069 41.1894 593.069 44.2664V49.2089C593.069 53.4245 593.769 56.9981 595.171 59.9297C596.595 62.837 598.568 65.0539 601.09 66.5802C603.612 68.0824 606.542 68.8334 609.882 68.8334C612.053 68.8334 614.015 68.5185 615.766 67.8885C617.541 67.2344 619.07 66.2653 620.354 64.9812C621.639 63.6729 622.631 62.0496 623.332 60.1114L631.318 62.4373C630.477 65.2477 629.064 67.7189 627.079 69.851C625.095 71.9588 622.643 73.6063 619.724 74.7935C616.805 75.9564 613.524 76.5379 609.882 76.5379Z" fill="white"/>
<path d="M572.183 0.946289V75.3742H563.917V0.946289H572.183Z" fill="white"/>
<path d="M503.778 75.3742V0.946289H512.045V28.4207H512.745C513.352 27.4516 514.193 26.2159 515.267 24.7138C516.364 23.1875 517.929 21.8307 519.96 20.6435C522.015 19.4321 524.794 18.8264 528.297 18.8264C532.827 18.8264 536.82 20.0015 540.276 22.3516C543.732 24.7017 546.429 28.033 548.367 32.3456C550.305 36.6581 551.274 41.746 551.274 47.6091C551.274 53.5207 550.305 58.6449 548.367 62.9817C546.429 67.2942 543.743 70.6377 540.311 73.012C536.878 75.3621 532.92 76.5372 528.437 76.5372C524.981 76.5372 522.214 75.9436 520.136 74.7564C518.057 73.545 516.458 72.1762 515.337 70.6498C514.216 69.0992 513.352 67.8151 512.745 66.7976H511.764V75.3742H503.778ZM511.904 47.4638C511.904 51.6794 512.5 55.3984 513.691 58.6207C514.882 61.8188 516.621 64.3263 518.91 66.1434C521.198 67.9363 524 68.8327 527.316 68.8327C530.772 68.8327 533.656 67.8878 535.967 65.9981C538.303 64.0841 540.054 61.5159 541.221 58.2936C542.412 55.0471 543.008 51.4371 543.008 47.4638C543.008 43.5388 542.424 40.0016 541.256 36.852C540.112 33.6781 538.373 31.1705 536.037 29.3292C533.726 27.4637 530.819 26.5309 527.316 26.5309C523.953 26.5309 521.128 27.4152 518.84 29.1838C516.551 30.9283 514.823 33.3753 513.656 36.5249C512.488 39.6503 511.904 43.2966 511.904 47.4638Z" fill="white"/>
<path d="M393.524 52.552V19.5537H401.79V75.3747H393.524V65.9258H392.963C391.702 68.7605 389.741 71.1712 387.079 73.1578C384.417 75.1203 381.054 76.1015 376.991 76.1015C373.629 76.1015 370.64 75.3383 368.024 73.812C365.409 72.2614 363.354 69.9355 361.86 66.8344C360.365 63.709 359.618 59.7719 359.618 55.0233V19.5537H367.884V54.4418C367.884 58.5121 368.982 61.7586 371.177 64.1814C373.395 66.6042 376.221 67.8156 379.653 67.8156C381.708 67.8156 383.798 67.2705 385.923 66.1802C388.071 65.09 389.869 63.4182 391.317 61.165C392.788 58.9119 393.524 56.0409 393.524 52.552Z" fill="white"/>
<path d="M322.92 75.3748V19.5538H330.906V27.9851H331.466C332.447 25.2232 334.222 22.9821 336.79 21.2619C339.359 19.5417 342.254 18.6816 345.477 18.6816C346.084 18.6816 346.843 18.6938 347.754 18.718C348.664 18.7422 349.353 18.7786 349.82 18.827V27.549C349.54 27.4764 348.898 27.3673 347.894 27.222C346.913 27.0524 345.874 26.9676 344.776 26.9676C342.161 26.9676 339.826 27.5369 337.771 28.6756C335.74 29.7901 334.128 31.3407 332.937 33.3274C331.77 35.2898 331.186 37.5309 331.186 40.0506V75.3748H322.92Z" fill="white"/>
<path fill-rule="evenodd" clip-rule="evenodd" d="M427.682 30.9623C432.672 36.1829 437.055 41.8187 441.548 47.5968C443.233 49.7627 444.932 51.9486 446.686 54.1401L448.828 56.8175L455.295 53.2708L453.154 50.5934C451.529 48.5633 449.914 46.4848 448.282 44.3847C442.19 36.544 435.863 28.4021 427.959 21.3516C427.942 21.3368 427.925 21.3211 427.906 21.3044C427.59 21.0224 426.985 20.4824 426.321 19.9378C425.698 19.4261 424.734 18.6663 423.81 18.1863C423.563 18.058 423.177 17.8753 422.693 17.7423C422.279 17.6286 421.261 17.4005 420.061 17.7367C418.596 18.1471 417.826 19.1037 417.53 19.8756C417.284 20.5161 417.33 21.0649 417.357 21.2933C417.414 21.7684 417.578 22.1811 417.631 22.3126C417.632 22.3158 417.633 22.3189 417.634 22.3218C417.7 22.4856 417.718 22.5289 417.719 22.5289C418.493 24.8295 419.097 27.0089 419.524 29.3174C419.79 30.7581 420.061 32.1892 420.329 33.6133C421.734 41.0585 423.103 48.309 423.707 55.7011C423.954 58.7207 424.108 61.5606 424.264 64.4397C424.398 66.912 424.534 69.4131 424.731 72.0815L424.968 75.2869H432.712L432.475 71.689C432.302 69.3563 432.164 66.8579 432.025 64.329C431.856 61.2736 431.685 58.1736 431.447 55.2675C430.818 47.5695 429.388 39.9979 427.982 32.5545C427.882 32.0231 427.781 31.4924 427.682 30.9623ZM425.002 20.3098C424.993 20.2879 424.99 20.278 424.99 20.2785C424.991 20.279 424.995 20.2899 425.002 20.3098Z" fill="white"/>
<path fill-rule="evenodd" clip-rule="evenodd" d="M474.347 30.9623C469.356 36.1829 464.973 41.8187 460.48 47.5968C458.796 49.7627 457.096 51.9486 455.343 54.1401L453.201 56.8175L446.733 53.2708L448.875 50.5934C450.499 48.5633 452.114 46.4848 453.746 44.3847C459.839 36.544 466.165 28.4021 474.069 21.3516C474.086 21.3368 474.104 21.3211 474.122 21.3044C474.438 21.0224 475.043 20.4824 475.707 19.9378C476.33 19.4261 477.294 18.6663 478.218 18.1863C478.465 18.058 478.852 17.8753 479.336 17.7423C479.749 17.6286 480.768 17.4005 481.968 17.7367C483.433 18.1471 484.202 19.1037 484.498 19.8756C484.744 20.5161 484.698 21.0649 484.671 21.2933C484.614 21.7684 484.45 22.1811 484.398 22.3126C484.396 22.3158 484.395 22.3189 484.394 22.3218C484.329 22.4856 484.31 22.5289 484.309 22.5289C483.536 24.8295 482.931 27.0089 482.504 29.3174C482.238 30.7581 481.968 32.1892 481.699 33.6133C480.294 41.0585 478.926 48.309 478.321 55.7011C478.075 58.7207 477.92 61.5606 477.764 64.4397C477.63 66.912 477.494 69.4131 477.297 72.0815L477.06 75.2869H469.317L469.554 71.689C469.726 69.3563 469.864 66.8579 470.004 64.329C470.172 61.2736 470.344 58.1736 470.581 55.2675C471.21 47.5695 472.64 39.9979 474.046 32.5545C474.147 32.0231 474.247 31.4924 474.347 30.9623ZM477.026 20.3098C477.035 20.2879 477.038 20.278 477.038 20.2785C477.037 20.279 477.033 20.2899 477.026 20.3098Z" fill="white"/>
<path fill-rule="evenodd" clip-rule="evenodd" d="M454.343 53.6997C454.832 53.9326 455 54.4493 454.719 54.8538C454.616 55.0014 454.513 55.1497 454.41 55.2984C454.14 55.6872 453.869 56.0786 453.595 56.4676C453.549 56.533 453.502 56.6008 453.453 56.6703C453.175 57.0702 452.855 57.5293 452.474 57.9442C452.474 57.9446 452.473 57.9458 452.471 57.9479C452.447 57.9761 452.29 58.1579 452.115 58.297C452.018 58.3743 451.853 58.4913 451.628 58.5703C451.383 58.6564 451.011 58.7123 450.621 58.5644C450.282 58.4361 450.064 58.2139 449.97 58.1136C449.912 58.0524 449.861 57.9918 449.826 57.9506L449.825 57.9498C449.783 57.9005 449.766 57.8812 449.755 57.8689C449.457 57.5551 449.16 57.2287 448.88 56.8789C448.816 56.7991 448.739 56.7082 448.655 56.6087C448.391 56.2961 448.055 55.8993 447.828 55.5002C447.588 55.0781 447.806 54.5745 448.316 54.3754C448.826 54.1764 449.434 54.3573 449.675 54.7795C449.822 55.0387 450.005 55.2542 450.233 55.5248C450.339 55.6497 450.455 55.7865 450.582 55.9447C450.754 56.1606 450.939 56.3711 451.135 56.5838C451.315 56.3551 451.486 56.1103 451.672 55.8438C451.724 55.7697 451.777 55.694 451.831 55.6164C452.102 55.2325 452.368 54.8481 452.637 54.4611C452.741 54.3113 452.845 54.1612 452.95 54.0105C453.231 53.606 453.855 53.4669 454.343 53.6997ZM450.7 57.0782C450.696 57.0815 450.697 57.0807 450.702 57.0771C450.701 57.0775 450.701 57.0779 450.7 57.0782Z" fill="white"/>
<path fill-rule="evenodd" clip-rule="evenodd" d="M450.258 53.0136C450.796 52.8739 451.369 53.1216 451.538 53.567C451.712 54.0267 451.846 54.5339 451.966 54.9898C451.991 55.0856 452.016 55.1791 452.04 55.2694C452.191 55.4243 452.277 55.6236 452.265 55.838C452.264 55.8623 452.257 55.9473 452.25 56.0192C452.247 56.0551 452.242 56.1007 452.237 56.1395L452.237 56.1405C452.235 56.1536 452.229 56.1957 452.218 56.2412C452.215 56.2549 452.208 56.2808 452.197 56.3124C452.196 56.3128 452.196 56.3133 452.196 56.3139C452.189 56.3327 452.159 56.4174 452.091 56.5117C452.06 56.554 451.964 56.6813 451.773 56.7839C451.527 56.9171 451.152 56.985 450.781 56.8407C450.502 56.7318 450.37 56.5543 450.332 56.4988C450.28 56.425 450.254 56.361 450.242 56.3306C450.203 56.2289 450.178 56.1322 450.163 56.0676C450.156 56.0407 450.151 56.0196 450.147 56.0021C450.139 55.9674 450.134 55.9464 450.127 55.9219C450.059 55.6876 450.002 55.468 449.946 55.2576C449.837 54.8406 449.737 54.4599 449.59 54.0729C449.421 53.6276 449.721 53.1533 450.258 53.0136ZM450.209 55.9482C450.208 55.9525 450.208 55.9516 450.209 55.9468C450.209 55.9473 450.209 55.9478 450.209 55.9482Z" fill="white"/>
<path d="M932.803 76.5379C927.62 76.5379 923.148 75.3507 919.388 72.9764C915.652 70.5778 912.768 67.2344 910.737 62.9461C908.729 58.6335 907.725 53.6183 907.725 47.9006C907.725 42.1828 908.729 37.1434 910.737 32.7824C912.768 28.3971 915.594 24.981 919.213 22.534C922.856 20.0628 927.106 18.8271 931.963 18.8271C934.765 18.8271 937.532 19.3117 940.264 20.2808C942.996 21.2499 945.483 22.8247 947.725 25.0052C949.966 27.1615 951.753 30.0204 953.084 33.5819C954.415 37.1434 955.08 41.5286 955.08 46.7376V50.3718H913.609V42.9581H946.674C946.674 39.8085 946.067 36.998 944.852 34.5268C943.662 32.0555 941.957 30.1052 939.739 28.6758C937.544 27.2463 934.952 26.5316 931.963 26.5316C928.67 26.5316 925.821 27.3796 923.416 29.0755C921.035 30.7472 919.202 32.9278 917.917 35.617C916.633 38.3063 915.991 41.1894 915.991 44.2664V49.2089C915.991 53.4245 916.691 56.9981 918.092 59.9297C919.517 62.837 921.49 65.0539 924.012 66.5802C926.534 68.0824 929.464 68.8334 932.803 68.8334C934.975 68.8334 936.936 68.5185 938.688 67.8885C940.462 67.2344 941.992 66.2653 943.276 64.9812C944.561 63.6729 945.553 62.0496 946.253 60.1114L954.239 62.4373C953.399 65.2477 951.986 67.7189 950.001 69.851C948.016 71.9588 945.565 73.6063 942.646 74.7935C939.727 75.9564 936.446 76.5379 932.803 76.5379Z" fill="white"/>
<path d="M895.105 0.946289V75.3742H886.839V0.946289H895.105Z" fill="white"/>
<path d="M826.701 75.3742V0.946289H834.967V28.4207H835.668C836.275 27.4516 837.116 26.2159 838.19 24.7138C839.287 23.1875 840.852 21.8307 842.883 20.6435C844.938 19.4321 847.717 18.8264 851.22 18.8264C855.75 18.8264 859.743 20.0015 863.198 22.3516C866.654 24.7017 869.351 28.033 871.29 32.3456C873.228 36.6581 874.197 41.746 874.197 47.6091C874.197 53.5207 873.228 58.6449 871.29 62.9817C869.351 67.2942 866.666 70.6377 863.234 73.012C859.801 75.3621 855.843 76.5372 851.36 76.5372C847.904 76.5372 845.137 75.9436 843.058 74.7564C840.98 73.545 839.381 72.1762 838.26 70.6498C837.139 69.0992 836.275 67.8151 835.668 66.7976H834.687V75.3742H826.701ZM834.827 47.4638C834.827 51.6794 835.423 55.3984 836.614 58.6207C837.804 61.8188 839.544 64.3263 841.832 66.1434C844.121 67.9363 846.923 68.8327 850.239 68.8327C853.695 68.8327 856.579 67.8878 858.89 65.9981C861.225 64.0841 862.977 61.5159 864.144 58.2936C865.335 55.0471 865.931 51.4371 865.931 47.4638C865.931 43.5388 865.347 40.0016 864.179 36.852C863.035 33.6781 861.295 31.1705 858.96 29.3292C856.649 27.4637 853.741 26.5309 850.239 26.5309C846.876 26.5309 844.051 27.4152 841.762 29.1838C839.474 30.9283 837.746 33.3753 836.579 36.5249C835.411 39.6503 834.827 43.2966 834.827 47.4638Z" fill="white"/>
<path d="M716.445 52.552V19.5537H724.712V75.3747H716.445V65.9258H715.885C714.624 68.7605 712.663 71.1712 710.001 73.1578C707.339 75.1203 703.976 76.1015 699.913 76.1015C696.551 76.1015 693.562 75.3383 690.946 73.812C688.331 72.2614 686.276 69.9355 684.782 66.8344C683.287 63.709 682.54 59.7719 682.54 55.0233V19.5537H690.806V54.4418C690.806 58.5121 691.904 61.7586 694.099 64.1814C696.317 66.6042 699.142 67.8156 702.575 67.8156C704.63 67.8156 706.72 67.2705 708.845 66.1802C710.993 65.09 712.791 63.4182 714.239 61.165C715.71 58.9119 716.445 56.0409 716.445 52.552Z" fill="white"/>
<path d="M645.842 75.3748V19.5538H653.828V27.9851H654.388C655.369 25.2232 657.144 22.9821 659.712 21.2619C662.281 19.5417 665.176 18.6816 668.399 18.6816C669.006 18.6816 669.765 18.6938 670.675 18.718C671.586 18.7422 672.275 18.7786 672.742 18.827V27.549C672.462 27.4764 671.82 27.3673 670.815 27.222C669.835 27.0524 668.796 26.9676 667.698 26.9676C665.083 26.9676 662.748 27.5369 660.693 28.6756C658.661 29.7901 657.05 31.3407 655.859 33.3274C654.692 35.2898 654.108 37.5309 654.108 40.0506V75.3748H645.842Z" fill="white"/>
<path fill-rule="evenodd" clip-rule="evenodd" d="M750.603 30.9623C755.593 36.1829 759.976 41.8187 764.469 47.5968C766.153 49.7627 767.853 51.9486 769.607 54.1401L771.749 56.8175L778.216 53.2708L776.074 50.5934C774.45 48.5633 772.835 46.4848 771.203 44.3847C765.111 36.544 758.784 28.4021 750.88 21.3516C750.863 21.3368 750.845 21.3211 750.827 21.3044C750.511 21.0224 749.906 20.4824 749.242 19.9378C748.619 19.4261 747.655 18.6663 746.731 18.1863C746.484 18.058 746.098 17.8753 745.614 17.7423C745.2 17.6286 744.182 17.4005 742.981 17.7367C741.516 18.1471 740.747 19.1037 740.451 19.8756C740.205 20.5161 740.251 21.0649 740.278 21.2933C740.335 21.7684 740.499 22.1811 740.552 22.3126C740.553 22.3158 740.554 22.3189 740.555 22.3218C740.62 22.4856 740.639 22.5289 740.64 22.5289C741.414 24.8295 742.018 27.0089 742.445 29.3174C742.711 30.7581 742.981 32.1892 743.25 33.6133C744.655 41.0585 746.024 48.309 746.628 55.7011C746.875 58.7207 747.029 61.5606 747.185 64.4397C747.319 66.912 747.455 69.4131 747.652 72.0815L747.889 75.2869H755.633L755.396 71.689C755.223 69.3563 755.085 66.8579 754.945 64.329C754.777 61.2736 754.606 58.1736 754.368 55.2675C753.739 47.5695 752.309 39.9979 750.903 32.5545C750.803 32.0231 750.702 31.4924 750.603 30.9623ZM747.923 20.3098C747.914 20.2879 747.911 20.278 747.911 20.2785C747.912 20.279 747.916 20.2899 747.923 20.3098Z" fill="white"/>
<path fill-rule="evenodd" clip-rule="evenodd" d="M797.268 30.9623C792.277 36.1829 787.894 41.8187 783.401 47.5968C781.717 49.7627 780.017 51.9486 778.264 54.1401L776.122 56.8175L769.654 53.2708L771.796 50.5934C773.42 48.5633 775.035 46.4848 776.667 44.3847C782.76 36.544 789.086 28.4021 796.99 21.3516C797.007 21.3368 797.025 21.3211 797.043 21.3044C797.359 21.0224 797.964 20.4824 798.628 19.9378C799.251 19.4261 800.215 18.6663 801.139 18.1863C801.386 18.058 801.773 17.8753 802.256 17.7423C802.67 17.6286 803.689 17.4005 804.889 17.7367C806.354 18.1471 807.123 19.1037 807.419 19.8756C807.665 20.5161 807.619 21.0649 807.592 21.2933C807.535 21.7684 807.371 22.1811 807.318 22.3126C807.317 22.3158 807.316 22.3189 807.315 22.3218C807.25 22.4856 807.231 22.5289 807.23 22.5289C806.457 24.8295 805.852 27.0089 805.425 29.3174C805.159 30.7581 804.889 32.1892 804.62 33.6133C803.215 41.0585 801.847 48.309 801.242 55.7011C800.995 58.7207 800.841 61.5606 800.685 64.4397C800.551 66.912 800.415 69.4131 800.218 72.0815L799.981 75.2869H792.237L792.475 71.689C792.647 69.3563 792.785 66.8579 792.925 64.329C793.093 61.2736 793.265 58.1736 793.502 55.2675C794.131 47.5695 795.561 39.9979 796.967 32.5545C797.067 32.0231 797.168 31.4924 797.268 30.9623ZM799.947 20.3098C799.956 20.2879 799.959 20.278 799.959 20.2785C799.958 20.279 799.954 20.2899 799.947 20.3098Z" fill="white"/>
<path fill-rule="evenodd" clip-rule="evenodd" d="M777.264 53.6997C777.753 53.9326 777.921 54.4493 777.64 54.8538C777.537 55.0014 777.434 55.1497 777.331 55.2984C777.061 55.6872 776.79 56.0786 776.516 56.4676C776.47 56.533 776.423 56.6008 776.374 56.6703C776.096 57.0702 775.776 57.5293 775.395 57.9442C775.395 57.9446 775.394 57.9458 775.392 57.9479C775.367 57.9761 775.211 58.1579 775.036 58.297C774.939 58.3743 774.774 58.4913 774.549 58.5703C774.304 58.6564 773.932 58.7123 773.541 58.5644C773.203 58.4361 772.985 58.2139 772.891 58.1136C772.833 58.0524 772.781 57.9918 772.746 57.9506L772.746 57.9498C772.704 57.9005 772.687 57.8812 772.675 57.8689C772.378 57.5551 772.081 57.2287 771.801 56.8789C771.737 56.7991 771.66 56.7082 771.576 56.6087C771.312 56.2961 770.976 55.8993 770.749 55.5002C770.509 55.0781 770.727 54.5745 771.237 54.3754C771.747 54.1764 772.355 54.3573 772.596 54.7795C772.743 55.0387 772.926 55.2542 773.154 55.5248C773.26 55.6497 773.376 55.7865 773.502 55.9447C773.675 56.1606 773.86 56.3711 774.056 56.5838C774.236 56.3551 774.407 56.1103 774.593 55.8438C774.645 55.7697 774.697 55.694 774.752 55.6164C775.022 55.2325 775.289 54.8481 775.558 54.4611C775.661 54.3113 775.766 54.1612 775.87 54.0105C776.152 53.606 776.776 53.4669 777.264 53.6997ZM773.621 57.0782C773.617 57.0815 773.618 57.0807 773.623 57.0771C773.622 57.0775 773.622 57.0779 773.621 57.0782Z" fill="white"/>
<path fill-rule="evenodd" clip-rule="evenodd" d="M773.178 53.0136C773.716 52.8739 774.289 53.1216 774.458 53.567C774.632 54.0267 774.766 54.5339 774.886 54.9898C774.911 55.0856 774.936 55.1791 774.96 55.2694C775.111 55.4243 775.197 55.6236 775.185 55.838C775.184 55.8623 775.177 55.9473 775.17 56.0192C775.167 56.0551 775.162 56.1007 775.157 56.1395L775.157 56.1405C775.155 56.1536 775.149 56.1957 775.138 56.2412C775.135 56.2549 775.128 56.2808 775.116 56.3124C775.116 56.3128 775.116 56.3133 775.116 56.3139C775.109 56.3327 775.079 56.4174 775.011 56.5117C774.98 56.554 774.884 56.6813 774.693 56.7839C774.447 56.9171 774.072 56.985 773.701 56.8407C773.421 56.7318 773.29 56.5543 773.252 56.4988C773.2 56.425 773.173 56.361 773.162 56.3306C773.123 56.2289 773.098 56.1322 773.083 56.0676C773.076 56.0407 773.071 56.0196 773.067 56.0021C773.059 55.9674 773.054 55.9464 773.047 55.9219C772.979 55.6876 772.922 55.468 772.866 55.2576C772.757 54.8406 772.657 54.4599 772.51 54.0729C772.341 53.6276 772.64 53.1533 773.178 53.0136ZM773.129 55.9482C773.128 55.9525 773.128 55.9516 773.129 55.9468C773.129 55.9473 773.129 55.9478 773.129 55.9482Z" fill="white"/>
<path d="M1255.72 75.5906C1250.54 75.5906 1246.07 74.4034 1242.31 72.0291C1238.57 69.6306 1235.69 66.2871 1233.66 61.9988C1231.65 57.6862 1230.64 52.6711 1230.64 46.9533C1230.64 41.2355 1231.65 36.1961 1233.66 31.8351C1235.69 27.4499 1238.51 24.0338 1242.13 21.5867C1245.78 19.1155 1250.03 17.8799 1254.88 17.8799C1257.68 17.8799 1260.45 18.3644 1263.18 19.3335C1265.92 20.3027 1268.4 21.8775 1270.64 24.058C1272.89 26.2143 1274.67 29.0731 1276 32.6346C1277.33 36.1961 1278 40.5814 1278 45.7904V49.4245H1236.53V42.0108H1269.59C1269.59 38.8612 1268.99 36.0508 1267.77 33.5795C1266.58 31.1083 1264.88 29.1579 1262.66 27.7285C1260.46 26.2991 1257.87 25.5843 1254.88 25.5843C1251.59 25.5843 1248.74 26.4323 1246.34 28.1283C1243.95 29.8 1242.12 31.9805 1240.84 34.6698C1239.55 37.3591 1238.91 40.2422 1238.91 43.3191V48.2616C1238.91 52.4772 1239.61 56.0509 1241.01 58.9824C1242.44 61.8898 1244.41 64.1066 1246.93 65.633C1249.45 67.1351 1252.38 67.8861 1255.72 67.8861C1257.89 67.8861 1259.86 67.5712 1261.61 66.9413C1263.38 66.2871 1264.91 65.318 1266.2 64.0339C1267.48 62.7256 1268.47 61.1024 1269.17 59.1641L1277.16 61.49C1276.32 64.3004 1274.91 66.7717 1272.92 68.9037C1270.94 71.0115 1268.48 72.659 1265.57 73.8462C1262.65 75.0091 1259.37 75.5906 1255.72 75.5906Z" fill="white"/>
<path d="M1218.03 0V74.428H1209.76V0H1218.03Z" fill="white"/>
<path d="M1149.62 74.4279V0H1157.89V27.4744H1158.59C1159.19 26.5053 1160.04 25.2696 1161.11 23.7675C1162.21 22.2412 1163.77 20.8844 1165.8 19.6972C1167.86 18.4858 1170.64 17.8802 1174.14 17.8802C1178.67 17.8802 1182.66 19.0552 1186.12 21.4053C1189.57 23.7554 1192.27 27.0867 1194.21 31.3993C1196.15 35.7118 1197.12 40.7997 1197.12 46.6628C1197.12 52.5744 1196.15 57.6986 1194.21 62.0354C1192.27 66.348 1189.59 69.6914 1186.15 72.0657C1182.72 74.4158 1178.76 75.5909 1174.28 75.5909C1170.82 75.5909 1168.06 74.9973 1165.98 73.8101C1163.9 72.5987 1162.3 71.2299 1161.18 69.7035C1160.06 68.1529 1159.19 66.8689 1158.59 65.8513H1157.61V74.4279H1149.62ZM1157.75 46.5175C1157.75 50.7331 1158.34 54.4521 1159.53 57.6744C1160.72 60.8725 1162.46 63.38 1164.75 65.1971C1167.04 66.99 1169.84 67.8864 1173.16 67.8864C1176.61 67.8864 1179.5 66.9415 1181.81 65.0518C1184.15 63.1378 1185.9 60.5696 1187.06 57.3473C1188.26 54.1008 1188.85 50.4908 1188.85 46.5175C1188.85 42.5926 1188.27 39.0553 1187.1 35.9057C1185.95 32.7318 1184.22 30.2242 1181.88 28.3829C1179.57 26.5174 1176.66 25.5846 1173.16 25.5846C1169.8 25.5846 1166.97 26.4689 1164.68 28.2376C1162.39 29.982 1160.67 32.429 1159.5 35.5786C1158.33 38.704 1157.75 42.3503 1157.75 46.5175Z" fill="white"/>
<path d="M1039.37 51.6048V18.6064H1047.63V74.4274H1039.37V64.9786H1038.81C1037.54 67.8132 1035.58 70.2239 1032.92 72.2106C1030.26 74.173 1026.9 75.1542 1022.83 75.1542C1019.47 75.1542 1016.48 74.3911 1013.87 72.8647C1011.25 71.3141 1009.2 68.9883 1007.7 65.8871C1006.21 62.7617 1005.46 58.8247 1005.46 54.076V18.6064H1013.73V53.4945C1013.73 57.5648 1014.82 60.8114 1017.02 63.2341C1019.24 65.6569 1022.06 66.8683 1025.5 66.8683C1027.55 66.8683 1029.64 66.3232 1031.77 65.2329C1033.91 64.1427 1035.71 62.471 1037.16 60.2178C1038.63 57.9646 1039.37 55.0936 1039.37 51.6048Z" fill="white"/>
<path d="M968.763 74.4285V18.6076H976.749V27.0388H977.309C978.29 24.2769 980.064 22.0358 982.633 20.3156C985.202 18.5954 988.097 17.7354 991.32 17.7354C991.927 17.7354 992.686 17.7475 993.596 17.7717C994.507 17.7959 995.196 17.8323 995.663 17.8807V26.6027C995.383 26.5301 994.74 26.421 993.736 26.2757C992.756 26.1061 991.717 26.0213 990.619 26.0213C988.004 26.0213 985.669 26.5906 983.614 27.7293C981.582 28.8438 979.971 30.3944 978.78 32.3811C977.613 34.3435 977.029 36.5846 977.029 39.1043V74.4285H968.763Z" fill="white"/>
<path fill-rule="evenodd" clip-rule="evenodd" d="M1073.52 30.016C1078.51 35.2366 1082.9 40.8724 1087.39 46.6505C1089.07 48.8164 1090.77 51.0023 1092.53 53.1938L1094.67 55.8712L1101.14 52.3245L1098.99 49.6471C1097.37 47.617 1095.76 45.5385 1094.12 43.4385C1088.03 35.5977 1081.7 27.4558 1073.8 20.4053C1073.78 20.3905 1073.77 20.3748 1073.75 20.3581C1073.43 20.0762 1072.83 19.5361 1072.16 18.9915C1071.54 18.4798 1070.57 17.72 1069.65 17.24C1069.4 17.1117 1069.02 16.929 1068.53 16.796C1068.12 16.6823 1067.1 16.4542 1065.9 16.7904C1064.44 17.2008 1063.67 18.1574 1063.37 18.9293C1063.12 19.5698 1063.17 20.1186 1063.2 20.347C1063.25 20.8221 1063.42 21.2348 1063.47 21.3663C1063.47 21.3696 1063.47 21.3726 1063.48 21.3755C1063.54 21.5393 1063.56 21.5826 1063.56 21.5826C1064.33 23.8832 1064.94 26.0626 1065.36 28.3711C1065.63 29.8118 1065.9 31.243 1066.17 32.667C1067.58 40.1122 1068.94 47.3627 1069.55 54.7548C1069.79 57.7744 1069.95 60.6144 1070.1 63.4934C1070.24 65.9657 1070.37 68.4668 1070.57 71.1353L1070.81 74.3406H1078.55L1078.32 70.7428C1078.14 68.41 1078.01 65.9116 1077.87 63.3827C1077.7 60.3273 1077.53 57.2274 1077.29 54.3212C1076.66 46.6233 1075.23 39.0516 1073.82 31.6082C1073.72 31.0768 1073.62 30.5461 1073.52 30.016ZM1070.84 19.3635C1070.83 19.3416 1070.83 19.3317 1070.83 19.3322C1070.83 19.3327 1070.84 19.3436 1070.84 19.3635Z" fill="white"/>
<path fill-rule="evenodd" clip-rule="evenodd" d="M1120.19 30.016C1115.2 35.2366 1110.81 40.8724 1106.32 46.6505C1104.64 48.8164 1102.94 51.0023 1101.18 53.1938L1099.04 55.8712L1092.57 52.3245L1094.72 49.6471C1096.34 47.617 1097.95 45.5385 1099.59 43.4385C1105.68 35.5977 1112.01 27.4558 1119.91 20.4053C1119.93 20.3905 1119.94 20.3748 1119.96 20.3581C1120.28 20.0762 1120.88 19.5361 1121.55 18.9915C1122.17 18.4798 1123.14 17.72 1124.06 17.24C1124.31 17.1117 1124.69 16.929 1125.18 16.796C1125.59 16.6823 1126.61 16.4542 1127.81 16.7904C1129.27 17.2008 1130.04 18.1574 1130.34 18.9293C1130.59 19.5698 1130.54 20.1186 1130.51 20.347C1130.46 20.8221 1130.29 21.2348 1130.24 21.3663C1130.24 21.3696 1130.24 21.3726 1130.23 21.3755C1130.17 21.5393 1130.15 21.5826 1130.15 21.5826C1129.38 23.8832 1128.77 26.0626 1128.34 28.3711C1128.08 29.8118 1127.81 31.243 1127.54 32.667C1126.13 40.1122 1124.77 47.3627 1124.16 54.7548C1123.92 57.7744 1123.76 60.6144 1123.61 63.4934C1123.47 65.9657 1123.34 68.4668 1123.14 71.1353L1122.9 74.3406H1115.16L1115.39 70.7428C1115.57 68.41 1115.7 65.9116 1115.84 63.3827C1116.01 60.3273 1116.18 57.2274 1116.42 54.3212C1117.05 46.6233 1118.48 39.0516 1119.89 31.6082C1119.99 31.0768 1120.09 30.5461 1120.19 30.016ZM1122.87 19.3635C1122.88 19.3416 1122.88 19.3317 1122.88 19.3322C1122.88 19.3327 1122.87 19.3436 1122.87 19.3635Z" fill="white"/>
<path fill-rule="evenodd" clip-rule="evenodd" d="M1100.18 52.7544C1100.67 52.9873 1100.84 53.504 1100.56 53.9085C1100.46 54.0561 1100.35 54.2044 1100.25 54.3531C1099.98 54.7419 1099.71 55.1333 1099.44 55.5223C1099.39 55.5877 1099.34 55.6555 1099.29 55.725C1099.02 56.1249 1098.7 56.584 1098.31 56.9989C1098.31 56.9993 1098.31 57.0005 1098.31 57.0026C1098.29 57.0308 1098.13 57.2126 1097.96 57.3517C1097.86 57.429 1097.69 57.546 1097.47 57.6249C1097.22 57.7111 1096.85 57.767 1096.46 57.6191C1096.12 57.4908 1095.91 57.2686 1095.81 57.1683C1095.75 57.1071 1095.7 57.0465 1095.67 57.0053L1095.67 57.0045C1095.62 56.9552 1095.61 56.9359 1095.6 56.9236C1095.3 56.6098 1095 56.2834 1094.72 55.9336C1094.66 55.8538 1094.58 55.7629 1094.5 55.6634C1094.23 55.3508 1093.9 54.954 1093.67 54.5549C1093.43 54.1327 1093.65 53.6292 1094.16 53.4301C1094.67 53.2311 1095.28 53.412 1095.52 53.8342C1095.66 54.0934 1095.85 54.3089 1096.07 54.5794C1096.18 54.7044 1096.3 54.8412 1096.42 54.9994C1096.6 55.2152 1096.78 55.4258 1096.98 55.6385C1097.16 55.4098 1097.33 55.165 1097.51 54.8985C1097.56 54.8244 1097.62 54.7487 1097.67 54.6711C1097.94 54.2871 1098.21 53.9028 1098.48 53.5158C1098.58 53.366 1098.69 53.2159 1098.79 53.0652C1099.07 52.6607 1099.7 52.5216 1100.18 52.7544ZM1096.54 56.1329C1096.54 56.1362 1096.54 56.1354 1096.54 56.1318C1096.54 56.1322 1096.54 56.1326 1096.54 56.1329Z" fill="white"/>
<path fill-rule="evenodd" clip-rule="evenodd" d="M1096.1 52.0683C1096.64 51.9286 1097.21 52.1763 1097.38 52.6217C1097.55 53.0814 1097.69 53.5886 1097.81 54.0445C1097.83 54.1403 1097.86 54.2338 1097.88 54.3241C1098.03 54.479 1098.12 54.6783 1098.11 54.8927C1098.1 54.917 1098.1 55.002 1098.09 55.0739C1098.09 55.1097 1098.08 55.1553 1098.08 55.1942L1098.08 55.1952C1098.08 55.2083 1098.07 55.2504 1098.06 55.2959C1098.06 55.3096 1098.05 55.3355 1098.04 55.3671C1098.04 55.3675 1098.04 55.368 1098.04 55.3686C1098.03 55.3873 1098 55.4721 1097.93 55.5664C1097.9 55.6087 1097.8 55.736 1097.61 55.8386C1097.37 55.9718 1096.99 56.0397 1096.62 55.8954C1096.34 55.7865 1096.21 55.609 1096.17 55.5535C1096.12 55.4797 1096.09 55.4156 1096.08 55.3853C1096.04 55.2836 1096.02 55.1869 1096 55.1223C1096 55.0954 1095.99 55.0743 1095.99 55.0568C1095.98 55.022 1095.97 55.0011 1095.97 54.9766C1095.9 54.7423 1095.84 54.5227 1095.79 54.3123C1095.68 53.8953 1095.58 53.5146 1095.43 53.1276C1095.26 52.6823 1095.56 52.208 1096.1 52.0683ZM1096.05 55.0029C1096.05 55.0072 1096.05 55.0063 1096.05 55.0015C1096.05 55.002 1096.05 55.0025 1096.05 55.0029Z" fill="white"/>
</svg>
