<svg width="2569" height="79" viewBox="0 0 2569 79" fill="none" xmlns="http://www.w3.org/2000/svg">
<path d="M286.962 78.4832C281.778 78.4832 277.306 77.296 273.547 74.9217C269.81 72.5231 266.927 69.1797 264.895 64.8914C262.887 60.5788 261.883 55.5636 261.883 49.8459C261.883 44.1281 262.887 39.0887 264.895 34.7277C266.927 30.3425 269.752 26.9263 273.371 24.4793C277.014 22.0081 281.264 20.7725 286.121 20.7725C288.923 20.7725 291.69 21.257 294.422 22.2261C297.154 23.1952 299.641 24.7701 301.883 26.9506C304.124 29.1068 305.911 31.9657 307.242 35.5272C308.573 39.0887 309.238 43.4739 309.238 48.6829V52.3171H267.767V44.9034H300.832C300.832 41.7538 300.225 38.9433 299.011 36.4721C297.82 34.0009 296.115 32.0505 293.897 30.6211C291.702 29.1916 289.11 28.4769 286.121 28.4769C282.829 28.4769 279.98 29.3249 277.575 31.0208C275.193 32.6926 273.36 34.8731 272.075 37.5624C270.791 40.2516 270.149 43.1348 270.149 46.2117V51.1542C270.149 55.3698 270.85 58.9434 272.251 61.875C273.675 64.7823 275.648 66.9992 278.17 68.5255C280.692 70.0277 283.622 70.7787 286.962 70.7787C289.133 70.7787 291.095 70.4638 292.846 69.8338C294.621 69.1797 296.15 68.2106 297.434 66.9265C298.719 65.6182 299.711 63.9949 300.412 62.0567L308.398 64.3826C307.557 67.193 306.144 69.6643 304.159 71.7963C302.175 73.9041 299.723 75.5516 296.804 76.7388C293.885 77.9017 290.604 78.4832 286.962 78.4832Z" fill="white"/>
<path d="M249.263 2.89258V77.3205H240.997V2.89258H249.263Z" fill="white"/>
<path d="M180.858 77.3205V2.89258H189.125V30.367H189.825C190.432 29.3978 191.273 28.1622 192.347 26.6601C193.444 25.1337 195.009 23.777 197.041 22.5898C199.095 21.3784 201.874 20.7727 205.377 20.7727C209.907 20.7727 213.9 21.9478 217.356 24.2979C220.812 26.648 223.509 29.9793 225.447 34.2919C227.385 38.6044 228.354 43.6923 228.354 49.5554C228.354 55.467 227.385 60.5912 225.447 64.928C223.509 69.2405 220.823 72.584 217.391 74.9583C213.958 77.3084 210 78.4835 205.517 78.4835C202.061 78.4835 199.294 77.8899 197.216 76.7027C195.137 75.4913 193.538 74.1225 192.417 72.5961C191.296 71.0455 190.432 69.7614 189.825 68.7439H188.844V77.3205H180.858ZM188.984 49.41C188.984 53.6257 189.58 57.3447 190.771 60.567C191.962 63.765 193.701 66.2726 195.99 68.0897C198.278 69.8826 201.08 70.779 204.396 70.779C207.852 70.779 210.736 69.8341 213.047 67.9443C215.383 66.0303 217.134 63.4622 218.301 60.2399C219.492 56.9934 220.088 53.3834 220.088 49.41C220.088 45.4851 219.504 41.9479 218.336 38.7982C217.192 35.6244 215.453 33.1168 213.118 31.2755C210.806 29.41 207.899 28.4772 204.396 28.4772C201.033 28.4772 198.208 29.3615 195.92 31.1301C193.631 32.8745 191.903 35.3216 190.736 38.4712C189.568 41.5966 188.984 45.2429 188.984 49.41Z" fill="white"/>
<path d="M70.6036 54.4974V21.499H78.8698V77.32H70.6036V67.8711H70.0432C68.7823 70.7058 66.8208 73.1165 64.1588 75.1031C61.4968 77.0656 58.1343 78.0468 54.0712 78.0468C50.7087 78.0468 47.7198 77.2837 45.1045 75.7573C42.4892 74.2067 40.4344 71.8808 38.9399 68.7797C37.4455 65.6543 36.6982 61.7173 36.6982 56.9686V21.499H44.9644V56.3871C44.9644 60.4574 46.0619 63.7039 48.2569 66.1267C50.4752 68.5495 53.3007 69.7609 56.7332 69.7609C58.7881 69.7609 60.878 69.2158 63.0029 68.1255C65.1512 67.0353 66.9492 65.3635 68.397 63.1104C69.8681 60.8572 70.6036 57.9862 70.6036 54.4974Z" fill="white"/>
<path d="M0 77.3211V21.5001H7.98598V29.9314H8.5464C9.52713 27.1695 11.3018 24.9284 13.8704 23.2082C16.439 21.488 19.3345 20.6279 22.5569 20.6279C23.164 20.6279 23.9229 20.64 24.8336 20.6643C25.7443 20.6885 26.4331 20.7248 26.9001 20.7733V29.4953C26.6199 29.4226 25.9778 29.3136 24.9737 29.1682C23.993 28.9987 22.9539 28.9139 21.8564 28.9139C19.2411 28.9139 16.906 29.4832 14.8511 30.6219C12.8196 31.7364 11.2084 33.287 10.0175 35.2737C8.84996 37.2361 8.26619 39.4772 8.26619 41.9969V77.3211H0Z" fill="white"/>
<path fill-rule="evenodd" clip-rule="evenodd" d="M104.761 32.9086C109.751 38.1292 114.134 43.765 118.627 49.5431C120.312 51.709 122.012 53.8949 123.765 56.0864L125.907 58.7637L132.375 55.2171L130.233 52.5397C128.609 50.5096 126.993 48.4311 125.361 46.331C119.269 38.4903 112.942 30.3483 105.038 23.2979C105.021 23.2831 105.004 23.2673 104.985 23.2507C104.669 22.9687 104.064 22.4287 103.401 21.8841C102.777 21.3724 101.813 20.6126 100.889 20.1326C100.642 20.0043 100.256 19.8216 99.7719 19.6886C99.358 19.5748 98.3398 19.3468 97.1397 19.683C95.6747 20.0934 94.9056 21.05 94.609 21.8219C94.363 22.4624 94.409 23.0112 94.4363 23.2396C94.493 23.7147 94.6575 24.1274 94.7099 24.2589C94.7112 24.2621 94.7124 24.2652 94.7135 24.2681C94.7787 24.4319 94.7972 24.4752 94.7986 24.4752C95.5718 26.7758 96.1765 28.9552 96.6033 31.2637C96.8696 32.7044 97.1397 34.1355 97.4084 35.5596C98.8135 43.0048 100.182 50.2553 100.786 57.6474C101.033 60.667 101.187 63.5069 101.343 66.3859C101.477 68.8583 101.613 71.3594 101.81 74.0278L102.047 77.2332H109.791L109.554 73.6353C109.381 71.3026 109.243 68.8042 109.104 66.2753C108.935 63.2199 108.764 60.1199 108.526 57.2138C107.897 49.5158 106.467 41.9442 105.061 34.5008C104.961 33.9694 104.861 33.4386 104.761 32.9086ZM102.081 22.2561C102.072 22.2342 102.069 22.2243 102.07 22.2248C102.07 22.2253 102.074 22.2362 102.081 22.2561Z" fill="white"/>
<path fill-rule="evenodd" clip-rule="evenodd" d="M151.426 32.9086C146.435 38.1292 142.052 43.765 137.559 49.5431C135.875 51.709 134.175 53.8949 132.422 56.0864L130.28 58.7637L123.812 55.2171L125.954 52.5397C127.578 50.5096 129.193 48.4311 130.825 46.331C136.918 38.4903 143.245 30.3483 151.149 23.2979C151.165 23.2831 151.183 23.2673 151.201 23.2507C151.517 22.9687 152.122 22.4287 152.786 21.8841C153.409 21.3724 154.373 20.6126 155.298 20.1326C155.544 20.0043 155.931 19.8216 156.415 19.6886C156.829 19.5748 157.847 19.3468 159.047 19.683C160.512 20.0934 161.281 21.05 161.577 21.8219C161.824 22.4624 161.777 23.0112 161.75 23.2396C161.694 23.7147 161.529 24.1274 161.477 24.2589C161.475 24.2621 161.474 24.2652 161.473 24.2681C161.408 24.4319 161.389 24.4752 161.388 24.4752C160.615 26.7758 160.01 28.9552 159.583 31.2637C159.317 32.7044 159.047 34.1355 158.778 35.5596C157.373 43.0048 156.005 50.2553 155.401 57.6474C155.154 60.667 155 63.5069 154.843 66.3859C154.709 68.8583 154.573 71.3594 154.376 74.0278L154.139 77.2332H146.396L146.633 73.6353C146.805 71.3026 146.943 68.8042 147.083 66.2753C147.252 63.2199 147.423 60.1199 147.66 57.2138C148.289 49.5158 149.72 41.9442 151.125 34.5008C151.226 33.9694 151.326 33.4386 151.426 32.9086ZM154.106 22.2561C154.114 22.2342 154.117 22.2243 154.117 22.2248C154.116 22.2253 154.112 22.2362 154.106 22.2561Z" fill="white"/>
<path fill-rule="evenodd" clip-rule="evenodd" d="M131.422 55.646C131.91 55.8789 132.078 56.3956 131.797 56.8001C131.694 56.9477 131.591 57.096 131.488 57.2447C131.219 57.6335 130.947 58.0249 130.673 58.4139C130.627 58.4793 130.58 58.5471 130.531 58.6166C130.253 59.0165 129.933 59.4756 129.552 59.8905C129.552 59.8909 129.551 59.8921 129.549 59.8942C129.525 59.9224 129.368 60.1042 129.193 60.2433C129.096 60.3206 128.931 60.4376 128.706 60.5165C128.461 60.6027 128.089 60.6586 127.699 60.5107C127.36 60.3824 127.142 60.1602 127.048 60.0599C126.99 59.9987 126.939 59.9381 126.904 59.8969L126.903 59.8961C126.861 59.8468 126.844 59.8275 126.833 59.8152C126.535 59.5014 126.238 59.175 125.958 58.8252C125.894 58.7454 125.817 58.6545 125.733 58.555C125.469 58.2424 125.134 57.8456 124.906 57.4465C124.666 57.0243 124.884 56.5208 125.394 56.3217C125.904 56.1227 126.513 56.3036 126.753 56.7258C126.901 56.985 127.083 57.2005 127.312 57.471C127.417 57.596 127.533 57.7328 127.66 57.891C127.833 58.1068 128.017 58.3174 128.213 58.5301C128.393 58.3014 128.564 58.0566 128.75 57.7901C128.802 57.716 128.855 57.6403 128.909 57.5627C129.18 57.1787 129.446 56.7944 129.715 56.4074C129.819 56.2576 129.923 56.1075 130.028 55.9568C130.309 55.5523 130.933 55.4132 131.422 55.646ZM127.778 59.0245C127.774 59.0278 127.775 59.027 127.78 59.0234C127.779 59.0238 127.779 59.0242 127.778 59.0245Z" fill="white"/>
<path fill-rule="evenodd" clip-rule="evenodd" d="M127.339 54.9599C127.876 54.8202 128.449 55.0679 128.618 55.5133C128.792 55.973 128.926 56.4802 129.046 56.9361C129.072 57.0319 129.096 57.1254 129.121 57.2157C129.271 57.3706 129.357 57.5699 129.345 57.7843C129.344 57.8086 129.337 57.8936 129.331 57.9655C129.327 58.0013 129.323 58.0469 129.317 58.0858L129.317 58.0868C129.315 58.0999 129.309 58.142 129.298 58.1875C129.295 58.2012 129.288 58.2271 129.277 58.2587C129.276 58.2591 129.276 58.2596 129.276 58.2602C129.269 58.2789 129.239 58.3637 129.171 58.458C129.14 58.5003 129.044 58.6276 128.854 58.7302C128.607 58.8634 128.232 58.9313 127.861 58.787C127.582 58.6781 127.45 58.5006 127.412 58.4451C127.36 58.3713 127.334 58.3072 127.322 58.2769C127.283 58.1752 127.258 58.0785 127.243 58.0139C127.236 57.987 127.231 57.9659 127.227 57.9484C127.219 57.9137 127.214 57.8927 127.207 57.8682C127.139 57.6339 127.082 57.4143 127.026 57.2039C126.917 56.7869 126.817 56.4062 126.67 56.0192C126.501 55.5739 126.801 55.0996 127.339 54.9599ZM127.289 57.8945C127.288 57.8988 127.288 57.8979 127.289 57.8931C127.289 57.8936 127.289 57.8941 127.289 57.8945Z" fill="white"/>
<path d="M609.882 77.5379C604.698 77.5379 600.226 76.3507 596.466 73.9764C592.73 71.5778 589.847 68.2344 587.815 63.9461C585.807 59.6335 584.803 54.6183 584.803 48.9006C584.803 43.1828 585.807 38.1434 587.815 33.7824C589.847 29.3971 592.672 25.981 596.291 23.534C599.934 21.0628 604.184 19.8271 609.041 19.8271C611.843 19.8271 614.61 20.3117 617.342 21.2808C620.074 22.2499 622.561 23.8247 624.803 26.0052C627.044 28.1615 628.831 31.0204 630.162 34.5819C631.493 38.1434 632.158 42.5286 632.158 47.7376V51.3718H590.687V43.9581H623.752C623.752 40.8085 623.145 37.998 621.931 35.5268C620.74 33.0555 619.035 31.1052 616.817 29.6758C614.622 28.2463 612.03 27.5316 609.041 27.5316C605.748 27.5316 602.9 28.3796 600.494 30.0755C598.113 31.7472 596.28 33.9278 594.995 36.617C593.711 39.3063 593.069 42.1894 593.069 45.2664V50.2089C593.069 54.4245 593.769 57.9981 595.171 60.9297C596.595 63.837 598.568 66.0539 601.09 67.5802C603.612 69.0824 606.542 69.8334 609.882 69.8334C612.053 69.8334 614.015 69.5185 615.766 68.8885C617.541 68.2344 619.07 67.2653 620.354 65.9812C621.639 64.6729 622.631 63.0496 623.332 61.1114L631.318 63.4373C630.477 66.2477 629.064 68.7189 627.079 70.851C625.095 72.9588 622.643 74.6063 619.724 75.7935C616.805 76.9564 613.524 77.5379 609.882 77.5379Z" fill="white"/>
<path d="M572.183 1.94629V76.3742H563.917V1.94629H572.183Z" fill="white"/>
<path d="M503.778 76.3742V1.94629H512.045V29.4207H512.745C513.352 28.4516 514.193 27.2159 515.267 25.7138C516.364 24.1875 517.929 22.8307 519.96 21.6435C522.015 20.4321 524.794 19.8264 528.297 19.8264C532.827 19.8264 536.82 21.0015 540.276 23.3516C543.732 25.7017 546.429 29.033 548.367 33.3456C550.305 37.6581 551.274 42.746 551.274 48.6091C551.274 54.5207 550.305 59.6449 548.367 63.9817C546.429 68.2942 543.743 71.6377 540.311 74.012C536.878 76.3621 532.92 77.5372 528.437 77.5372C524.981 77.5372 522.214 76.9436 520.136 75.7564C518.057 74.545 516.458 73.1762 515.337 71.6498C514.216 70.0992 513.352 68.8151 512.745 67.7976H511.764V76.3742H503.778ZM511.904 48.4638C511.904 52.6794 512.5 56.3984 513.691 59.6207C514.882 62.8188 516.621 65.3263 518.91 67.1434C521.198 68.9363 524 69.8327 527.316 69.8327C530.772 69.8327 533.656 68.8878 535.967 66.9981C538.303 65.0841 540.054 62.5159 541.221 59.2936C542.412 56.0471 543.008 52.4371 543.008 48.4638C543.008 44.5388 542.424 41.0016 541.256 37.852C540.112 34.6781 538.373 32.1705 536.037 30.3292C533.726 28.4637 530.819 27.5309 527.316 27.5309C523.953 27.5309 521.128 28.4152 518.84 30.1838C516.551 31.9283 514.823 34.3753 513.656 37.5249C512.488 40.6503 511.904 44.2966 511.904 48.4638Z" fill="white"/>
<path d="M393.524 53.552V20.5537H401.79V76.3747H393.524V66.9258H392.963C391.702 69.7605 389.741 72.1712 387.079 74.1578C384.417 76.1203 381.054 77.1015 376.991 77.1015C373.629 77.1015 370.64 76.3383 368.024 74.812C365.409 73.2614 363.354 70.9355 361.86 67.8344C360.365 64.709 359.618 60.7719 359.618 56.0233V20.5537H367.884V55.4418C367.884 59.5121 368.982 62.7586 371.177 65.1814C373.395 67.6042 376.221 68.8156 379.653 68.8156C381.708 68.8156 383.798 68.2705 385.923 67.1802C388.071 66.09 389.869 64.4182 391.317 62.165C392.788 59.9119 393.524 57.0409 393.524 53.552Z" fill="white"/>
<path d="M322.92 76.3748V20.5538H330.906V28.9851H331.466C332.447 26.2232 334.222 23.9821 336.79 22.2619C339.359 20.5417 342.254 19.6816 345.477 19.6816C346.084 19.6816 346.843 19.6938 347.754 19.718C348.664 19.7422 349.353 19.7786 349.82 19.827V28.549C349.54 28.4764 348.898 28.3673 347.894 28.222C346.913 28.0524 345.874 27.9676 344.776 27.9676C342.161 27.9676 339.826 28.5369 337.771 29.6756C335.74 30.7901 334.128 32.3407 332.937 34.3274C331.77 36.2898 331.186 38.5309 331.186 41.0506V76.3748H322.92Z" fill="white"/>
<path fill-rule="evenodd" clip-rule="evenodd" d="M427.682 31.9623C432.672 37.1829 437.055 42.8187 441.548 48.5968C443.233 50.7627 444.932 52.9486 446.686 55.1401L448.828 57.8175L455.295 54.2708L453.154 51.5934C451.529 49.5633 449.914 47.4848 448.282 45.3847C442.19 37.544 435.863 29.4021 427.959 22.3516C427.942 22.3368 427.925 22.3211 427.906 22.3044C427.59 22.0224 426.985 21.4824 426.321 20.9378C425.698 20.4261 424.734 19.6663 423.81 19.1863C423.563 19.058 423.177 18.8753 422.693 18.7423C422.279 18.6286 421.261 18.4005 420.061 18.7367C418.596 19.1471 417.826 20.1037 417.53 20.8756C417.284 21.5161 417.33 22.0649 417.357 22.2933C417.414 22.7684 417.578 23.1811 417.631 23.3126C417.632 23.3158 417.633 23.3189 417.634 23.3218C417.7 23.4856 417.718 23.5289 417.719 23.5289C418.493 25.8295 419.097 28.0089 419.524 30.3174C419.79 31.7581 420.061 33.1892 420.329 34.6133C421.734 42.0585 423.103 49.309 423.707 56.7011C423.954 59.7207 424.108 62.5606 424.264 65.4397C424.398 67.912 424.534 70.4131 424.731 73.0815L424.968 76.2869H432.712L432.475 72.689C432.302 70.3563 432.164 67.8579 432.025 65.329C431.856 62.2736 431.685 59.1736 431.447 56.2675C430.818 48.5695 429.388 40.9979 427.982 33.5545C427.882 33.0231 427.781 32.4924 427.682 31.9623ZM425.002 21.3098C424.993 21.2879 424.99 21.278 424.99 21.2785C424.991 21.279 424.995 21.2899 425.002 21.3098Z" fill="white"/>
<path fill-rule="evenodd" clip-rule="evenodd" d="M474.347 31.9623C469.356 37.1829 464.973 42.8187 460.48 48.5968C458.796 50.7627 457.096 52.9486 455.343 55.1401L453.201 57.8175L446.733 54.2708L448.875 51.5934C450.499 49.5633 452.114 47.4848 453.746 45.3847C459.839 37.544 466.165 29.4021 474.069 22.3516C474.086 22.3368 474.104 22.3211 474.122 22.3044C474.438 22.0224 475.043 21.4824 475.707 20.9378C476.33 20.4261 477.294 19.6663 478.218 19.1863C478.465 19.058 478.852 18.8753 479.336 18.7423C479.749 18.6286 480.768 18.4005 481.968 18.7367C483.433 19.1471 484.202 20.1037 484.498 20.8756C484.744 21.5161 484.698 22.0649 484.671 22.2933C484.614 22.7684 484.45 23.1811 484.398 23.3126C484.396 23.3158 484.395 23.3189 484.394 23.3218C484.329 23.4856 484.31 23.5289 484.309 23.5289C483.536 25.8295 482.931 28.0089 482.504 30.3174C482.238 31.7581 481.968 33.1892 481.699 34.6133C480.294 42.0585 478.926 49.309 478.321 56.7011C478.075 59.7207 477.92 62.5606 477.764 65.4397C477.63 67.912 477.494 70.4131 477.297 73.0815L477.06 76.2869H469.317L469.554 72.689C469.726 70.3563 469.864 67.8579 470.004 65.329C470.172 62.2736 470.344 59.1736 470.581 56.2675C471.21 48.5695 472.64 40.9979 474.046 33.5545C474.147 33.0231 474.247 32.4924 474.347 31.9623ZM477.026 21.3098C477.035 21.2879 477.038 21.278 477.038 21.2785C477.037 21.279 477.033 21.2899 477.026 21.3098Z" fill="white"/>
<path fill-rule="evenodd" clip-rule="evenodd" d="M454.343 54.6997C454.832 54.9326 455 55.4493 454.719 55.8538C454.616 56.0014 454.513 56.1497 454.41 56.2984C454.14 56.6872 453.869 57.0786 453.595 57.4676C453.549 57.533 453.502 57.6008 453.453 57.6703C453.175 58.0702 452.855 58.5293 452.474 58.9442C452.474 58.9446 452.473 58.9458 452.471 58.9479C452.447 58.9761 452.29 59.1579 452.115 59.297C452.018 59.3743 451.853 59.4913 451.628 59.5703C451.383 59.6564 451.011 59.7123 450.621 59.5644C450.282 59.4361 450.064 59.2139 449.97 59.1136C449.912 59.0524 449.861 58.9918 449.826 58.9506L449.825 58.9498C449.783 58.9005 449.766 58.8812 449.755 58.8689C449.457 58.5551 449.16 58.2287 448.88 57.8789C448.816 57.7991 448.739 57.7082 448.655 57.6087C448.391 57.2961 448.055 56.8993 447.828 56.5002C447.588 56.0781 447.806 55.5745 448.316 55.3754C448.826 55.1764 449.434 55.3573 449.675 55.7795C449.822 56.0387 450.005 56.2542 450.233 56.5248C450.339 56.6497 450.455 56.7865 450.582 56.9447C450.754 57.1606 450.939 57.3711 451.135 57.5838C451.315 57.3551 451.486 57.1103 451.672 56.8438C451.724 56.7697 451.777 56.694 451.831 56.6164C452.102 56.2325 452.368 55.8481 452.637 55.4611C452.741 55.3113 452.845 55.1612 452.95 55.0105C453.231 54.606 453.855 54.4669 454.343 54.6997ZM450.7 58.0782C450.696 58.0815 450.697 58.0807 450.702 58.0771C450.701 58.0775 450.701 58.0779 450.7 58.0782Z" fill="white"/>
<path fill-rule="evenodd" clip-rule="evenodd" d="M450.258 54.0136C450.796 53.8739 451.369 54.1216 451.538 54.567C451.712 55.0267 451.846 55.5339 451.966 55.9898C451.991 56.0856 452.016 56.1791 452.04 56.2694C452.191 56.4243 452.277 56.6236 452.265 56.838C452.264 56.8623 452.257 56.9473 452.25 57.0192C452.247 57.0551 452.242 57.1007 452.237 57.1395L452.237 57.1405C452.235 57.1536 452.229 57.1957 452.218 57.2412C452.215 57.2549 452.208 57.2808 452.197 57.3124C452.196 57.3128 452.196 57.3133 452.196 57.3139C452.189 57.3327 452.159 57.4174 452.091 57.5117C452.06 57.554 451.964 57.6813 451.773 57.7839C451.527 57.9171 451.152 57.985 450.781 57.8407C450.502 57.7318 450.37 57.5543 450.332 57.4988C450.28 57.425 450.254 57.361 450.242 57.3306C450.203 57.2289 450.178 57.1322 450.163 57.0676C450.156 57.0407 450.151 57.0196 450.147 57.0021C450.139 56.9674 450.134 56.9464 450.127 56.9219C450.059 56.6876 450.002 56.468 449.946 56.2576C449.837 55.8406 449.737 55.4599 449.59 55.0729C449.421 54.6276 449.721 54.1533 450.258 54.0136ZM450.209 56.9482C450.208 56.9525 450.208 56.9516 450.209 56.9468C450.209 56.9473 450.209 56.9478 450.209 56.9482Z" fill="white"/>
<path d="M932.803 77.5379C927.62 77.5379 923.148 76.3507 919.388 73.9764C915.652 71.5778 912.768 68.2344 910.737 63.9461C908.729 59.6335 907.725 54.6183 907.725 48.9006C907.725 43.1828 908.729 38.1434 910.737 33.7824C912.768 29.3971 915.594 25.981 919.213 23.534C922.856 21.0628 927.106 19.8271 931.963 19.8271C934.765 19.8271 937.532 20.3117 940.264 21.2808C942.996 22.2499 945.483 23.8247 947.725 26.0052C949.966 28.1615 951.753 31.0204 953.084 34.5819C954.415 38.1434 955.08 42.5286 955.08 47.7376V51.3718H913.609V43.9581H946.674C946.674 40.8085 946.067 37.998 944.852 35.5268C943.662 33.0555 941.957 31.1052 939.739 29.6758C937.544 28.2463 934.952 27.5316 931.963 27.5316C928.67 27.5316 925.821 28.3796 923.416 30.0755C921.035 31.7472 919.202 33.9278 917.917 36.617C916.633 39.3063 915.991 42.1894 915.991 45.2664V50.2089C915.991 54.4245 916.691 57.9981 918.092 60.9297C919.517 63.837 921.49 66.0539 924.012 67.5802C926.534 69.0824 929.464 69.8334 932.803 69.8334C934.975 69.8334 936.936 69.5185 938.688 68.8885C940.462 68.2344 941.992 67.2653 943.276 65.9812C944.561 64.6729 945.553 63.0496 946.253 61.1114L954.239 63.4373C953.399 66.2477 951.986 68.7189 950.001 70.851C948.016 72.9588 945.565 74.6063 942.646 75.7935C939.727 76.9564 936.446 77.5379 932.803 77.5379Z" fill="white"/>
<path d="M895.105 1.94629V76.3742H886.839V1.94629H895.105Z" fill="white"/>
<path d="M826.701 76.3742V1.94629H834.967V29.4207H835.668C836.275 28.4516 837.116 27.2159 838.19 25.7138C839.287 24.1875 840.852 22.8307 842.883 21.6435C844.938 20.4321 847.717 19.8264 851.22 19.8264C855.75 19.8264 859.743 21.0015 863.198 23.3516C866.654 25.7017 869.351 29.033 871.29 33.3456C873.228 37.6581 874.197 42.746 874.197 48.6091C874.197 54.5207 873.228 59.6449 871.29 63.9817C869.351 68.2942 866.666 71.6377 863.234 74.012C859.801 76.3621 855.843 77.5372 851.36 77.5372C847.904 77.5372 845.137 76.9436 843.058 75.7564C840.98 74.545 839.381 73.1762 838.26 71.6498C837.139 70.0992 836.275 68.8151 835.668 67.7976H834.687V76.3742H826.701ZM834.827 48.4638C834.827 52.6794 835.423 56.3984 836.614 59.6207C837.804 62.8188 839.544 65.3263 841.832 67.1434C844.121 68.9363 846.923 69.8327 850.239 69.8327C853.695 69.8327 856.579 68.8878 858.89 66.9981C861.225 65.0841 862.977 62.5159 864.144 59.2936C865.335 56.0471 865.931 52.4371 865.931 48.4638C865.931 44.5388 865.347 41.0016 864.179 37.852C863.035 34.6781 861.295 32.1705 858.96 30.3292C856.649 28.4637 853.741 27.5309 850.239 27.5309C846.876 27.5309 844.051 28.4152 841.762 30.1838C839.474 31.9283 837.746 34.3753 836.579 37.5249C835.411 40.6503 834.827 44.2966 834.827 48.4638Z" fill="white"/>
<path d="M716.445 53.552V20.5537H724.712V76.3747H716.445V66.9258H715.885C714.624 69.7605 712.663 72.1712 710.001 74.1578C707.339 76.1203 703.976 77.1015 699.913 77.1015C696.551 77.1015 693.562 76.3383 690.946 74.812C688.331 73.2614 686.276 70.9355 684.782 67.8344C683.287 64.709 682.54 60.7719 682.54 56.0233V20.5537H690.806V55.4418C690.806 59.5121 691.904 62.7586 694.099 65.1814C696.317 67.6042 699.142 68.8156 702.575 68.8156C704.63 68.8156 706.72 68.2705 708.845 67.1802C710.993 66.09 712.791 64.4182 714.239 62.165C715.71 59.9119 716.445 57.0409 716.445 53.552Z" fill="white"/>
<path d="M645.842 76.3748V20.5538H653.828V28.9851H654.388C655.369 26.2232 657.144 23.9821 659.712 22.2619C662.281 20.5417 665.176 19.6816 668.399 19.6816C669.006 19.6816 669.765 19.6938 670.675 19.718C671.586 19.7422 672.275 19.7786 672.742 19.827V28.549C672.462 28.4764 671.82 28.3673 670.815 28.222C669.835 28.0524 668.796 27.9676 667.698 27.9676C665.083 27.9676 662.748 28.5369 660.693 29.6756C658.661 30.7901 657.05 32.3407 655.859 34.3274C654.692 36.2898 654.108 38.5309 654.108 41.0506V76.3748H645.842Z" fill="white"/>
<path fill-rule="evenodd" clip-rule="evenodd" d="M750.603 31.9623C755.593 37.1829 759.976 42.8187 764.469 48.5968C766.153 50.7627 767.853 52.9486 769.607 55.1401L771.749 57.8175L778.216 54.2708L776.074 51.5934C774.45 49.5633 772.835 47.4848 771.203 45.3847C765.111 37.544 758.784 29.4021 750.88 22.3516C750.863 22.3368 750.845 22.3211 750.827 22.3044C750.511 22.0224 749.906 21.4824 749.242 20.9378C748.619 20.4261 747.655 19.6663 746.731 19.1863C746.484 19.058 746.098 18.8753 745.614 18.7423C745.2 18.6286 744.182 18.4005 742.981 18.7367C741.516 19.1471 740.747 20.1037 740.451 20.8756C740.205 21.5161 740.251 22.0649 740.278 22.2933C740.335 22.7684 740.499 23.1811 740.552 23.3126C740.553 23.3158 740.554 23.3189 740.555 23.3218C740.62 23.4856 740.639 23.5289 740.64 23.5289C741.414 25.8295 742.018 28.0089 742.445 30.3174C742.711 31.7581 742.981 33.1892 743.25 34.6133C744.655 42.0585 746.024 49.309 746.628 56.7011C746.875 59.7207 747.029 62.5606 747.185 65.4397C747.319 67.912 747.455 70.4131 747.652 73.0815L747.889 76.2869H755.633L755.396 72.689C755.223 70.3563 755.085 67.8579 754.945 65.329C754.777 62.2736 754.606 59.1736 754.368 56.2675C753.739 48.5695 752.309 40.9979 750.903 33.5545C750.803 33.0231 750.702 32.4924 750.603 31.9623ZM747.923 21.3098C747.914 21.2879 747.911 21.278 747.911 21.2785C747.912 21.279 747.916 21.2899 747.923 21.3098Z" fill="white"/>
<path fill-rule="evenodd" clip-rule="evenodd" d="M797.268 31.9623C792.277 37.1829 787.894 42.8187 783.401 48.5968C781.717 50.7627 780.017 52.9486 778.264 55.1401L776.122 57.8175L769.654 54.2708L771.796 51.5934C773.42 49.5633 775.035 47.4848 776.667 45.3847C782.76 37.544 789.086 29.4021 796.99 22.3516C797.007 22.3368 797.025 22.3211 797.043 22.3044C797.359 22.0224 797.964 21.4824 798.628 20.9378C799.251 20.4261 800.215 19.6663 801.139 19.1863C801.386 19.058 801.773 18.8753 802.256 18.7423C802.67 18.6286 803.689 18.4005 804.889 18.7367C806.354 19.1471 807.123 20.1037 807.419 20.8756C807.665 21.5161 807.619 22.0649 807.592 22.2933C807.535 22.7684 807.371 23.1811 807.318 23.3126C807.317 23.3158 807.316 23.3189 807.315 23.3218C807.25 23.4856 807.231 23.5289 807.23 23.5289C806.457 25.8295 805.852 28.0089 805.425 30.3174C805.159 31.7581 804.889 33.1892 804.62 34.6133C803.215 42.0585 801.847 49.309 801.242 56.7011C800.995 59.7207 800.841 62.5606 800.685 65.4397C800.551 67.912 800.415 70.4131 800.218 73.0815L799.981 76.2869H792.237L792.475 72.689C792.647 70.3563 792.785 67.8579 792.925 65.329C793.093 62.2736 793.265 59.1736 793.502 56.2675C794.131 48.5695 795.561 40.9979 796.967 33.5545C797.067 33.0231 797.168 32.4924 797.268 31.9623ZM799.947 21.3098C799.956 21.2879 799.959 21.278 799.959 21.2785C799.958 21.279 799.954 21.2899 799.947 21.3098Z" fill="white"/>
<path fill-rule="evenodd" clip-rule="evenodd" d="M777.264 54.6997C777.753 54.9326 777.921 55.4493 777.64 55.8538C777.537 56.0014 777.434 56.1497 777.331 56.2984C777.061 56.6872 776.79 57.0786 776.516 57.4676C776.47 57.533 776.423 57.6008 776.374 57.6703C776.096 58.0702 775.776 58.5293 775.395 58.9442C775.395 58.9446 775.394 58.9458 775.392 58.9479C775.367 58.9761 775.211 59.1579 775.036 59.297C774.939 59.3743 774.774 59.4913 774.549 59.5703C774.304 59.6564 773.932 59.7123 773.541 59.5644C773.203 59.4361 772.985 59.2139 772.891 59.1136C772.833 59.0524 772.781 58.9918 772.746 58.9506L772.746 58.9498C772.704 58.9005 772.687 58.8812 772.675 58.8689C772.378 58.5551 772.081 58.2287 771.801 57.8789C771.737 57.7991 771.66 57.7082 771.576 57.6087C771.312 57.2961 770.976 56.8993 770.749 56.5002C770.509 56.0781 770.727 55.5745 771.237 55.3754C771.747 55.1764 772.355 55.3573 772.596 55.7795C772.743 56.0387 772.926 56.2542 773.154 56.5248C773.26 56.6497 773.376 56.7865 773.502 56.9447C773.675 57.1606 773.86 57.3711 774.056 57.5838C774.236 57.3551 774.407 57.1103 774.593 56.8438C774.645 56.7697 774.697 56.694 774.752 56.6164C775.022 56.2325 775.289 55.8481 775.558 55.4611C775.661 55.3113 775.766 55.1612 775.87 55.0105C776.152 54.606 776.776 54.4669 777.264 54.6997ZM773.621 58.0782C773.617 58.0815 773.618 58.0807 773.623 58.0771C773.622 58.0775 773.622 58.0779 773.621 58.0782Z" fill="white"/>
<path fill-rule="evenodd" clip-rule="evenodd" d="M773.178 54.0136C773.716 53.8739 774.289 54.1216 774.458 54.567C774.632 55.0267 774.766 55.5339 774.886 55.9898C774.911 56.0856 774.936 56.1791 774.96 56.2694C775.111 56.4243 775.197 56.6236 775.185 56.838C775.184 56.8623 775.177 56.9473 775.17 57.0192C775.167 57.0551 775.162 57.1007 775.157 57.1395L775.157 57.1405C775.155 57.1536 775.149 57.1957 775.138 57.2412C775.135 57.2549 775.128 57.2808 775.116 57.3124C775.116 57.3128 775.116 57.3133 775.116 57.3139C775.109 57.3327 775.079 57.4174 775.011 57.5117C774.98 57.554 774.884 57.6813 774.693 57.7839C774.447 57.9171 774.072 57.985 773.701 57.8407C773.421 57.7318 773.29 57.5543 773.252 57.4988C773.2 57.425 773.173 57.361 773.162 57.3306C773.123 57.2289 773.098 57.1322 773.083 57.0676C773.076 57.0407 773.071 57.0196 773.067 57.0021C773.059 56.9674 773.054 56.9464 773.047 56.9219C772.979 56.6876 772.922 56.468 772.866 56.2576C772.757 55.8406 772.657 55.4599 772.51 55.0729C772.341 54.6276 772.64 54.1533 773.178 54.0136ZM773.129 56.9482C773.128 56.9525 773.128 56.9516 773.129 56.9468C773.129 56.9473 773.129 56.9478 773.129 56.9482Z" fill="white"/>
<path d="M1255.72 76.5906C1250.54 76.5906 1246.07 75.4034 1242.31 73.0291C1238.57 70.6306 1235.69 67.2871 1233.66 62.9988C1231.65 58.6862 1230.64 53.6711 1230.64 47.9533C1230.64 42.2355 1231.65 37.1961 1233.66 32.8351C1235.69 28.4499 1238.51 25.0338 1242.13 22.5867C1245.78 20.1155 1250.03 18.8799 1254.88 18.8799C1257.68 18.8799 1260.45 19.3644 1263.18 20.3335C1265.92 21.3027 1268.4 22.8775 1270.64 25.058C1272.89 27.2143 1274.67 30.0731 1276 33.6346C1277.33 37.1961 1278 41.5814 1278 46.7904V50.4245H1236.53V43.0108H1269.59C1269.59 39.8612 1268.99 37.0508 1267.77 34.5795C1266.58 32.1083 1264.88 30.1579 1262.66 28.7285C1260.46 27.2991 1257.87 26.5843 1254.88 26.5843C1251.59 26.5843 1248.74 27.4323 1246.34 29.1283C1243.95 30.8 1242.12 32.9805 1240.84 35.6698C1239.55 38.3591 1238.91 41.2422 1238.91 44.3191V49.2616C1238.91 53.4772 1239.61 57.0509 1241.01 59.9824C1242.44 62.8898 1244.41 65.1066 1246.93 66.633C1249.45 68.1351 1252.38 68.8861 1255.72 68.8861C1257.89 68.8861 1259.86 68.5712 1261.61 67.9413C1263.38 67.2871 1264.91 66.318 1266.2 65.0339C1267.48 63.7256 1268.47 62.1024 1269.17 60.1641L1277.16 62.49C1276.32 65.3004 1274.91 67.7717 1272.92 69.9037C1270.94 72.0115 1268.48 73.659 1265.57 74.8462C1262.65 76.0091 1259.37 76.5906 1255.72 76.5906Z" fill="white"/>
<path d="M1218.03 1V75.428H1209.76V1H1218.03Z" fill="white"/>
<path d="M1149.62 75.4279V1H1157.89V28.4744H1158.59C1159.19 27.5053 1160.04 26.2696 1161.11 24.7675C1162.21 23.2412 1163.77 21.8844 1165.8 20.6972C1167.86 19.4858 1170.64 18.8802 1174.14 18.8802C1178.67 18.8802 1182.66 20.0552 1186.12 22.4053C1189.57 24.7554 1192.27 28.0867 1194.21 32.3993C1196.15 36.7118 1197.12 41.7997 1197.12 47.6628C1197.12 53.5744 1196.15 58.6986 1194.21 63.0354C1192.27 67.348 1189.59 70.6914 1186.15 73.0657C1182.72 75.4158 1178.76 76.5909 1174.28 76.5909C1170.82 76.5909 1168.06 75.9973 1165.98 74.8101C1163.9 73.5987 1162.3 72.2299 1161.18 70.7035C1160.06 69.1529 1159.19 67.8689 1158.59 66.8513H1157.61V75.4279H1149.62ZM1157.75 47.5175C1157.75 51.7331 1158.34 55.4521 1159.53 58.6744C1160.72 61.8725 1162.46 64.38 1164.75 66.1971C1167.04 67.99 1169.84 68.8864 1173.16 68.8864C1176.61 68.8864 1179.5 67.9415 1181.81 66.0518C1184.15 64.1378 1185.9 61.5696 1187.06 58.3473C1188.26 55.1008 1188.85 51.4908 1188.85 47.5175C1188.85 43.5926 1188.27 40.0553 1187.1 36.9057C1185.95 33.7318 1184.22 31.2242 1181.88 29.3829C1179.57 27.5174 1176.66 26.5846 1173.16 26.5846C1169.8 26.5846 1166.97 27.4689 1164.68 29.2376C1162.39 30.982 1160.67 33.429 1159.5 36.5786C1158.33 39.704 1157.75 43.3503 1157.75 47.5175Z" fill="white"/>
<path d="M1039.37 52.6048V19.6064H1047.63V75.4274H1039.37V65.9786H1038.81C1037.54 68.8132 1035.58 71.2239 1032.92 73.2106C1030.26 75.173 1026.9 76.1542 1022.83 76.1542C1019.47 76.1542 1016.48 75.3911 1013.87 73.8647C1011.25 72.3141 1009.2 69.9883 1007.7 66.8871C1006.21 63.7617 1005.46 59.8247 1005.46 55.076V19.6064H1013.73V54.4945C1013.73 58.5648 1014.82 61.8114 1017.02 64.2341C1019.24 66.6569 1022.06 67.8683 1025.5 67.8683C1027.55 67.8683 1029.64 67.3232 1031.77 66.2329C1033.91 65.1427 1035.71 63.471 1037.16 61.2178C1038.63 58.9646 1039.37 56.0936 1039.37 52.6048Z" fill="white"/>
<path d="M968.763 75.4285V19.6076H976.749V28.0388H977.309C978.29 25.2769 980.064 23.0358 982.633 21.3156C985.202 19.5954 988.097 18.7354 991.32 18.7354C991.927 18.7354 992.686 18.7475 993.596 18.7717C994.507 18.7959 995.196 18.8323 995.663 18.8807V27.6027C995.383 27.5301 994.74 27.421 993.736 27.2757C992.756 27.1061 991.717 27.0213 990.619 27.0213C988.004 27.0213 985.669 27.5906 983.614 28.7293C981.582 29.8438 979.971 31.3944 978.78 33.3811C977.613 35.3435 977.029 37.5846 977.029 40.1043V75.4285H968.763Z" fill="white"/>
<path fill-rule="evenodd" clip-rule="evenodd" d="M1073.52 31.016C1078.51 36.2366 1082.9 41.8724 1087.39 47.6505C1089.07 49.8164 1090.77 52.0023 1092.53 54.1938L1094.67 56.8712L1101.14 53.3245L1098.99 50.6471C1097.37 48.617 1095.76 46.5385 1094.12 44.4385C1088.03 36.5977 1081.7 28.4558 1073.8 21.4053C1073.78 21.3905 1073.77 21.3748 1073.75 21.3581C1073.43 21.0762 1072.83 20.5361 1072.16 19.9915C1071.54 19.4798 1070.57 18.72 1069.65 18.24C1069.4 18.1117 1069.02 17.929 1068.53 17.796C1068.12 17.6823 1067.1 17.4542 1065.9 17.7904C1064.44 18.2008 1063.67 19.1574 1063.37 19.9293C1063.12 20.5698 1063.17 21.1186 1063.2 21.347C1063.25 21.8221 1063.42 22.2348 1063.47 22.3663C1063.47 22.3696 1063.47 22.3726 1063.48 22.3755C1063.54 22.5393 1063.56 22.5826 1063.56 22.5826C1064.33 24.8832 1064.94 27.0626 1065.36 29.3711C1065.63 30.8118 1065.9 32.243 1066.17 33.667C1067.58 41.1122 1068.94 48.3627 1069.55 55.7548C1069.79 58.7744 1069.95 61.6144 1070.1 64.4934C1070.24 66.9657 1070.37 69.4668 1070.57 72.1353L1070.81 75.3406H1078.55L1078.32 71.7428C1078.14 69.41 1078.01 66.9116 1077.87 64.3827C1077.7 61.3273 1077.53 58.2274 1077.29 55.3212C1076.66 47.6233 1075.23 40.0516 1073.82 32.6082C1073.72 32.0768 1073.62 31.5461 1073.52 31.016ZM1070.84 20.3635C1070.83 20.3416 1070.83 20.3317 1070.83 20.3322C1070.83 20.3327 1070.84 20.3436 1070.84 20.3635Z" fill="white"/>
<path fill-rule="evenodd" clip-rule="evenodd" d="M1120.19 31.016C1115.2 36.2366 1110.81 41.8724 1106.32 47.6505C1104.64 49.8164 1102.94 52.0023 1101.18 54.1938L1099.04 56.8712L1092.57 53.3245L1094.72 50.6471C1096.34 48.617 1097.95 46.5385 1099.59 44.4385C1105.68 36.5977 1112.01 28.4558 1119.91 21.4053C1119.93 21.3905 1119.94 21.3748 1119.96 21.3581C1120.28 21.0762 1120.88 20.5361 1121.55 19.9915C1122.17 19.4798 1123.14 18.72 1124.06 18.24C1124.31 18.1117 1124.69 17.929 1125.18 17.796C1125.59 17.6823 1126.61 17.4542 1127.81 17.7904C1129.27 18.2008 1130.04 19.1574 1130.34 19.9293C1130.59 20.5698 1130.54 21.1186 1130.51 21.347C1130.46 21.8221 1130.29 22.2348 1130.24 22.3663C1130.24 22.3696 1130.24 22.3726 1130.23 22.3755C1130.17 22.5393 1130.15 22.5826 1130.15 22.5826C1129.38 24.8832 1128.77 27.0626 1128.34 29.3711C1128.08 30.8118 1127.81 32.243 1127.54 33.667C1126.13 41.1122 1124.77 48.3627 1124.16 55.7548C1123.92 58.7744 1123.76 61.6144 1123.61 64.4934C1123.47 66.9657 1123.34 69.4668 1123.14 72.1353L1122.9 75.3406H1115.16L1115.39 71.7428C1115.57 69.41 1115.7 66.9116 1115.84 64.3827C1116.01 61.3273 1116.18 58.2274 1116.42 55.3212C1117.05 47.6233 1118.48 40.0516 1119.89 32.6082C1119.99 32.0768 1120.09 31.5461 1120.19 31.016ZM1122.87 20.3635C1122.88 20.3416 1122.88 20.3317 1122.88 20.3322C1122.88 20.3327 1122.87 20.3436 1122.87 20.3635Z" fill="white"/>
<path fill-rule="evenodd" clip-rule="evenodd" d="M1100.18 53.7544C1100.67 53.9873 1100.84 54.504 1100.56 54.9085C1100.46 55.0561 1100.35 55.2044 1100.25 55.3531C1099.98 55.7419 1099.71 56.1333 1099.44 56.5223C1099.39 56.5877 1099.34 56.6555 1099.29 56.725C1099.02 57.1249 1098.7 57.584 1098.31 57.9989C1098.31 57.9993 1098.31 58.0005 1098.31 58.0026C1098.29 58.0308 1098.13 58.2126 1097.96 58.3517C1097.86 58.429 1097.69 58.546 1097.47 58.6249C1097.22 58.7111 1096.85 58.767 1096.46 58.6191C1096.12 58.4908 1095.91 58.2686 1095.81 58.1683C1095.75 58.1071 1095.7 58.0465 1095.67 58.0053L1095.67 58.0045C1095.62 57.9552 1095.61 57.9359 1095.6 57.9236C1095.3 57.6098 1095 57.2834 1094.72 56.9336C1094.66 56.8538 1094.58 56.7629 1094.5 56.6634C1094.23 56.3508 1093.9 55.954 1093.67 55.5549C1093.43 55.1327 1093.65 54.6292 1094.16 54.4301C1094.67 54.2311 1095.28 54.412 1095.52 54.8342C1095.66 55.0934 1095.85 55.3089 1096.07 55.5794C1096.18 55.7044 1096.3 55.8412 1096.42 55.9994C1096.6 56.2152 1096.78 56.4258 1096.98 56.6385C1097.16 56.4098 1097.33 56.165 1097.51 55.8985C1097.56 55.8244 1097.62 55.7487 1097.67 55.6711C1097.94 55.2871 1098.21 54.9028 1098.48 54.5158C1098.58 54.366 1098.69 54.2159 1098.79 54.0652C1099.07 53.6607 1099.7 53.5216 1100.18 53.7544ZM1096.54 57.1329C1096.54 57.1362 1096.54 57.1354 1096.54 57.1318C1096.54 57.1322 1096.54 57.1326 1096.54 57.1329Z" fill="white"/>
<path fill-rule="evenodd" clip-rule="evenodd" d="M1096.1 53.0683C1096.64 52.9286 1097.21 53.1763 1097.38 53.6217C1097.55 54.0814 1097.69 54.5886 1097.81 55.0445C1097.83 55.1403 1097.86 55.2338 1097.88 55.3241C1098.03 55.479 1098.12 55.6783 1098.11 55.8927C1098.1 55.917 1098.1 56.002 1098.09 56.0739C1098.09 56.1097 1098.08 56.1553 1098.08 56.1942L1098.08 56.1952C1098.08 56.2083 1098.07 56.2504 1098.06 56.2959C1098.06 56.3096 1098.05 56.3355 1098.04 56.3671C1098.04 56.3675 1098.04 56.368 1098.04 56.3686C1098.03 56.3873 1098 56.4721 1097.93 56.5664C1097.9 56.6087 1097.8 56.736 1097.61 56.8386C1097.37 56.9718 1096.99 57.0397 1096.62 56.8954C1096.34 56.7865 1096.21 56.609 1096.17 56.5535C1096.12 56.4797 1096.09 56.4156 1096.08 56.3853C1096.04 56.2836 1096.02 56.1869 1096 56.1223C1096 56.0954 1095.99 56.0743 1095.99 56.0568C1095.98 56.022 1095.97 56.0011 1095.97 55.9766C1095.9 55.7423 1095.84 55.5227 1095.79 55.3123C1095.68 54.8953 1095.58 54.5146 1095.43 54.1276C1095.26 53.6823 1095.56 53.208 1096.1 53.0683ZM1096.05 56.0029C1096.05 56.0072 1096.05 56.0063 1096.05 56.0015C1096.05 56.002 1096.05 56.0025 1096.05 56.0029Z" fill="white"/>
<path d="M1577.96 77.4832C1572.78 77.4832 1568.31 76.296 1564.55 73.9217C1560.81 71.5231 1557.93 68.1797 1555.9 63.8914C1553.89 59.5788 1552.88 54.5636 1552.88 48.8459C1552.88 43.1281 1553.89 38.0887 1555.9 33.7277C1557.93 29.3425 1560.75 25.9263 1564.37 23.4793C1568.01 21.0081 1572.26 19.7725 1577.12 19.7725C1579.92 19.7725 1582.69 20.257 1585.42 21.2261C1588.15 22.1952 1590.64 23.7701 1592.88 25.9506C1595.12 28.1068 1596.91 30.9657 1598.24 34.5272C1599.57 38.0887 1600.24 42.4739 1600.24 47.6829V51.3171H1558.77V43.9034H1591.83C1591.83 40.7538 1591.22 37.9433 1590.01 35.4721C1588.82 33.0009 1587.12 31.0505 1584.9 29.6211C1582.7 28.1916 1580.11 27.4769 1577.12 27.4769C1573.83 27.4769 1570.98 28.3249 1568.57 30.0208C1566.19 31.6926 1564.36 33.8731 1563.08 36.5624C1561.79 39.2516 1561.15 42.1348 1561.15 45.2117V50.1542C1561.15 54.3698 1561.85 57.9434 1563.25 60.875C1564.67 63.7823 1566.65 65.9992 1569.17 67.5255C1571.69 69.0277 1574.62 69.7787 1577.96 69.7787C1580.13 69.7787 1582.09 69.4638 1583.85 68.8338C1585.62 68.1797 1587.15 67.2106 1588.43 65.9265C1589.72 64.6182 1590.71 62.9949 1591.41 61.0567L1599.4 63.3826C1598.56 66.193 1597.14 68.6643 1595.16 70.7963C1593.17 72.9041 1590.72 74.5516 1587.8 75.7388C1584.89 76.9017 1581.6 77.4832 1577.96 77.4832Z" fill="white"/>
<path d="M1540.26 1.89258V76.3205H1532V1.89258H1540.26Z" fill="white"/>
<path d="M1471.86 76.3205V1.89258H1480.12V29.367H1480.83C1481.43 28.3978 1482.27 27.1622 1483.35 25.6601C1484.44 24.1337 1486.01 22.777 1488.04 21.5898C1490.1 20.3784 1492.87 19.7727 1496.38 19.7727C1500.91 19.7727 1504.9 20.9478 1508.36 23.2979C1511.81 25.648 1514.51 28.9793 1516.45 33.2919C1518.38 37.6044 1519.35 42.6923 1519.35 48.5554C1519.35 54.467 1518.38 59.5912 1516.45 63.928C1514.51 68.2405 1511.82 71.584 1508.39 73.9583C1504.96 76.3084 1501 77.4835 1496.52 77.4835C1493.06 77.4835 1490.29 76.8899 1488.22 75.7027C1486.14 74.4913 1484.54 73.1225 1483.42 71.5961C1482.3 70.0455 1481.43 68.7614 1480.83 67.7439H1479.84V76.3205H1471.86ZM1479.98 48.41C1479.98 52.6257 1480.58 56.3447 1481.77 59.567C1482.96 62.765 1484.7 65.2726 1486.99 67.0897C1489.28 68.8826 1492.08 69.779 1495.4 69.779C1498.85 69.779 1501.74 68.8341 1504.05 66.9443C1506.38 65.0303 1508.13 62.4622 1509.3 59.2399C1510.49 55.9934 1511.09 52.3834 1511.09 48.41C1511.09 44.4851 1510.5 40.9479 1509.34 37.7982C1508.19 34.6244 1506.45 32.1168 1504.12 30.2755C1501.81 28.41 1498.9 27.4772 1495.4 27.4772C1492.03 27.4772 1489.21 28.3615 1486.92 30.1301C1484.63 31.8745 1482.9 34.3216 1481.74 37.4712C1480.57 40.5966 1479.98 44.2429 1479.98 48.41Z" fill="white"/>
<path d="M1361.6 53.4974V20.499H1369.87V76.32H1361.6V66.8711H1361.04C1359.78 69.7058 1357.82 72.1165 1355.16 74.1031C1352.5 76.0656 1349.13 77.0468 1345.07 77.0468C1341.71 77.0468 1338.72 76.2837 1336.1 74.7573C1333.49 73.2067 1331.43 70.8808 1329.94 67.7797C1328.45 64.6543 1327.7 60.7173 1327.7 55.9686V20.499H1335.96V55.3871C1335.96 59.4574 1337.06 62.7039 1339.26 65.1267C1341.48 67.5495 1344.3 68.7609 1347.73 68.7609C1349.79 68.7609 1351.88 68.2158 1354 67.1255C1356.15 66.0353 1357.95 64.3635 1359.4 62.1104C1360.87 59.8572 1361.6 56.9862 1361.6 53.4974Z" fill="white"/>
<path d="M1291 76.3211V20.5001H1298.99V28.9314H1299.55C1300.53 26.1695 1302.3 23.9284 1304.87 22.2082C1307.44 20.488 1310.33 19.6279 1313.56 19.6279C1314.16 19.6279 1314.92 19.64 1315.83 19.6643C1316.74 19.6885 1317.43 19.7248 1317.9 19.7733V28.4953C1317.62 28.4226 1316.98 28.3136 1315.97 28.1682C1314.99 27.9987 1313.95 27.9139 1312.86 27.9139C1310.24 27.9139 1307.91 28.4832 1305.85 29.6219C1303.82 30.7364 1302.21 32.287 1301.02 34.2737C1299.85 36.2361 1299.27 38.4772 1299.27 40.9969V76.3211H1291Z" fill="white"/>
<path fill-rule="evenodd" clip-rule="evenodd" d="M1395.76 31.9086C1400.75 37.1292 1405.13 42.765 1409.63 48.5431C1411.31 50.709 1413.01 52.8949 1414.76 55.0864L1416.91 57.7637L1423.37 54.2171L1421.23 51.5397C1419.61 49.5096 1417.99 47.4311 1416.36 45.331C1410.27 37.4903 1403.94 29.3483 1396.04 22.2979C1396.02 22.2831 1396 22.2673 1395.99 22.2507C1395.67 21.9687 1395.06 21.4287 1394.4 20.8841C1393.78 20.3724 1392.81 19.6126 1391.89 19.1326C1391.64 19.0043 1391.26 18.8216 1390.77 18.6886C1390.36 18.5748 1389.34 18.3468 1388.14 18.683C1386.67 19.0934 1385.91 20.05 1385.61 20.8219C1385.36 21.4624 1385.41 22.0112 1385.44 22.2396C1385.49 22.7147 1385.66 23.1274 1385.71 23.2589C1385.71 23.2621 1385.71 23.2652 1385.71 23.2681C1385.78 23.4319 1385.8 23.4752 1385.8 23.4752C1386.57 25.7758 1387.18 27.9552 1387.6 30.2637C1387.87 31.7044 1388.14 33.1355 1388.41 34.5596C1389.81 42.0048 1391.18 49.2553 1391.79 56.6474C1392.03 59.667 1392.19 62.5069 1392.34 65.3859C1392.48 67.8583 1392.61 70.3594 1392.81 73.0278L1393.05 76.2332H1400.79L1400.55 72.6353C1400.38 70.3026 1400.24 67.8042 1400.1 65.2753C1399.93 62.2199 1399.76 59.1199 1399.53 56.2138C1398.9 48.5158 1397.47 40.9442 1396.06 33.5008C1395.96 32.9694 1395.86 32.4386 1395.76 31.9086ZM1393.08 21.2561C1393.07 21.2342 1393.07 21.2243 1393.07 21.2248C1393.07 21.2253 1393.07 21.2362 1393.08 21.2561Z" fill="white"/>
<path fill-rule="evenodd" clip-rule="evenodd" d="M1442.43 31.9086C1437.44 37.1292 1433.05 42.765 1428.56 48.5431C1426.87 50.709 1425.18 52.8949 1423.42 55.0864L1421.28 57.7637L1414.81 54.2171L1416.95 51.5397C1418.58 49.5096 1420.19 47.4311 1421.83 45.331C1427.92 37.4903 1434.24 29.3483 1442.15 22.2979C1442.17 22.2831 1442.18 22.2673 1442.2 22.2507C1442.52 21.9687 1443.12 21.4287 1443.79 20.8841C1444.41 20.3724 1445.37 19.6126 1446.3 19.1326C1446.54 19.0043 1446.93 18.8216 1447.41 18.6886C1447.83 18.5748 1448.85 18.3468 1450.05 18.683C1451.51 19.0934 1452.28 20.05 1452.58 20.8219C1452.82 21.4624 1452.78 22.0112 1452.75 22.2396C1452.69 22.7147 1452.53 23.1274 1452.48 23.2589C1452.48 23.2621 1452.47 23.2652 1452.47 23.2681C1452.41 23.4319 1452.39 23.4752 1452.39 23.4752C1451.61 25.7758 1451.01 27.9552 1450.58 30.2637C1450.32 31.7044 1450.05 33.1355 1449.78 34.5596C1448.37 42.0048 1447 49.2553 1446.4 56.6474C1446.15 59.667 1446 62.5069 1445.84 65.3859C1445.71 67.8583 1445.57 70.3594 1445.38 73.0278L1445.14 76.2332H1437.4L1437.63 72.6353C1437.81 70.3026 1437.94 67.8042 1438.08 65.2753C1438.25 62.2199 1438.42 59.1199 1438.66 56.2138C1439.29 48.5158 1440.72 40.9442 1442.13 33.5008C1442.23 32.9694 1442.33 32.4386 1442.43 31.9086ZM1445.11 21.2561C1445.11 21.2342 1445.12 21.2243 1445.12 21.2248C1445.12 21.2253 1445.11 21.2362 1445.11 21.2561Z" fill="white"/>
<path fill-rule="evenodd" clip-rule="evenodd" d="M1422.42 54.646C1422.91 54.8789 1423.08 55.3956 1422.8 55.8001C1422.69 55.9477 1422.59 56.096 1422.49 56.2447C1422.22 56.6335 1421.95 57.0249 1421.67 57.4139C1421.63 57.4793 1421.58 57.5471 1421.53 57.6166C1421.25 58.0165 1420.93 58.4756 1420.55 58.8905C1420.55 58.8909 1420.55 58.8921 1420.55 58.8942C1420.52 58.9224 1420.37 59.1042 1420.19 59.2433C1420.1 59.3206 1419.93 59.4376 1419.71 59.5165C1419.46 59.6027 1419.09 59.6586 1418.7 59.5107C1418.36 59.3824 1418.14 59.1602 1418.05 59.0599C1417.99 58.9987 1417.94 58.9381 1417.9 58.8969L1417.9 58.8961C1417.86 58.8468 1417.84 58.8275 1417.83 58.8152C1417.54 58.5014 1417.24 58.175 1416.96 57.8252C1416.89 57.7454 1416.82 57.6545 1416.73 57.555C1416.47 57.2424 1416.13 56.8456 1415.91 56.4465C1415.67 56.0243 1415.88 55.5208 1416.39 55.3217C1416.9 55.1227 1417.51 55.3036 1417.75 55.7258C1417.9 55.985 1418.08 56.2005 1418.31 56.471C1418.42 56.596 1418.53 56.7328 1418.66 56.891C1418.83 57.1068 1419.02 57.3174 1419.21 57.5301C1419.39 57.3014 1419.56 57.0566 1419.75 56.7901C1419.8 56.716 1419.85 56.6403 1419.91 56.5627C1420.18 56.1787 1420.45 55.7944 1420.71 55.4074C1420.82 55.2576 1420.92 55.1075 1421.03 54.9568C1421.31 54.5523 1421.93 54.4132 1422.42 54.646ZM1418.78 58.0245C1418.77 58.0278 1418.77 58.027 1418.78 58.0234C1418.78 58.0238 1418.78 58.0242 1418.78 58.0245Z" fill="white"/>
<path fill-rule="evenodd" clip-rule="evenodd" d="M1418.34 53.9599C1418.88 53.8202 1419.45 54.0679 1419.62 54.5133C1419.79 54.973 1419.93 55.4802 1420.05 55.9361C1420.07 56.0319 1420.1 56.1254 1420.12 56.2157C1420.27 56.3706 1420.36 56.5699 1420.35 56.7843C1420.34 56.8086 1420.34 56.8936 1420.33 56.9655C1420.33 57.0013 1420.32 57.0469 1420.32 57.0858L1420.32 57.0868C1420.32 57.0999 1420.31 57.142 1420.3 57.1875C1420.29 57.2012 1420.29 57.2271 1420.28 57.2587C1420.28 57.2591 1420.28 57.2596 1420.28 57.2602C1420.27 57.2789 1420.24 57.3637 1420.17 57.458C1420.14 57.5003 1420.04 57.6276 1419.85 57.7302C1419.61 57.8634 1419.23 57.9313 1418.86 57.787C1418.58 57.6781 1418.45 57.5006 1418.41 57.4451C1418.36 57.3713 1418.33 57.3072 1418.32 57.2769C1418.28 57.1752 1418.26 57.0785 1418.24 57.0139C1418.24 56.987 1418.23 56.9659 1418.23 56.9484C1418.22 56.9137 1418.21 56.8927 1418.21 56.8682C1418.14 56.6339 1418.08 56.4143 1418.03 56.2039C1417.92 55.7869 1417.82 55.4062 1417.67 55.0192C1417.5 54.5739 1417.8 54.0996 1418.34 53.9599ZM1418.29 56.8945C1418.29 56.8988 1418.29 56.8979 1418.29 56.8931C1418.29 56.8936 1418.29 56.8941 1418.29 56.8945Z" fill="white"/>
<path d="M1900.88 76.5379C1895.7 76.5379 1891.23 75.3507 1887.47 72.9764C1883.73 70.5778 1880.85 67.2344 1878.82 62.9461C1876.81 58.6335 1875.8 53.6183 1875.8 47.9006C1875.8 42.1828 1876.81 37.1434 1878.82 32.7824C1880.85 28.3971 1883.67 24.981 1887.29 22.534C1890.93 20.0628 1895.18 18.8271 1900.04 18.8271C1902.84 18.8271 1905.61 19.3117 1908.34 20.2808C1911.07 21.2499 1913.56 22.8247 1915.8 25.0052C1918.04 27.1615 1919.83 30.0204 1921.16 33.5819C1922.49 37.1434 1923.16 41.5286 1923.16 46.7376V50.3718H1881.69V42.9581H1914.75C1914.75 39.8085 1914.14 36.998 1912.93 34.5268C1911.74 32.0555 1910.04 30.1052 1907.82 28.6758C1905.62 27.2463 1903.03 26.5316 1900.04 26.5316C1896.75 26.5316 1893.9 27.3796 1891.49 29.0755C1889.11 30.7472 1887.28 32.9278 1886 35.617C1884.71 38.3063 1884.07 41.1894 1884.07 44.2664V49.2089C1884.07 53.4245 1884.77 56.9981 1886.17 59.9297C1887.59 62.837 1889.57 65.0539 1892.09 66.5802C1894.61 68.0824 1897.54 68.8334 1900.88 68.8334C1903.05 68.8334 1905.01 68.5185 1906.77 67.8885C1908.54 67.2344 1910.07 66.2653 1911.35 64.9812C1912.64 63.6729 1913.63 62.0496 1914.33 60.1114L1922.32 62.4373C1921.48 65.2477 1920.06 67.7189 1918.08 69.851C1916.09 71.9588 1913.64 73.6063 1910.72 74.7935C1907.81 75.9564 1904.52 76.5379 1900.88 76.5379Z" fill="white"/>
<path d="M1863.18 0.946289V75.3742H1854.92V0.946289H1863.18Z" fill="white"/>
<path d="M1794.78 75.3742V0.946289H1803.04V28.4207H1803.75C1804.35 27.4516 1805.19 26.2159 1806.27 24.7138C1807.36 23.1875 1808.93 21.8307 1810.96 20.6435C1813.02 19.4321 1815.79 18.8264 1819.3 18.8264C1823.83 18.8264 1827.82 20.0015 1831.28 22.3516C1834.73 24.7017 1837.43 28.033 1839.37 32.3456C1841.3 36.6581 1842.27 41.746 1842.27 47.6091C1842.27 53.5207 1841.3 58.6449 1839.37 62.9817C1837.43 67.2942 1834.74 70.6377 1831.31 73.012C1827.88 75.3621 1823.92 76.5372 1819.44 76.5372C1815.98 76.5372 1813.21 75.9436 1811.14 74.7564C1809.06 73.545 1807.46 72.1762 1806.34 70.6498C1805.22 69.0992 1804.35 67.8151 1803.75 66.7976H1802.76V75.3742H1794.78ZM1802.9 47.4638C1802.9 51.6794 1803.5 55.3984 1804.69 58.6207C1805.88 61.8188 1807.62 64.3263 1809.91 66.1434C1812.2 67.9363 1815 68.8327 1818.32 68.8327C1821.77 68.8327 1824.66 67.8878 1826.97 65.9981C1829.3 64.0841 1831.05 61.5159 1832.22 58.2936C1833.41 55.0471 1834.01 51.4371 1834.01 47.4638C1834.01 43.5388 1833.42 40.0016 1832.26 36.852C1831.11 33.6781 1829.37 31.1705 1827.04 29.3292C1824.73 27.4637 1821.82 26.5309 1818.32 26.5309C1814.95 26.5309 1812.13 27.4152 1809.84 29.1838C1807.55 30.9283 1805.82 33.3753 1804.66 36.5249C1803.49 39.6503 1802.9 43.2966 1802.9 47.4638Z" fill="white"/>
<path d="M1684.52 52.552V19.5537H1692.79V75.3747H1684.52V65.9258H1683.96C1682.7 68.7605 1680.74 71.1712 1678.08 73.1578C1675.42 75.1203 1672.05 76.1015 1667.99 76.1015C1664.63 76.1015 1661.64 75.3383 1659.02 73.812C1656.41 72.2614 1654.35 69.9355 1652.86 66.8344C1651.37 63.709 1650.62 59.7719 1650.62 55.0233V19.5537H1658.88V54.4418C1658.88 58.5121 1659.98 61.7586 1662.18 64.1814C1664.4 66.6042 1667.22 67.8156 1670.65 67.8156C1672.71 67.8156 1674.8 67.2705 1676.92 66.1802C1679.07 65.09 1680.87 63.4182 1682.32 61.165C1683.79 58.9119 1684.52 56.0409 1684.52 52.552Z" fill="white"/>
<path d="M1613.92 75.3748V19.5538H1621.91V27.9851H1622.47C1623.45 25.2232 1625.22 22.9821 1627.79 21.2619C1630.36 19.5417 1633.25 18.6816 1636.48 18.6816C1637.08 18.6816 1637.84 18.6938 1638.75 18.718C1639.66 18.7422 1640.35 18.7786 1640.82 18.827V27.549C1640.54 27.4764 1639.9 27.3673 1638.89 27.222C1637.91 27.0524 1636.87 26.9676 1635.78 26.9676C1633.16 26.9676 1630.83 27.5369 1628.77 28.6756C1626.74 29.7901 1625.13 31.3407 1623.94 33.3274C1622.77 35.2898 1622.19 37.5309 1622.19 40.0506V75.3748H1613.92Z" fill="white"/>
<path fill-rule="evenodd" clip-rule="evenodd" d="M1718.68 30.9623C1723.67 36.1829 1728.05 41.8187 1732.55 47.5968C1734.23 49.7627 1735.93 51.9486 1737.69 54.1401L1739.83 56.8175L1746.3 53.2708L1744.15 50.5934C1742.53 48.5633 1740.91 46.4848 1739.28 44.3847C1733.19 36.544 1726.86 28.4021 1718.96 21.3516C1718.94 21.3368 1718.92 21.3211 1718.91 21.3044C1718.59 21.0224 1717.99 20.4824 1717.32 19.9378C1716.7 19.4261 1715.73 18.6663 1714.81 18.1863C1714.56 18.058 1714.18 17.8753 1713.69 17.7423C1713.28 17.6286 1712.26 17.4005 1711.06 17.7367C1709.6 18.1471 1708.83 19.1037 1708.53 19.8756C1708.28 20.5161 1708.33 21.0649 1708.36 21.2933C1708.41 21.7684 1708.58 22.1811 1708.63 22.3126C1708.63 22.3158 1708.63 22.3189 1708.63 22.3218C1708.7 22.4856 1708.72 22.5289 1708.72 22.5289C1709.49 24.8295 1710.1 27.0089 1710.52 29.3174C1710.79 30.7581 1711.06 32.1892 1711.33 33.6133C1712.73 41.0585 1714.1 48.309 1714.71 55.7011C1714.95 58.7207 1715.11 61.5606 1715.26 64.4397C1715.4 66.912 1715.53 69.4131 1715.73 72.0815L1715.97 75.2869H1723.71L1723.47 71.689C1723.3 69.3563 1723.16 66.8579 1723.02 64.329C1722.86 61.2736 1722.68 58.1736 1722.45 55.2675C1721.82 47.5695 1720.39 39.9979 1718.98 32.5545C1718.88 32.0231 1718.78 31.4924 1718.68 30.9623ZM1716 20.3098C1715.99 20.2879 1715.99 20.278 1715.99 20.2785C1715.99 20.279 1716 20.2899 1716 20.3098Z" fill="white"/>
<path fill-rule="evenodd" clip-rule="evenodd" d="M1765.35 30.9623C1760.36 36.1829 1755.97 41.8187 1751.48 47.5968C1749.8 49.7627 1748.1 51.9486 1746.34 54.1401L1744.2 56.8175L1737.73 53.2708L1739.87 50.5934C1741.5 48.5633 1743.11 46.4848 1744.75 44.3847C1750.84 36.544 1757.17 28.4021 1765.07 21.3516C1765.09 21.3368 1765.1 21.3211 1765.12 21.3044C1765.44 21.0224 1766.04 20.4824 1766.71 19.9378C1767.33 19.4261 1768.29 18.6663 1769.22 18.1863C1769.47 18.058 1769.85 17.8753 1770.34 17.7423C1770.75 17.6286 1771.77 17.4005 1772.97 17.7367C1774.43 18.1471 1775.2 19.1037 1775.5 19.8756C1775.74 20.5161 1775.7 21.0649 1775.67 21.2933C1775.61 21.7684 1775.45 22.1811 1775.4 22.3126C1775.4 22.3158 1775.4 22.3189 1775.39 22.3218C1775.33 22.4856 1775.31 22.5289 1775.31 22.5289C1774.54 24.8295 1773.93 27.0089 1773.5 29.3174C1773.24 30.7581 1772.97 32.1892 1772.7 33.6133C1771.29 41.0585 1769.93 48.309 1769.32 55.7011C1769.07 58.7207 1768.92 61.5606 1768.76 64.4397C1768.63 66.912 1768.49 69.4131 1768.3 72.0815L1768.06 75.2869H1760.32L1760.55 71.689C1760.73 69.3563 1760.86 66.8579 1761 64.329C1761.17 61.2736 1761.34 58.1736 1761.58 55.2675C1762.21 47.5695 1763.64 39.9979 1765.05 32.5545C1765.15 32.0231 1765.25 31.4924 1765.35 30.9623ZM1768.03 20.3098C1768.04 20.2879 1768.04 20.278 1768.04 20.2785C1768.04 20.279 1768.03 20.2899 1768.03 20.3098Z" fill="white"/>
<path fill-rule="evenodd" clip-rule="evenodd" d="M1745.34 53.6997C1745.83 53.9326 1746 54.4493 1745.72 54.8538C1745.62 55.0014 1745.51 55.1497 1745.41 55.2984C1745.14 55.6872 1744.87 56.0786 1744.59 56.4676C1744.55 56.533 1744.5 56.6008 1744.45 56.6703C1744.17 57.0702 1743.85 57.5293 1743.47 57.9442C1743.47 57.9446 1743.47 57.9458 1743.47 57.9479C1743.45 57.9761 1743.29 58.1579 1743.11 58.297C1743.02 58.3743 1742.85 58.4913 1742.63 58.5703C1742.38 58.6564 1742.01 58.7123 1741.62 58.5644C1741.28 58.4361 1741.06 58.2139 1740.97 58.1136C1740.91 58.0524 1740.86 57.9918 1740.83 57.9506L1740.82 57.9498C1740.78 57.9005 1740.77 57.8812 1740.75 57.8689C1740.46 57.5551 1740.16 57.2287 1739.88 56.8789C1739.82 56.7991 1739.74 56.7082 1739.66 56.6087C1739.39 56.2961 1739.06 55.8993 1738.83 55.5002C1738.59 55.0781 1738.81 54.5745 1739.32 54.3754C1739.83 54.1764 1740.43 54.3573 1740.67 54.7795C1740.82 55.0387 1741 55.2542 1741.23 55.5248C1741.34 55.6497 1741.45 55.7865 1741.58 55.9447C1741.75 56.1606 1741.94 56.3711 1742.13 56.5838C1742.31 56.3551 1742.49 56.1103 1742.67 55.8438C1742.72 55.7697 1742.78 55.694 1742.83 55.6164C1743.1 55.2325 1743.37 54.8481 1743.64 54.4611C1743.74 54.3113 1743.84 54.1612 1743.95 54.0105C1744.23 53.606 1744.85 53.4669 1745.34 53.6997ZM1741.7 57.0782C1741.7 57.0815 1741.7 57.0807 1741.7 57.0771C1741.7 57.0775 1741.7 57.0779 1741.7 57.0782Z" fill="white"/>
<path fill-rule="evenodd" clip-rule="evenodd" d="M1741.26 53.0136C1741.8 52.8739 1742.37 53.1216 1742.54 53.567C1742.71 54.0267 1742.85 54.5339 1742.97 54.9898C1742.99 55.0856 1743.02 55.1791 1743.04 55.2694C1743.19 55.4243 1743.28 55.6236 1743.27 55.838C1743.26 55.8623 1743.26 55.9473 1743.25 56.0192C1743.25 56.0551 1743.24 56.1007 1743.24 56.1395L1743.24 56.1405C1743.24 56.1536 1743.23 56.1957 1743.22 56.2412C1743.21 56.2549 1743.21 56.2808 1743.2 56.3124C1743.2 56.3128 1743.2 56.3133 1743.2 56.3139C1743.19 56.3327 1743.16 56.4174 1743.09 56.5117C1743.06 56.554 1742.96 56.6813 1742.77 56.7839C1742.53 56.9171 1742.15 56.985 1741.78 56.8407C1741.5 56.7318 1741.37 56.5543 1741.33 56.4988C1741.28 56.425 1741.25 56.361 1741.24 56.3306C1741.2 56.2289 1741.18 56.1322 1741.16 56.0676C1741.16 56.0407 1741.15 56.0196 1741.15 56.0021C1741.14 55.9674 1741.13 55.9464 1741.13 55.9219C1741.06 55.6876 1741 55.468 1740.95 55.2576C1740.84 54.8406 1740.74 54.4599 1740.59 54.0729C1740.42 53.6276 1740.72 53.1533 1741.26 53.0136ZM1741.21 55.9482C1741.21 55.9525 1741.21 55.9516 1741.21 55.9468C1741.21 55.9473 1741.21 55.9478 1741.21 55.9482Z" fill="white"/>
<path d="M2223.8 76.5379C2218.62 76.5379 2214.15 75.3507 2210.39 72.9764C2206.65 70.5778 2203.77 67.2344 2201.74 62.9461C2199.73 58.6335 2198.72 53.6183 2198.72 47.9006C2198.72 42.1828 2199.73 37.1434 2201.74 32.7824C2203.77 28.3971 2206.59 24.981 2210.21 22.534C2213.86 20.0628 2218.11 18.8271 2222.96 18.8271C2225.76 18.8271 2228.53 19.3117 2231.26 20.2808C2234 21.2499 2236.48 22.8247 2238.72 25.0052C2240.97 27.1615 2242.75 30.0204 2244.08 33.5819C2245.41 37.1434 2246.08 41.5286 2246.08 46.7376V50.3718H2204.61V42.9581H2237.67C2237.67 39.8085 2237.07 36.998 2235.85 34.5268C2234.66 32.0555 2232.96 30.1052 2230.74 28.6758C2228.54 27.2463 2225.95 26.5316 2222.96 26.5316C2219.67 26.5316 2216.82 27.3796 2214.42 29.0755C2212.03 30.7472 2210.2 32.9278 2208.92 35.617C2207.63 38.3063 2206.99 41.1894 2206.99 44.2664V49.2089C2206.99 53.4245 2207.69 56.9981 2209.09 59.9297C2210.52 62.837 2212.49 65.0539 2215.01 66.5802C2217.53 68.0824 2220.46 68.8334 2223.8 68.8334C2225.98 68.8334 2227.94 68.5185 2229.69 67.8885C2231.46 67.2344 2232.99 66.2653 2234.28 64.9812C2235.56 63.6729 2236.55 62.0496 2237.25 60.1114L2245.24 62.4373C2244.4 65.2477 2242.99 67.7189 2241 69.851C2239.02 71.9588 2236.56 73.6063 2233.65 74.7935C2230.73 75.9564 2227.45 76.5379 2223.8 76.5379Z" fill="white"/>
<path d="M2186.11 0.946289V75.3742H2177.84V0.946289H2186.11Z" fill="white"/>
<path d="M2117.7 75.3742V0.946289H2125.97V28.4207H2126.67C2127.27 27.4516 2128.12 26.2159 2129.19 24.7138C2130.29 23.1875 2131.85 21.8307 2133.88 20.6435C2135.94 19.4321 2138.72 18.8264 2142.22 18.8264C2146.75 18.8264 2150.74 20.0015 2154.2 22.3516C2157.65 24.7017 2160.35 28.033 2162.29 32.3456C2164.23 36.6581 2165.2 41.746 2165.2 47.6091C2165.2 53.5207 2164.23 58.6449 2162.29 62.9817C2160.35 67.2942 2157.67 70.6377 2154.23 73.012C2150.8 75.3621 2146.84 76.5372 2142.36 76.5372C2138.9 76.5372 2136.14 75.9436 2134.06 74.7564C2131.98 73.545 2130.38 72.1762 2129.26 70.6498C2128.14 69.0992 2127.27 67.8151 2126.67 66.7976H2125.69V75.3742H2117.7ZM2125.83 47.4638C2125.83 51.6794 2126.42 55.3984 2127.61 58.6207C2128.8 61.8188 2130.54 64.3263 2132.83 66.1434C2135.12 67.9363 2137.92 68.8327 2141.24 68.8327C2144.69 68.8327 2147.58 67.8878 2149.89 65.9981C2152.23 64.0841 2153.98 61.5159 2155.14 58.2936C2156.34 55.0471 2156.93 51.4371 2156.93 47.4638C2156.93 43.5388 2156.35 40.0016 2155.18 36.852C2154.04 33.6781 2152.3 31.1705 2149.96 29.3292C2147.65 27.4637 2144.74 26.5309 2141.24 26.5309C2137.88 26.5309 2135.05 27.4152 2132.76 29.1838C2130.47 30.9283 2128.75 33.3753 2127.58 36.5249C2126.41 39.6503 2125.83 43.2966 2125.83 47.4638Z" fill="white"/>
<path d="M2007.45 52.552V19.5537H2015.71V75.3747H2007.45V65.9258H2006.89C2005.62 68.7605 2003.66 71.1712 2001 73.1578C1998.34 75.1203 1994.98 76.1015 1990.91 76.1015C1987.55 76.1015 1984.56 75.3383 1981.95 73.812C1979.33 72.2614 1977.28 69.9355 1975.78 66.8344C1974.29 63.709 1973.54 59.7719 1973.54 55.0233V19.5537H1981.81V54.4418C1981.81 58.5121 1982.9 61.7586 1985.1 64.1814C1987.32 66.6042 1990.14 67.8156 1993.58 67.8156C1995.63 67.8156 1997.72 67.2705 1999.84 66.1802C2001.99 65.09 2003.79 63.4182 2005.24 61.165C2006.71 58.9119 2007.45 56.0409 2007.45 52.552Z" fill="white"/>
<path d="M1936.84 75.3748V19.5538H1944.83V27.9851H1945.39C1946.37 25.2232 1948.14 22.9821 1950.71 21.2619C1953.28 19.5417 1956.18 18.6816 1959.4 18.6816C1960.01 18.6816 1960.76 18.6938 1961.68 18.718C1962.59 18.7422 1963.27 18.7786 1963.74 18.827V27.549C1963.46 27.4764 1962.82 27.3673 1961.82 27.222C1960.83 27.0524 1959.8 26.9676 1958.7 26.9676C1956.08 26.9676 1953.75 27.5369 1951.69 28.6756C1949.66 29.7901 1948.05 31.3407 1946.86 33.3274C1945.69 35.2898 1945.11 37.5309 1945.11 40.0506V75.3748H1936.84Z" fill="white"/>
<path fill-rule="evenodd" clip-rule="evenodd" d="M2041.6 30.9623C2046.59 36.1829 2050.98 41.8187 2055.47 47.5968C2057.15 49.7627 2058.85 51.9486 2060.61 54.1401L2062.75 56.8175L2069.22 53.2708L2067.07 50.5934C2065.45 48.5633 2063.84 46.4848 2062.2 44.3847C2056.11 36.544 2049.78 28.4021 2041.88 21.3516C2041.86 21.3368 2041.85 21.3211 2041.83 21.3044C2041.51 21.0224 2040.91 20.4824 2040.24 19.9378C2039.62 19.4261 2038.65 18.6663 2037.73 18.1863C2037.48 18.058 2037.1 17.8753 2036.61 17.7423C2036.2 17.6286 2035.18 17.4005 2033.98 17.7367C2032.52 18.1471 2031.75 19.1037 2031.45 19.8756C2031.2 20.5161 2031.25 21.0649 2031.28 21.2933C2031.33 21.7684 2031.5 22.1811 2031.55 22.3126C2031.55 22.3158 2031.55 22.3189 2031.56 22.3218C2031.62 22.4856 2031.64 22.5289 2031.64 22.5289C2032.41 24.8295 2033.02 27.0089 2033.45 29.3174C2033.71 30.7581 2033.98 32.1892 2034.25 33.6133C2035.66 41.0585 2037.02 48.309 2037.63 55.7011C2037.87 58.7207 2038.03 61.5606 2038.18 64.4397C2038.32 66.912 2038.45 69.4131 2038.65 72.0815L2038.89 75.2869H2046.63L2046.4 71.689C2046.22 69.3563 2046.09 66.8579 2045.95 64.329C2045.78 61.2736 2045.61 58.1736 2045.37 55.2675C2044.74 47.5695 2043.31 39.9979 2041.9 32.5545C2041.8 32.0231 2041.7 31.4924 2041.6 30.9623ZM2038.92 20.3098C2038.91 20.2879 2038.91 20.278 2038.91 20.2785C2038.91 20.279 2038.92 20.2899 2038.92 20.3098Z" fill="white"/>
<path fill-rule="evenodd" clip-rule="evenodd" d="M2088.27 30.9623C2083.28 36.1829 2078.89 41.8187 2074.4 47.5968C2072.72 49.7627 2071.02 51.9486 2069.26 54.1401L2067.12 56.8175L2060.65 53.2708L2062.8 50.5934C2064.42 48.5633 2066.03 46.4848 2067.67 44.3847C2073.76 36.544 2080.09 28.4021 2087.99 21.3516C2088.01 21.3368 2088.02 21.3211 2088.04 21.3044C2088.36 21.0224 2088.96 20.4824 2089.63 19.9378C2090.25 19.4261 2091.22 18.6663 2092.14 18.1863C2092.39 18.058 2092.77 17.8753 2093.26 17.7423C2093.67 17.6286 2094.69 17.4005 2095.89 17.7367C2097.35 18.1471 2098.12 19.1037 2098.42 19.8756C2098.67 20.5161 2098.62 21.0649 2098.59 21.2933C2098.54 21.7684 2098.37 22.1811 2098.32 22.3126C2098.32 22.3158 2098.32 22.3189 2098.31 22.3218C2098.25 22.4856 2098.23 22.5289 2098.23 22.5289C2097.46 24.8295 2096.85 27.0089 2096.43 29.3174C2096.16 30.7581 2095.89 32.1892 2095.62 33.6133C2094.21 41.0585 2092.85 48.309 2092.24 55.7011C2092 58.7207 2091.84 61.5606 2091.69 64.4397C2091.55 66.912 2091.42 69.4131 2091.22 72.0815L2090.98 75.2869H2083.24L2083.47 71.689C2083.65 69.3563 2083.78 66.8579 2083.92 64.329C2084.09 61.2736 2084.26 58.1736 2084.5 55.2675C2085.13 47.5695 2086.56 39.9979 2087.97 32.5545C2088.07 32.0231 2088.17 31.4924 2088.27 30.9623ZM2090.95 20.3098C2090.96 20.2879 2090.96 20.278 2090.96 20.2785C2090.96 20.279 2090.95 20.2899 2090.95 20.3098Z" fill="white"/>
<path fill-rule="evenodd" clip-rule="evenodd" d="M2068.26 53.6997C2068.75 53.9326 2068.92 54.4493 2068.64 54.8538C2068.54 55.0014 2068.43 55.1497 2068.33 55.2984C2068.06 55.6872 2067.79 56.0786 2067.52 56.4676C2067.47 56.533 2067.42 56.6008 2067.37 56.6703C2067.1 57.0702 2066.78 57.5293 2066.39 57.9442C2066.39 57.9446 2066.39 57.9458 2066.39 57.9479C2066.37 57.9761 2066.21 58.1579 2066.04 58.297C2065.94 58.3743 2065.77 58.4913 2065.55 58.5703C2065.3 58.6564 2064.93 58.7123 2064.54 58.5644C2064.2 58.4361 2063.99 58.2139 2063.89 58.1136C2063.83 58.0524 2063.78 57.9918 2063.75 57.9506L2063.75 57.9498C2063.7 57.9005 2063.69 57.8812 2063.68 57.8689C2063.38 57.5551 2063.08 57.2287 2062.8 56.8789C2062.74 56.7991 2062.66 56.7082 2062.58 56.6087C2062.31 56.2961 2061.98 55.8993 2061.75 55.5002C2061.51 55.0781 2061.73 54.5745 2062.24 54.3754C2062.75 54.1764 2063.36 54.3573 2063.6 54.7795C2063.74 55.0387 2063.93 55.2542 2064.15 55.5248C2064.26 55.6497 2064.38 55.7865 2064.5 55.9447C2064.68 56.1606 2064.86 56.3711 2065.06 56.5838C2065.24 56.3551 2065.41 56.1103 2065.59 55.8438C2065.64 55.7697 2065.7 55.694 2065.75 55.6164C2066.02 55.2325 2066.29 54.8481 2066.56 54.4611C2066.66 54.3113 2066.77 54.1612 2066.87 54.0105C2067.15 53.606 2067.78 53.4669 2068.26 53.6997ZM2064.62 57.0782C2064.62 57.0815 2064.62 57.0807 2064.62 57.0771C2064.62 57.0775 2064.62 57.0779 2064.62 57.0782Z" fill="white"/>
<path fill-rule="evenodd" clip-rule="evenodd" d="M2064.18 53.0136C2064.72 52.8739 2065.29 53.1216 2065.46 53.567C2065.63 54.0267 2065.77 54.5339 2065.89 54.9898C2065.91 55.0856 2065.94 55.1791 2065.96 55.2694C2066.11 55.4243 2066.2 55.6236 2066.19 55.838C2066.18 55.8623 2066.18 55.9473 2066.17 56.0192C2066.17 56.0551 2066.16 56.1007 2066.16 56.1395L2066.16 56.1405C2066.16 56.1536 2066.15 56.1957 2066.14 56.2412C2066.13 56.2549 2066.13 56.2808 2066.12 56.3124C2066.12 56.3128 2066.12 56.3133 2066.12 56.3139C2066.11 56.3327 2066.08 56.4174 2066.01 56.5117C2065.98 56.554 2065.88 56.6813 2065.69 56.7839C2065.45 56.9171 2065.07 56.985 2064.7 56.8407C2064.42 56.7318 2064.29 56.5543 2064.25 56.4988C2064.2 56.425 2064.17 56.361 2064.16 56.3306C2064.12 56.2289 2064.1 56.1322 2064.08 56.0676C2064.08 56.0407 2064.07 56.0196 2064.07 56.0021C2064.06 55.9674 2064.05 55.9464 2064.05 55.9219C2063.98 55.6876 2063.92 55.468 2063.87 55.2576C2063.76 54.8406 2063.66 54.4599 2063.51 54.0729C2063.34 53.6276 2063.64 53.1533 2064.18 53.0136ZM2064.13 55.9482C2064.13 55.9525 2064.13 55.9516 2064.13 55.9468C2064.13 55.9473 2064.13 55.9478 2064.13 55.9482Z" fill="white"/>
<path d="M2546.72 75.5906C2541.54 75.5906 2537.07 74.4034 2533.31 72.0291C2529.57 69.6306 2526.69 66.2871 2524.66 61.9988C2522.65 57.6862 2521.64 52.6711 2521.64 46.9533C2521.64 41.2355 2522.65 36.1961 2524.66 31.8351C2526.69 27.4499 2529.51 24.0338 2533.13 21.5867C2536.78 19.1155 2541.03 17.8799 2545.88 17.8799C2548.68 17.8799 2551.45 18.3644 2554.18 19.3335C2556.92 20.3027 2559.4 21.8775 2561.64 24.058C2563.89 26.2143 2565.67 29.0731 2567 32.6346C2568.33 36.1961 2569 40.5814 2569 45.7904V49.4245H2527.53V42.0108H2560.59C2560.59 38.8612 2559.99 36.0508 2558.77 33.5795C2557.58 31.1083 2555.88 29.1579 2553.66 27.7285C2551.46 26.2991 2548.87 25.5843 2545.88 25.5843C2542.59 25.5843 2539.74 26.4323 2537.34 28.1283C2534.95 29.8 2533.12 31.9805 2531.84 34.6698C2530.55 37.3591 2529.91 40.2422 2529.91 43.3191V48.2616C2529.91 52.4772 2530.61 56.0509 2532.01 58.9824C2533.44 61.8898 2535.41 64.1066 2537.93 65.633C2540.45 67.1351 2543.38 67.8861 2546.72 67.8861C2548.89 67.8861 2550.86 67.5712 2552.61 66.9413C2554.38 66.2871 2555.91 65.318 2557.2 64.0339C2558.48 62.7256 2559.47 61.1024 2560.17 59.1641L2568.16 61.49C2567.32 64.3004 2565.91 66.7717 2563.92 68.9037C2561.94 71.0115 2559.48 72.659 2556.57 73.8462C2553.65 75.0091 2550.37 75.5906 2546.72 75.5906Z" fill="white"/>
<path d="M2509.03 0V74.428H2500.76V0H2509.03Z" fill="white"/>
<path d="M2440.62 74.4279V0H2448.89V27.4744H2449.59C2450.19 26.5053 2451.04 25.2696 2452.11 23.7675C2453.21 22.2412 2454.77 20.8844 2456.8 19.6972C2458.86 18.4858 2461.64 17.8802 2465.14 17.8802C2469.67 17.8802 2473.66 19.0552 2477.12 21.4053C2480.57 23.7554 2483.27 27.0867 2485.21 31.3993C2487.15 35.7118 2488.12 40.7997 2488.12 46.6628C2488.12 52.5744 2487.15 57.6986 2485.21 62.0354C2483.27 66.348 2480.59 69.6914 2477.15 72.0657C2473.72 74.4158 2469.76 75.5909 2465.28 75.5909C2461.82 75.5909 2459.06 74.9973 2456.98 73.8101C2454.9 72.5987 2453.3 71.2299 2452.18 69.7035C2451.06 68.1529 2450.19 66.8689 2449.59 65.8513H2448.61V74.4279H2440.62ZM2448.75 46.5175C2448.75 50.7331 2449.34 54.4521 2450.53 57.6744C2451.72 60.8725 2453.46 63.38 2455.75 65.1971C2458.04 66.99 2460.84 67.8864 2464.16 67.8864C2467.61 67.8864 2470.5 66.9415 2472.81 65.0518C2475.15 63.1378 2476.9 60.5696 2478.06 57.3473C2479.26 54.1008 2479.85 50.4908 2479.85 46.5175C2479.85 42.5926 2479.27 39.0553 2478.1 35.9057C2476.95 32.7318 2475.22 30.2242 2472.88 28.3829C2470.57 26.5174 2467.66 25.5846 2464.16 25.5846C2460.8 25.5846 2457.97 26.4689 2455.68 28.2376C2453.39 29.982 2451.67 32.429 2450.5 35.5786C2449.33 38.704 2448.75 42.3503 2448.75 46.5175Z" fill="white"/>
<path d="M2330.37 51.6048V18.6064H2338.63V74.4274H2330.37V64.9786H2329.81C2328.54 67.8132 2326.58 70.2239 2323.92 72.2106C2321.26 74.173 2317.9 75.1542 2313.83 75.1542C2310.47 75.1542 2307.48 74.3911 2304.87 72.8647C2302.25 71.3141 2300.2 68.9883 2298.7 65.8871C2297.21 62.7617 2296.46 58.8247 2296.46 54.076V18.6064H2304.73V53.4945C2304.73 57.5648 2305.82 60.8114 2308.02 63.2341C2310.24 65.6569 2313.06 66.8683 2316.5 66.8683C2318.55 66.8683 2320.64 66.3232 2322.77 65.2329C2324.91 64.1427 2326.71 62.471 2328.16 60.2178C2329.63 57.9646 2330.37 55.0936 2330.37 51.6048Z" fill="white"/>
<path d="M2259.76 74.4285V18.6076H2267.75V27.0388H2268.31C2269.29 24.2769 2271.06 22.0358 2273.63 20.3156C2276.2 18.5954 2279.1 17.7354 2282.32 17.7354C2282.93 17.7354 2283.69 17.7475 2284.6 17.7717C2285.51 17.7959 2286.2 17.8323 2286.66 17.8807V26.6027C2286.38 26.5301 2285.74 26.421 2284.74 26.2757C2283.76 26.1061 2282.72 26.0213 2281.62 26.0213C2279 26.0213 2276.67 26.5906 2274.61 27.7293C2272.58 28.8438 2270.97 30.3944 2269.78 32.3811C2268.61 34.3435 2268.03 36.5846 2268.03 39.1043V74.4285H2259.76Z" fill="white"/>
<path fill-rule="evenodd" clip-rule="evenodd" d="M2364.52 30.016C2369.51 35.2366 2373.9 40.8724 2378.39 46.6505C2380.07 48.8164 2381.77 51.0023 2383.53 53.1938L2385.67 55.8712L2392.14 52.3245L2389.99 49.6471C2388.37 47.617 2386.76 45.5385 2385.12 43.4385C2379.03 35.5977 2372.7 27.4558 2364.8 20.4053C2364.78 20.3905 2364.77 20.3748 2364.75 20.3581C2364.43 20.0762 2363.83 19.5361 2363.16 18.9915C2362.54 18.4798 2361.57 17.72 2360.65 17.24C2360.4 17.1117 2360.02 16.929 2359.53 16.796C2359.12 16.6823 2358.1 16.4542 2356.9 16.7904C2355.44 17.2008 2354.67 18.1574 2354.37 18.9293C2354.12 19.5698 2354.17 20.1186 2354.2 20.347C2354.25 20.8221 2354.42 21.2348 2354.47 21.3663C2354.47 21.3696 2354.47 21.3726 2354.48 21.3755C2354.54 21.5393 2354.56 21.5826 2354.56 21.5826C2355.33 23.8832 2355.94 26.0626 2356.36 28.3711C2356.63 29.8118 2356.9 31.243 2357.17 32.667C2358.58 40.1122 2359.94 47.3627 2360.55 54.7548C2360.79 57.7744 2360.95 60.6144 2361.1 63.4934C2361.24 65.9657 2361.37 68.4668 2361.57 71.1353L2361.81 74.3406H2369.55L2369.32 70.7428C2369.14 68.41 2369.01 65.9116 2368.87 63.3827C2368.7 60.3273 2368.53 57.2274 2368.29 54.3212C2367.66 46.6233 2366.23 39.0516 2364.82 31.6082C2364.72 31.0768 2364.62 30.5461 2364.52 30.016ZM2361.84 19.3635C2361.83 19.3416 2361.83 19.3317 2361.83 19.3322C2361.83 19.3327 2361.84 19.3436 2361.84 19.3635Z" fill="white"/>
<path fill-rule="evenodd" clip-rule="evenodd" d="M2411.19 30.016C2406.2 35.2366 2401.81 40.8724 2397.32 46.6505C2395.64 48.8164 2393.94 51.0023 2392.18 53.1938L2390.04 55.8712L2383.57 52.3245L2385.72 49.6471C2387.34 47.617 2388.95 45.5385 2390.59 43.4385C2396.68 35.5977 2403.01 27.4558 2410.91 20.4053C2410.93 20.3905 2410.94 20.3748 2410.96 20.3581C2411.28 20.0762 2411.88 19.5361 2412.55 18.9915C2413.17 18.4798 2414.14 17.72 2415.06 17.24C2415.31 17.1117 2415.69 16.929 2416.18 16.796C2416.59 16.6823 2417.61 16.4542 2418.81 16.7904C2420.27 17.2008 2421.04 18.1574 2421.34 18.9293C2421.59 19.5698 2421.54 20.1186 2421.51 20.347C2421.46 20.8221 2421.29 21.2348 2421.24 21.3663C2421.24 21.3696 2421.24 21.3726 2421.23 21.3755C2421.17 21.5393 2421.15 21.5826 2421.15 21.5826C2420.38 23.8832 2419.77 26.0626 2419.34 28.3711C2419.08 29.8118 2418.81 31.243 2418.54 32.667C2417.13 40.1122 2415.77 47.3627 2415.16 54.7548C2414.92 57.7744 2414.76 60.6144 2414.61 63.4934C2414.47 65.9657 2414.34 68.4668 2414.14 71.1353L2413.9 74.3406H2406.16L2406.39 70.7428C2406.57 68.41 2406.7 65.9116 2406.84 63.3827C2407.01 60.3273 2407.18 57.2274 2407.42 54.3212C2408.05 46.6233 2409.48 39.0516 2410.89 31.6082C2410.99 31.0768 2411.09 30.5461 2411.19 30.016ZM2413.87 19.3635C2413.88 19.3416 2413.88 19.3317 2413.88 19.3322C2413.88 19.3327 2413.87 19.3436 2413.87 19.3635Z" fill="white"/>
<path fill-rule="evenodd" clip-rule="evenodd" d="M2391.18 52.7544C2391.67 52.9873 2391.84 53.504 2391.56 53.9085C2391.46 54.0561 2391.35 54.2044 2391.25 54.3531C2390.98 54.7419 2390.71 55.1333 2390.44 55.5223C2390.39 55.5877 2390.34 55.6555 2390.29 55.725C2390.02 56.1249 2389.7 56.584 2389.31 56.9989C2389.31 56.9993 2389.31 57.0005 2389.31 57.0026C2389.29 57.0308 2389.13 57.2126 2388.96 57.3517C2388.86 57.429 2388.69 57.546 2388.47 57.6249C2388.22 57.7111 2387.85 57.767 2387.46 57.6191C2387.12 57.4908 2386.91 57.2686 2386.81 57.1683C2386.75 57.1071 2386.7 57.0465 2386.67 57.0053L2386.67 57.0045C2386.62 56.9552 2386.61 56.9359 2386.6 56.9236C2386.3 56.6098 2386 56.2834 2385.72 55.9336C2385.66 55.8538 2385.58 55.7629 2385.5 55.6634C2385.23 55.3508 2384.9 54.954 2384.67 54.5549C2384.43 54.1327 2384.65 53.6292 2385.16 53.4301C2385.67 53.2311 2386.28 53.412 2386.52 53.8342C2386.66 54.0934 2386.85 54.3089 2387.07 54.5794C2387.18 54.7044 2387.3 54.8412 2387.42 54.9994C2387.6 55.2152 2387.78 55.4258 2387.98 55.6385C2388.16 55.4098 2388.33 55.165 2388.51 54.8985C2388.56 54.8244 2388.62 54.7487 2388.67 54.6711C2388.94 54.2871 2389.21 53.9028 2389.48 53.5158C2389.58 53.366 2389.69 53.2159 2389.79 53.0652C2390.07 52.6607 2390.7 52.5216 2391.18 52.7544ZM2387.54 56.1329C2387.54 56.1362 2387.54 56.1354 2387.54 56.1318C2387.54 56.1322 2387.54 56.1326 2387.54 56.1329Z" fill="white"/>
<path fill-rule="evenodd" clip-rule="evenodd" d="M2387.1 52.0683C2387.64 51.9286 2388.21 52.1763 2388.38 52.6217C2388.55 53.0814 2388.69 53.5886 2388.81 54.0445C2388.83 54.1403 2388.86 54.2338 2388.88 54.3241C2389.03 54.479 2389.12 54.6783 2389.11 54.8927C2389.1 54.917 2389.1 55.002 2389.09 55.0739C2389.09 55.1097 2389.08 55.1553 2389.08 55.1942L2389.08 55.1952C2389.08 55.2083 2389.07 55.2504 2389.06 55.2959C2389.06 55.3096 2389.05 55.3355 2389.04 55.3671C2389.04 55.3675 2389.04 55.368 2389.04 55.3686C2389.03 55.3873 2389 55.4721 2388.93 55.5664C2388.9 55.6087 2388.8 55.736 2388.61 55.8386C2388.37 55.9718 2387.99 56.0397 2387.62 55.8954C2387.34 55.7865 2387.21 55.609 2387.17 55.5535C2387.12 55.4797 2387.09 55.4156 2387.08 55.3853C2387.04 55.2836 2387.02 55.1869 2387 55.1223C2387 55.0954 2386.99 55.0743 2386.99 55.0568C2386.98 55.022 2386.97 55.0011 2386.97 54.9766C2386.9 54.7423 2386.84 54.5227 2386.79 54.3123C2386.68 53.8953 2386.58 53.5146 2386.43 53.1276C2386.26 52.6823 2386.56 52.208 2387.1 52.0683ZM2387.05 55.0029C2387.05 55.0072 2387.05 55.0063 2387.05 55.0015C2387.05 55.002 2387.05 55.0025 2387.05 55.0029Z" fill="white"/>
</svg>
