<svg width="2564" height="81" viewBox="0 0 2564 81" fill="none" xmlns="http://www.w3.org/2000/svg">
<path d="M286.962 80.4832C281.778 80.4832 277.306 79.296 273.547 76.9217C269.81 74.5231 266.927 71.1797 264.895 66.8914C262.887 62.5788 261.883 57.5636 261.883 51.8459C261.883 46.1281 262.887 41.0887 264.895 36.7277C266.927 32.3425 269.752 28.9263 273.371 26.4793C277.014 24.0081 281.264 22.7725 286.121 22.7725C288.923 22.7725 291.69 23.257 294.422 24.2261C297.154 25.1952 299.641 26.7701 301.883 28.9506C304.124 31.1068 305.911 33.9657 307.242 37.5272C308.573 41.0887 309.238 45.4739 309.238 50.6829V54.3171H267.767V46.9034H300.832C300.832 43.7538 300.225 40.9433 299.011 38.4721C297.82 36.0009 296.115 34.0505 293.897 32.6211C291.702 31.1916 289.11 30.4769 286.121 30.4769C282.829 30.4769 279.98 31.3249 277.575 33.0208C275.193 34.6926 273.36 36.8731 272.075 39.5624C270.791 42.2516 270.149 45.1348 270.149 48.2117V53.1542C270.149 57.3698 270.85 60.9434 272.251 63.875C273.675 66.7823 275.648 68.9992 278.17 70.5255C280.692 72.0277 283.622 72.7787 286.962 72.7787C289.133 72.7787 291.095 72.4638 292.846 71.8338C294.621 71.1797 296.15 70.2106 297.434 68.9265C298.719 67.6182 299.711 65.9949 300.412 64.0567L308.398 66.3826C307.557 69.193 306.144 71.6643 304.159 73.7963C302.175 75.9041 299.723 77.5516 296.804 78.7388C293.885 79.9017 290.604 80.4832 286.962 80.4832Z" fill="white"/>
<path d="M249.263 4.89258V79.3205H240.997V4.89258H249.263Z" fill="white"/>
<path d="M180.858 79.3205V4.89258H189.125V32.367H189.825C190.432 31.3978 191.273 30.1622 192.347 28.6601C193.444 27.1337 195.009 25.777 197.041 24.5898C199.095 23.3784 201.874 22.7727 205.377 22.7727C209.907 22.7727 213.9 23.9478 217.356 26.2979C220.812 28.648 223.509 31.9793 225.447 36.2919C227.385 40.6044 228.354 45.6923 228.354 51.5554C228.354 57.467 227.385 62.5912 225.447 66.928C223.509 71.2405 220.823 74.584 217.391 76.9583C213.958 79.3084 210 80.4835 205.517 80.4835C202.061 80.4835 199.294 79.8899 197.216 78.7027C195.137 77.4913 193.538 76.1225 192.417 74.5961C191.296 73.0455 190.432 71.7614 189.825 70.7439H188.844V79.3205H180.858ZM188.984 51.41C188.984 55.6257 189.58 59.3447 190.771 62.567C191.962 65.765 193.701 68.2726 195.99 70.0897C198.278 71.8826 201.08 72.779 204.396 72.779C207.852 72.779 210.736 71.8341 213.047 69.9443C215.383 68.0303 217.134 65.4622 218.301 62.2399C219.492 58.9934 220.088 55.3834 220.088 51.41C220.088 47.4851 219.504 43.9479 218.336 40.7982C217.192 37.6244 215.453 35.1168 213.118 33.2755C210.806 31.41 207.899 30.4772 204.396 30.4772C201.033 30.4772 198.208 31.3615 195.92 33.1301C193.631 34.8745 191.903 37.3216 190.736 40.4712C189.568 43.5966 188.984 47.2429 188.984 51.41Z" fill="white"/>
<path d="M70.6036 56.4974V23.499H78.8698V79.32H70.6036V69.8711H70.0432C68.7823 72.7058 66.8208 75.1165 64.1588 77.1031C61.4968 79.0656 58.1343 80.0468 54.0712 80.0468C50.7087 80.0468 47.7198 79.2837 45.1045 77.7573C42.4892 76.2067 40.4344 73.8808 38.9399 70.7797C37.4455 67.6543 36.6982 63.7173 36.6982 58.9686V23.499H44.9644V58.3871C44.9644 62.4574 46.0619 65.7039 48.2569 68.1267C50.4752 70.5495 53.3007 71.7609 56.7332 71.7609C58.7881 71.7609 60.878 71.2158 63.0029 70.1255C65.1512 69.0353 66.9492 67.3635 68.397 65.1104C69.8681 62.8572 70.6036 59.9862 70.6036 56.4974Z" fill="white"/>
<path d="M0 79.3211V23.5001H7.98598V31.9314H8.5464C9.52713 29.1695 11.3018 26.9284 13.8704 25.2082C16.439 23.488 19.3345 22.6279 22.5569 22.6279C23.164 22.6279 23.9229 22.64 24.8336 22.6643C25.7443 22.6885 26.4331 22.7248 26.9001 22.7733V31.4953C26.6199 31.4226 25.9778 31.3136 24.9737 31.1682C23.993 30.9987 22.9539 30.9139 21.8564 30.9139C19.2411 30.9139 16.906 31.4832 14.8511 32.6219C12.8196 33.7364 11.2084 35.287 10.0175 37.2737C8.84996 39.2361 8.26619 41.4772 8.26619 43.9969V79.3211H0Z" fill="white"/>
<path fill-rule="evenodd" clip-rule="evenodd" d="M104.761 34.9086C109.751 40.1292 114.134 45.765 118.627 51.5431C120.312 53.709 122.012 55.8949 123.765 58.0864L125.907 60.7637L132.375 57.2171L130.233 54.5397C128.609 52.5096 126.993 50.4311 125.361 48.331C119.269 40.4903 112.942 32.3483 105.038 25.2979C105.021 25.2831 105.004 25.2673 104.985 25.2507C104.669 24.9687 104.064 24.4287 103.401 23.8841C102.777 23.3724 101.813 22.6126 100.889 22.1326C100.642 22.0043 100.256 21.8216 99.7719 21.6886C99.358 21.5748 98.3398 21.3468 97.1397 21.683C95.6747 22.0934 94.9056 23.05 94.609 23.8219C94.363 24.4624 94.409 25.0112 94.4363 25.2396C94.493 25.7147 94.6575 26.1274 94.7099 26.2589C94.7112 26.2621 94.7124 26.2652 94.7135 26.2681C94.7787 26.4319 94.7972 26.4752 94.7986 26.4752C95.5718 28.7758 96.1765 30.9552 96.6033 33.2637C96.8696 34.7044 97.1397 36.1355 97.4084 37.5596C98.8135 45.0048 100.182 52.2553 100.786 59.6474C101.033 62.667 101.187 65.5069 101.343 68.3859C101.477 70.8583 101.613 73.3594 101.81 76.0278L102.047 79.2332H109.791L109.554 75.6353C109.381 73.3026 109.243 70.8042 109.104 68.2753C108.935 65.2199 108.764 62.1199 108.526 59.2138C107.897 51.5158 106.467 43.9442 105.061 36.5008C104.961 35.9694 104.861 35.4386 104.761 34.9086ZM102.081 24.2561C102.072 24.2342 102.069 24.2243 102.07 24.2248C102.07 24.2253 102.074 24.2362 102.081 24.2561Z" fill="white"/>
<path fill-rule="evenodd" clip-rule="evenodd" d="M151.426 34.9086C146.435 40.1292 142.052 45.765 137.559 51.5431C135.875 53.709 134.175 55.8949 132.422 58.0864L130.28 60.7637L123.812 57.2171L125.954 54.5397C127.578 52.5096 129.193 50.4311 130.825 48.331C136.918 40.4903 143.245 32.3483 151.149 25.2979C151.165 25.2831 151.183 25.2673 151.201 25.2507C151.517 24.9687 152.122 24.4287 152.786 23.8841C153.409 23.3724 154.373 22.6126 155.298 22.1326C155.544 22.0043 155.931 21.8216 156.415 21.6886C156.829 21.5748 157.847 21.3468 159.047 21.683C160.512 22.0934 161.281 23.05 161.577 23.8219C161.824 24.4624 161.777 25.0112 161.75 25.2396C161.694 25.7147 161.529 26.1274 161.477 26.2589C161.475 26.2621 161.474 26.2652 161.473 26.2681C161.408 26.4319 161.389 26.4752 161.388 26.4752C160.615 28.7758 160.01 30.9552 159.583 33.2637C159.317 34.7044 159.047 36.1355 158.778 37.5596C157.373 45.0048 156.005 52.2553 155.401 59.6474C155.154 62.667 155 65.5069 154.843 68.3859C154.709 70.8583 154.573 73.3594 154.376 76.0278L154.139 79.2332H146.396L146.633 75.6353C146.805 73.3026 146.943 70.8042 147.083 68.2753C147.252 65.2199 147.423 62.1199 147.66 59.2138C148.289 51.5158 149.72 43.9442 151.125 36.5008C151.226 35.9694 151.326 35.4386 151.426 34.9086ZM154.106 24.2561C154.114 24.2342 154.117 24.2243 154.117 24.2248C154.116 24.2253 154.112 24.2362 154.106 24.2561Z" fill="white"/>
<path fill-rule="evenodd" clip-rule="evenodd" d="M131.422 57.646C131.91 57.8789 132.078 58.3956 131.797 58.8001C131.694 58.9477 131.591 59.096 131.488 59.2447C131.219 59.6335 130.947 60.0249 130.673 60.4139C130.627 60.4793 130.58 60.5471 130.531 60.6166C130.253 61.0165 129.933 61.4756 129.552 61.8905C129.552 61.8909 129.551 61.8921 129.549 61.8942C129.525 61.9224 129.368 62.1042 129.193 62.2433C129.096 62.3206 128.931 62.4376 128.706 62.5165C128.461 62.6027 128.089 62.6586 127.699 62.5107C127.36 62.3824 127.142 62.1602 127.048 62.0599C126.99 61.9987 126.939 61.9381 126.904 61.8969L126.903 61.8961C126.861 61.8468 126.844 61.8275 126.833 61.8152C126.535 61.5014 126.238 61.175 125.958 60.8252C125.894 60.7454 125.817 60.6545 125.733 60.555C125.469 60.2424 125.134 59.8456 124.906 59.4465C124.666 59.0243 124.884 58.5208 125.394 58.3217C125.904 58.1227 126.513 58.3036 126.753 58.7258C126.901 58.985 127.083 59.2005 127.312 59.471C127.417 59.596 127.533 59.7328 127.66 59.891C127.833 60.1068 128.017 60.3174 128.213 60.5301C128.393 60.3014 128.564 60.0566 128.75 59.7901C128.802 59.716 128.855 59.6403 128.909 59.5627C129.18 59.1787 129.446 58.7944 129.715 58.4074C129.819 58.2576 129.923 58.1075 130.028 57.9568C130.309 57.5523 130.933 57.4132 131.422 57.646ZM127.778 61.0245C127.774 61.0278 127.775 61.027 127.78 61.0234C127.779 61.0238 127.779 61.0242 127.778 61.0245Z" fill="white"/>
<path fill-rule="evenodd" clip-rule="evenodd" d="M127.339 56.9599C127.876 56.8202 128.449 57.0679 128.618 57.5133C128.792 57.973 128.926 58.4802 129.046 58.9361C129.072 59.0319 129.096 59.1254 129.121 59.2157C129.271 59.3706 129.357 59.5699 129.345 59.7843C129.344 59.8086 129.337 59.8936 129.331 59.9655C129.327 60.0013 129.323 60.0469 129.317 60.0858L129.317 60.0868C129.315 60.0999 129.309 60.142 129.298 60.1875C129.295 60.2012 129.288 60.2271 129.277 60.2587C129.276 60.2591 129.276 60.2596 129.276 60.2602C129.269 60.2789 129.239 60.3637 129.171 60.458C129.14 60.5003 129.044 60.6276 128.854 60.7302C128.607 60.8634 128.232 60.9313 127.861 60.787C127.582 60.6781 127.45 60.5006 127.412 60.4451C127.36 60.3713 127.334 60.3072 127.322 60.2769C127.283 60.1752 127.258 60.0785 127.243 60.0139C127.236 59.987 127.231 59.9659 127.227 59.9484C127.219 59.9137 127.214 59.8927 127.207 59.8682C127.139 59.6339 127.082 59.4143 127.026 59.2039C126.917 58.7869 126.817 58.4062 126.67 58.0192C126.501 57.5739 126.801 57.0996 127.339 56.9599ZM127.289 59.8945C127.288 59.8988 127.288 59.8979 127.289 59.8931C127.289 59.8936 127.289 59.8941 127.289 59.8945Z" fill="white"/>
<path d="M609.882 79.5379C604.698 79.5379 600.226 78.3507 596.466 75.9764C592.73 73.5778 589.847 70.2344 587.815 65.9461C585.807 61.6335 584.803 56.6183 584.803 50.9006C584.803 45.1828 585.807 40.1434 587.815 35.7824C589.847 31.3971 592.672 27.981 596.291 25.534C599.934 23.0628 604.184 21.8271 609.041 21.8271C611.843 21.8271 614.61 22.3117 617.342 23.2808C620.074 24.2499 622.561 25.8247 624.803 28.0052C627.044 30.1615 628.831 33.0204 630.162 36.5819C631.493 40.1434 632.158 44.5286 632.158 49.7376V53.3718H590.687V45.9581H623.752C623.752 42.8085 623.145 39.998 621.931 37.5268C620.74 35.0555 619.035 33.1052 616.817 31.6758C614.622 30.2463 612.03 29.5316 609.041 29.5316C605.748 29.5316 602.9 30.3796 600.494 32.0755C598.113 33.7472 596.28 35.9278 594.995 38.617C593.711 41.3063 593.069 44.1894 593.069 47.2664V52.2089C593.069 56.4245 593.769 59.9981 595.171 62.9297C596.595 65.837 598.568 68.0539 601.09 69.5802C603.612 71.0824 606.542 71.8334 609.882 71.8334C612.053 71.8334 614.015 71.5185 615.766 70.8885C617.541 70.2344 619.07 69.2653 620.354 67.9812C621.639 66.6729 622.631 65.0496 623.332 63.1114L631.318 65.4373C630.477 68.2477 629.064 70.7189 627.079 72.851C625.095 74.9588 622.643 76.6063 619.724 77.7935C616.805 78.9564 613.524 79.5379 609.882 79.5379Z" fill="white"/>
<path d="M572.183 3.94629V78.3742H563.917V3.94629H572.183Z" fill="white"/>
<path d="M503.778 78.3742V3.94629H512.045V31.4207H512.745C513.352 30.4516 514.193 29.2159 515.267 27.7138C516.364 26.1875 517.929 24.8307 519.96 23.6435C522.015 22.4321 524.794 21.8264 528.297 21.8264C532.827 21.8264 536.82 23.0015 540.276 25.3516C543.732 27.7017 546.429 31.033 548.367 35.3456C550.305 39.6581 551.274 44.746 551.274 50.6091C551.274 56.5207 550.305 61.6449 548.367 65.9817C546.429 70.2942 543.743 73.6377 540.311 76.012C536.878 78.3621 532.92 79.5372 528.437 79.5372C524.981 79.5372 522.214 78.9436 520.136 77.7564C518.057 76.545 516.458 75.1762 515.337 73.6498C514.216 72.0992 513.352 70.8151 512.745 69.7976H511.764V78.3742H503.778ZM511.904 50.4638C511.904 54.6794 512.5 58.3984 513.691 61.6207C514.882 64.8188 516.621 67.3263 518.91 69.1434C521.198 70.9363 524 71.8327 527.316 71.8327C530.772 71.8327 533.656 70.8878 535.967 68.9981C538.303 67.0841 540.054 64.5159 541.221 61.2936C542.412 58.0471 543.008 54.4371 543.008 50.4638C543.008 46.5388 542.424 43.0016 541.256 39.852C540.112 36.6781 538.373 34.1705 536.037 32.3292C533.726 30.4637 530.819 29.5309 527.316 29.5309C523.953 29.5309 521.128 30.4152 518.84 32.1838C516.551 33.9283 514.823 36.3753 513.656 39.5249C512.488 42.6503 511.904 46.2966 511.904 50.4638Z" fill="white"/>
<path d="M393.524 55.552V22.5537H401.79V78.3747H393.524V68.9258H392.963C391.702 71.7605 389.741 74.1712 387.079 76.1578C384.417 78.1203 381.054 79.1015 376.991 79.1015C373.629 79.1015 370.64 78.3383 368.024 76.812C365.409 75.2614 363.354 72.9355 361.86 69.8344C360.365 66.709 359.618 62.7719 359.618 58.0233V22.5537H367.884V57.4418C367.884 61.5121 368.982 64.7586 371.177 67.1814C373.395 69.6042 376.221 70.8156 379.653 70.8156C381.708 70.8156 383.798 70.2705 385.923 69.1802C388.071 68.09 389.869 66.4182 391.317 64.165C392.788 61.9119 393.524 59.0409 393.524 55.552Z" fill="white"/>
<path d="M322.92 78.3748V22.5538H330.906V30.9851H331.466C332.447 28.2232 334.222 25.9821 336.79 24.2619C339.359 22.5417 342.254 21.6816 345.477 21.6816C346.084 21.6816 346.843 21.6938 347.754 21.718C348.664 21.7422 349.353 21.7786 349.82 21.827V30.549C349.54 30.4764 348.898 30.3673 347.894 30.222C346.913 30.0524 345.874 29.9676 344.776 29.9676C342.161 29.9676 339.826 30.5369 337.771 31.6756C335.74 32.7901 334.128 34.3407 332.937 36.3274C331.77 38.2898 331.186 40.5309 331.186 43.0506V78.3748H322.92Z" fill="white"/>
<path fill-rule="evenodd" clip-rule="evenodd" d="M427.682 33.9623C432.672 39.1829 437.055 44.8187 441.548 50.5968C443.233 52.7627 444.932 54.9486 446.686 57.1401L448.828 59.8175L455.295 56.2708L453.154 53.5934C451.529 51.5633 449.914 49.4848 448.282 47.3847C442.19 39.544 435.863 31.4021 427.959 24.3516C427.942 24.3368 427.925 24.3211 427.906 24.3044C427.59 24.0224 426.985 23.4824 426.321 22.9378C425.698 22.4261 424.734 21.6663 423.81 21.1863C423.563 21.058 423.177 20.8753 422.693 20.7423C422.279 20.6286 421.261 20.4005 420.061 20.7367C418.596 21.1471 417.826 22.1037 417.53 22.8756C417.284 23.5161 417.33 24.0649 417.357 24.2933C417.414 24.7684 417.578 25.1811 417.631 25.3126C417.632 25.3158 417.633 25.3189 417.634 25.3218C417.7 25.4856 417.718 25.5289 417.719 25.5289C418.493 27.8295 419.097 30.0089 419.524 32.3174C419.79 33.7581 420.061 35.1892 420.329 36.6133C421.734 44.0585 423.103 51.309 423.707 58.7011C423.954 61.7207 424.108 64.5606 424.264 67.4397C424.398 69.912 424.534 72.4131 424.731 75.0815L424.968 78.2869H432.712L432.475 74.689C432.302 72.3563 432.164 69.8579 432.025 67.329C431.856 64.2736 431.685 61.1736 431.447 58.2675C430.818 50.5695 429.388 42.9979 427.982 35.5545C427.882 35.0231 427.781 34.4924 427.682 33.9623ZM425.002 23.3098C424.993 23.2879 424.99 23.278 424.99 23.2785C424.991 23.279 424.995 23.2899 425.002 23.3098Z" fill="white"/>
<path fill-rule="evenodd" clip-rule="evenodd" d="M474.347 33.9623C469.356 39.1829 464.973 44.8187 460.48 50.5968C458.796 52.7627 457.096 54.9486 455.343 57.1401L453.201 59.8175L446.733 56.2708L448.875 53.5934C450.499 51.5633 452.114 49.4848 453.746 47.3847C459.839 39.544 466.165 31.4021 474.069 24.3516C474.086 24.3368 474.104 24.3211 474.122 24.3044C474.438 24.0224 475.043 23.4824 475.707 22.9378C476.33 22.4261 477.294 21.6663 478.218 21.1863C478.465 21.058 478.852 20.8753 479.336 20.7423C479.749 20.6286 480.768 20.4005 481.968 20.7367C483.433 21.1471 484.202 22.1037 484.498 22.8756C484.744 23.5161 484.698 24.0649 484.671 24.2933C484.614 24.7684 484.45 25.1811 484.398 25.3126C484.396 25.3158 484.395 25.3189 484.394 25.3218C484.329 25.4856 484.31 25.5289 484.309 25.5289C483.536 27.8295 482.931 30.0089 482.504 32.3174C482.238 33.7581 481.968 35.1892 481.699 36.6133C480.294 44.0585 478.926 51.309 478.321 58.7011C478.075 61.7207 477.92 64.5606 477.764 67.4397C477.63 69.912 477.494 72.4131 477.297 75.0815L477.06 78.2869H469.317L469.554 74.689C469.726 72.3563 469.864 69.8579 470.004 67.329C470.172 64.2736 470.344 61.1736 470.581 58.2675C471.21 50.5695 472.64 42.9979 474.046 35.5545C474.147 35.0231 474.247 34.4924 474.347 33.9623ZM477.026 23.3098C477.035 23.2879 477.038 23.278 477.038 23.2785C477.037 23.279 477.033 23.2899 477.026 23.3098Z" fill="white"/>
<path fill-rule="evenodd" clip-rule="evenodd" d="M454.343 56.6997C454.832 56.9326 455 57.4493 454.719 57.8538C454.616 58.0014 454.513 58.1497 454.41 58.2984C454.14 58.6872 453.869 59.0786 453.595 59.4676C453.549 59.533 453.502 59.6008 453.453 59.6703C453.175 60.0702 452.855 60.5293 452.474 60.9442C452.474 60.9446 452.473 60.9458 452.471 60.9479C452.447 60.9761 452.29 61.1579 452.115 61.297C452.018 61.3743 451.853 61.4913 451.628 61.5703C451.383 61.6564 451.011 61.7123 450.621 61.5644C450.282 61.4361 450.064 61.2139 449.97 61.1136C449.912 61.0524 449.861 60.9918 449.826 60.9506L449.825 60.9498C449.783 60.9005 449.766 60.8812 449.755 60.8689C449.457 60.5551 449.16 60.2287 448.88 59.8789C448.816 59.7991 448.739 59.7082 448.655 59.6087C448.391 59.2961 448.055 58.8993 447.828 58.5002C447.588 58.0781 447.806 57.5745 448.316 57.3754C448.826 57.1764 449.434 57.3573 449.675 57.7795C449.822 58.0387 450.005 58.2542 450.233 58.5248C450.339 58.6497 450.455 58.7865 450.582 58.9447C450.754 59.1606 450.939 59.3711 451.135 59.5838C451.315 59.3551 451.486 59.1103 451.672 58.8438C451.724 58.7697 451.777 58.694 451.831 58.6164C452.102 58.2325 452.368 57.8481 452.637 57.4611C452.741 57.3113 452.845 57.1612 452.95 57.0105C453.231 56.606 453.855 56.4669 454.343 56.6997ZM450.7 60.0782C450.696 60.0815 450.697 60.0807 450.702 60.0771C450.701 60.0775 450.701 60.0779 450.7 60.0782Z" fill="white"/>
<path fill-rule="evenodd" clip-rule="evenodd" d="M450.258 56.0136C450.796 55.8739 451.369 56.1216 451.538 56.567C451.712 57.0267 451.846 57.5339 451.966 57.9898C451.991 58.0856 452.016 58.1791 452.04 58.2694C452.191 58.4243 452.277 58.6236 452.265 58.838C452.264 58.8623 452.257 58.9473 452.25 59.0192C452.247 59.0551 452.242 59.1007 452.237 59.1395L452.237 59.1405C452.235 59.1536 452.229 59.1957 452.218 59.2412C452.215 59.2549 452.208 59.2808 452.197 59.3124C452.196 59.3128 452.196 59.3133 452.196 59.3139C452.189 59.3327 452.159 59.4174 452.091 59.5117C452.06 59.554 451.964 59.6813 451.773 59.7839C451.527 59.9171 451.152 59.985 450.781 59.8407C450.502 59.7318 450.37 59.5543 450.332 59.4988C450.28 59.425 450.254 59.361 450.242 59.3306C450.203 59.2289 450.178 59.1322 450.163 59.0676C450.156 59.0407 450.151 59.0196 450.147 59.0021C450.139 58.9674 450.134 58.9464 450.127 58.9219C450.059 58.6876 450.002 58.468 449.946 58.2576C449.837 57.8406 449.737 57.4599 449.59 57.0729C449.421 56.6276 449.721 56.1533 450.258 56.0136ZM450.209 58.9482C450.208 58.9525 450.208 58.9516 450.209 58.9468C450.209 58.9473 450.209 58.9478 450.209 58.9482Z" fill="white"/>
<path d="M932.803 79.5379C927.62 79.5379 923.148 78.3507 919.388 75.9764C915.652 73.5778 912.768 70.2344 910.737 65.9461C908.729 61.6335 907.725 56.6183 907.725 50.9006C907.725 45.1828 908.729 40.1434 910.737 35.7824C912.768 31.3971 915.594 27.981 919.213 25.534C922.856 23.0628 927.106 21.8271 931.963 21.8271C934.765 21.8271 937.532 22.3117 940.264 23.2808C942.996 24.2499 945.483 25.8247 947.725 28.0052C949.966 30.1615 951.753 33.0204 953.084 36.5819C954.415 40.1434 955.08 44.5286 955.08 49.7376V53.3718H913.609V45.9581H946.674C946.674 42.8085 946.067 39.998 944.852 37.5268C943.662 35.0555 941.957 33.1052 939.739 31.6758C937.544 30.2463 934.952 29.5316 931.963 29.5316C928.67 29.5316 925.821 30.3796 923.416 32.0755C921.035 33.7472 919.202 35.9278 917.917 38.617C916.633 41.3063 915.991 44.1894 915.991 47.2664V52.2089C915.991 56.4245 916.691 59.9981 918.092 62.9297C919.517 65.837 921.49 68.0539 924.012 69.5802C926.534 71.0824 929.464 71.8334 932.803 71.8334C934.975 71.8334 936.936 71.5185 938.688 70.8885C940.462 70.2344 941.992 69.2653 943.276 67.9812C944.561 66.6729 945.553 65.0496 946.253 63.1114L954.239 65.4373C953.399 68.2477 951.986 70.7189 950.001 72.851C948.016 74.9588 945.565 76.6063 942.646 77.7935C939.727 78.9564 936.446 79.5379 932.803 79.5379Z" fill="white"/>
<path d="M895.105 3.94629V78.3742H886.839V3.94629H895.105Z" fill="white"/>
<path d="M826.701 78.3742V3.94629H834.967V31.4207H835.668C836.275 30.4516 837.116 29.2159 838.19 27.7138C839.287 26.1875 840.852 24.8307 842.883 23.6435C844.938 22.4321 847.717 21.8264 851.22 21.8264C855.75 21.8264 859.743 23.0015 863.198 25.3516C866.654 27.7017 869.351 31.033 871.29 35.3456C873.228 39.6581 874.197 44.746 874.197 50.6091C874.197 56.5207 873.228 61.6449 871.29 65.9817C869.351 70.2942 866.666 73.6377 863.234 76.012C859.801 78.3621 855.843 79.5372 851.36 79.5372C847.904 79.5372 845.137 78.9436 843.058 77.7564C840.98 76.545 839.381 75.1762 838.26 73.6498C837.139 72.0992 836.275 70.8151 835.668 69.7976H834.687V78.3742H826.701ZM834.827 50.4638C834.827 54.6794 835.423 58.3984 836.614 61.6207C837.804 64.8188 839.544 67.3263 841.832 69.1434C844.121 70.9363 846.923 71.8327 850.239 71.8327C853.695 71.8327 856.579 70.8878 858.89 68.9981C861.225 67.0841 862.977 64.5159 864.144 61.2936C865.335 58.0471 865.931 54.4371 865.931 50.4638C865.931 46.5388 865.347 43.0016 864.179 39.852C863.035 36.6781 861.295 34.1705 858.96 32.3292C856.649 30.4637 853.741 29.5309 850.239 29.5309C846.876 29.5309 844.051 30.4152 841.762 32.1838C839.474 33.9283 837.746 36.3753 836.579 39.5249C835.411 42.6503 834.827 46.2966 834.827 50.4638Z" fill="white"/>
<path d="M716.445 55.552V22.5537H724.712V78.3747H716.445V68.9258H715.885C714.624 71.7605 712.663 74.1712 710.001 76.1578C707.339 78.1203 703.976 79.1015 699.913 79.1015C696.551 79.1015 693.562 78.3383 690.946 76.812C688.331 75.2614 686.276 72.9355 684.782 69.8344C683.287 66.709 682.54 62.7719 682.54 58.0233V22.5537H690.806V57.4418C690.806 61.5121 691.904 64.7586 694.099 67.1814C696.317 69.6042 699.142 70.8156 702.575 70.8156C704.63 70.8156 706.72 70.2705 708.845 69.1802C710.993 68.09 712.791 66.4182 714.239 64.165C715.71 61.9119 716.445 59.0409 716.445 55.552Z" fill="white"/>
<path d="M645.842 78.3748V22.5538H653.828V30.9851H654.388C655.369 28.2232 657.144 25.9821 659.712 24.2619C662.281 22.5417 665.176 21.6816 668.399 21.6816C669.006 21.6816 669.765 21.6938 670.675 21.718C671.586 21.7422 672.275 21.7786 672.742 21.827V30.549C672.462 30.4764 671.82 30.3673 670.815 30.222C669.835 30.0524 668.796 29.9676 667.698 29.9676C665.083 29.9676 662.748 30.5369 660.693 31.6756C658.661 32.7901 657.05 34.3407 655.859 36.3274C654.692 38.2898 654.108 40.5309 654.108 43.0506V78.3748H645.842Z" fill="white"/>
<path fill-rule="evenodd" clip-rule="evenodd" d="M750.603 33.9623C755.593 39.1829 759.976 44.8187 764.469 50.5968C766.153 52.7627 767.853 54.9486 769.607 57.1401L771.749 59.8175L778.216 56.2708L776.074 53.5934C774.45 51.5633 772.835 49.4848 771.203 47.3847C765.111 39.544 758.784 31.4021 750.88 24.3516C750.863 24.3368 750.845 24.3211 750.827 24.3044C750.511 24.0224 749.906 23.4824 749.242 22.9378C748.619 22.4261 747.655 21.6663 746.731 21.1863C746.484 21.058 746.098 20.8753 745.614 20.7423C745.2 20.6286 744.182 20.4005 742.981 20.7367C741.516 21.1471 740.747 22.1037 740.451 22.8756C740.205 23.5161 740.251 24.0649 740.278 24.2933C740.335 24.7684 740.499 25.1811 740.552 25.3126C740.553 25.3158 740.554 25.3189 740.555 25.3218C740.62 25.4856 740.639 25.5289 740.64 25.5289C741.414 27.8295 742.018 30.0089 742.445 32.3174C742.711 33.7581 742.981 35.1892 743.25 36.6133C744.655 44.0585 746.024 51.309 746.628 58.7011C746.875 61.7207 747.029 64.5606 747.185 67.4397C747.319 69.912 747.455 72.4131 747.652 75.0815L747.889 78.2869H755.633L755.396 74.689C755.223 72.3563 755.085 69.8579 754.945 67.329C754.777 64.2736 754.606 61.1736 754.368 58.2675C753.739 50.5695 752.309 42.9979 750.903 35.5545C750.803 35.0231 750.702 34.4924 750.603 33.9623ZM747.923 23.3098C747.914 23.2879 747.911 23.278 747.911 23.2785C747.912 23.279 747.916 23.2899 747.923 23.3098Z" fill="white"/>
<path fill-rule="evenodd" clip-rule="evenodd" d="M797.268 33.9623C792.277 39.1829 787.894 44.8187 783.401 50.5968C781.717 52.7627 780.017 54.9486 778.264 57.1401L776.122 59.8175L769.654 56.2708L771.796 53.5934C773.42 51.5633 775.035 49.4848 776.667 47.3847C782.76 39.544 789.086 31.4021 796.99 24.3516C797.007 24.3368 797.025 24.3211 797.043 24.3044C797.359 24.0224 797.964 23.4824 798.628 22.9378C799.251 22.4261 800.215 21.6663 801.139 21.1863C801.386 21.058 801.773 20.8753 802.256 20.7423C802.67 20.6286 803.689 20.4005 804.889 20.7367C806.354 21.1471 807.123 22.1037 807.419 22.8756C807.665 23.5161 807.619 24.0649 807.592 24.2933C807.535 24.7684 807.371 25.1811 807.318 25.3126C807.317 25.3158 807.316 25.3189 807.315 25.3218C807.25 25.4856 807.231 25.5289 807.23 25.5289C806.457 27.8295 805.852 30.0089 805.425 32.3174C805.159 33.7581 804.889 35.1892 804.62 36.6133C803.215 44.0585 801.847 51.309 801.242 58.7011C800.995 61.7207 800.841 64.5606 800.685 67.4397C800.551 69.912 800.415 72.4131 800.218 75.0815L799.981 78.2869H792.237L792.475 74.689C792.647 72.3563 792.785 69.8579 792.925 67.329C793.093 64.2736 793.265 61.1736 793.502 58.2675C794.131 50.5695 795.561 42.9979 796.967 35.5545C797.067 35.0231 797.168 34.4924 797.268 33.9623ZM799.947 23.3098C799.956 23.2879 799.959 23.278 799.959 23.2785C799.958 23.279 799.954 23.2899 799.947 23.3098Z" fill="white"/>
<path fill-rule="evenodd" clip-rule="evenodd" d="M777.264 56.6997C777.753 56.9326 777.921 57.4493 777.64 57.8538C777.537 58.0014 777.434 58.1497 777.331 58.2984C777.061 58.6872 776.79 59.0786 776.516 59.4676C776.47 59.533 776.423 59.6008 776.374 59.6703C776.096 60.0702 775.776 60.5293 775.395 60.9442C775.395 60.9446 775.394 60.9458 775.392 60.9479C775.367 60.9761 775.211 61.1579 775.036 61.297C774.939 61.3743 774.774 61.4913 774.549 61.5703C774.304 61.6564 773.932 61.7123 773.541 61.5644C773.203 61.4361 772.985 61.2139 772.891 61.1136C772.833 61.0524 772.781 60.9918 772.746 60.9506L772.746 60.9498C772.704 60.9005 772.687 60.8812 772.675 60.8689C772.378 60.5551 772.081 60.2287 771.801 59.8789C771.737 59.7991 771.66 59.7082 771.576 59.6087C771.312 59.2961 770.976 58.8993 770.749 58.5002C770.509 58.0781 770.727 57.5745 771.237 57.3754C771.747 57.1764 772.355 57.3573 772.596 57.7795C772.743 58.0387 772.926 58.2542 773.154 58.5248C773.26 58.6497 773.376 58.7865 773.502 58.9447C773.675 59.1606 773.86 59.3711 774.056 59.5838C774.236 59.3551 774.407 59.1103 774.593 58.8438C774.645 58.7697 774.697 58.694 774.752 58.6164C775.022 58.2325 775.289 57.8481 775.558 57.4611C775.661 57.3113 775.766 57.1612 775.87 57.0105C776.152 56.606 776.776 56.4669 777.264 56.6997ZM773.621 60.0782C773.617 60.0815 773.618 60.0807 773.623 60.0771C773.622 60.0775 773.622 60.0779 773.621 60.0782Z" fill="white"/>
<path fill-rule="evenodd" clip-rule="evenodd" d="M773.178 56.0136C773.716 55.8739 774.289 56.1216 774.458 56.567C774.632 57.0267 774.766 57.5339 774.886 57.9898C774.911 58.0856 774.936 58.1791 774.96 58.2694C775.111 58.4243 775.197 58.6236 775.185 58.838C775.184 58.8623 775.177 58.9473 775.17 59.0192C775.167 59.0551 775.162 59.1007 775.157 59.1395L775.157 59.1405C775.155 59.1536 775.149 59.1957 775.138 59.2412C775.135 59.2549 775.128 59.2808 775.116 59.3124C775.116 59.3128 775.116 59.3133 775.116 59.3139C775.109 59.3327 775.079 59.4174 775.011 59.5117C774.98 59.554 774.884 59.6813 774.693 59.7839C774.447 59.9171 774.072 59.985 773.701 59.8407C773.421 59.7318 773.29 59.5543 773.252 59.4988C773.2 59.425 773.173 59.361 773.162 59.3306C773.123 59.2289 773.098 59.1322 773.083 59.0676C773.076 59.0407 773.071 59.0196 773.067 59.0021C773.059 58.9674 773.054 58.9464 773.047 58.9219C772.979 58.6876 772.922 58.468 772.866 58.2576C772.757 57.8406 772.657 57.4599 772.51 57.0729C772.341 56.6276 772.64 56.1533 773.178 56.0136ZM773.129 58.9482C773.128 58.9525 773.128 58.9516 773.129 58.9468C773.129 58.9473 773.129 58.9478 773.129 58.9482Z" fill="white"/>
<path d="M1255.72 78.5906C1250.54 78.5906 1246.07 77.4034 1242.31 75.0291C1238.57 72.6306 1235.69 69.2871 1233.66 64.9988C1231.65 60.6862 1230.64 55.6711 1230.64 49.9533C1230.64 44.2355 1231.65 39.1961 1233.66 34.8351C1235.69 30.4499 1238.51 27.0338 1242.13 24.5867C1245.78 22.1155 1250.03 20.8799 1254.88 20.8799C1257.68 20.8799 1260.45 21.3644 1263.18 22.3335C1265.92 23.3027 1268.4 24.8775 1270.64 27.058C1272.89 29.2143 1274.67 32.0731 1276 35.6346C1277.33 39.1961 1278 43.5814 1278 48.7904V52.4245H1236.53V45.0108H1269.59C1269.59 41.8612 1268.99 39.0508 1267.77 36.5795C1266.58 34.1083 1264.88 32.1579 1262.66 30.7285C1260.46 29.2991 1257.87 28.5843 1254.88 28.5843C1251.59 28.5843 1248.74 29.4323 1246.34 31.1283C1243.95 32.8 1242.12 34.9805 1240.84 37.6698C1239.55 40.3591 1238.91 43.2422 1238.91 46.3191V51.2616C1238.91 55.4772 1239.61 59.0509 1241.01 61.9824C1242.44 64.8898 1244.41 67.1066 1246.93 68.633C1249.45 70.1351 1252.38 70.8861 1255.72 70.8861C1257.89 70.8861 1259.86 70.5712 1261.61 69.9413C1263.38 69.2871 1264.91 68.318 1266.2 67.0339C1267.48 65.7256 1268.47 64.1024 1269.17 62.1641L1277.16 64.49C1276.32 67.3004 1274.91 69.7717 1272.92 71.9037C1270.94 74.0115 1268.48 75.659 1265.57 76.8462C1262.65 78.0091 1259.37 78.5906 1255.72 78.5906Z" fill="white"/>
<path d="M1218.03 3V77.428H1209.76V3H1218.03Z" fill="white"/>
<path d="M1149.62 77.4279V3H1157.89V30.4744H1158.59C1159.19 29.5053 1160.04 28.2696 1161.11 26.7675C1162.21 25.2412 1163.77 23.8844 1165.8 22.6972C1167.86 21.4858 1170.64 20.8802 1174.14 20.8802C1178.67 20.8802 1182.66 22.0552 1186.12 24.4053C1189.57 26.7554 1192.27 30.0867 1194.21 34.3993C1196.15 38.7118 1197.12 43.7997 1197.12 49.6628C1197.12 55.5744 1196.15 60.6986 1194.21 65.0354C1192.27 69.348 1189.59 72.6914 1186.15 75.0657C1182.72 77.4158 1178.76 78.5909 1174.28 78.5909C1170.82 78.5909 1168.06 77.9973 1165.98 76.8101C1163.9 75.5987 1162.3 74.2299 1161.18 72.7035C1160.06 71.1529 1159.19 69.8689 1158.59 68.8513H1157.61V77.4279H1149.62ZM1157.75 49.5175C1157.75 53.7331 1158.34 57.4521 1159.53 60.6744C1160.72 63.8725 1162.46 66.38 1164.75 68.1971C1167.04 69.99 1169.84 70.8864 1173.16 70.8864C1176.61 70.8864 1179.5 69.9415 1181.81 68.0518C1184.15 66.1378 1185.9 63.5696 1187.06 60.3473C1188.26 57.1008 1188.85 53.4908 1188.85 49.5175C1188.85 45.5926 1188.27 42.0553 1187.1 38.9057C1185.95 35.7318 1184.22 33.2242 1181.88 31.3829C1179.57 29.5174 1176.66 28.5846 1173.16 28.5846C1169.8 28.5846 1166.97 29.4689 1164.68 31.2376C1162.39 32.982 1160.67 35.429 1159.5 38.5786C1158.33 41.704 1157.75 45.3503 1157.75 49.5175Z" fill="white"/>
<path d="M1039.37 54.6048V21.6064H1047.63V77.4274H1039.37V67.9786H1038.81C1037.54 70.8132 1035.58 73.2239 1032.92 75.2106C1030.26 77.173 1026.9 78.1542 1022.83 78.1542C1019.47 78.1542 1016.48 77.3911 1013.87 75.8647C1011.25 74.3141 1009.2 71.9883 1007.7 68.8871C1006.21 65.7617 1005.46 61.8247 1005.46 57.076V21.6064H1013.73V56.4945C1013.73 60.5648 1014.82 63.8114 1017.02 66.2341C1019.24 68.6569 1022.06 69.8683 1025.5 69.8683C1027.55 69.8683 1029.64 69.3232 1031.77 68.2329C1033.91 67.1427 1035.71 65.471 1037.16 63.2178C1038.63 60.9646 1039.37 58.0936 1039.37 54.6048Z" fill="white"/>
<path d="M968.763 77.4285V21.6076H976.749V30.0388H977.309C978.29 27.2769 980.064 25.0358 982.633 23.3156C985.202 21.5954 988.097 20.7354 991.32 20.7354C991.927 20.7354 992.686 20.7475 993.596 20.7717C994.507 20.7959 995.196 20.8323 995.663 20.8807V29.6027C995.383 29.5301 994.74 29.421 993.736 29.2757C992.756 29.1061 991.717 29.0213 990.619 29.0213C988.004 29.0213 985.669 29.5906 983.614 30.7293C981.582 31.8438 979.971 33.3944 978.78 35.3811C977.613 37.3435 977.029 39.5846 977.029 42.1043V77.4285H968.763Z" fill="white"/>
<path fill-rule="evenodd" clip-rule="evenodd" d="M1073.52 33.016C1078.51 38.2366 1082.9 43.8724 1087.39 49.6505C1089.07 51.8164 1090.77 54.0023 1092.53 56.1938L1094.67 58.8712L1101.14 55.3245L1098.99 52.6471C1097.37 50.617 1095.76 48.5385 1094.12 46.4385C1088.03 38.5977 1081.7 30.4558 1073.8 23.4053C1073.78 23.3905 1073.77 23.3748 1073.75 23.3581C1073.43 23.0762 1072.83 22.5361 1072.16 21.9915C1071.54 21.4798 1070.57 20.72 1069.65 20.24C1069.4 20.1117 1069.02 19.929 1068.53 19.796C1068.12 19.6823 1067.1 19.4542 1065.9 19.7904C1064.44 20.2008 1063.67 21.1574 1063.37 21.9293C1063.12 22.5698 1063.17 23.1186 1063.2 23.347C1063.25 23.8221 1063.42 24.2348 1063.47 24.3663C1063.47 24.3696 1063.47 24.3726 1063.48 24.3755C1063.54 24.5393 1063.56 24.5826 1063.56 24.5826C1064.33 26.8832 1064.94 29.0626 1065.36 31.3711C1065.63 32.8118 1065.9 34.243 1066.17 35.667C1067.58 43.1122 1068.94 50.3627 1069.55 57.7548C1069.79 60.7744 1069.95 63.6144 1070.1 66.4934C1070.24 68.9657 1070.37 71.4668 1070.57 74.1353L1070.81 77.3406H1078.55L1078.32 73.7428C1078.14 71.41 1078.01 68.9116 1077.87 66.3827C1077.7 63.3273 1077.53 60.2274 1077.29 57.3212C1076.66 49.6233 1075.23 42.0516 1073.82 34.6082C1073.72 34.0768 1073.62 33.5461 1073.52 33.016ZM1070.84 22.3635C1070.83 22.3416 1070.83 22.3317 1070.83 22.3322C1070.83 22.3327 1070.84 22.3436 1070.84 22.3635Z" fill="white"/>
<path fill-rule="evenodd" clip-rule="evenodd" d="M1120.19 33.016C1115.2 38.2366 1110.81 43.8724 1106.32 49.6505C1104.64 51.8164 1102.94 54.0023 1101.18 56.1938L1099.04 58.8712L1092.57 55.3245L1094.72 52.6471C1096.34 50.617 1097.95 48.5385 1099.59 46.4385C1105.68 38.5977 1112.01 30.4558 1119.91 23.4053C1119.93 23.3905 1119.94 23.3748 1119.96 23.3581C1120.28 23.0762 1120.88 22.5361 1121.55 21.9915C1122.17 21.4798 1123.14 20.72 1124.06 20.24C1124.31 20.1117 1124.69 19.929 1125.18 19.796C1125.59 19.6823 1126.61 19.4542 1127.81 19.7904C1129.27 20.2008 1130.04 21.1574 1130.34 21.9293C1130.59 22.5698 1130.54 23.1186 1130.51 23.347C1130.46 23.8221 1130.29 24.2348 1130.24 24.3663C1130.24 24.3696 1130.24 24.3726 1130.23 24.3755C1130.17 24.5393 1130.15 24.5826 1130.15 24.5826C1129.38 26.8832 1128.77 29.0626 1128.34 31.3711C1128.08 32.8118 1127.81 34.243 1127.54 35.667C1126.13 43.1122 1124.77 50.3627 1124.16 57.7548C1123.92 60.7744 1123.76 63.6144 1123.61 66.4934C1123.47 68.9657 1123.34 71.4668 1123.14 74.1353L1122.9 77.3406H1115.16L1115.39 73.7428C1115.57 71.41 1115.7 68.9116 1115.84 66.3827C1116.01 63.3273 1116.18 60.2274 1116.42 57.3212C1117.05 49.6233 1118.48 42.0516 1119.89 34.6082C1119.99 34.0768 1120.09 33.5461 1120.19 33.016ZM1122.87 22.3635C1122.88 22.3416 1122.88 22.3317 1122.88 22.3322C1122.88 22.3327 1122.87 22.3436 1122.87 22.3635Z" fill="white"/>
<path fill-rule="evenodd" clip-rule="evenodd" d="M1100.18 55.7544C1100.67 55.9873 1100.84 56.504 1100.56 56.9085C1100.46 57.0561 1100.35 57.2044 1100.25 57.3531C1099.98 57.7419 1099.71 58.1333 1099.44 58.5223C1099.39 58.5877 1099.34 58.6555 1099.29 58.725C1099.02 59.1249 1098.7 59.584 1098.31 59.9989C1098.31 59.9993 1098.31 60.0005 1098.31 60.0026C1098.29 60.0308 1098.13 60.2126 1097.96 60.3517C1097.86 60.429 1097.69 60.546 1097.47 60.6249C1097.22 60.7111 1096.85 60.767 1096.46 60.6191C1096.12 60.4908 1095.91 60.2686 1095.81 60.1683C1095.75 60.1071 1095.7 60.0465 1095.67 60.0053L1095.67 60.0045C1095.62 59.9552 1095.61 59.9359 1095.6 59.9236C1095.3 59.6098 1095 59.2834 1094.72 58.9336C1094.66 58.8538 1094.58 58.7629 1094.5 58.6634C1094.23 58.3508 1093.9 57.954 1093.67 57.5549C1093.43 57.1327 1093.65 56.6292 1094.16 56.4301C1094.67 56.2311 1095.28 56.412 1095.52 56.8342C1095.66 57.0934 1095.85 57.3089 1096.07 57.5794C1096.18 57.7044 1096.3 57.8412 1096.42 57.9994C1096.6 58.2152 1096.78 58.4258 1096.98 58.6385C1097.16 58.4098 1097.33 58.165 1097.51 57.8985C1097.56 57.8244 1097.62 57.7487 1097.67 57.6711C1097.94 57.2871 1098.21 56.9028 1098.48 56.5158C1098.58 56.366 1098.69 56.2159 1098.79 56.0652C1099.07 55.6607 1099.7 55.5216 1100.18 55.7544ZM1096.54 59.1329C1096.54 59.1362 1096.54 59.1354 1096.54 59.1318C1096.54 59.1322 1096.54 59.1326 1096.54 59.1329Z" fill="white"/>
<path fill-rule="evenodd" clip-rule="evenodd" d="M1096.1 55.0683C1096.64 54.9286 1097.21 55.1763 1097.38 55.6217C1097.55 56.0814 1097.69 56.5886 1097.81 57.0445C1097.83 57.1403 1097.86 57.2338 1097.88 57.3241C1098.03 57.479 1098.12 57.6783 1098.11 57.8927C1098.1 57.917 1098.1 58.002 1098.09 58.0739C1098.09 58.1097 1098.08 58.1553 1098.08 58.1942L1098.08 58.1952C1098.08 58.2083 1098.07 58.2504 1098.06 58.2959C1098.06 58.3096 1098.05 58.3355 1098.04 58.3671C1098.04 58.3675 1098.04 58.368 1098.04 58.3686C1098.03 58.3873 1098 58.4721 1097.93 58.5664C1097.9 58.6087 1097.8 58.736 1097.61 58.8386C1097.37 58.9718 1096.99 59.0397 1096.62 58.8954C1096.34 58.7865 1096.21 58.609 1096.17 58.5535C1096.12 58.4797 1096.09 58.4156 1096.08 58.3853C1096.04 58.2836 1096.02 58.1869 1096 58.1223C1096 58.0954 1095.99 58.0743 1095.99 58.0568C1095.98 58.022 1095.97 58.0011 1095.97 57.9766C1095.9 57.7423 1095.84 57.5227 1095.79 57.3123C1095.68 56.8953 1095.58 56.5146 1095.43 56.1276C1095.26 55.6823 1095.56 55.208 1096.1 55.0683ZM1096.05 58.0029C1096.05 58.0072 1096.05 58.0063 1096.05 58.0015C1096.05 58.002 1096.05 58.0025 1096.05 58.0029Z" fill="white"/>
<path d="M1572.96 77.4832C1567.78 77.4832 1563.31 76.296 1559.55 73.9217C1555.81 71.5231 1552.93 68.1797 1550.9 63.8914C1548.89 59.5788 1547.88 54.5636 1547.88 48.8459C1547.88 43.1281 1548.89 38.0887 1550.9 33.7277C1552.93 29.3425 1555.75 25.9263 1559.37 23.4793C1563.01 21.0081 1567.26 19.7725 1572.12 19.7725C1574.92 19.7725 1577.69 20.257 1580.42 21.2261C1583.15 22.1952 1585.64 23.7701 1587.88 25.9506C1590.12 28.1068 1591.91 30.9657 1593.24 34.5272C1594.57 38.0887 1595.24 42.4739 1595.24 47.6829V51.3171H1553.77V43.9034H1586.83C1586.83 40.7538 1586.22 37.9433 1585.01 35.4721C1583.82 33.0009 1582.12 31.0505 1579.9 29.6211C1577.7 28.1916 1575.11 27.4769 1572.12 27.4769C1568.83 27.4769 1565.98 28.3249 1563.57 30.0208C1561.19 31.6926 1559.36 33.8731 1558.08 36.5624C1556.79 39.2516 1556.15 42.1348 1556.15 45.2117V50.1542C1556.15 54.3698 1556.85 57.9434 1558.25 60.875C1559.67 63.7823 1561.65 65.9992 1564.17 67.5255C1566.69 69.0277 1569.62 69.7787 1572.96 69.7787C1575.13 69.7787 1577.09 69.4638 1578.85 68.8338C1580.62 68.1797 1582.15 67.2106 1583.43 65.9265C1584.72 64.6182 1585.71 62.9949 1586.41 61.0567L1594.4 63.3826C1593.56 66.193 1592.14 68.6643 1590.16 70.7963C1588.17 72.9041 1585.72 74.5516 1582.8 75.7388C1579.89 76.9017 1576.6 77.4832 1572.96 77.4832Z" fill="white"/>
<path d="M1535.26 1.89258V76.3205H1527V1.89258H1535.26Z" fill="white"/>
<path d="M1466.86 76.3205V1.89258H1475.12V29.367H1475.83C1476.43 28.3978 1477.27 27.1622 1478.35 25.6601C1479.44 24.1337 1481.01 22.777 1483.04 21.5898C1485.1 20.3784 1487.87 19.7727 1491.38 19.7727C1495.91 19.7727 1499.9 20.9478 1503.36 23.2979C1506.81 25.648 1509.51 28.9793 1511.45 33.2919C1513.38 37.6044 1514.35 42.6923 1514.35 48.5554C1514.35 54.467 1513.38 59.5912 1511.45 63.928C1509.51 68.2405 1506.82 71.584 1503.39 73.9583C1499.96 76.3084 1496 77.4835 1491.52 77.4835C1488.06 77.4835 1485.29 76.8899 1483.22 75.7027C1481.14 74.4913 1479.54 73.1225 1478.42 71.5961C1477.3 70.0455 1476.43 68.7614 1475.83 67.7439H1474.84V76.3205H1466.86ZM1474.98 48.41C1474.98 52.6257 1475.58 56.3447 1476.77 59.567C1477.96 62.765 1479.7 65.2726 1481.99 67.0897C1484.28 68.8826 1487.08 69.779 1490.4 69.779C1493.85 69.779 1496.74 68.8341 1499.05 66.9443C1501.38 65.0303 1503.13 62.4622 1504.3 59.2399C1505.49 55.9934 1506.09 52.3834 1506.09 48.41C1506.09 44.4851 1505.5 40.9479 1504.34 37.7982C1503.19 34.6244 1501.45 32.1168 1499.12 30.2755C1496.81 28.41 1493.9 27.4772 1490.4 27.4772C1487.03 27.4772 1484.21 28.3615 1481.92 30.1301C1479.63 31.8745 1477.9 34.3216 1476.74 37.4712C1475.57 40.5966 1474.98 44.2429 1474.98 48.41Z" fill="white"/>
<path d="M1356.6 53.4974V20.499H1364.87V76.32H1356.6V66.8711H1356.04C1354.78 69.7058 1352.82 72.1165 1350.16 74.1031C1347.5 76.0656 1344.13 77.0468 1340.07 77.0468C1336.71 77.0468 1333.72 76.2837 1331.1 74.7573C1328.49 73.2067 1326.43 70.8808 1324.94 67.7797C1323.45 64.6543 1322.7 60.7173 1322.7 55.9686V20.499H1330.96V55.3871C1330.96 59.4574 1332.06 62.7039 1334.26 65.1267C1336.48 67.5495 1339.3 68.7609 1342.73 68.7609C1344.79 68.7609 1346.88 68.2158 1349 67.1255C1351.15 66.0353 1352.95 64.3635 1354.4 62.1104C1355.87 59.8572 1356.6 56.9862 1356.6 53.4974Z" fill="white"/>
<path d="M1286 76.3211V20.5001H1293.99V28.9314H1294.55C1295.53 26.1695 1297.3 23.9284 1299.87 22.2082C1302.44 20.488 1305.33 19.6279 1308.56 19.6279C1309.16 19.6279 1309.92 19.64 1310.83 19.6643C1311.74 19.6885 1312.43 19.7248 1312.9 19.7733V28.4953C1312.62 28.4226 1311.98 28.3136 1310.97 28.1682C1309.99 27.9987 1308.95 27.9139 1307.86 27.9139C1305.24 27.9139 1302.91 28.4832 1300.85 29.6219C1298.82 30.7364 1297.21 32.287 1296.02 34.2737C1294.85 36.2361 1294.27 38.4772 1294.27 40.9969V76.3211H1286Z" fill="white"/>
<path fill-rule="evenodd" clip-rule="evenodd" d="M1390.76 31.9086C1395.75 37.1292 1400.13 42.765 1404.63 48.5431C1406.31 50.709 1408.01 52.8949 1409.76 55.0864L1411.91 57.7637L1418.37 54.2171L1416.23 51.5397C1414.61 49.5096 1412.99 47.4311 1411.36 45.331C1405.27 37.4903 1398.94 29.3483 1391.04 22.2979C1391.02 22.2831 1391 22.2673 1390.99 22.2507C1390.67 21.9687 1390.06 21.4287 1389.4 20.8841C1388.78 20.3724 1387.81 19.6126 1386.89 19.1326C1386.64 19.0043 1386.26 18.8216 1385.77 18.6886C1385.36 18.5748 1384.34 18.3468 1383.14 18.683C1381.67 19.0934 1380.91 20.05 1380.61 20.8219C1380.36 21.4624 1380.41 22.0112 1380.44 22.2396C1380.49 22.7147 1380.66 23.1274 1380.71 23.2589C1380.71 23.2621 1380.71 23.2652 1380.71 23.2681C1380.78 23.4319 1380.8 23.4752 1380.8 23.4752C1381.57 25.7758 1382.18 27.9552 1382.6 30.2637C1382.87 31.7044 1383.14 33.1355 1383.41 34.5596C1384.81 42.0048 1386.18 49.2553 1386.79 56.6474C1387.03 59.667 1387.19 62.5069 1387.34 65.3859C1387.48 67.8583 1387.61 70.3594 1387.81 73.0278L1388.05 76.2332H1395.79L1395.55 72.6353C1395.38 70.3026 1395.24 67.8042 1395.1 65.2753C1394.93 62.2199 1394.76 59.1199 1394.53 56.2138C1393.9 48.5158 1392.47 40.9442 1391.06 33.5008C1390.96 32.9694 1390.86 32.4386 1390.76 31.9086ZM1388.08 21.2561C1388.07 21.2342 1388.07 21.2243 1388.07 21.2248C1388.07 21.2253 1388.07 21.2362 1388.08 21.2561Z" fill="white"/>
<path fill-rule="evenodd" clip-rule="evenodd" d="M1437.43 31.9086C1432.44 37.1292 1428.05 42.765 1423.56 48.5431C1421.87 50.709 1420.18 52.8949 1418.42 55.0864L1416.28 57.7637L1409.81 54.2171L1411.95 51.5397C1413.58 49.5096 1415.19 47.4311 1416.83 45.331C1422.92 37.4903 1429.24 29.3483 1437.15 22.2979C1437.17 22.2831 1437.18 22.2673 1437.2 22.2507C1437.52 21.9687 1438.12 21.4287 1438.79 20.8841C1439.41 20.3724 1440.37 19.6126 1441.3 19.1326C1441.54 19.0043 1441.93 18.8216 1442.41 18.6886C1442.83 18.5748 1443.85 18.3468 1445.05 18.683C1446.51 19.0934 1447.28 20.05 1447.58 20.8219C1447.82 21.4624 1447.78 22.0112 1447.75 22.2396C1447.69 22.7147 1447.53 23.1274 1447.48 23.2589C1447.48 23.2621 1447.47 23.2652 1447.47 23.2681C1447.41 23.4319 1447.39 23.4752 1447.39 23.4752C1446.61 25.7758 1446.01 27.9552 1445.58 30.2637C1445.32 31.7044 1445.05 33.1355 1444.78 34.5596C1443.37 42.0048 1442 49.2553 1441.4 56.6474C1441.15 59.667 1441 62.5069 1440.84 65.3859C1440.71 67.8583 1440.57 70.3594 1440.38 73.0278L1440.14 76.2332H1432.4L1432.63 72.6353C1432.81 70.3026 1432.94 67.8042 1433.08 65.2753C1433.25 62.2199 1433.42 59.1199 1433.66 56.2138C1434.29 48.5158 1435.72 40.9442 1437.13 33.5008C1437.23 32.9694 1437.33 32.4386 1437.43 31.9086ZM1440.11 21.2561C1440.11 21.2342 1440.12 21.2243 1440.12 21.2248C1440.12 21.2253 1440.11 21.2362 1440.11 21.2561Z" fill="white"/>
<path fill-rule="evenodd" clip-rule="evenodd" d="M1417.42 54.646C1417.91 54.8789 1418.08 55.3956 1417.8 55.8001C1417.69 55.9477 1417.59 56.096 1417.49 56.2447C1417.22 56.6335 1416.95 57.0249 1416.67 57.4139C1416.63 57.4793 1416.58 57.5471 1416.53 57.6166C1416.25 58.0165 1415.93 58.4756 1415.55 58.8905C1415.55 58.8909 1415.55 58.8921 1415.55 58.8942C1415.52 58.9224 1415.37 59.1042 1415.19 59.2433C1415.1 59.3206 1414.93 59.4376 1414.71 59.5165C1414.46 59.6027 1414.09 59.6586 1413.7 59.5107C1413.36 59.3824 1413.14 59.1602 1413.05 59.0599C1412.99 58.9987 1412.94 58.9381 1412.9 58.8969L1412.9 58.8961C1412.86 58.8468 1412.84 58.8275 1412.83 58.8152C1412.54 58.5014 1412.24 58.175 1411.96 57.8252C1411.89 57.7454 1411.82 57.6545 1411.73 57.555C1411.47 57.2424 1411.13 56.8456 1410.91 56.4465C1410.67 56.0243 1410.88 55.5208 1411.39 55.3217C1411.9 55.1227 1412.51 55.3036 1412.75 55.7258C1412.9 55.985 1413.08 56.2005 1413.31 56.471C1413.42 56.596 1413.53 56.7328 1413.66 56.891C1413.83 57.1068 1414.02 57.3174 1414.21 57.5301C1414.39 57.3014 1414.56 57.0566 1414.75 56.7901C1414.8 56.716 1414.85 56.6403 1414.91 56.5627C1415.18 56.1787 1415.45 55.7944 1415.71 55.4074C1415.82 55.2576 1415.92 55.1075 1416.03 54.9568C1416.31 54.5523 1416.93 54.4132 1417.42 54.646ZM1413.78 58.0245C1413.77 58.0278 1413.77 58.027 1413.78 58.0234C1413.78 58.0238 1413.78 58.0242 1413.78 58.0245Z" fill="white"/>
<path fill-rule="evenodd" clip-rule="evenodd" d="M1413.34 53.9599C1413.88 53.8202 1414.45 54.0679 1414.62 54.5133C1414.79 54.973 1414.93 55.4802 1415.05 55.9361C1415.07 56.0319 1415.1 56.1254 1415.12 56.2157C1415.27 56.3706 1415.36 56.5699 1415.35 56.7843C1415.34 56.8086 1415.34 56.8936 1415.33 56.9655C1415.33 57.0013 1415.32 57.0469 1415.32 57.0858L1415.32 57.0868C1415.32 57.0999 1415.31 57.142 1415.3 57.1875C1415.29 57.2012 1415.29 57.2271 1415.28 57.2587C1415.28 57.2591 1415.28 57.2596 1415.28 57.2602C1415.27 57.2789 1415.24 57.3637 1415.17 57.458C1415.14 57.5003 1415.04 57.6276 1414.85 57.7302C1414.61 57.8634 1414.23 57.9313 1413.86 57.787C1413.58 57.6781 1413.45 57.5006 1413.41 57.4451C1413.36 57.3713 1413.33 57.3072 1413.32 57.2769C1413.28 57.1752 1413.26 57.0785 1413.24 57.0139C1413.24 56.987 1413.23 56.9659 1413.23 56.9484C1413.22 56.9137 1413.21 56.8927 1413.21 56.8682C1413.14 56.6339 1413.08 56.4143 1413.03 56.2039C1412.92 55.7869 1412.82 55.4062 1412.67 55.0192C1412.5 54.5739 1412.8 54.0996 1413.34 53.9599ZM1413.29 56.8945C1413.29 56.8988 1413.29 56.8979 1413.29 56.8931C1413.29 56.8936 1413.29 56.8941 1413.29 56.8945Z" fill="white"/>
<path d="M1895.88 76.5379C1890.7 76.5379 1886.23 75.3507 1882.47 72.9764C1878.73 70.5778 1875.85 67.2344 1873.82 62.9461C1871.81 58.6335 1870.8 53.6183 1870.8 47.9006C1870.8 42.1828 1871.81 37.1434 1873.82 32.7824C1875.85 28.3971 1878.67 24.981 1882.29 22.534C1885.93 20.0628 1890.18 18.8271 1895.04 18.8271C1897.84 18.8271 1900.61 19.3117 1903.34 20.2808C1906.07 21.2499 1908.56 22.8247 1910.8 25.0052C1913.04 27.1615 1914.83 30.0204 1916.16 33.5819C1917.49 37.1434 1918.16 41.5286 1918.16 46.7376V50.3718H1876.69V42.9581H1909.75C1909.75 39.8085 1909.14 36.998 1907.93 34.5268C1906.74 32.0555 1905.04 30.1052 1902.82 28.6758C1900.62 27.2463 1898.03 26.5316 1895.04 26.5316C1891.75 26.5316 1888.9 27.3796 1886.49 29.0755C1884.11 30.7472 1882.28 32.9278 1881 35.617C1879.71 38.3063 1879.07 41.1894 1879.07 44.2664V49.2089C1879.07 53.4245 1879.77 56.9981 1881.17 59.9297C1882.59 62.837 1884.57 65.0539 1887.09 66.5802C1889.61 68.0824 1892.54 68.8334 1895.88 68.8334C1898.05 68.8334 1900.01 68.5185 1901.77 67.8885C1903.54 67.2344 1905.07 66.2653 1906.35 64.9812C1907.64 63.6729 1908.63 62.0496 1909.33 60.1114L1917.32 62.4373C1916.48 65.2477 1915.06 67.7189 1913.08 69.851C1911.09 71.9588 1908.64 73.6063 1905.72 74.7935C1902.81 75.9564 1899.52 76.5379 1895.88 76.5379Z" fill="white"/>
<path d="M1858.18 0.946289V75.3742H1849.92V0.946289H1858.18Z" fill="white"/>
<path d="M1789.78 75.3742V0.946289H1798.04V28.4207H1798.75C1799.35 27.4516 1800.19 26.2159 1801.27 24.7138C1802.36 23.1875 1803.93 21.8307 1805.96 20.6435C1808.02 19.4321 1810.79 18.8264 1814.3 18.8264C1818.83 18.8264 1822.82 20.0015 1826.28 22.3516C1829.73 24.7017 1832.43 28.033 1834.37 32.3456C1836.3 36.6581 1837.27 41.746 1837.27 47.6091C1837.27 53.5207 1836.3 58.6449 1834.37 62.9817C1832.43 67.2942 1829.74 70.6377 1826.31 73.012C1822.88 75.3621 1818.92 76.5372 1814.44 76.5372C1810.98 76.5372 1808.21 75.9436 1806.14 74.7564C1804.06 73.545 1802.46 72.1762 1801.34 70.6498C1800.22 69.0992 1799.35 67.8151 1798.75 66.7976H1797.76V75.3742H1789.78ZM1797.9 47.4638C1797.9 51.6794 1798.5 55.3984 1799.69 58.6207C1800.88 61.8188 1802.62 64.3263 1804.91 66.1434C1807.2 67.9363 1810 68.8327 1813.32 68.8327C1816.77 68.8327 1819.66 67.8878 1821.97 65.9981C1824.3 64.0841 1826.05 61.5159 1827.22 58.2936C1828.41 55.0471 1829.01 51.4371 1829.01 47.4638C1829.01 43.5388 1828.42 40.0016 1827.26 36.852C1826.11 33.6781 1824.37 31.1705 1822.04 29.3292C1819.73 27.4637 1816.82 26.5309 1813.32 26.5309C1809.95 26.5309 1807.13 27.4152 1804.84 29.1838C1802.55 30.9283 1800.82 33.3753 1799.66 36.5249C1798.49 39.6503 1797.9 43.2966 1797.9 47.4638Z" fill="white"/>
<path d="M1679.52 52.552V19.5537H1687.79V75.3747H1679.52V65.9258H1678.96C1677.7 68.7605 1675.74 71.1712 1673.08 73.1578C1670.42 75.1203 1667.05 76.1015 1662.99 76.1015C1659.63 76.1015 1656.64 75.3383 1654.02 73.812C1651.41 72.2614 1649.35 69.9355 1647.86 66.8344C1646.37 63.709 1645.62 59.7719 1645.62 55.0233V19.5537H1653.88V54.4418C1653.88 58.5121 1654.98 61.7586 1657.18 64.1814C1659.4 66.6042 1662.22 67.8156 1665.65 67.8156C1667.71 67.8156 1669.8 67.2705 1671.92 66.1802C1674.07 65.09 1675.87 63.4182 1677.32 61.165C1678.79 58.9119 1679.52 56.0409 1679.52 52.552Z" fill="white"/>
<path d="M1608.92 75.3748V19.5538H1616.91V27.9851H1617.47C1618.45 25.2232 1620.22 22.9821 1622.79 21.2619C1625.36 19.5417 1628.25 18.6816 1631.48 18.6816C1632.08 18.6816 1632.84 18.6938 1633.75 18.718C1634.66 18.7422 1635.35 18.7786 1635.82 18.827V27.549C1635.54 27.4764 1634.9 27.3673 1633.89 27.222C1632.91 27.0524 1631.87 26.9676 1630.78 26.9676C1628.16 26.9676 1625.83 27.5369 1623.77 28.6756C1621.74 29.7901 1620.13 31.3407 1618.94 33.3274C1617.77 35.2898 1617.19 37.5309 1617.19 40.0506V75.3748H1608.92Z" fill="white"/>
<path fill-rule="evenodd" clip-rule="evenodd" d="M1713.68 30.9623C1718.67 36.1829 1723.05 41.8187 1727.55 47.5968C1729.23 49.7627 1730.93 51.9486 1732.69 54.1401L1734.83 56.8175L1741.3 53.2708L1739.15 50.5934C1737.53 48.5633 1735.91 46.4848 1734.28 44.3847C1728.19 36.544 1721.86 28.4021 1713.96 21.3516C1713.94 21.3368 1713.92 21.3211 1713.91 21.3044C1713.59 21.0224 1712.99 20.4824 1712.32 19.9378C1711.7 19.4261 1710.73 18.6663 1709.81 18.1863C1709.56 18.058 1709.18 17.8753 1708.69 17.7423C1708.28 17.6286 1707.26 17.4005 1706.06 17.7367C1704.6 18.1471 1703.83 19.1037 1703.53 19.8756C1703.28 20.5161 1703.33 21.0649 1703.36 21.2933C1703.41 21.7684 1703.58 22.1811 1703.63 22.3126C1703.63 22.3158 1703.63 22.3189 1703.63 22.3218C1703.7 22.4856 1703.72 22.5289 1703.72 22.5289C1704.49 24.8295 1705.1 27.0089 1705.52 29.3174C1705.79 30.7581 1706.06 32.1892 1706.33 33.6133C1707.73 41.0585 1709.1 48.309 1709.71 55.7011C1709.95 58.7207 1710.11 61.5606 1710.26 64.4397C1710.4 66.912 1710.53 69.4131 1710.73 72.0815L1710.97 75.2869H1718.71L1718.47 71.689C1718.3 69.3563 1718.16 66.8579 1718.02 64.329C1717.86 61.2736 1717.68 58.1736 1717.45 55.2675C1716.82 47.5695 1715.39 39.9979 1713.98 32.5545C1713.88 32.0231 1713.78 31.4924 1713.68 30.9623ZM1711 20.3098C1710.99 20.2879 1710.99 20.278 1710.99 20.2785C1710.99 20.279 1711 20.2899 1711 20.3098Z" fill="white"/>
<path fill-rule="evenodd" clip-rule="evenodd" d="M1760.35 30.9623C1755.36 36.1829 1750.97 41.8187 1746.48 47.5968C1744.8 49.7627 1743.1 51.9486 1741.34 54.1401L1739.2 56.8175L1732.73 53.2708L1734.87 50.5934C1736.5 48.5633 1738.11 46.4848 1739.75 44.3847C1745.84 36.544 1752.17 28.4021 1760.07 21.3516C1760.09 21.3368 1760.1 21.3211 1760.12 21.3044C1760.44 21.0224 1761.04 20.4824 1761.71 19.9378C1762.33 19.4261 1763.29 18.6663 1764.22 18.1863C1764.47 18.058 1764.85 17.8753 1765.34 17.7423C1765.75 17.6286 1766.77 17.4005 1767.97 17.7367C1769.43 18.1471 1770.2 19.1037 1770.5 19.8756C1770.74 20.5161 1770.7 21.0649 1770.67 21.2933C1770.61 21.7684 1770.45 22.1811 1770.4 22.3126C1770.4 22.3158 1770.4 22.3189 1770.39 22.3218C1770.33 22.4856 1770.31 22.5289 1770.31 22.5289C1769.54 24.8295 1768.93 27.0089 1768.5 29.3174C1768.24 30.7581 1767.97 32.1892 1767.7 33.6133C1766.29 41.0585 1764.93 48.309 1764.32 55.7011C1764.07 58.7207 1763.92 61.5606 1763.76 64.4397C1763.63 66.912 1763.49 69.4131 1763.3 72.0815L1763.06 75.2869H1755.32L1755.55 71.689C1755.73 69.3563 1755.86 66.8579 1756 64.329C1756.17 61.2736 1756.34 58.1736 1756.58 55.2675C1757.21 47.5695 1758.64 39.9979 1760.05 32.5545C1760.15 32.0231 1760.25 31.4924 1760.35 30.9623ZM1763.03 20.3098C1763.04 20.2879 1763.04 20.278 1763.04 20.2785C1763.04 20.279 1763.03 20.2899 1763.03 20.3098Z" fill="white"/>
<path fill-rule="evenodd" clip-rule="evenodd" d="M1740.34 53.6997C1740.83 53.9326 1741 54.4493 1740.72 54.8538C1740.62 55.0014 1740.51 55.1497 1740.41 55.2984C1740.14 55.6872 1739.87 56.0786 1739.59 56.4676C1739.55 56.533 1739.5 56.6008 1739.45 56.6703C1739.17 57.0702 1738.85 57.5293 1738.47 57.9442C1738.47 57.9446 1738.47 57.9458 1738.47 57.9479C1738.45 57.9761 1738.29 58.1579 1738.11 58.297C1738.02 58.3743 1737.85 58.4913 1737.63 58.5703C1737.38 58.6564 1737.01 58.7123 1736.62 58.5644C1736.28 58.4361 1736.06 58.2139 1735.97 58.1136C1735.91 58.0524 1735.86 57.9918 1735.83 57.9506L1735.82 57.9498C1735.78 57.9005 1735.77 57.8812 1735.75 57.8689C1735.46 57.5551 1735.16 57.2287 1734.88 56.8789C1734.82 56.7991 1734.74 56.7082 1734.66 56.6087C1734.39 56.2961 1734.06 55.8993 1733.83 55.5002C1733.59 55.0781 1733.81 54.5745 1734.32 54.3754C1734.83 54.1764 1735.43 54.3573 1735.67 54.7795C1735.82 55.0387 1736 55.2542 1736.23 55.5248C1736.34 55.6497 1736.45 55.7865 1736.58 55.9447C1736.75 56.1606 1736.94 56.3711 1737.13 56.5838C1737.31 56.3551 1737.49 56.1103 1737.67 55.8438C1737.72 55.7697 1737.78 55.694 1737.83 55.6164C1738.1 55.2325 1738.37 54.8481 1738.64 54.4611C1738.74 54.3113 1738.84 54.1612 1738.95 54.0105C1739.23 53.606 1739.85 53.4669 1740.34 53.6997ZM1736.7 57.0782C1736.7 57.0815 1736.7 57.0807 1736.7 57.0771C1736.7 57.0775 1736.7 57.0779 1736.7 57.0782Z" fill="white"/>
<path fill-rule="evenodd" clip-rule="evenodd" d="M1736.26 53.0136C1736.8 52.8739 1737.37 53.1216 1737.54 53.567C1737.71 54.0267 1737.85 54.5339 1737.97 54.9898C1737.99 55.0856 1738.02 55.1791 1738.04 55.2694C1738.19 55.4243 1738.28 55.6236 1738.27 55.838C1738.26 55.8623 1738.26 55.9473 1738.25 56.0192C1738.25 56.0551 1738.24 56.1007 1738.24 56.1395L1738.24 56.1405C1738.24 56.1536 1738.23 56.1957 1738.22 56.2412C1738.21 56.2549 1738.21 56.2808 1738.2 56.3124C1738.2 56.3128 1738.2 56.3133 1738.2 56.3139C1738.19 56.3327 1738.16 56.4174 1738.09 56.5117C1738.06 56.554 1737.96 56.6813 1737.77 56.7839C1737.53 56.9171 1737.15 56.985 1736.78 56.8407C1736.5 56.7318 1736.37 56.5543 1736.33 56.4988C1736.28 56.425 1736.25 56.361 1736.24 56.3306C1736.2 56.2289 1736.18 56.1322 1736.16 56.0676C1736.16 56.0407 1736.15 56.0196 1736.15 56.0021C1736.14 55.9674 1736.13 55.9464 1736.13 55.9219C1736.06 55.6876 1736 55.468 1735.95 55.2576C1735.84 54.8406 1735.74 54.4599 1735.59 54.0729C1735.42 53.6276 1735.72 53.1533 1736.26 53.0136ZM1736.21 55.9482C1736.21 55.9525 1736.21 55.9516 1736.21 55.9468C1736.21 55.9473 1736.21 55.9478 1736.21 55.9482Z" fill="white"/>
<path d="M2218.8 76.5379C2213.62 76.5379 2209.15 75.3507 2205.39 72.9764C2201.65 70.5778 2198.77 67.2344 2196.74 62.9461C2194.73 58.6335 2193.72 53.6183 2193.72 47.9006C2193.72 42.1828 2194.73 37.1434 2196.74 32.7824C2198.77 28.3971 2201.59 24.981 2205.21 22.534C2208.86 20.0628 2213.11 18.8271 2217.96 18.8271C2220.76 18.8271 2223.53 19.3117 2226.26 20.2808C2229 21.2499 2231.48 22.8247 2233.72 25.0052C2235.97 27.1615 2237.75 30.0204 2239.08 33.5819C2240.41 37.1434 2241.08 41.5286 2241.08 46.7376V50.3718H2199.61V42.9581H2232.67C2232.67 39.8085 2232.07 36.998 2230.85 34.5268C2229.66 32.0555 2227.96 30.1052 2225.74 28.6758C2223.54 27.2463 2220.95 26.5316 2217.96 26.5316C2214.67 26.5316 2211.82 27.3796 2209.42 29.0755C2207.03 30.7472 2205.2 32.9278 2203.92 35.617C2202.63 38.3063 2201.99 41.1894 2201.99 44.2664V49.2089C2201.99 53.4245 2202.69 56.9981 2204.09 59.9297C2205.52 62.837 2207.49 65.0539 2210.01 66.5802C2212.53 68.0824 2215.46 68.8334 2218.8 68.8334C2220.98 68.8334 2222.94 68.5185 2224.69 67.8885C2226.46 67.2344 2227.99 66.2653 2229.28 64.9812C2230.56 63.6729 2231.55 62.0496 2232.25 60.1114L2240.24 62.4373C2239.4 65.2477 2237.99 67.7189 2236 69.851C2234.02 71.9588 2231.56 73.6063 2228.65 74.7935C2225.73 75.9564 2222.45 76.5379 2218.8 76.5379Z" fill="white"/>
<path d="M2181.11 0.946289V75.3742H2172.84V0.946289H2181.11Z" fill="white"/>
<path d="M2112.7 75.3742V0.946289H2120.97V28.4207H2121.67C2122.27 27.4516 2123.12 26.2159 2124.19 24.7138C2125.29 23.1875 2126.85 21.8307 2128.88 20.6435C2130.94 19.4321 2133.72 18.8264 2137.22 18.8264C2141.75 18.8264 2145.74 20.0015 2149.2 22.3516C2152.65 24.7017 2155.35 28.033 2157.29 32.3456C2159.23 36.6581 2160.2 41.746 2160.2 47.6091C2160.2 53.5207 2159.23 58.6449 2157.29 62.9817C2155.35 67.2942 2152.67 70.6377 2149.23 73.012C2145.8 75.3621 2141.84 76.5372 2137.36 76.5372C2133.9 76.5372 2131.14 75.9436 2129.06 74.7564C2126.98 73.545 2125.38 72.1762 2124.26 70.6498C2123.14 69.0992 2122.27 67.8151 2121.67 66.7976H2120.69V75.3742H2112.7ZM2120.83 47.4638C2120.83 51.6794 2121.42 55.3984 2122.61 58.6207C2123.8 61.8188 2125.54 64.3263 2127.83 66.1434C2130.12 67.9363 2132.92 68.8327 2136.24 68.8327C2139.69 68.8327 2142.58 67.8878 2144.89 65.9981C2147.23 64.0841 2148.98 61.5159 2150.14 58.2936C2151.34 55.0471 2151.93 51.4371 2151.93 47.4638C2151.93 43.5388 2151.35 40.0016 2150.18 36.852C2149.04 33.6781 2147.3 31.1705 2144.96 29.3292C2142.65 27.4637 2139.74 26.5309 2136.24 26.5309C2132.88 26.5309 2130.05 27.4152 2127.76 29.1838C2125.47 30.9283 2123.75 33.3753 2122.58 36.5249C2121.41 39.6503 2120.83 43.2966 2120.83 47.4638Z" fill="white"/>
<path d="M2002.45 52.552V19.5537H2010.71V75.3747H2002.45V65.9258H2001.89C2000.62 68.7605 1998.66 71.1712 1996 73.1578C1993.34 75.1203 1989.98 76.1015 1985.91 76.1015C1982.55 76.1015 1979.56 75.3383 1976.95 73.812C1974.33 72.2614 1972.28 69.9355 1970.78 66.8344C1969.29 63.709 1968.54 59.7719 1968.54 55.0233V19.5537H1976.81V54.4418C1976.81 58.5121 1977.9 61.7586 1980.1 64.1814C1982.32 66.6042 1985.14 67.8156 1988.58 67.8156C1990.63 67.8156 1992.72 67.2705 1994.84 66.1802C1996.99 65.09 1998.79 63.4182 2000.24 61.165C2001.71 58.9119 2002.45 56.0409 2002.45 52.552Z" fill="white"/>
<path d="M1931.84 75.3748V19.5538H1939.83V27.9851H1940.39C1941.37 25.2232 1943.14 22.9821 1945.71 21.2619C1948.28 19.5417 1951.18 18.6816 1954.4 18.6816C1955.01 18.6816 1955.76 18.6938 1956.68 18.718C1957.59 18.7422 1958.27 18.7786 1958.74 18.827V27.549C1958.46 27.4764 1957.82 27.3673 1956.82 27.222C1955.83 27.0524 1954.8 26.9676 1953.7 26.9676C1951.08 26.9676 1948.75 27.5369 1946.69 28.6756C1944.66 29.7901 1943.05 31.3407 1941.86 33.3274C1940.69 35.2898 1940.11 37.5309 1940.11 40.0506V75.3748H1931.84Z" fill="white"/>
<path fill-rule="evenodd" clip-rule="evenodd" d="M2036.6 30.9623C2041.59 36.1829 2045.98 41.8187 2050.47 47.5968C2052.15 49.7627 2053.85 51.9486 2055.61 54.1401L2057.75 56.8175L2064.22 53.2708L2062.07 50.5934C2060.45 48.5633 2058.84 46.4848 2057.2 44.3847C2051.11 36.544 2044.78 28.4021 2036.88 21.3516C2036.86 21.3368 2036.85 21.3211 2036.83 21.3044C2036.51 21.0224 2035.91 20.4824 2035.24 19.9378C2034.62 19.4261 2033.65 18.6663 2032.73 18.1863C2032.48 18.058 2032.1 17.8753 2031.61 17.7423C2031.2 17.6286 2030.18 17.4005 2028.98 17.7367C2027.52 18.1471 2026.75 19.1037 2026.45 19.8756C2026.2 20.5161 2026.25 21.0649 2026.28 21.2933C2026.33 21.7684 2026.5 22.1811 2026.55 22.3126C2026.55 22.3158 2026.55 22.3189 2026.56 22.3218C2026.62 22.4856 2026.64 22.5289 2026.64 22.5289C2027.41 24.8295 2028.02 27.0089 2028.45 29.3174C2028.71 30.7581 2028.98 32.1892 2029.25 33.6133C2030.66 41.0585 2032.02 48.309 2032.63 55.7011C2032.87 58.7207 2033.03 61.5606 2033.18 64.4397C2033.32 66.912 2033.45 69.4131 2033.65 72.0815L2033.89 75.2869H2041.63L2041.4 71.689C2041.22 69.3563 2041.09 66.8579 2040.95 64.329C2040.78 61.2736 2040.61 58.1736 2040.37 55.2675C2039.74 47.5695 2038.31 39.9979 2036.9 32.5545C2036.8 32.0231 2036.7 31.4924 2036.6 30.9623ZM2033.92 20.3098C2033.91 20.2879 2033.91 20.278 2033.91 20.2785C2033.91 20.279 2033.92 20.2899 2033.92 20.3098Z" fill="white"/>
<path fill-rule="evenodd" clip-rule="evenodd" d="M2083.27 30.9623C2078.28 36.1829 2073.89 41.8187 2069.4 47.5968C2067.72 49.7627 2066.02 51.9486 2064.26 54.1401L2062.12 56.8175L2055.65 53.2708L2057.8 50.5934C2059.42 48.5633 2061.03 46.4848 2062.67 44.3847C2068.76 36.544 2075.09 28.4021 2082.99 21.3516C2083.01 21.3368 2083.02 21.3211 2083.04 21.3044C2083.36 21.0224 2083.96 20.4824 2084.63 19.9378C2085.25 19.4261 2086.22 18.6663 2087.14 18.1863C2087.39 18.058 2087.77 17.8753 2088.26 17.7423C2088.67 17.6286 2089.69 17.4005 2090.89 17.7367C2092.35 18.1471 2093.12 19.1037 2093.42 19.8756C2093.67 20.5161 2093.62 21.0649 2093.59 21.2933C2093.54 21.7684 2093.37 22.1811 2093.32 22.3126C2093.32 22.3158 2093.32 22.3189 2093.31 22.3218C2093.25 22.4856 2093.23 22.5289 2093.23 22.5289C2092.46 24.8295 2091.85 27.0089 2091.43 29.3174C2091.16 30.7581 2090.89 32.1892 2090.62 33.6133C2089.21 41.0585 2087.85 48.309 2087.24 55.7011C2087 58.7207 2086.84 61.5606 2086.69 64.4397C2086.55 66.912 2086.42 69.4131 2086.22 72.0815L2085.98 75.2869H2078.24L2078.47 71.689C2078.65 69.3563 2078.78 66.8579 2078.92 64.329C2079.09 61.2736 2079.26 58.1736 2079.5 55.2675C2080.13 47.5695 2081.56 39.9979 2082.97 32.5545C2083.07 32.0231 2083.17 31.4924 2083.27 30.9623ZM2085.95 20.3098C2085.96 20.2879 2085.96 20.278 2085.96 20.2785C2085.96 20.279 2085.95 20.2899 2085.95 20.3098Z" fill="white"/>
<path fill-rule="evenodd" clip-rule="evenodd" d="M2063.26 53.6997C2063.75 53.9326 2063.92 54.4493 2063.64 54.8538C2063.54 55.0014 2063.43 55.1497 2063.33 55.2984C2063.06 55.6872 2062.79 56.0786 2062.52 56.4676C2062.47 56.533 2062.42 56.6008 2062.37 56.6703C2062.1 57.0702 2061.78 57.5293 2061.39 57.9442C2061.39 57.9446 2061.39 57.9458 2061.39 57.9479C2061.37 57.9761 2061.21 58.1579 2061.04 58.297C2060.94 58.3743 2060.77 58.4913 2060.55 58.5703C2060.3 58.6564 2059.93 58.7123 2059.54 58.5644C2059.2 58.4361 2058.99 58.2139 2058.89 58.1136C2058.83 58.0524 2058.78 57.9918 2058.75 57.9506L2058.75 57.9498C2058.7 57.9005 2058.69 57.8812 2058.68 57.8689C2058.38 57.5551 2058.08 57.2287 2057.8 56.8789C2057.74 56.7991 2057.66 56.7082 2057.58 56.6087C2057.31 56.2961 2056.98 55.8993 2056.75 55.5002C2056.51 55.0781 2056.73 54.5745 2057.24 54.3754C2057.75 54.1764 2058.36 54.3573 2058.6 54.7795C2058.74 55.0387 2058.93 55.2542 2059.15 55.5248C2059.26 55.6497 2059.38 55.7865 2059.5 55.9447C2059.68 56.1606 2059.86 56.3711 2060.06 56.5838C2060.24 56.3551 2060.41 56.1103 2060.59 55.8438C2060.64 55.7697 2060.7 55.694 2060.75 55.6164C2061.02 55.2325 2061.29 54.8481 2061.56 54.4611C2061.66 54.3113 2061.77 54.1612 2061.87 54.0105C2062.15 53.606 2062.78 53.4669 2063.26 53.6997ZM2059.62 57.0782C2059.62 57.0815 2059.62 57.0807 2059.62 57.0771C2059.62 57.0775 2059.62 57.0779 2059.62 57.0782Z" fill="white"/>
<path fill-rule="evenodd" clip-rule="evenodd" d="M2059.18 53.0136C2059.72 52.8739 2060.29 53.1216 2060.46 53.567C2060.63 54.0267 2060.77 54.5339 2060.89 54.9898C2060.91 55.0856 2060.94 55.1791 2060.96 55.2694C2061.11 55.4243 2061.2 55.6236 2061.19 55.838C2061.18 55.8623 2061.18 55.9473 2061.17 56.0192C2061.17 56.0551 2061.16 56.1007 2061.16 56.1395L2061.16 56.1405C2061.16 56.1536 2061.15 56.1957 2061.14 56.2412C2061.13 56.2549 2061.13 56.2808 2061.12 56.3124C2061.12 56.3128 2061.12 56.3133 2061.12 56.3139C2061.11 56.3327 2061.08 56.4174 2061.01 56.5117C2060.98 56.554 2060.88 56.6813 2060.69 56.7839C2060.45 56.9171 2060.07 56.985 2059.7 56.8407C2059.42 56.7318 2059.29 56.5543 2059.25 56.4988C2059.2 56.425 2059.17 56.361 2059.16 56.3306C2059.12 56.2289 2059.1 56.1322 2059.08 56.0676C2059.08 56.0407 2059.07 56.0196 2059.07 56.0021C2059.06 55.9674 2059.05 55.9464 2059.05 55.9219C2058.98 55.6876 2058.92 55.468 2058.87 55.2576C2058.76 54.8406 2058.66 54.4599 2058.51 54.0729C2058.34 53.6276 2058.64 53.1533 2059.18 53.0136ZM2059.13 55.9482C2059.13 55.9525 2059.13 55.9516 2059.13 55.9468C2059.13 55.9473 2059.13 55.9478 2059.13 55.9482Z" fill="white"/>
<path d="M2541.72 75.5906C2536.54 75.5906 2532.07 74.4034 2528.31 72.0291C2524.57 69.6306 2521.69 66.2871 2519.66 61.9988C2517.65 57.6862 2516.64 52.6711 2516.64 46.9533C2516.64 41.2355 2517.65 36.1961 2519.66 31.8351C2521.69 27.4499 2524.51 24.0338 2528.13 21.5867C2531.78 19.1155 2536.03 17.8799 2540.88 17.8799C2543.68 17.8799 2546.45 18.3644 2549.18 19.3335C2551.92 20.3027 2554.4 21.8775 2556.64 24.058C2558.89 26.2143 2560.67 29.0731 2562 32.6346C2563.33 36.1961 2564 40.5814 2564 45.7904V49.4245H2522.53V42.0108H2555.59C2555.59 38.8612 2554.99 36.0508 2553.77 33.5795C2552.58 31.1083 2550.88 29.1579 2548.66 27.7285C2546.46 26.2991 2543.87 25.5843 2540.88 25.5843C2537.59 25.5843 2534.74 26.4323 2532.34 28.1283C2529.95 29.8 2528.12 31.9805 2526.84 34.6698C2525.55 37.3591 2524.91 40.2422 2524.91 43.3191V48.2616C2524.91 52.4772 2525.61 56.0509 2527.01 58.9824C2528.44 61.8898 2530.41 64.1066 2532.93 65.633C2535.45 67.1351 2538.38 67.8861 2541.72 67.8861C2543.89 67.8861 2545.86 67.5712 2547.61 66.9413C2549.38 66.2871 2550.91 65.318 2552.2 64.0339C2553.48 62.7256 2554.47 61.1024 2555.17 59.1641L2563.16 61.49C2562.32 64.3004 2560.91 66.7717 2558.92 68.9037C2556.94 71.0115 2554.48 72.659 2551.57 73.8462C2548.65 75.0091 2545.37 75.5906 2541.72 75.5906Z" fill="white"/>
<path d="M2504.03 0V74.428H2495.76V0H2504.03Z" fill="white"/>
<path d="M2435.62 74.4279V0H2443.89V27.4744H2444.59C2445.19 26.5053 2446.04 25.2696 2447.11 23.7675C2448.21 22.2412 2449.77 20.8844 2451.8 19.6972C2453.86 18.4858 2456.64 17.8802 2460.14 17.8802C2464.67 17.8802 2468.66 19.0552 2472.12 21.4053C2475.57 23.7554 2478.27 27.0867 2480.21 31.3993C2482.15 35.7118 2483.12 40.7997 2483.12 46.6628C2483.12 52.5744 2482.15 57.6986 2480.21 62.0354C2478.27 66.348 2475.59 69.6914 2472.15 72.0657C2468.72 74.4158 2464.76 75.5909 2460.28 75.5909C2456.82 75.5909 2454.06 74.9973 2451.98 73.8101C2449.9 72.5987 2448.3 71.2299 2447.18 69.7035C2446.06 68.1529 2445.19 66.8689 2444.59 65.8513H2443.61V74.4279H2435.62ZM2443.75 46.5175C2443.75 50.7331 2444.34 54.4521 2445.53 57.6744C2446.72 60.8725 2448.46 63.38 2450.75 65.1971C2453.04 66.99 2455.84 67.8864 2459.16 67.8864C2462.61 67.8864 2465.5 66.9415 2467.81 65.0518C2470.15 63.1378 2471.9 60.5696 2473.06 57.3473C2474.26 54.1008 2474.85 50.4908 2474.85 46.5175C2474.85 42.5926 2474.27 39.0553 2473.1 35.9057C2471.95 32.7318 2470.22 30.2242 2467.88 28.3829C2465.57 26.5174 2462.66 25.5846 2459.16 25.5846C2455.8 25.5846 2452.97 26.4689 2450.68 28.2376C2448.39 29.982 2446.67 32.429 2445.5 35.5786C2444.33 38.704 2443.75 42.3503 2443.75 46.5175Z" fill="white"/>
<path d="M2325.37 51.6048V18.6064H2333.63V74.4274H2325.37V64.9786H2324.81C2323.54 67.8132 2321.58 70.2239 2318.92 72.2106C2316.26 74.173 2312.9 75.1542 2308.83 75.1542C2305.47 75.1542 2302.48 74.3911 2299.87 72.8647C2297.25 71.3141 2295.2 68.9883 2293.7 65.8871C2292.21 62.7617 2291.46 58.8247 2291.46 54.076V18.6064H2299.73V53.4945C2299.73 57.5648 2300.82 60.8114 2303.02 63.2341C2305.24 65.6569 2308.06 66.8683 2311.5 66.8683C2313.55 66.8683 2315.64 66.3232 2317.77 65.2329C2319.91 64.1427 2321.71 62.471 2323.16 60.2178C2324.63 57.9646 2325.37 55.0936 2325.37 51.6048Z" fill="white"/>
<path d="M2254.76 74.4285V18.6076H2262.75V27.0388H2263.31C2264.29 24.2769 2266.06 22.0358 2268.63 20.3156C2271.2 18.5954 2274.1 17.7354 2277.32 17.7354C2277.93 17.7354 2278.69 17.7475 2279.6 17.7717C2280.51 17.7959 2281.2 17.8323 2281.66 17.8807V26.6027C2281.38 26.5301 2280.74 26.421 2279.74 26.2757C2278.76 26.1061 2277.72 26.0213 2276.62 26.0213C2274 26.0213 2271.67 26.5906 2269.61 27.7293C2267.58 28.8438 2265.97 30.3944 2264.78 32.3811C2263.61 34.3435 2263.03 36.5846 2263.03 39.1043V74.4285H2254.76Z" fill="white"/>
<path fill-rule="evenodd" clip-rule="evenodd" d="M2359.52 30.016C2364.51 35.2366 2368.9 40.8724 2373.39 46.6505C2375.07 48.8164 2376.77 51.0023 2378.53 53.1938L2380.67 55.8712L2387.14 52.3245L2384.99 49.6471C2383.37 47.617 2381.76 45.5385 2380.12 43.4385C2374.03 35.5977 2367.7 27.4558 2359.8 20.4053C2359.78 20.3905 2359.77 20.3748 2359.75 20.3581C2359.43 20.0762 2358.83 19.5361 2358.16 18.9915C2357.54 18.4798 2356.57 17.72 2355.65 17.24C2355.4 17.1117 2355.02 16.929 2354.53 16.796C2354.12 16.6823 2353.1 16.4542 2351.9 16.7904C2350.44 17.2008 2349.67 18.1574 2349.37 18.9293C2349.12 19.5698 2349.17 20.1186 2349.2 20.347C2349.25 20.8221 2349.42 21.2348 2349.47 21.3663C2349.47 21.3696 2349.47 21.3726 2349.48 21.3755C2349.54 21.5393 2349.56 21.5826 2349.56 21.5826C2350.33 23.8832 2350.94 26.0626 2351.36 28.3711C2351.63 29.8118 2351.9 31.243 2352.17 32.667C2353.58 40.1122 2354.94 47.3627 2355.55 54.7548C2355.79 57.7744 2355.95 60.6144 2356.1 63.4934C2356.24 65.9657 2356.37 68.4668 2356.57 71.1353L2356.81 74.3406H2364.55L2364.32 70.7428C2364.14 68.41 2364.01 65.9116 2363.87 63.3827C2363.7 60.3273 2363.53 57.2274 2363.29 54.3212C2362.66 46.6233 2361.23 39.0516 2359.82 31.6082C2359.72 31.0768 2359.62 30.5461 2359.52 30.016ZM2356.84 19.3635C2356.83 19.3416 2356.83 19.3317 2356.83 19.3322C2356.83 19.3327 2356.84 19.3436 2356.84 19.3635Z" fill="white"/>
<path fill-rule="evenodd" clip-rule="evenodd" d="M2406.19 30.016C2401.2 35.2366 2396.81 40.8724 2392.32 46.6505C2390.64 48.8164 2388.94 51.0023 2387.18 53.1938L2385.04 55.8712L2378.57 52.3245L2380.72 49.6471C2382.34 47.617 2383.95 45.5385 2385.59 43.4385C2391.68 35.5977 2398.01 27.4558 2405.91 20.4053C2405.93 20.3905 2405.94 20.3748 2405.96 20.3581C2406.28 20.0762 2406.88 19.5361 2407.55 18.9915C2408.17 18.4798 2409.14 17.72 2410.06 17.24C2410.31 17.1117 2410.69 16.929 2411.18 16.796C2411.59 16.6823 2412.61 16.4542 2413.81 16.7904C2415.27 17.2008 2416.04 18.1574 2416.34 18.9293C2416.59 19.5698 2416.54 20.1186 2416.51 20.347C2416.46 20.8221 2416.29 21.2348 2416.24 21.3663C2416.24 21.3696 2416.24 21.3726 2416.23 21.3755C2416.17 21.5393 2416.15 21.5826 2416.15 21.5826C2415.38 23.8832 2414.77 26.0626 2414.34 28.3711C2414.08 29.8118 2413.81 31.243 2413.54 32.667C2412.13 40.1122 2410.77 47.3627 2410.16 54.7548C2409.92 57.7744 2409.76 60.6144 2409.61 63.4934C2409.47 65.9657 2409.34 68.4668 2409.14 71.1353L2408.9 74.3406H2401.16L2401.39 70.7428C2401.57 68.41 2401.7 65.9116 2401.84 63.3827C2402.01 60.3273 2402.18 57.2274 2402.42 54.3212C2403.05 46.6233 2404.48 39.0516 2405.89 31.6082C2405.99 31.0768 2406.09 30.5461 2406.19 30.016ZM2408.87 19.3635C2408.88 19.3416 2408.88 19.3317 2408.88 19.3322C2408.88 19.3327 2408.87 19.3436 2408.87 19.3635Z" fill="white"/>
<path fill-rule="evenodd" clip-rule="evenodd" d="M2386.18 52.7544C2386.67 52.9873 2386.84 53.504 2386.56 53.9085C2386.46 54.0561 2386.35 54.2044 2386.25 54.3531C2385.98 54.7419 2385.71 55.1333 2385.44 55.5223C2385.39 55.5877 2385.34 55.6555 2385.29 55.725C2385.02 56.1249 2384.7 56.584 2384.31 56.9989C2384.31 56.9993 2384.31 57.0005 2384.31 57.0026C2384.29 57.0308 2384.13 57.2126 2383.96 57.3517C2383.86 57.429 2383.69 57.546 2383.47 57.6249C2383.22 57.7111 2382.85 57.767 2382.46 57.6191C2382.12 57.4908 2381.91 57.2686 2381.81 57.1683C2381.75 57.1071 2381.7 57.0465 2381.67 57.0053L2381.67 57.0045C2381.62 56.9552 2381.61 56.9359 2381.6 56.9236C2381.3 56.6098 2381 56.2834 2380.72 55.9336C2380.66 55.8538 2380.58 55.7629 2380.5 55.6634C2380.23 55.3508 2379.9 54.954 2379.67 54.5549C2379.43 54.1327 2379.65 53.6292 2380.16 53.4301C2380.67 53.2311 2381.28 53.412 2381.52 53.8342C2381.66 54.0934 2381.85 54.3089 2382.07 54.5794C2382.18 54.7044 2382.3 54.8412 2382.42 54.9994C2382.6 55.2152 2382.78 55.4258 2382.98 55.6385C2383.16 55.4098 2383.33 55.165 2383.51 54.8985C2383.56 54.8244 2383.62 54.7487 2383.67 54.6711C2383.94 54.2871 2384.21 53.9028 2384.48 53.5158C2384.58 53.366 2384.69 53.2159 2384.79 53.0652C2385.07 52.6607 2385.7 52.5216 2386.18 52.7544ZM2382.54 56.1329C2382.54 56.1362 2382.54 56.1354 2382.54 56.1318C2382.54 56.1322 2382.54 56.1326 2382.54 56.1329Z" fill="white"/>
<path fill-rule="evenodd" clip-rule="evenodd" d="M2382.1 52.0683C2382.64 51.9286 2383.21 52.1763 2383.38 52.6217C2383.55 53.0814 2383.69 53.5886 2383.81 54.0445C2383.83 54.1403 2383.86 54.2338 2383.88 54.3241C2384.03 54.479 2384.12 54.6783 2384.11 54.8927C2384.1 54.917 2384.1 55.002 2384.09 55.0739C2384.09 55.1097 2384.08 55.1553 2384.08 55.1942L2384.08 55.1952C2384.08 55.2083 2384.07 55.2504 2384.06 55.2959C2384.06 55.3096 2384.05 55.3355 2384.04 55.3671C2384.04 55.3675 2384.04 55.368 2384.04 55.3686C2384.03 55.3873 2384 55.4721 2383.93 55.5664C2383.9 55.6087 2383.8 55.736 2383.61 55.8386C2383.37 55.9718 2382.99 56.0397 2382.62 55.8954C2382.34 55.7865 2382.21 55.609 2382.17 55.5535C2382.12 55.4797 2382.09 55.4156 2382.08 55.3853C2382.04 55.2836 2382.02 55.1869 2382 55.1223C2382 55.0954 2381.99 55.0743 2381.99 55.0568C2381.98 55.022 2381.97 55.0011 2381.97 54.9766C2381.9 54.7423 2381.84 54.5227 2381.79 54.3123C2381.68 53.8953 2381.58 53.5146 2381.43 53.1276C2381.26 52.6823 2381.56 52.208 2382.1 52.0683ZM2382.05 55.0029C2382.05 55.0072 2382.05 55.0063 2382.05 55.0015C2382.05 55.002 2382.05 55.0025 2382.05 55.0029Z" fill="white"/>
</svg>
