<svg width="643" height="643" viewBox="0 0 643 643" fill="none" xmlns="http://www.w3.org/2000/svg">
<path d="M0 0H642.498V321.5V643H0V0Z" fill="white"/>
<path d="M413.694 0V380.606C413.694 430.756 412.596 508.669 394.22 569.565C373.923 636.731 344.575 643 318.244 643C291.913 643 262.565 636.731 242.269 569.565C223.892 508.669 222.795 430.756 222.795 380.606V0H273.262V363.591C273.262 393.143 273.537 445.085 283.959 479.116C293.833 511.355 309.193 514.042 318.244 514.042C327.295 514.042 342.655 511.355 352.529 479.116C362.952 445.085 363.226 393.143 363.226 363.591V0H413.694Z" fill="url(#paint0_linear_184_3544)"/>
<path d="M50.4675 125.376V278.514H103.952C112.455 278.514 123.426 276.723 130.557 253.439C133.574 243.588 136.866 225.677 136.866 199.706C136.866 167.467 131.929 147.765 127.54 138.809C121.506 126.272 108.889 125.376 103.404 125.376H50.4675ZM0 626.88V0H113.552C132.477 0 159.905 4.47771 175.813 56.4193C187.059 93.1365 188.979 141.496 188.979 175.527C188.979 217.617 185.962 256.125 176.362 286.574C169.779 308.067 160.454 323.291 151.677 330.456V334.038C159.631 338.515 168.408 351.053 174.168 371.65C183.219 402.099 183.219 434.339 183.768 466.578L185.139 537.326C185.687 567.774 187.059 593.745 193.093 626.88H139.608C133.574 599.118 132.751 577.625 132.203 547.177L131.38 495.235C130.832 456.727 126.992 431.652 122.329 419.114C116.843 403.89 106.421 396.726 97.6436 396.726H50.4675V626.88H0Z" fill="url(#paint1_linear_184_3544)"/>
<path fill-rule="evenodd" clip-rule="evenodd" d="M503.939 160.302L561.538 626.88H598.017L642.629 265.5L643 0H634.771L580.463 454.936H579.092L524.784 0H453.472V626.88H503.939V213.139L502.019 160.302H503.939Z" fill="url(#paint2_linear_184_3544)"/>
<defs>
<linearGradient id="paint0_linear_184_3544" x1="96.5465" y1="0" x2="96.5465" y2="626.88" gradientUnits="userSpaceOnUse">
<stop stop-color="white"/>
<stop offset="0.495771" stop-color="#1736D2"/>
</linearGradient>
<linearGradient id="paint1_linear_184_3544" x1="96.5465" y1="0" x2="96.5465" y2="626.88" gradientUnits="userSpaceOnUse">
<stop stop-color="white"/>
<stop offset="0.495771" stop-color="#1736D2"/>
</linearGradient>
<linearGradient id="paint2_linear_184_3544" x1="96.5465" y1="0" x2="96.5465" y2="626.88" gradientUnits="userSpaceOnUse">
<stop stop-color="white"/>
<stop offset="0.495771" stop-color="#1736D2"/>
</linearGradient>
</defs>
</svg>
