<svg width="117" height="122" viewBox="0 0 117 122" fill="none" xmlns="http://www.w3.org/2000/svg">
<path d="M7.1941 84.4673C-6.33086 54.087 0.712956 21.4947 34.6909 6.36814C80.6612 -14.0973 101.9 25.5415 101.9 25.5415L73.9182 37.9987C73.9182 37.9987 64.0209 18.4565 44.0338 27.3545C26.2454 35.2738 26.8119 53.2223 35.176 72.0101C43.5401 90.798 56.4986 103.23 74.287 95.3105C94.2741 86.4125 86.3754 65.9806 86.3754 65.9806L114.357 53.5234C114.357 53.5234 129.6 95.8315 83.6299 116.297C49.6519 131.424 20.7191 114.848 7.1941 84.4673Z" fill="url(#paint0_linear_123_153)"/>
<defs>
<linearGradient id="paint0_linear_123_153" x1="33.1919" y1="7.03549" x2="-13.7296" y2="109.711" gradientUnits="userSpaceOnUse">
<stop offset="0.835031" stop-color="#1736D2"/>
<stop offset="1"/>
</linearGradient>
</defs>
</svg>
