<svg width="1280" height="572" viewBox="0 0 1280 572" fill="none" xmlns="http://www.w3.org/2000/svg">
<rect x="1.5" y="1.5" width="1277" height="569" fill="black" stroke="white" stroke-width="3"/>
<path d="M1088.99 286C1079.66 286 1071.01 282.072 1063.05 274.215C1055.08 266.147 1048.19 255.636 1042.36 242.684C1036.73 229.731 1032.26 215.187 1028.95 199.049C1025.65 182.699 1024 166.244 1024 149.681C1024 127.599 1026.91 108.17 1032.74 91.3958C1038.57 74.4091 1046.83 60.1827 1057.51 48.7166C1068.2 37.2506 1080.92 28.6511 1095.69 22.918C1110.45 16.9727 1126.87 14 1144.94 14C1162.62 14 1178.84 16.9727 1193.6 22.918C1208.37 28.6511 1221 37.2506 1231.49 48.7166C1242.17 60.1827 1250.43 74.4091 1256.26 91.3958C1262.09 108.17 1265 127.599 1265 149.681C1265 166.244 1263.35 182.699 1260.05 199.049C1256.74 215.187 1252.18 229.731 1246.35 242.684C1240.52 255.636 1233.62 266.147 1225.66 274.215C1217.89 282.072 1209.34 286 1200.01 286H1088.99ZM1128.04 228.351C1129.59 233.023 1131.92 236.526 1135.03 238.862C1138.33 240.985 1141.63 242.047 1144.94 242.047C1148.24 242.047 1151.35 240.985 1154.26 238.862C1157.37 236.738 1159.7 233.553 1161.26 229.307C1163.39 223.574 1165.04 213.063 1166.21 197.775C1167.38 182.275 1167.96 163.802 1167.96 142.356C1167.96 115.814 1167.38 94.8993 1166.21 79.6112C1165.24 64.3232 1163.78 53.8126 1161.84 48.0796C1160.28 42.7713 1157.86 38.8431 1154.55 36.2951C1151.25 33.7471 1147.75 32.4731 1144.06 32.4731C1140.76 32.4731 1137.65 33.5347 1134.74 35.6581C1131.82 37.7814 1129.59 41.0726 1128.04 45.5316C1126.09 51.0523 1124.44 61.4567 1123.08 76.7447C1121.92 91.8204 1121.33 112.735 1121.33 139.489C1121.33 150.319 1121.53 160.511 1121.92 170.066C1122.3 179.408 1122.79 188.008 1123.37 195.864C1123.96 203.508 1124.64 210.091 1125.41 215.611C1126.19 221.132 1127.06 225.379 1128.04 228.351Z" fill="url(#paint0_linear_284_576)"/>
<path d="M909.561 147.897C913.439 146.834 915.378 144.282 915.378 140.242V26.3789C915.378 22.1263 917.317 20 921.196 20H1001.18C1005.06 20 1007 22.1263 1007 26.3789V279.621C1007 283.874 1005.06 286 1001.18 286H918.287C914.409 286 912.47 283.874 912.47 279.621C912.47 272.604 913.439 265.694 915.378 258.89C917.511 251.873 919.838 244.856 922.359 237.839C924.88 230.823 927.11 223.806 929.049 216.789C931.182 209.56 932.248 202.33 932.248 195.101C932.248 186.17 930.406 179.791 926.722 175.964C923.232 171.924 917.802 169.904 910.434 169.904C883.287 169.904 869.713 195.845 869.713 247.727V279.621C869.713 283.874 867.774 286 863.896 286H786.817C782.939 286 781 283.874 781 279.621V26.3789C781 22.1263 782.939 20 786.817 20H866.804C870.683 20 872.622 22.1263 872.622 26.3789V68.7986C872.622 84.9584 871.264 99.7362 868.55 113.132C866.029 126.315 863.12 139.285 859.824 152.043C856.721 164.801 853.813 177.771 851.098 190.954C848.383 203.925 846.832 218.384 846.444 234.331C846.444 237.733 847.995 239.434 851.098 239.434C853.619 239.434 855.073 237.627 855.461 234.012C856.236 220.829 857.691 209.347 859.824 199.566C862.151 189.785 865.447 181.492 869.713 174.688C873.979 167.671 879.311 162.037 885.71 157.784C892.303 153.319 900.254 150.023 909.561 147.897Z" fill="url(#paint1_linear_284_576)"/>
<path d="M670.895 26.74C670.895 22.4934 672.942 20.37 677.035 20.37H756.86C760.953 20.37 763 22.4934 763 26.74V279.63C763 283.877 760.953 286 756.86 286H677.035C672.942 286 670.895 283.877 670.895 279.63V171.658C664.657 183.549 656.177 192.573 645.456 198.731C634.93 204.888 623.039 208.286 609.784 208.923C599.062 209.347 589.023 208.498 579.667 206.375C570.505 204.251 562.415 200.111 555.398 193.953C548.575 187.583 543.02 178.984 538.731 168.155C534.443 157.113 531.811 143.099 530.836 126.112C530.446 114.859 530.544 104.03 531.129 93.6253C531.713 83.2209 532.201 72.1795 532.591 60.5012C532.786 53.0695 532.103 47.655 530.544 44.2576C528.984 40.6479 525.378 38.3123 519.725 37.2506C517.581 36.8259 515.924 35.7642 514.754 34.0656C513.78 32.3669 513.195 30.5621 513 28.651C513 26.74 513.39 24.9352 514.17 23.2365C515.144 21.3255 516.704 20.0515 518.848 19.4145C528.789 15.8048 540.973 14 555.398 14C568.068 14 578.887 15.274 587.854 17.822C596.821 20.1577 604.033 24.192 609.491 29.9251C615.144 35.6581 619.14 43.1959 621.48 52.5386C623.819 61.8813 624.696 73.3474 624.111 86.9368C623.916 92.4574 623.721 98.9336 623.526 106.365C623.526 113.797 623.429 119.955 623.234 124.838C623.039 131.845 623.039 138.215 623.234 143.948C623.429 149.682 623.916 154.565 624.696 158.6C625.671 162.634 627.133 165.819 629.082 168.155C631.031 170.278 633.663 171.34 636.977 171.34C643.214 171.34 648.965 168.473 654.228 162.74C659.491 156.795 663.195 148.514 665.339 137.897C666.704 131.102 667.776 123.246 668.556 114.328C669.335 105.41 669.92 96.0671 670.31 86.2998C670.7 76.3201 670.895 66.2342 670.895 56.0421C670.895 45.8501 670.895 36.0827 670.895 26.74Z" fill="url(#paint2_linear_284_576)"/>
<path d="M325.985 286C316.66 286 308.015 282.072 300.05 274.215C292.084 266.147 285.187 255.636 279.359 242.684C273.725 229.731 269.257 215.187 265.954 199.049C262.651 182.699 261 166.244 261 149.681C261 127.599 263.914 108.17 269.742 91.3958C275.571 74.4091 283.827 60.1827 294.513 48.7166C305.198 37.2506 317.923 28.6511 332.688 22.918C347.453 16.9727 363.869 14 381.937 14C399.616 14 415.838 16.9727 430.603 22.918C445.368 28.6511 457.996 37.2506 468.487 48.7166C479.172 60.1827 487.429 74.4091 493.258 91.3958C499.086 108.17 502 127.599 502 149.681C502 166.244 500.349 182.699 497.046 199.049C493.743 215.187 489.178 229.731 483.349 242.684C477.521 255.636 470.624 266.147 462.659 274.215C454.888 282.072 446.34 286 437.014 286H325.985ZM365.035 228.351C366.589 233.023 368.921 236.526 372.029 238.862C375.332 240.985 378.634 242.047 381.937 242.047C385.24 242.047 388.348 240.985 391.262 238.862C394.371 236.738 396.702 233.553 398.256 229.307C400.393 223.574 402.045 213.063 403.21 197.775C404.376 182.275 404.959 163.802 404.959 142.356C404.959 115.814 404.376 94.8993 403.21 79.6112C402.239 64.3232 400.782 53.8126 398.839 48.0796C397.285 42.7713 394.857 38.8431 391.554 36.2951C388.251 33.7471 384.754 32.4731 381.063 32.4731C377.76 32.4731 374.652 33.5347 371.738 35.6581C368.823 37.7814 366.589 41.0726 365.035 45.5316C363.092 51.0523 361.441 61.4567 360.081 76.7447C358.915 91.8204 358.333 112.735 358.333 139.489C358.333 150.319 358.527 160.511 358.915 170.066C359.304 179.408 359.79 188.008 360.372 195.864C360.955 203.508 361.635 210.091 362.412 215.611C363.189 221.132 364.064 225.379 365.035 228.351Z" fill="url(#paint3_linear_284_576)"/>
<path d="M174.936 286H89.064C85.1828 286 83.2422 283.874 83.2422 279.621C83.6303 262.823 84.6976 244.75 86.4442 225.4C88.1907 205.839 90.0343 186.489 91.9749 167.353C93.9155 148.216 95.565 130.036 96.9235 112.813C98.476 95.3773 99.2522 80.3869 99.2522 67.8417C99.2522 55.7218 98.3789 47.4293 96.6324 42.964C95.0799 38.2862 92.4601 35.9472 88.7729 35.9472C85.0857 35.9472 82.3689 37.8609 80.6223 41.6883C79.0699 45.5156 77.7114 50.4061 76.5471 56.3597C75.5767 62.1007 74.3153 68.3733 72.7629 75.1775C71.4044 81.9816 68.8816 88.3605 65.1945 94.3142C61.5073 100.055 56.2677 104.839 49.4755 108.667C42.6834 112.494 33.5625 114.408 22.1129 114.408C18.0376 114.408 16 112.281 16 108.029V26.3789C16 22.1263 18.0376 20 22.1129 20H241.887C245.962 20 248 22.1263 248 26.3789V108.029C248 112.281 245.962 114.408 241.887 114.408C230.437 114.408 221.317 112.494 214.524 108.667C207.732 104.839 202.493 100.055 198.806 94.3142C195.118 88.3605 192.499 81.9816 190.946 75.1775C189.588 68.3733 188.326 62.1007 187.162 56.3597C186.192 50.4061 184.93 45.5156 183.378 41.6883C181.825 37.8609 179.108 35.9472 175.227 35.9472C171.54 35.9472 168.823 38.2862 167.077 42.964C165.524 47.4293 164.748 55.7218 164.748 67.8417C164.748 80.3869 165.524 95.3773 167.077 112.813C168.629 130.036 170.279 148.216 172.025 167.353C173.966 186.489 175.809 205.839 177.556 225.4C179.302 244.75 180.37 262.823 180.758 279.621C180.758 283.874 178.817 286 174.936 286Z" fill="url(#paint4_linear_284_576)"/>
<path d="M1214.3 561H1154.7C1152.01 561 1150.66 559.121 1150.66 555.365C1150.93 540.524 1151.67 524.557 1152.89 507.463C1154.1 490.181 1155.38 473.086 1156.72 456.18C1158.07 439.273 1159.22 423.212 1160.16 407.996C1161.24 392.593 1161.77 379.349 1161.77 368.266C1161.77 357.559 1161.17 350.233 1159.96 346.288C1158.88 342.155 1157.06 340.089 1154.5 340.089C1151.94 340.089 1150.06 341.779 1148.85 345.161C1147.77 348.542 1146.83 352.863 1146.02 358.122C1145.34 363.194 1144.47 368.736 1143.39 374.747C1142.45 380.758 1140.7 386.394 1138.14 391.653C1135.58 396.725 1131.94 400.952 1127.23 404.333C1122.52 407.715 1116.19 409.405 1108.24 409.405C1105.41 409.405 1104 407.527 1104 403.77V331.636C1104 327.879 1105.41 326 1108.24 326H1260.76C1263.59 326 1265 327.879 1265 331.636V403.77C1265 407.527 1263.59 409.405 1260.76 409.405C1252.81 409.405 1246.48 407.715 1241.77 404.333C1237.06 400.952 1233.42 396.725 1230.86 391.653C1228.3 386.394 1226.48 380.758 1225.41 374.747C1224.46 368.736 1223.59 363.194 1222.78 358.122C1222.11 352.863 1221.23 348.542 1220.15 345.161C1219.08 341.779 1217.19 340.089 1214.5 340.089C1211.94 340.089 1210.05 342.155 1208.84 346.288C1207.76 350.233 1207.23 357.559 1207.23 368.266C1207.23 379.349 1207.76 392.593 1208.84 407.996C1209.92 423.212 1211.06 439.273 1212.28 456.18C1213.62 473.086 1214.9 490.181 1216.11 507.463C1217.33 524.557 1218.07 540.524 1218.34 555.365C1218.34 559.121 1216.99 561 1214.3 561Z" fill="url(#paint5_linear_284_576)"/>
<path d="M989.199 416.211C983.89 412.651 978.717 409.56 973.679 406.937C968.642 404.126 964.15 400.941 960.202 397.382C956.254 393.822 953.054 389.607 950.604 384.735C948.29 379.677 947.132 373.119 947.132 365.063C947.132 354.384 949.174 346.328 953.259 340.895C957.343 335.461 962.38 331.621 968.37 329.372C974.496 327.124 980.895 326 987.566 326C994.372 326 1000.43 326 1005.74 326H1091.92C1094.64 326 1096 327.874 1096 331.621V554.759C1096 558.506 1094.64 560.379 1091.92 560.379H1035.76C1033.04 560.379 1031.67 558.506 1031.67 554.759V541.831C1031.54 529.466 1031.13 517.101 1030.45 504.735C1029.9 492.37 1028.48 481.129 1026.16 471.012C1024.39 463.143 1022.28 457.054 1019.83 452.745C1017.38 448.436 1014.79 446.281 1012.07 446.281C1009.89 446.281 1008.39 447.686 1007.58 450.496C1006.76 453.119 1006.35 456.586 1006.35 460.895C1006.35 464.267 1006.49 468.108 1006.76 472.417C1007.17 476.726 1007.58 481.222 1007.99 485.906C1008.39 490.59 1008.74 495.368 1009.01 500.239C1009.42 504.923 1009.62 509.419 1009.62 513.728C1009.62 532.276 1005.67 545.672 997.776 553.916C990.016 561.972 977.559 566 960.406 566C950.332 566 941.891 564.407 935.084 561.222C933.723 560.66 932.702 559.63 932.021 558.131C931.34 556.445 931 554.759 931 553.073C931.136 551.199 931.545 549.607 932.225 548.295C933.042 546.796 934.199 545.86 935.697 545.485C939.645 544.548 942.095 542.581 943.048 539.583C944.137 536.398 944.682 531.527 944.682 524.97C944.682 509.607 944.75 495.461 944.886 482.534C945.158 469.607 946.452 458.834 948.766 450.215C954.212 429.981 966.6 419.864 985.932 419.864C987.429 419.864 988.859 420.052 990.22 420.426C991.582 420.614 992.262 420.239 992.262 419.302C992.262 418.553 991.241 417.522 989.199 416.211ZM1031.67 344.829C1031.67 341.457 1030.31 339.771 1027.59 339.771C1022.28 339.771 1017.86 340.52 1014.32 342.019C1010.91 343.33 1008.26 345.297 1006.35 347.92C1004.45 350.543 1003.09 353.728 1002.27 357.475C1001.59 361.222 1001.25 365.438 1001.25 370.122C1001.25 377.616 1002.06 384.267 1003.7 390.075C1005.47 395.696 1007.65 401.129 1010.23 406.375C1012.82 411.621 1015.68 417.054 1018.81 422.674C1021.94 428.295 1025 434.665 1028 441.785C1029.22 444.595 1030.11 446 1030.65 446C1031.33 446 1031.67 444.22 1031.67 440.66V344.829Z" fill="url(#paint6_linear_284_576)"/>
<path d="M876.981 561H817.019C814.309 561 812.954 559.121 812.954 555.365C813.225 540.524 813.97 524.557 815.189 507.463C816.409 490.181 817.696 473.086 819.051 456.18C820.407 439.273 821.558 423.212 822.507 407.996C823.591 392.593 824.133 379.349 824.133 368.266C824.133 357.559 823.523 350.233 822.304 346.288C821.22 342.155 819.39 340.089 816.816 340.089C814.241 340.089 812.344 341.779 811.124 345.161C810.04 348.542 809.092 352.863 808.279 358.122C807.601 363.194 806.72 368.736 805.636 374.747C804.688 380.758 802.926 386.394 800.351 391.653C797.777 396.725 794.118 400.952 789.375 404.333C784.632 407.715 778.263 409.405 770.269 409.405C767.423 409.405 766 407.527 766 403.77V331.636C766 327.879 767.423 326 770.269 326H923.731C926.577 326 928 327.879 928 331.636V403.77C928 407.527 926.577 409.405 923.731 409.405C915.737 409.405 909.368 407.715 904.625 404.333C899.882 400.952 896.223 396.725 893.649 391.653C891.074 386.394 889.245 380.758 888.161 374.747C887.212 368.736 886.331 363.194 885.518 358.122C884.841 352.863 883.96 348.542 882.876 345.161C881.792 341.779 879.895 340.089 877.184 340.089C874.61 340.089 872.713 342.155 871.493 346.288C870.409 350.233 869.867 357.559 869.867 368.266C869.867 379.349 870.409 392.593 871.493 407.996C872.577 423.212 873.729 439.273 874.949 456.18C876.304 473.086 877.591 490.181 878.811 507.463C880.03 524.557 880.775 540.524 881.046 555.365C881.046 559.121 879.691 561 876.981 561Z" fill="url(#paint7_linear_284_576)"/>
<path d="M686.565 528.878C686.834 535.452 688.112 540.149 690.399 542.966C692.686 545.596 695.714 546.911 699.481 546.911C704.19 546.911 707.823 545.221 710.379 541.839C712.936 538.458 715.089 534.231 716.838 529.16C718.587 523.9 720.201 518.264 721.681 512.253C723.161 506.242 725.112 500.7 727.534 495.628C729.956 490.369 733.185 486.048 737.222 482.667C741.258 479.285 746.64 477.595 753.367 477.595C755.789 477.595 757 479.473 757 483.23V555.365C757 559.121 755.789 561 753.367 561H628.036C625.345 561 624 559.121 624 555.365V331.636C624 327.879 625.345 326 628.036 326H751.147C755.049 326 757 328.818 757 334.453C757 345.161 755.318 354.271 751.954 361.785C748.725 369.112 744.622 375.404 739.643 380.664C734.8 385.924 729.485 390.339 723.7 393.908C717.914 397.477 712.532 400.764 707.554 403.77C702.71 406.588 698.606 409.405 695.243 412.223C692.014 415.041 690.399 418.234 690.399 421.803C690.399 424.058 691.005 425.936 692.215 427.439C693.426 428.942 695.041 429.693 697.059 429.693C699.077 429.693 701.432 428.942 704.123 427.439C706.814 425.748 709.505 424.058 712.196 422.367C714.887 420.488 717.443 418.798 719.865 417.295C722.421 415.604 724.507 414.759 726.121 414.759C728.812 414.759 730.158 417.107 730.158 421.803V472.523C730.158 473.838 729.62 475.247 728.543 476.749C727.601 478.064 726.256 479.285 724.507 480.412C722.892 481.54 721.009 482.479 718.856 483.23C716.703 483.794 714.55 484.076 712.398 484.076C704.863 484.076 698.27 480.882 692.619 474.495C686.968 467.92 683.066 459.279 680.914 448.572C681.99 461.721 682.999 475.153 683.941 488.866C685.017 502.579 685.892 515.916 686.565 528.878ZM679.299 428.284C679.703 419.08 681.25 411.472 683.941 405.46C686.766 399.449 689.794 394.002 693.023 389.118C696.252 384.233 699.145 379.349 701.701 374.465C704.257 369.393 705.536 363.382 705.536 356.432C705.536 345.536 700.961 340.089 691.812 340.089C686.026 340.089 681.99 342.437 679.703 347.133C677.55 351.641 676.473 360.001 676.473 372.211C676.473 379.349 676.743 387.709 677.281 397.289C677.819 406.869 678.492 417.201 679.299 428.284Z" fill="url(#paint8_linear_284_576)"/>
<path d="M458.424 561C455.715 561 454.361 559.121 454.361 555.365C454.631 540.524 455.376 525.027 456.595 508.872C457.814 492.529 459.033 476.562 460.252 460.97C461.607 445.191 462.826 430.163 463.909 415.886C464.993 401.61 465.535 388.93 465.535 377.847C465.535 373.902 465.399 370.239 465.128 366.857C464.857 363.476 464.18 360.658 463.097 358.404C462.148 355.962 460.591 354.084 458.424 352.769C456.257 351.454 453.345 350.984 449.688 351.36C447.656 351.548 445.692 352.393 443.796 353.896C441.9 355.211 440.545 357.371 439.733 360.377C439.056 363.006 438.581 366.763 438.311 371.647C438.175 376.344 438.107 382.073 438.107 388.836V555.365C438.107 559.121 436.753 561 434.044 561H371.266C368.422 561 367 559.121 367 555.365V483.23C367 479.473 368.422 477.595 371.266 477.595C379.258 477.595 385.556 479.285 390.161 482.667C394.766 486.048 398.287 490.369 400.725 495.628C403.163 500.7 404.789 506.242 405.601 512.253C406.549 518.264 407.294 523.9 407.836 529.16C408.513 534.231 409.326 538.458 410.274 541.839C411.357 545.221 413.186 546.911 415.759 546.911C418.333 546.911 420.161 545.315 421.245 542.121C422.464 538.74 423.073 534.137 423.073 528.314C423.073 518.734 421.719 510.375 419.01 503.236C416.437 496.098 413.118 489.523 409.055 483.512C404.992 477.501 400.658 471.677 396.052 466.042C391.447 460.406 387.113 454.395 383.05 448.008C378.987 441.434 375.601 434.201 372.892 426.312C370.318 418.422 369.032 409.124 369.032 398.416C369.032 388.836 370.115 379.725 372.282 371.084C374.585 362.255 377.768 354.553 381.831 347.978C385.894 341.216 390.702 335.862 396.256 331.917C401.944 327.972 408.175 326 414.947 326H563.053C569.825 326 575.988 327.972 581.541 331.917C587.23 335.862 592.106 341.216 596.169 347.978C600.232 354.553 603.347 362.255 605.515 371.084C607.817 379.725 608.968 388.836 608.968 398.416C608.968 409.124 607.614 418.422 604.905 426.312C602.332 434.201 599.013 441.434 594.95 448.008C590.887 454.395 586.553 460.406 581.948 466.042C577.343 471.677 573.008 477.501 568.945 483.512C564.882 489.523 561.496 496.098 558.787 503.236C556.213 510.375 554.927 518.734 554.927 528.314C554.927 534.137 555.469 538.74 556.552 542.121C557.771 545.315 559.667 546.911 562.241 546.911C564.814 546.911 566.575 545.221 567.523 541.839C568.606 538.458 569.419 534.231 569.961 529.16C570.638 523.9 571.383 518.264 572.196 512.253C573.144 506.242 574.837 500.7 577.275 495.628C579.713 490.369 583.234 486.048 587.839 482.667C592.444 479.285 598.742 477.595 606.734 477.595C609.578 477.595 611 479.473 611 483.23V555.365C611 559.121 609.578 561 606.734 561H543.956C541.247 561 539.893 559.121 539.893 555.365V388.836C539.893 382.073 539.757 376.344 539.486 371.647C539.351 366.763 538.945 363.006 538.267 360.377C537.455 357.371 536.1 355.117 534.204 353.614C532.443 352.111 530.479 351.36 528.312 351.36C524.384 351.172 521.269 351.735 518.967 353.05C516.8 354.177 515.107 355.962 513.888 358.404C512.804 360.846 512.059 363.758 511.653 367.139C511.382 370.333 511.246 373.902 511.246 377.847C511.246 388.93 511.788 401.61 512.872 415.886C513.955 430.163 515.107 445.191 516.326 460.97C517.68 476.562 518.967 492.529 520.186 508.872C521.405 525.027 522.15 540.524 522.42 555.365C522.42 559.121 521.066 561 518.357 561H458.424Z" fill="url(#paint9_linear_284_576)"/>
<path d="M290.058 504.645C290.058 500.888 288.706 499.01 286.003 499.01H270.997C268.294 499.01 266.942 500.888 266.942 504.645V555.365C266.942 559.121 265.59 561 262.887 561H202.258C199.419 561 198 559.121 198 555.365V488.866C198 485.109 199.352 483.23 202.055 483.23H204.083C206.787 483.23 208.139 485.109 208.139 488.866V527.751C208.139 533.762 208.814 538.458 210.166 541.839C211.653 545.221 213.681 546.911 216.249 546.911C221.116 546.911 223.549 540.712 223.549 528.314C223.549 518.734 222.941 510.375 221.724 503.236C220.643 496.098 219.223 489.523 217.466 483.512C215.709 477.501 213.816 471.677 211.788 466.042C209.761 460.406 207.868 454.395 206.111 448.008C204.353 441.434 202.867 434.201 201.65 426.312C200.568 418.422 200.028 409.124 200.028 398.416C200.028 388.836 201.109 379.725 203.272 371.084C205.57 362.255 208.747 354.553 212.802 347.978C216.858 341.216 221.657 335.862 227.199 331.917C232.877 327.972 239.095 326 245.854 326H311.146C317.905 326 324.056 327.972 329.598 331.917C335.276 335.862 340.142 341.216 344.198 347.978C348.253 354.553 351.362 362.255 353.525 371.084C355.823 379.725 356.972 388.836 356.972 398.416C356.972 409.124 356.364 418.422 355.147 426.312C354.066 434.201 352.647 441.434 350.889 448.008C349.132 454.395 347.239 460.406 345.212 466.042C343.184 471.677 341.291 477.501 339.534 483.512C337.777 489.523 336.29 496.098 335.073 503.236C333.992 510.375 333.451 518.734 333.451 528.314C333.451 540.712 335.884 546.911 340.751 546.911C343.319 546.911 345.279 545.221 346.631 541.839C348.118 538.458 348.861 533.762 348.861 527.751V488.866C348.861 485.109 350.213 483.23 352.917 483.23H354.945C357.648 483.23 359 485.109 359 488.866V555.365C359 559.121 357.581 561 354.742 561H294.113C291.41 561 290.058 559.121 290.058 555.365V504.645ZM266.942 479.285C266.942 483.042 268.294 484.921 270.997 484.921H286.003C288.706 484.921 290.058 483.042 290.058 479.285V388.836C290.058 382.073 289.923 376.344 289.652 371.647C289.517 366.763 289.112 363.006 288.436 360.377C287.625 357.183 286.273 354.835 284.38 353.332C282.623 351.829 280.663 351.078 278.5 351.078C276.472 351.078 274.512 351.829 272.62 353.332C270.727 354.835 269.375 357.183 268.564 360.377C267.888 363.006 267.415 366.763 267.145 371.647C267.01 376.344 266.942 382.073 266.942 388.836V479.285Z" fill="url(#paint10_linear_284_576)"/>
<path d="M126.096 519.467C125.961 510.31 125.084 502.741 123.465 496.761C121.982 490.781 120.026 485.922 117.598 482.184C115.17 478.447 112.472 475.643 109.504 473.775C106.671 471.906 103.839 470.411 101.006 469.289C98.9825 468.355 96.6893 467.794 94.1263 467.608C91.6982 467.234 89.1353 467.047 86.4374 467.047C83.7396 467.047 82.3906 465.178 82.3906 461.441V457.516C82.3906 453.965 83.7396 452.003 86.4374 451.629C92.6425 451.069 98.0382 448.733 102.625 444.621C107.346 440.51 111.19 435.277 114.158 428.923C117.26 422.383 119.419 415.094 120.633 407.058C121.982 399.022 122.386 390.8 121.847 382.39C121.847 373.233 120.633 365.664 118.205 359.684C115.777 353.704 112.809 350.714 109.302 350.714C105.929 350.714 103.029 352.116 100.601 354.919C98.1731 357.722 96.0823 361.46 94.3287 366.132C92.575 370.617 91.0912 375.756 89.8772 381.549C88.7981 387.342 87.9212 393.136 87.2468 398.929C86.7072 404.722 86.3025 410.329 86.0327 415.748C85.8979 421.168 85.8979 425.746 86.0327 429.484C86.0327 431.913 84.6164 433.128 81.7836 433.128H25.7357C22.9029 433.128 21.4865 431.913 21.4865 429.484V332.493C21.4865 328.569 22.9029 326.606 25.7357 326.606H82.9977C85.8304 326.606 87.2468 328.569 87.2468 332.493C87.2468 336.418 86.37 339.688 84.6164 342.304C82.8628 344.734 80.9068 348.098 78.7485 352.396C76.5903 356.694 74.6343 362.861 72.8807 370.897C71.1271 378.933 70.2503 390.426 70.2503 405.376C70.2503 407.245 71.3294 408.18 73.4877 408.18C75.646 408.18 76.7251 407.152 76.7251 405.096C76.7251 376.69 81.5138 355.573 91.0912 341.744C100.804 327.915 113.956 321 130.547 321C137.562 321 144.104 322.589 150.174 325.765C156.379 328.756 161.775 332.96 166.361 338.38C170.948 343.799 174.522 350.153 177.085 357.442C179.783 364.543 181.132 372.299 181.132 380.708C181.132 390.426 179.783 399.116 177.085 406.778C174.522 414.44 171.083 421.355 166.766 427.522C162.584 433.689 157.661 439.202 151.995 444.061C146.465 448.92 140.799 453.405 134.999 457.516C141.474 460.132 147.814 462.936 154.019 465.926C160.224 468.729 165.754 472.28 170.611 476.578C175.602 480.876 179.581 486.296 182.549 492.836C185.516 499.19 187 507.133 187 516.664C187 525.26 185.584 532.455 182.751 538.248C180.053 544.042 176.411 548.807 171.825 552.545C167.238 556.095 162.045 558.805 156.244 560.674C150.444 562.543 144.509 563.851 138.439 564.598C132.503 565.346 126.703 565.72 121.037 565.72C115.372 565.907 110.381 566 106.064 566C88.798 566 74.2971 564.972 62.5614 562.916C50.8257 560.861 41.3158 557.871 34.0316 553.946C26.8823 550.022 21.7563 545.256 18.6538 539.65C15.5513 534.043 14 527.69 14 520.588C14 513.113 15.4838 506.572 18.4515 500.966C21.4191 495.172 25.4659 490.407 30.5918 486.669C35.7177 482.932 41.5856 480.129 48.1953 478.26C54.94 476.391 62.0893 475.457 69.6433 475.457C71.6667 475.457 73.7575 475.55 75.9158 475.737C78.209 475.924 80.5021 476.204 82.7953 476.578C85.4932 477.138 86.8421 479.101 86.8421 482.465C86.8421 484.333 86.5049 486.015 85.8304 487.51C85.156 488.818 84.0768 489.659 82.593 490.033C80.2998 490.594 78.3439 493.023 76.7251 497.322C75.2413 501.433 74.4994 507.133 74.4994 514.421C74.4994 519.654 74.9715 524.513 75.9158 528.998C76.86 533.483 78.4113 537.407 80.5696 540.771C82.7279 544.135 85.5606 546.845 89.0678 548.9C92.575 550.769 96.8916 551.704 102.018 551.704C105.66 551.704 108.965 550.863 111.932 549.181C114.9 547.312 117.463 544.883 119.621 541.892C121.779 538.902 123.398 535.538 124.477 531.801C125.556 527.876 126.096 523.765 126.096 519.467Z" fill="url(#paint11_linear_284_576)"/>
<defs>
<linearGradient id="paint0_linear_284_576" x1="1146.1" y1="-39.4421" x2="1146.1" y2="206.593" gradientUnits="userSpaceOnUse">
<stop stop-color="white"/>
<stop offset="1" stop-color="#1736D2"/>
</linearGradient>
<linearGradient id="paint1_linear_284_576" x1="895.503" y1="-32.2633" x2="895.503" y2="208.345" gradientUnits="userSpaceOnUse">
<stop stop-color="white"/>
<stop offset="1" stop-color="#1736D2"/>
</linearGradient>
<linearGradient id="paint2_linear_284_576" x1="639.663" y1="-39.4421" x2="639.663" y2="206.593" gradientUnits="userSpaceOnUse">
<stop stop-color="white"/>
<stop offset="1" stop-color="#1736D2"/>
</linearGradient>
<linearGradient id="paint3_linear_284_576" x1="383.103" y1="-39.4421" x2="383.103" y2="206.593" gradientUnits="userSpaceOnUse">
<stop stop-color="white"/>
<stop offset="1" stop-color="#1736D2"/>
</linearGradient>
<linearGradient id="paint4_linear_284_576" x1="133.543" y1="-32.2633" x2="133.543" y2="208.345" gradientUnits="userSpaceOnUse">
<stop stop-color="white"/>
<stop offset="1" stop-color="#1736D2"/>
</linearGradient>
<linearGradient id="paint5_linear_284_576" x1="1184.5" y1="450.977" x2="1184.5" y2="569.237" gradientUnits="userSpaceOnUse">
<stop offset="0.207858" stop-color="#1736D2"/>
<stop offset="1" stop-color="white"/>
</linearGradient>
<linearGradient id="paint6_linear_284_576" x1="1013.5" y1="453.636" x2="1013.5" y2="574.412" gradientUnits="userSpaceOnUse">
<stop offset="0.207858" stop-color="#1736D2"/>
<stop offset="1" stop-color="white"/>
</linearGradient>
<linearGradient id="paint7_linear_284_576" x1="847" y1="450.977" x2="847" y2="569.237" gradientUnits="userSpaceOnUse">
<stop offset="0.207858" stop-color="#1736D2"/>
<stop offset="1" stop-color="white"/>
</linearGradient>
<linearGradient id="paint8_linear_284_576" x1="690.5" y1="450.977" x2="690.5" y2="569.237" gradientUnits="userSpaceOnUse">
<stop offset="0.207858" stop-color="#1736D2"/>
<stop offset="1" stop-color="white"/>
</linearGradient>
<linearGradient id="paint9_linear_284_576" x1="489" y1="450.977" x2="489" y2="569.237" gradientUnits="userSpaceOnUse">
<stop offset="0.207858" stop-color="#1736D2"/>
<stop offset="1" stop-color="white"/>
</linearGradient>
<linearGradient id="paint10_linear_284_576" x1="278.5" y1="450.977" x2="278.5" y2="569.237" gradientUnits="userSpaceOnUse">
<stop offset="0.207858" stop-color="#1736D2"/>
<stop offset="1" stop-color="white"/>
</linearGradient>
<linearGradient id="paint11_linear_284_576" x1="100.5" y1="451.295" x2="100.5" y2="574.587" gradientUnits="userSpaceOnUse">
<stop offset="0.207858" stop-color="#1736D2"/>
<stop offset="1" stop-color="white"/>
</linearGradient>
</defs>
</svg>
