<svg width="1280" height="572" viewBox="0 0 1280 572" fill="none" xmlns="http://www.w3.org/2000/svg">
<rect x="1.5" y="1.5" width="1277" height="569" fill="black" stroke="white" stroke-width="3"/>
<path d="M1043.29 569C1035.84 569 1030.55 562.659 1027.41 549.977C1024.47 537.294 1023 517.003 1023 489.102C1023 447.885 1026.63 408.728 1033.88 371.633C1035.64 362.438 1038.49 355.78 1042.41 351.658C1046.52 347.219 1052.21 345 1059.46 345C1063.38 345 1066.13 345.793 1067.69 347.378C1069.26 348.963 1070.05 351.975 1070.05 356.414C1070.05 361.487 1068.58 372.901 1065.64 390.656C1063.68 403.338 1062.11 414.435 1060.93 423.947C1059.76 433.142 1058.78 444.714 1057.99 458.665C1063.28 433.934 1069.56 413.008 1076.81 395.887C1084.26 378.766 1091.81 366.084 1099.45 357.841C1107.29 349.28 1114.64 345 1121.51 345C1128.37 345 1133.17 347.536 1135.91 352.609C1138.85 357.682 1140.32 365.45 1140.32 375.913C1140.32 386.059 1138.46 404.448 1134.74 431.081C1133.17 442.495 1132.09 451.055 1131.5 456.762C1141.3 417.764 1152.18 389.388 1164.14 371.633C1176.1 353.878 1187.27 345 1197.66 345C1210.41 345 1216.78 355.304 1216.78 375.913C1216.78 388.278 1214.62 410.631 1210.31 442.97C1206.58 470.554 1204.72 488.785 1204.72 497.662C1204.72 510.345 1207.56 516.686 1213.25 516.686C1217.17 516.686 1221.78 512.881 1227.07 505.272C1232.56 497.345 1239.81 484.663 1248.83 467.225C1251.18 462.786 1253.83 460.567 1256.77 460.567C1259.32 460.567 1261.28 462.469 1262.65 466.274C1264.22 470.079 1265 475.31 1265 481.968C1265 494.65 1263.14 504.479 1259.41 511.454C1250.98 528.258 1241.87 542.05 1232.07 552.83C1222.46 563.61 1211.48 569 1199.13 569C1189.14 569 1181.59 564.403 1176.49 555.208C1171.4 545.696 1168.85 532.063 1168.85 514.308C1168.85 505.43 1170.22 489.578 1172.96 466.749C1175.51 446.775 1176.79 432.983 1176.79 425.374C1176.79 420.301 1175.71 417.764 1173.55 417.764C1171 417.764 1167.38 423.154 1162.67 433.934C1157.97 444.397 1153.26 458.347 1148.56 475.786C1143.85 493.224 1140.03 511.613 1137.09 530.953C1134.93 546.172 1132.39 556.318 1129.44 561.391C1126.7 566.464 1122.19 569 1115.92 569C1109.45 569 1104.55 564.086 1101.22 554.257C1098.08 544.111 1096.51 531.904 1096.51 517.637C1096.51 505.589 1097.49 488.151 1099.45 465.323C1101.02 445.031 1101.8 431.715 1101.8 425.374C1101.8 420.301 1100.73 417.764 1098.57 417.764C1095.63 417.764 1091.9 423.471 1087.4 434.885C1082.89 446.299 1078.48 460.884 1074.16 478.639C1070.05 496.394 1066.71 513.832 1064.17 530.953C1062.01 545.855 1059.46 556.001 1056.52 561.391C1053.78 566.464 1049.37 569 1043.29 569Z" fill="url(#paint0_linear_284_560)"/>
<path d="M1037.78 460.797C1040.32 460.797 1042.28 462.695 1043.65 466.492C1045.22 470.288 1046 475.508 1046 482.153C1046 494.808 1044.14 504.616 1040.42 511.576C1030.24 530.876 1020.46 545.271 1011.06 554.763C1001.67 564.254 992.371 569 983.171 569C975.147 569 968.981 564.412 964.675 555.237C960.369 546.062 958.216 532.932 958.216 515.847C958.216 506.672 958.803 496.706 959.978 485.949H959.39C941.188 541.316 917.994 569 889.809 569C877.674 569 867.79 563.305 860.157 551.915C852.719 540.525 849 525.497 849 506.831C849 490.379 851.251 477.407 855.753 467.915C860.45 458.424 866.811 453.678 874.836 453.678C881.882 453.678 885.405 458.266 885.405 467.441C885.405 468.706 885.21 470.921 884.818 474.085C884.427 479.147 884.231 482.944 884.231 485.475C884.231 495.599 885.601 503.983 888.341 510.627C891.081 517.271 894.8 520.593 899.498 520.593C905.565 520.593 911.731 517.588 917.994 511.576C924.257 505.249 930.423 496.39 936.49 485H932.674C920.93 485 911.535 478.989 904.489 466.966C897.638 454.944 894.213 438.808 894.213 418.559C894.213 395.147 898.421 377.113 906.838 364.458C915.254 351.486 926.998 345 942.069 345C952.638 345 963.501 347.689 974.657 353.068C976.81 348.322 981.312 345.949 988.162 345.949C992.077 345.949 995.111 347.531 997.264 350.695C999.613 353.542 1000.59 357.497 1000.2 362.559C999.808 370.469 998.047 384.548 994.915 404.797C991.979 425.045 989.728 442.446 988.162 457C986.597 471.554 985.814 485.158 985.814 497.814C985.814 503.825 986.499 508.571 987.869 512.051C989.435 515.215 991.588 516.797 994.328 516.797C998.047 516.797 1002.55 513.158 1007.83 505.881C1013.12 498.605 1020.46 485.791 1029.85 467.441C1032.01 463.011 1034.65 460.797 1037.78 460.797ZM952.051 448.458C958.705 429.791 963.99 409.859 967.905 388.661C960.858 385.181 954.595 383.441 949.115 383.441C941.286 383.441 935.218 386.446 930.912 392.458C926.606 398.469 924.453 407.011 924.453 418.085C924.453 426.944 926.215 434.379 929.738 440.39C933.457 446.401 938.056 449.407 943.537 449.407C946.081 449.407 948.919 449.09 952.051 448.458Z" fill="url(#paint1_linear_284_560)"/>
<path d="M665.289 569C657.84 569 652.547 562.659 649.411 549.977C646.47 537.294 645 517.003 645 489.102C645 447.885 648.627 408.728 655.88 371.633C657.644 362.438 660.486 355.78 664.407 351.658C668.524 347.219 674.209 345 681.462 345C685.382 345 688.127 345.793 689.695 347.378C691.263 348.963 692.047 351.975 692.047 356.414C692.047 361.487 690.577 372.901 687.637 390.656C685.676 403.338 684.108 414.435 682.932 423.947C681.756 433.142 680.776 444.714 679.992 458.665C685.284 433.934 691.557 413.008 698.81 395.887C706.26 378.766 713.807 366.084 721.452 357.841C729.293 349.28 736.644 345 743.505 345C750.367 345 755.169 347.536 757.914 352.609C760.854 357.682 762.324 365.45 762.324 375.913C762.324 386.059 760.462 404.448 756.738 431.081C755.169 442.495 754.091 451.055 753.503 456.762C763.305 417.764 774.184 389.388 786.142 371.633C798.1 353.878 809.274 345 819.663 345C832.405 345 838.776 355.304 838.776 375.913C838.776 388.278 836.62 410.631 832.307 442.97C828.583 470.554 826.721 488.785 826.721 497.662C826.721 510.345 829.563 516.686 835.248 516.686C839.168 516.686 843.775 512.881 849.068 505.272C854.557 497.345 861.81 484.663 870.827 467.225C873.18 462.786 875.826 460.567 878.767 460.567C881.315 460.567 883.275 462.469 884.648 466.274C886.216 470.079 887 475.31 887 481.968C887 494.65 885.138 504.479 881.413 511.454C872.984 528.258 863.868 542.05 854.067 552.83C844.461 563.61 833.484 569 821.134 569C811.136 569 803.589 564.403 798.492 555.208C793.395 545.696 790.847 532.063 790.847 514.308C790.847 505.43 792.219 489.578 794.964 466.749C797.512 446.775 798.786 432.983 798.786 425.374C798.786 420.301 797.708 417.764 795.552 417.764C793.003 417.764 789.377 423.154 784.672 433.934C779.967 444.397 775.262 458.347 770.558 475.786C765.853 493.224 762.03 511.613 759.09 530.953C756.934 546.172 754.385 556.318 751.445 561.391C748.7 566.464 744.192 569 737.919 569C731.45 569 726.549 564.086 723.216 554.257C720.08 544.111 718.512 531.904 718.512 517.637C718.512 505.589 719.492 488.151 721.452 465.323C723.02 445.031 723.804 431.715 723.804 425.374C723.804 420.301 722.726 417.764 720.57 417.764C717.629 417.764 713.905 423.471 709.396 434.885C704.887 446.299 700.477 460.884 696.164 478.639C692.047 496.394 688.715 513.832 686.166 530.953C684.01 545.855 681.462 556.001 678.521 561.391C675.777 566.464 671.366 569 665.289 569Z" fill="url(#paint2_linear_284_560)"/>
<path d="M659.755 460.567C662.307 460.567 664.27 462.469 665.644 466.274C667.215 470.079 668 475.31 668 481.968C668 494.65 666.135 504.479 662.405 511.454C655.141 525.722 644.834 538.88 631.485 550.928C618.331 562.976 604.196 569 589.08 569C568.466 569 552.466 559.964 541.08 541.892C529.693 523.82 524 499.089 524 467.701C524 445.824 526.847 425.532 532.54 406.826C538.233 387.803 546.086 372.742 556.098 361.645C566.307 350.548 577.791 345 590.552 345C601.939 345 611.068 350.548 617.939 361.645C624.81 372.425 628.245 387.168 628.245 405.875C628.245 427.752 623.337 446.616 613.521 462.469C603.902 478.005 587.509 490.37 564.344 499.565C569.252 514.149 578.577 521.442 592.319 521.442C601.153 521.442 611.166 516.527 622.356 506.699C633.742 496.553 643.558 483.395 651.804 467.225C654.16 462.786 656.81 460.567 659.755 460.567ZM585.546 391.607C578.282 391.607 572.098 398.424 566.994 412.057C562.086 425.691 559.632 442.178 559.632 461.518V462.469C571.215 458.03 580.344 451.372 587.018 442.495C593.693 433.617 597.031 423.313 597.031 411.582C597.031 405.558 595.951 400.802 593.791 397.314C591.828 393.51 589.08 391.607 585.546 391.607Z" fill="url(#paint3_linear_284_560)"/>
<path d="M543.782 460.797C546.326 460.797 548.282 462.695 549.652 466.492C551.217 470.288 552 475.508 552 482.153C552 495.124 550.141 505.09 546.423 512.051C537.423 529.136 528.618 542.898 520.008 553.339C511.594 563.78 502.3 569 492.125 569C481.755 569 474.319 562.672 469.819 550.017C465.319 537.362 463.068 519.011 463.068 494.966C463.068 474.085 464.634 447.983 467.765 416.661H467.177C462.286 430.266 457.688 445.61 453.383 462.695C449.078 479.78 444.284 500.028 439.001 523.441L434.012 544.797C431.859 554.288 429.316 560.774 426.38 564.254C423.445 567.418 419.923 569 415.814 569C411.51 569 408.379 567.102 406.422 563.305C404.466 559.508 402.705 553.497 401.139 545.271C399.378 535.78 397.911 522.808 396.737 506.356C395.563 489.588 394.976 472.661 394.976 455.576C394.976 445.136 395.269 435.169 395.856 425.678H395.269C390.377 456.367 385.584 481.678 380.887 501.61C376.191 521.226 369.832 537.362 361.81 550.017C353.787 562.356 343.613 568.525 331.285 568.525C320.915 568.525 312.893 562.672 307.218 550.966C301.739 539.26 299 524.548 299 506.831C299 491.011 301.25 477.881 305.751 467.441C310.251 456.684 316.61 451.305 324.828 451.305C332.655 451.305 336.568 455.576 336.568 464.119C336.568 465.701 336.471 466.966 336.275 467.915C334.71 483.102 333.927 493.859 333.927 500.186C333.927 510.944 335.394 516.322 338.329 516.322C341.069 516.322 343.808 513.158 346.548 506.831C349.287 500.186 353.102 485.949 357.994 464.119C364.647 434.695 370.908 404.638 376.778 373.949C378.735 364.141 381.572 357.023 385.29 352.593C389.203 347.847 394.389 345.475 400.846 345.475C406.324 345.475 410.825 347.215 414.347 350.695C418.065 354.175 419.923 359.87 419.923 367.78C419.923 413.655 420.608 448.616 421.978 472.661H422.565C425.891 454.627 431.077 433.904 438.121 410.492C445.165 387.079 450.741 371.734 454.85 364.458C458.568 358.13 462.286 353.384 466.003 350.22C469.917 346.74 474.222 345 478.918 345C485.962 345 490.756 347.531 493.299 352.593C495.843 357.339 497.115 366.356 497.115 379.644C497.115 386.921 497.017 394.198 496.821 401.475C496.626 408.435 496.43 414.921 496.234 420.932C495.452 444.345 495.06 461.746 495.06 473.136C495.06 491.169 495.843 503.35 497.408 509.678C498.974 516.006 501.909 519.169 506.213 519.169C514.04 519.169 523.921 502.559 535.857 469.339C538.01 463.644 540.651 460.797 543.782 460.797Z" fill="url(#paint4_linear_284_560)"/>
<path d="M210.787 569C198.695 569 189.041 561.896 181.824 547.689C174.608 533.482 171 514.855 171 491.808C171 466.55 174.608 442.714 181.824 420.298C189.041 397.567 198.598 379.413 210.495 365.837C222.587 351.946 235.362 345 248.819 345C253.11 345 255.938 346.421 257.303 349.262C258.863 351.788 260.131 356.524 261.106 363.469C265.202 362.206 269.493 361.575 273.979 361.575C283.535 361.575 288.314 367.1 288.314 378.15C288.314 384.78 286.851 400.566 283.926 425.507C279.44 461.815 277.197 487.072 277.197 501.279C277.197 506.015 277.879 509.803 279.245 512.645C280.805 515.486 282.755 516.907 285.096 516.907C288.801 516.907 293.287 513.118 298.553 505.541C303.819 497.648 310.938 485.02 319.91 467.655C322.25 463.235 324.883 461.025 327.809 461.025C330.344 461.025 332.294 462.92 333.66 466.708C335.22 470.497 336 475.706 336 482.336C336 494.965 334.147 504.752 330.441 511.698C322.445 527.799 313.961 541.375 304.989 552.425C296.018 563.475 287.339 569 278.952 569C272.516 569 266.567 565.527 261.106 558.581C255.84 551.32 251.842 541.533 249.112 529.22C238.97 555.74 226.195 569 210.787 569ZM221.319 521.169C225.61 521.169 229.706 517.065 233.606 508.856C237.507 500.648 240.335 489.755 242.09 476.18L252.915 389.042C244.723 389.358 237.117 394.409 230.096 404.197C223.27 413.668 217.809 426.297 213.713 442.082C209.617 457.868 207.569 474.601 207.569 492.281C207.569 502.068 208.739 509.33 211.08 514.066C213.615 518.801 217.028 521.169 221.319 521.169Z" fill="url(#paint5_linear_284_560)"/>
<path d="M186.782 404.725C189.325 404.725 191.282 405.697 192.652 407.641C194.217 409.585 195 412.177 195 415.417C195 422.384 192.261 427.163 186.782 429.755C164.474 440.447 144.711 450.654 127.491 460.374C128.861 464.91 129.546 470.257 129.546 476.413C129.546 491.318 126.122 505.898 119.273 520.155C112.62 534.573 103.619 546.319 92.2696 555.391C81.116 564.464 69.2776 569 56.7543 569C45.992 569 37.6758 566.489 31.8055 561.467C25.9352 556.606 23 549.64 23 540.568C23 526.797 27.9898 513.432 37.9693 500.471C47.9488 487.51 65.4619 472.93 90.5085 456.729C88.7474 454.623 86.3015 452.76 83.1706 451.14C80.2355 449.52 76.2241 447.738 71.1365 445.794C64.0922 443.201 59.0046 440.366 55.8737 437.288C52.7429 434.21 51.1775 430.808 51.1775 427.082C51.1775 421.573 53.1342 417.523 57.0478 414.931C59.0046 413.635 62.2332 412.339 66.7338 411.043C71.43 409.585 74.2674 408.694 75.2457 408.37C84.6382 405.616 92.4653 403.024 98.727 400.594C105.184 398.001 110.761 394.599 115.457 390.387C120.349 386.175 122.795 381.072 122.795 375.077C122.795 371.675 121.621 369.083 119.273 367.301C116.925 365.519 113.011 364.628 107.532 364.628C102.641 364.628 98.4334 365.195 94.9113 366.329C91.5848 367.301 87.7691 368.84 83.4642 370.946C79.942 372.404 77.1047 373.538 74.9522 374.348C72.9954 374.996 70.7452 375.32 68.2014 375.32C60.57 375.32 56.7543 372.242 56.7543 366.086C56.7543 362.036 58.9067 358.229 63.2116 354.665C67.7122 351.1 74.0717 348.265 82.2901 346.159C90.5085 344.053 100.097 343 111.055 343C124.948 343 135.221 345.754 141.874 351.262C148.722 356.771 152.147 363.98 152.147 372.89C152.147 386.499 145.885 397.596 133.362 406.183C121.034 414.769 105.086 421.411 85.5188 426.11C99.2162 429.836 109.489 434.858 116.338 441.176C133.753 430.97 154.984 419.467 180.031 406.669C182.575 405.373 184.825 404.725 186.782 404.725ZM96.3788 479.815C66.6359 500.552 51.7645 519.426 51.7645 536.437C51.7645 542.917 54.504 546.157 59.9829 546.157C64.6792 546.157 69.8646 542.512 75.5393 535.222C81.4096 528.093 86.3015 519.426 90.215 509.219C94.3242 499.013 96.3788 490.021 96.3788 482.245V479.815Z" fill="url(#paint6_linear_284_560)"/>
<path d="M1253.07 128.307C1256.9 128.307 1259.84 130.865 1261.91 135.981C1263.97 141.097 1265 147.591 1265 155.462C1265 174.353 1260.73 185.569 1252.18 189.111C1234.5 197.375 1215.05 202.098 1193.83 203.279C1188.23 236.337 1177.18 262.902 1160.68 282.974C1144.18 302.651 1125.47 312.49 1104.54 312.49C1086.86 312.49 1071.69 306.784 1059.01 295.371C1046.64 283.958 1037.21 268.806 1030.72 249.915C1024.24 231.024 1021 210.56 1021 188.521C1021 158.61 1025.27 132.045 1033.82 108.826C1042.36 85.2124 1054.15 66.9121 1069.18 53.9248C1084.21 40.544 1100.86 33.8535 1119.13 33.8535C1141.53 33.8535 1159.5 44.2827 1173.06 65.1411C1186.91 85.606 1195.01 110.99 1197.37 141.294C1211.22 140.113 1227.72 136.178 1246.88 129.487C1249.23 128.7 1251.3 128.307 1253.07 128.307ZM1108.08 249.915C1117.51 249.915 1125.61 244.799 1132.39 234.566C1139.46 224.334 1144.18 209.576 1146.54 190.292C1137.4 182.027 1130.33 171.204 1125.32 157.823C1120.6 144.442 1118.25 130.274 1118.25 115.319C1118.25 109.022 1118.69 102.726 1119.57 96.4287H1117.36C1105.57 96.4287 1095.7 104.103 1087.75 119.452C1080.08 134.407 1076.25 155.659 1076.25 183.208C1076.25 204.853 1079.35 221.382 1085.54 232.795C1092.02 244.209 1099.53 249.915 1108.08 249.915Z" fill="url(#paint7_linear_284_560)"/>
<path d="M1051.62 178.239C1055.45 178.239 1058.4 180.594 1060.46 185.305C1062.82 190.015 1064 196.492 1064 204.736C1064 220.438 1061.2 232.607 1055.6 241.243C1042.04 262.048 1028.03 279.123 1013.58 292.47C999.433 305.817 983.218 312.49 964.939 312.49C949.608 312.49 938.847 306.209 932.655 293.648C926.464 281.086 923.368 262.244 923.368 237.121C923.368 226.522 924.105 213.764 925.579 198.848C899.635 198.848 881.65 198.455 871.626 197.67C871.037 208.661 870.742 216.316 870.742 220.634V232.999C870.447 257.337 870.005 274.413 869.415 284.227C868.826 294.04 867.057 301.302 864.108 306.013C861.16 310.331 856.295 312.49 849.514 312.49C838.311 312.49 830.351 304.639 825.634 288.937C821.211 273.235 819 248.112 819 213.568C819 162.537 824.454 114.057 835.363 68.1293C838.016 56.7454 842.291 48.5019 848.188 43.3988C854.084 37.9031 862.634 35.1553 873.838 35.1553C879.734 35.1553 883.862 36.1366 886.22 38.0994C888.579 40.0621 889.758 43.7913 889.758 49.287C889.758 55.5677 887.547 69.6994 883.125 91.6821C880.766 104.636 878.555 120.338 876.491 138.788H933.098C936.046 120.338 940.321 96.7852 945.922 68.1293C948.281 56.3528 951.819 47.913 956.536 42.8099C961.548 37.7068 968.919 35.1553 978.648 35.1553C985.429 35.1553 990.146 36.3329 992.8 38.6882C995.453 40.6509 996.78 44.5764 996.78 50.4646C996.78 60.2783 993.094 87.1678 985.724 131.133C977.469 181.379 973.341 212.39 973.341 224.167C973.341 231.625 974.52 237.513 976.879 241.831C979.238 245.757 982.333 247.72 986.166 247.72C992.063 247.72 998.991 243.009 1006.95 233.588C1015.21 223.774 1026.11 208.072 1039.68 186.482C1043.21 180.987 1047.19 178.239 1051.62 178.239Z" fill="url(#paint8_linear_284_560)"/>
<path d="M842.649 178.404C846.472 178.404 849.413 180.767 851.471 185.493C853.824 190.218 855 196.717 855 204.987C855 219.559 852.206 231.767 846.619 241.613C832.798 266.03 815.449 285.131 794.57 298.915C773.692 312.305 752.814 319 731.935 319C706.94 319 687.826 312.108 674.593 298.324C661.655 284.146 655.185 263.273 655.185 235.706C655.185 208.925 661.655 185.493 674.593 165.407C687.826 144.928 706.793 123.268 731.494 100.426C726.201 103.183 719.585 104.561 711.645 104.561C702.235 104.561 694.001 101.214 686.944 94.5185C680.181 87.8235 674.887 77.7809 671.065 64.3908C663.713 108.499 654.156 143.156 642.394 168.361C631.807 191.203 621.809 209.91 612.399 224.481C603.284 238.659 592.697 253.625 580.641 269.378C575.348 276.467 569.761 280.011 563.879 280.011C559.174 280.011 555.352 277.845 552.411 273.513C549.47 268.787 548 263.077 548 256.382C548 248.505 550.058 241.219 554.175 234.524L565.644 216.211C580.053 194.551 590.786 175.647 597.843 159.5C604.313 144.928 610.341 128.781 615.928 111.059C621.809 92.9432 627.838 69.1167 634.013 39.5796C639.6 13.1932 651.657 0 670.182 0C683.415 0 692.678 8.07346 697.971 24.2204C701.206 33.6722 705.176 40.7611 709.881 45.487C714.88 49.8191 722.525 51.9852 732.818 51.9852C737.817 51.9852 742.816 51.1975 747.815 49.6222C752.814 48.0469 757.225 46.2747 761.047 44.3056C765.164 42.3364 767.811 41.155 768.987 40.7611C777.515 36.0352 783.69 33.6722 787.513 33.6722C792.512 33.6722 796.482 35.6414 799.422 39.5796C802.363 43.5179 803.833 49.4253 803.833 57.3018C803.833 75.4179 798.54 89.9895 787.954 101.017C759.43 130.554 739.287 154.183 727.524 171.906C716.056 189.234 710.322 206.562 710.322 223.891C710.322 243.582 719.438 253.428 737.67 253.428C751.49 253.428 767.37 247.52 785.307 235.706C803.245 223.497 818.389 207.153 830.74 186.674C833.975 181.16 837.944 178.404 842.649 178.404Z" fill="url(#paint9_linear_284_560)"/>
<path d="M569.065 128.307C572.896 128.307 575.843 130.865 577.906 135.981C579.969 141.097 581 147.591 581 155.462C581 174.353 576.727 185.569 568.181 189.111C550.5 197.375 531.051 202.098 509.833 203.279C504.234 236.337 493.184 262.902 476.681 282.974C460.179 302.651 441.466 312.49 420.543 312.49C402.862 312.49 387.686 306.784 375.015 295.371C362.638 283.958 353.208 268.806 346.725 249.915C340.242 231.024 337 210.56 337 188.521C337 158.61 341.273 132.045 349.819 108.826C358.365 85.2124 370.152 66.9121 385.181 53.9248C400.21 40.544 416.86 33.8535 435.13 33.8535C457.527 33.8535 475.502 44.2827 489.058 65.1411C502.908 85.606 511.012 110.99 513.37 141.294C527.22 140.113 543.722 136.178 562.877 129.487C565.234 128.7 567.297 128.307 569.065 128.307ZM424.08 249.915C433.51 249.915 441.614 244.799 448.391 234.566C455.464 224.334 460.179 209.576 462.536 190.292C453.401 182.027 446.329 171.204 441.319 157.823C436.604 144.442 434.246 130.274 434.246 115.319C434.246 109.022 434.688 102.726 435.573 96.4287H433.362C421.575 96.4287 411.703 104.103 403.746 119.452C396.085 134.407 392.254 155.659 392.254 183.208C392.254 204.853 395.348 221.382 401.536 232.795C408.019 244.209 415.534 249.915 424.08 249.915Z" fill="url(#paint10_linear_284_560)"/>
<path d="M46.4338 312.49C35.26 312.49 27.3208 304.639 22.616 288.937C18.2053 273.235 16 248.112 16 213.568C16 162.537 21.4399 114.057 32.3196 68.1293C34.966 56.7454 39.2297 48.5019 45.1106 43.3988C51.2855 37.9031 59.8129 35.1553 70.6926 35.1553C76.5735 35.1553 80.6902 36.1366 83.0425 38.0994C85.3949 40.0621 86.5711 43.7913 86.5711 49.287C86.5711 55.5677 84.3657 69.6994 79.955 91.6821C77.0146 107.384 74.6622 121.123 72.8979 132.9C71.1337 144.283 69.6634 158.611 68.4872 175.883C76.4265 145.265 85.836 119.357 96.7157 98.1591C107.889 76.9615 119.21 61.2596 130.678 51.0534C142.44 40.4546 153.467 35.1553 163.758 35.1553C174.05 35.1553 181.254 38.2957 185.371 44.5764C189.781 50.8572 191.987 60.4745 191.987 73.4286C191.987 85.9901 189.193 108.758 183.606 141.732C181.254 155.864 179.637 166.462 178.755 173.528C193.457 125.245 209.776 90.1119 227.713 68.1293C245.65 46.1466 262.411 35.1553 277.995 35.1553C297.108 35.1553 306.665 47.913 306.665 73.4286C306.665 88.738 303.43 116.413 296.961 156.452C291.374 190.604 288.581 213.175 288.581 224.167C288.581 239.869 292.844 247.72 301.372 247.72C307.253 247.72 314.163 243.009 322.102 233.588C330.335 223.774 341.215 208.072 354.741 186.482C358.27 180.987 362.239 178.239 366.65 178.239C370.473 178.239 373.413 180.594 375.471 185.305C377.824 190.015 379 196.492 379 204.736C379 220.438 376.207 232.607 370.62 241.243C357.976 262.048 344.303 279.123 329.6 292.47C315.192 305.817 298.725 312.49 280.201 312.49C265.204 312.49 253.883 306.798 246.238 295.414C238.593 283.638 234.77 266.758 234.77 244.776C234.77 233.784 236.829 214.157 240.945 185.893C244.768 161.163 246.679 144.087 246.679 134.666C246.679 128.385 245.062 125.245 241.827 125.245C238.005 125.245 232.565 131.918 225.508 145.265C218.451 158.219 211.394 175.491 204.337 197.081C197.279 218.671 191.546 241.439 187.135 265.384C183.9 284.227 180.078 296.788 175.667 303.069C171.55 309.35 164.787 312.49 155.378 312.49C145.674 312.49 138.323 306.405 133.324 294.237C128.62 281.675 126.267 266.562 126.267 248.897C126.267 233.981 127.738 212.39 130.678 184.127C133.03 159.004 134.207 142.517 134.207 134.666C134.207 128.385 132.589 125.245 129.355 125.245C124.944 125.245 119.357 132.311 112.594 146.442C105.831 160.574 99.2151 178.631 92.7461 200.614C86.5711 222.597 81.5723 244.187 77.7497 265.384C74.5152 283.834 70.6926 296.396 66.2819 303.069C62.1652 309.35 55.5492 312.49 46.4338 312.49Z" fill="url(#paint11_linear_284_560)"/>
<defs>
<linearGradient id="paint0_linear_284_560" x1="1144" y1="464.127" x2="1144" y2="576.851" gradientUnits="userSpaceOnUse">
<stop offset="0.207858" stop-color="#1736D2"/>
<stop offset="1" stop-color="white"/>
</linearGradient>
<linearGradient id="paint1_linear_284_560" x1="947.5" y1="464.127" x2="947.5" y2="576.851" gradientUnits="userSpaceOnUse">
<stop offset="0.207858" stop-color="#1736D2"/>
<stop offset="1" stop-color="white"/>
</linearGradient>
<linearGradient id="paint2_linear_284_560" x1="766" y1="464.127" x2="766" y2="576.851" gradientUnits="userSpaceOnUse">
<stop offset="0.207858" stop-color="#1736D2"/>
<stop offset="1" stop-color="white"/>
</linearGradient>
<linearGradient id="paint3_linear_284_560" x1="596" y1="464.127" x2="596" y2="576.851" gradientUnits="userSpaceOnUse">
<stop offset="0.207858" stop-color="#1736D2"/>
<stop offset="1" stop-color="white"/>
</linearGradient>
<linearGradient id="paint4_linear_284_560" x1="425.5" y1="464.127" x2="425.5" y2="576.851" gradientUnits="userSpaceOnUse">
<stop offset="0.207858" stop-color="#1736D2"/>
<stop offset="1" stop-color="white"/>
</linearGradient>
<linearGradient id="paint5_linear_284_560" x1="253.5" y1="464.127" x2="253.5" y2="576.851" gradientUnits="userSpaceOnUse">
<stop offset="0.207858" stop-color="#1736D2"/>
<stop offset="1" stop-color="white"/>
</linearGradient>
<linearGradient id="paint6_linear_284_560" x1="109" y1="463.19" x2="109" y2="576.921" gradientUnits="userSpaceOnUse">
<stop offset="0.207858" stop-color="#1736D2"/>
<stop offset="1" stop-color="white"/>
</linearGradient>
<linearGradient id="paint7_linear_284_560" x1="1144.62" y1="-20.8926" x2="1144.62" y2="231.146" gradientUnits="userSpaceOnUse">
<stop stop-color="white"/>
<stop offset="1" stop-color="#1736D2"/>
</linearGradient>
<linearGradient id="paint8_linear_284_560" x1="943.13" y1="-19.335" x2="943.13" y2="231.526" gradientUnits="userSpaceOnUse">
<stop stop-color="white"/>
<stop offset="1" stop-color="#1736D2"/>
</linearGradient>
<linearGradient id="paint9_linear_284_560" x1="703.542" y1="-62.6766" x2="703.542" y2="225.872" gradientUnits="userSpaceOnUse">
<stop stop-color="white"/>
<stop offset="1" stop-color="#1736D2"/>
</linearGradient>
<linearGradient id="paint10_linear_284_560" x1="460.623" y1="-20.8926" x2="460.623" y2="231.146" gradientUnits="userSpaceOnUse">
<stop stop-color="white"/>
<stop offset="1" stop-color="#1736D2"/>
</linearGradient>
<linearGradient id="paint11_linear_284_560" x1="199.914" y1="-19.335" x2="199.914" y2="231.526" gradientUnits="userSpaceOnUse">
<stop stop-color="white"/>
<stop offset="1" stop-color="#1736D2"/>
</linearGradient>
</defs>
</svg>
