<svg width="1280" height="572" viewBox="0 0 1280 572" fill="none" xmlns="http://www.w3.org/2000/svg">
<rect x="1.5" y="1.5" width="1277" height="569" fill="black" stroke="white" stroke-width="3"/>
<path d="M1105.75 152.5C1105.75 201.893 1121.38 241.827 1160 241.827C1198.62 241.827 1214.25 201.893 1214.25 152.5C1214.25 103.107 1198.62 63.1727 1160 63.1727C1121.38 63.1727 1105.75 103.107 1105.75 152.5ZM1045 152.5C1045 72.6309 1085.79 8 1160 8C1234.21 8 1275 72.6309 1275 152.5C1275 232.369 1234.21 297 1160 297C1085.79 297 1045 232.369 1045 152.5Z" fill="url(#paint0_linear_275_138)"/>
<path d="M963.939 288.9V178.2H879.15V288.9H818.275V8.09961H879.15V118.8H963.939V8.09961H1024.81V288.9H963.939Z" fill="url(#paint1_linear_275_138)"/>
<path d="M796.587 8.09961V288.9H735.713V180.9H677.012C613.964 180.9 596.571 162 596.571 99.8996V8.09961H657.446V91.7996C657.446 126.9 666.142 126.9 692.231 126.9H735.713V8.09961H796.587Z" fill="url(#paint2_linear_275_138)"/>
<path d="M409.755 152.5C409.755 201.893 425.377 241.827 464 241.827C502.623 241.827 518.245 201.893 518.245 152.5C518.245 103.107 502.623 63.1727 464 63.1727C425.377 63.1727 409.755 103.107 409.755 152.5ZM349 152.5C349 72.6309 389.792 8 464 8C538.208 8 579 72.6309 579 152.5C579 232.369 538.208 297 464 297C389.792 297 349 232.369 349 152.5Z" fill="url(#paint3_linear_275_138)"/>
<path d="M135.573 289V136.682C135.573 89.4112 127.749 68.4019 103.843 68.4019C77.7627 68.4019 63.8533 92.0374 63.8533 147.187V289H3V15.8785H61.68V60.5234H63.8533C63.8533 60.5234 79.0667 8 124.707 8C161.219 8 180.779 29.0093 189.472 61.0486L189.907 60.5234H192.08C192.08 60.5234 211.64 8 257.28 8C313.787 8 329 57.8972 329 120.925V289H268.147V136.682C268.147 89.4112 260.323 68.4019 236.416 68.4019C210.336 68.4019 196.427 92.0374 196.427 147.187V289H135.573Z" fill="url(#paint4_linear_275_138)"/>
<path d="M1145.14 565.1V438.551C1145.14 399.278 1139.88 381.823 1123.83 381.823C1106.32 381.823 1096.99 401.46 1096.99 447.279V565.1H1056.13V338.185H1095.53V375.277H1096.99C1096.99 375.277 1107.2 331.64 1137.84 331.64C1162.35 331.64 1175.49 349.095 1181.32 375.713L1181.62 375.277H1183.07C1183.07 375.277 1196.21 331.64 1226.85 331.64C1264.79 331.64 1275 373.095 1275 425.46V565.1H1234.14V438.551C1234.14 399.278 1228.89 381.823 1212.84 381.823C1195.33 381.823 1185.99 401.46 1185.99 447.279V565.1H1145.14Z" fill="url(#paint5_linear_275_138)"/>
<path d="M1041.64 338.186V565.1H1000.79V482.189H971.603L947.381 565.1H901.564L932.498 471.28C914.988 459.061 905.942 437.679 905.942 410.187C905.942 366.55 929.288 338.186 971.603 338.186H1041.64ZM977.439 438.552H1000.79V381.823H977.439C955.552 381.823 946.798 390.551 946.798 410.187C946.798 429.824 955.552 438.552 977.439 438.552Z" fill="url(#paint6_linear_275_138)"/>
<path d="M761.544 565.1V438.551C761.544 399.278 756.291 381.823 740.241 381.823C722.731 381.823 713.393 401.46 713.393 447.279V565.1H672.537V338.185H711.934V375.277H713.393C713.393 375.277 723.607 331.64 754.249 331.64C778.762 331.64 791.894 349.095 797.731 375.713L798.023 375.277H799.482C799.482 375.277 812.614 331.64 843.256 331.64C881.193 331.64 891.407 373.095 891.407 425.46V565.1H850.551V438.551C850.551 399.278 845.299 381.823 829.248 381.823C811.739 381.823 802.4 401.46 802.4 447.279V565.1H761.544Z" fill="url(#paint7_linear_275_138)"/>
<path d="M510.631 451.643C510.631 385.314 536.603 331.64 586.506 331.64C636.408 331.64 659.463 385.314 659.463 451.643C659.463 456.879 659.171 464.734 659.171 464.734H551.778C553.529 499.644 563.452 525.826 587.965 525.826C612.77 525.826 617.148 490.916 617.148 490.916H658.003C658.003 490.916 649.249 571.646 586.506 571.646C535.436 571.646 510.631 517.972 510.631 451.643ZM586.506 377.459C566.37 377.459 556.448 397.532 552.946 425.46H617.439C614.813 397.532 606.642 377.459 586.506 377.459Z" fill="url(#paint8_linear_275_138)"/>
<path d="M497.589 338.186V565.1H459.652V405.824H458.193L424.632 565.1H386.695L353.135 405.824H351.676V565.1H313.738V338.186H375.022L405.664 495.28L436.306 338.186H497.589Z" fill="url(#paint9_linear_275_138)"/>
<path d="M206.032 406.136H165.358C167.682 349.793 198.768 332 233.632 332C269.947 332 299 351.064 299 408.255V558.645H258.326V516.282H256.874C256.874 516.282 247.577 565 208.937 565C181.337 565 161 546.36 161 505.691C161 464.598 184.242 445.958 209.227 436.638C234.503 427.318 258.326 424.353 258.326 399.782C258.326 382.413 249.611 372.245 233.632 372.245C216.2 372.245 206.613 382.413 206.032 406.136ZM258.326 447.653C251.644 456.549 237.989 461.209 226.368 465.445C213.295 470.105 202.255 479.849 202.255 499.336C202.255 516.282 210.389 526.873 223.463 526.873C251.063 526.873 258.326 480.273 258.326 447.653Z" fill="url(#paint10_linear_275_138)"/>
<path d="M7.36893 373.769V339H147.175V373.769L97.6602 424.343C97.6602 424.343 153 425.923 153 492.301C153 528.65 129.699 565 80.1845 565C23.3883 565 3 528.65 3 490.72H43.7767C43.7767 512.846 53.9709 531.811 80.1845 531.811C100.282 531.811 112.223 516.007 112.223 493.881C112.223 470.175 102.029 452.79 61.2524 452.79H49.6019V427.503L100.573 373.769H7.36893Z" fill="url(#paint11_linear_275_138)"/>
<defs>
<linearGradient id="paint0_linear_275_138" x1="1161.53" y1="-48.7823" x2="1161.53" y2="212.63" gradientUnits="userSpaceOnUse">
<stop stop-color="white"/>
<stop offset="1" stop-color="#1736D2"/>
</linearGradient>
<linearGradient id="paint1_linear_275_138" x1="922.918" y1="-47.0715" x2="922.918" y2="206.924" gradientUnits="userSpaceOnUse">
<stop stop-color="white"/>
<stop offset="1" stop-color="#1736D2"/>
</linearGradient>
<linearGradient id="paint2_linear_275_138" x1="697.91" y1="-47.0715" x2="697.91" y2="206.924" gradientUnits="userSpaceOnUse">
<stop stop-color="white"/>
<stop offset="1" stop-color="#1736D2"/>
</linearGradient>
<linearGradient id="paint3_linear_275_138" x1="465.53" y1="-48.7823" x2="465.53" y2="212.63" gradientUnits="userSpaceOnUse">
<stop stop-color="white"/>
<stop offset="1" stop-color="#1736D2"/>
</linearGradient>
<linearGradient id="paint4_linear_275_138" x1="168.168" y1="-47.2104" x2="168.168" y2="206.966" gradientUnits="userSpaceOnUse">
<stop stop-color="white"/>
<stop offset="1" stop-color="#1736D2"/>
</linearGradient>
<linearGradient id="paint5_linear_275_138" x1="1165.56" y1="455.797" x2="1165.56" y2="573.283" gradientUnits="userSpaceOnUse">
<stop offset="0.207858" stop-color="#1736D2"/>
<stop offset="1" stop-color="white"/>
</linearGradient>
<linearGradient id="paint6_linear_275_138" x1="971.603" y1="458.862" x2="971.603" y2="573.054" gradientUnits="userSpaceOnUse">
<stop offset="0.207858" stop-color="#1736D2"/>
<stop offset="1" stop-color="white"/>
</linearGradient>
<linearGradient id="paint7_linear_275_138" x1="781.972" y1="455.797" x2="781.972" y2="573.283" gradientUnits="userSpaceOnUse">
<stop offset="0.207858" stop-color="#1736D2"/>
<stop offset="1" stop-color="white"/>
</linearGradient>
<linearGradient id="paint8_linear_275_138" x1="585.047" y1="459.278" x2="585.047" y2="580.058" gradientUnits="userSpaceOnUse">
<stop offset="0.207858" stop-color="#1736D2"/>
<stop offset="1" stop-color="white"/>
</linearGradient>
<linearGradient id="paint9_linear_275_138" x1="405.664" y1="458.862" x2="405.664" y2="573.054" gradientUnits="userSpaceOnUse">
<stop offset="0.207858" stop-color="#1736D2"/>
<stop offset="1" stop-color="white"/>
</linearGradient>
<linearGradient id="paint10_linear_275_138" x1="230" y1="455.913" x2="230" y2="573.166" gradientUnits="userSpaceOnUse">
<stop offset="0.207858" stop-color="#1736D2"/>
<stop offset="1" stop-color="white"/>
</linearGradient>
<linearGradient id="paint11_linear_275_138" x1="78" y1="459.19" x2="78" y2="572.921" gradientUnits="userSpaceOnUse">
<stop offset="0.207858" stop-color="#1736D2"/>
<stop offset="1" stop-color="white"/>
</linearGradient>
</defs>
</svg>
