<svg width="1280" height="572" viewBox="0 0 1280 572" fill="none" xmlns="http://www.w3.org/2000/svg">
<rect x="1.5" y="1.5" width="1277" height="569" fill="black" stroke="white" stroke-width="3"/>
<path d="M1129.85 566.929C1128.88 563.169 1128.09 558.375 1127.48 552.548C1126.88 546.532 1126.51 540.234 1126.39 533.654C1126.39 527.074 1126.51 520.87 1126.76 515.042C1127.12 509.026 1127.73 504.138 1128.57 500.378C1131.24 499.25 1133.49 497.746 1135.3 495.866C1137.12 493.798 1138.52 490.602 1139.49 486.278C1140.46 481.766 1140.94 475.28 1140.94 466.82V445.106H1135.49C1135.73 450.558 1135.79 456.574 1135.67 463.154C1135.55 469.546 1135.24 476.69 1134.76 484.586C1128.33 486.466 1121.84 487.406 1115.3 487.406C1108.75 487.406 1101.17 486.466 1092.56 484.586C1091.95 478.006 1091.47 470.11 1091.1 460.898C1090.74 451.498 1090.56 441.816 1090.56 431.852C1090.56 421.7 1090.68 411.924 1090.92 402.524C1091.16 392.936 1091.47 384.476 1091.83 377.144C1092.32 369.812 1092.86 364.454 1093.47 361.07C1100.02 361.822 1110.51 362.856 1124.94 364.172C1139.49 365.3 1157.19 365.864 1178.05 365.864C1200.24 365.864 1218.13 365.3 1231.71 364.172C1245.29 362.856 1255.42 361.822 1262.09 361.07C1262.7 365.018 1263.18 370.846 1263.54 378.554C1264.03 386.074 1264.39 394.628 1264.64 404.216C1264.88 413.804 1265 423.58 1265 433.544C1265 443.508 1264.82 453.002 1264.45 462.026C1264.09 470.862 1263.61 478.382 1263 484.586C1257.3 485.902 1252.08 486.842 1247.36 487.406C1242.75 487.782 1238.26 487.782 1233.89 487.406C1229.53 486.842 1224.86 485.902 1219.89 484.586C1219.04 469.17 1218.86 456.104 1219.34 445.388H1213.7V466.82C1213.7 475.28 1214.19 481.766 1215.16 486.278C1216.13 490.602 1217.52 493.798 1219.34 495.866C1221.16 497.746 1223.41 499.25 1226.07 500.378C1226.92 504.138 1227.47 509.026 1227.71 515.042C1228.07 520.87 1228.2 527.074 1228.07 533.654C1228.07 540.234 1227.77 546.532 1227.16 552.548C1226.56 558.375 1225.77 563.169 1224.8 566.929C1221.4 566.365 1217.1 565.707 1211.88 564.955C1206.67 564.391 1201.03 563.827 1194.97 563.263C1188.9 562.888 1182.78 562.699 1176.6 562.699C1171.02 562.699 1165.26 562.888 1159.32 563.263C1153.37 563.827 1147.8 564.391 1142.58 564.955C1137.49 565.707 1133.24 566.365 1129.85 566.929Z" fill="url(#paint0_linear_284_533)"/>
<path d="M911.355 566.93C910.258 561.677 909.404 555.111 908.794 547.232C908.185 539.166 908.002 530.912 908.246 522.47C908.49 514.029 909.099 506.619 910.075 500.241C912.758 498.177 915.563 495.269 918.49 491.518C921.416 487.766 924.038 483.076 926.355 477.448C922.453 470.883 919.404 464.129 917.209 457.188C915.136 450.247 914.099 441.712 914.099 431.582C914.099 411.697 917.087 396.408 923.063 385.716C929.16 375.023 937.88 367.613 949.222 363.486C960.685 359.171 974.466 357.014 990.563 357.014C1001.54 357.014 1011.05 357.296 1019.1 357.858C1027.27 358.421 1034.71 359.078 1041.42 359.828C1048.12 360.578 1054.83 361.141 1061.54 361.516C1068.37 361.892 1075.87 361.892 1084.04 361.516C1085.62 366.957 1086.66 373.897 1087.15 382.339C1087.64 390.781 1087.7 399.316 1087.33 407.945C1086.97 416.387 1086.11 423.703 1084.77 429.894C1083.67 430.081 1082.27 431.301 1080.56 433.552C1078.98 435.803 1077.52 439.648 1076.17 445.089C1074.95 450.341 1074.34 457.751 1074.34 467.318C1074.34 478.574 1075.5 486.64 1077.82 491.518C1080.26 496.207 1082.82 499.115 1085.5 500.241C1086.48 505.681 1087.09 512.528 1087.33 520.782C1087.58 529.036 1087.45 537.29 1086.97 545.544C1086.48 553.798 1085.56 560.927 1084.22 566.93C1079.34 566.179 1073.25 565.335 1065.93 564.397C1058.61 563.459 1050.93 562.896 1042.88 562.709C1033.73 562.521 1025.26 562.896 1017.45 563.834C1009.77 564.96 1003.49 565.898 998.612 566.648C997.515 561.771 996.722 555.674 996.234 548.358C995.868 540.854 995.807 533.163 996.051 525.284C996.417 517.218 997.027 509.995 997.88 503.617H1003.55V479.418C998.917 486.359 995.563 493.956 993.49 502.21C991.539 510.464 990.502 519.844 990.38 530.349C990.38 540.854 991.051 553.048 992.393 566.93C989.466 566.367 986.112 565.71 982.332 564.96C978.673 564.397 974.039 563.834 968.429 563.272C962.941 562.896 955.868 562.709 947.209 562.709C937.575 562.709 930.136 563.178 924.892 564.116C919.77 565.241 915.258 566.179 911.355 566.93ZM993.673 454.656H1004.28V436.647H993.673V454.656Z" fill="url(#paint1_linear_284_533)"/>
<path d="M775.207 566.929C774.232 563.169 773.439 558.375 772.829 552.548C772.219 546.532 771.853 540.234 771.731 533.654C771.731 527.074 771.853 520.87 772.097 515.042C772.463 509.026 773.073 504.138 773.927 500.378C776.61 499.25 778.866 497.746 780.695 495.866C782.525 493.798 783.927 490.602 784.903 486.278C785.879 481.766 786.367 475.28 786.367 466.82V445.106H780.878C781.122 450.558 781.183 456.574 781.061 463.154C780.939 469.546 780.635 476.69 780.147 484.586C773.683 486.466 767.158 487.406 760.572 487.406C753.986 487.406 746.364 486.466 737.705 484.586C737.095 478.006 736.607 470.11 736.241 460.898C735.875 451.498 735.692 441.816 735.692 431.852C735.692 421.7 735.814 411.924 736.058 402.524C736.302 392.936 736.607 384.476 736.973 377.144C737.461 369.812 738.01 364.454 738.619 361.07C745.205 361.822 755.755 362.856 770.268 364.172C784.903 365.3 802.709 365.864 823.686 365.864C846.005 365.864 863.994 365.3 877.653 364.172C891.313 362.856 901.497 361.822 908.204 361.07C908.814 365.018 909.302 370.846 909.668 378.554C910.156 386.074 910.522 394.628 910.766 404.216C911.009 413.804 911.131 423.58 911.131 433.544C911.131 443.508 910.949 453.002 910.583 462.026C910.217 470.862 909.729 478.382 909.119 484.586C903.387 485.902 898.143 486.842 893.386 487.406C888.752 487.782 884.239 487.782 879.849 487.406C875.458 486.842 870.763 485.902 865.762 484.586C864.909 469.17 864.726 456.104 865.214 445.388H859.542V466.82C859.542 475.28 860.03 481.766 861.006 486.278C861.982 490.602 863.384 493.798 865.214 495.866C867.043 497.746 869.299 499.25 871.982 500.378C872.836 504.138 873.385 509.026 873.629 515.042C873.995 520.87 874.117 527.074 873.995 533.654C873.995 540.234 873.69 546.532 873.08 552.548C872.47 558.375 871.677 563.169 870.702 566.929C867.287 566.365 862.957 565.707 857.713 564.955C852.469 564.391 846.798 563.827 840.7 563.263C834.602 562.888 828.443 562.699 822.223 562.699C816.613 562.699 810.82 562.888 804.844 563.263C798.868 563.827 793.257 564.391 788.013 564.955C782.891 565.707 778.622 566.365 775.207 566.929Z" fill="url(#paint2_linear_284_533)"/>
<path d="M646.062 572C626.2 572 609.993 567.759 597.442 559.277C585.012 550.607 575.873 538.262 570.024 522.241C564.175 506.22 561.25 486.901 561.25 464.283C561.25 438.272 564.358 417.351 570.572 401.518C576.909 385.686 586.718 374.188 600.001 367.026C613.283 359.675 630.404 356 651.363 356C666.961 356 680.852 358.545 693.038 363.634C705.345 368.723 715.033 376.262 722.101 386.251C729.168 396.052 732.702 408.209 732.702 422.723C732.702 428 732.154 433.372 731.057 438.838C730.082 444.115 728.011 448.921 724.842 453.257C721.674 457.592 716.922 461.079 710.585 463.717C704.249 466.356 695.78 467.675 685.178 467.675C678.11 467.675 671.713 467.581 665.986 467.393C660.38 467.016 655.201 466.45 650.449 465.696H641.31V486.618H650.266V475.309C676.1 473.424 703.396 473.424 732.154 475.309C732.154 496.23 729.229 513.853 723.38 528.178C717.531 542.503 708.331 553.435 695.78 560.974C683.228 568.325 666.656 572 646.062 572ZM641.31 450.995H650.266V434.597H641.31V450.995Z" fill="url(#paint3_linear_284_533)"/>
<path d="M362.932 566.93C361.838 562.056 360.988 555.684 360.38 547.812C359.894 539.752 359.773 531.505 360.016 523.071C360.259 514.449 360.866 506.858 361.838 500.298C363.661 499.548 365.544 498.143 367.488 496.081C369.554 494.019 371.498 490.645 373.321 485.96C375.143 481.086 376.541 474.245 377.513 465.436C378.728 455.877 378.728 448.567 377.513 443.506C376.419 438.446 374.961 434.978 373.138 433.104C371.316 431.042 369.858 430.011 368.764 430.011C367.549 424.201 366.698 417.079 366.212 408.644C365.848 400.21 365.909 391.869 366.395 383.622C367.002 375.188 368.035 368.347 369.493 363.099C373.746 363.848 378.91 364.598 384.985 365.348C391.061 366.098 398.169 366.472 406.31 366.472C412.507 366.472 419.007 366.379 425.812 366.191C432.738 365.816 439.421 365.348 445.86 364.786C452.422 364.223 458.133 363.661 462.993 363.099C462.507 367.41 462.264 372.751 462.264 379.124C462.385 385.497 462.932 392.15 463.904 399.085C464.876 405.833 466.334 412.299 468.279 418.484C468.4 409.113 468.582 399.179 468.825 388.683C469.068 378.187 469.615 369.659 470.466 363.099C475.083 363.473 479.457 363.942 483.588 364.504C487.72 365.067 492.033 365.535 496.529 365.91C501.146 366.285 506.31 366.472 512.021 366.472C516.152 366.472 520.709 366.285 525.691 365.91C530.794 365.535 535.715 365.067 540.454 364.504C545.314 363.942 549.385 363.473 552.665 363.099C554.245 368.347 555.278 375.188 555.764 383.622C556.25 391.869 556.311 400.21 555.946 408.644C555.581 417.079 554.731 424.201 553.394 430.011C552.301 430.011 550.843 431.042 549.02 433.104C547.197 434.978 545.739 438.446 544.646 443.506C543.552 448.567 543.552 455.877 544.646 465.436C545.739 474.245 547.137 481.086 548.838 485.96C550.66 490.645 552.605 494.019 554.67 496.081C556.736 498.143 558.619 499.548 560.32 500.298C561.414 506.858 562.021 514.449 562.143 523.071C562.386 531.505 562.204 539.752 561.596 547.812C561.11 555.684 560.32 562.056 559.227 566.93C554.609 566.18 549.02 565.243 542.459 564.118C535.897 563.181 527.696 562.712 517.853 562.712C507.89 562.712 498.655 563.181 490.15 564.118C481.766 565.243 475.265 566.18 470.648 566.93C470.04 562.056 469.554 555.965 469.19 548.655C468.947 541.158 468.825 533.754 468.825 526.445C468.947 518.947 469.19 512.762 469.554 507.889H475.022L473.382 476.401L462.993 519.697L431.097 497.486L429.092 505.359L447.318 518.01C449.87 519.884 452.3 521.759 454.609 523.633C457.039 525.507 459.044 528.131 460.624 531.505C462.325 534.691 463.479 539.096 464.087 544.719C464.694 550.342 464.573 557.746 463.722 566.93C460.806 566.367 456.553 565.711 450.964 564.962C445.374 564.399 439.299 563.837 432.738 563.275C426.176 562.9 420.04 562.712 414.329 562.712C401.571 562.712 390.878 563.181 382.251 564.118C373.746 565.243 367.306 566.18 362.932 566.93Z" fill="url(#paint4_linear_284_533)"/>
<path d="M241.87 572C227.221 572 215.624 569.082 207.079 563.247C198.656 557.412 192.614 549.788 188.951 540.376C185.289 530.965 183.458 520.8 183.458 509.882C183.458 493.318 187.242 479.859 194.811 469.506C202.379 459.153 214.465 453.882 231.067 453.694L269.886 453.129V438.165H259.815V445.788C247.363 446.541 235.095 447.294 223.01 448.047C210.925 448.8 198.9 448.518 186.937 447.2C183.885 417.835 184.191 389.412 187.853 361.929C191.393 361.929 195.665 362.024 200.67 362.212C205.797 362.4 211.169 362.682 216.784 363.059C222.521 363.247 228.137 363.435 233.63 363.624C239.123 363.812 244.006 364 248.279 364.188C246.692 369.835 245.776 375.482 245.532 381.129C245.41 386.776 245.959 392.235 247.18 397.506C247.791 381.882 251.636 371.059 258.716 365.035C265.796 359.012 275.806 356 288.746 356C305.47 356 318.288 359.765 327.199 367.294C336.11 374.635 342.031 385.647 344.961 400.329C346.426 407.294 347.036 414.824 346.792 422.918C346.67 430.824 346.303 438.541 345.693 446.071C345.083 453.6 344.778 460.376 344.778 466.4C344.778 477.882 345.937 486.071 348.257 490.965C350.698 495.671 353.262 498.776 355.947 500.282C357.046 505.741 357.656 512.612 357.778 520.894C358.022 529.176 357.9 537.459 357.412 545.741C356.924 554.024 356.069 561.176 354.849 567.2C349.477 569.082 343.862 570.306 338.002 570.871C332.143 571.624 327.382 572 323.72 572C314.442 572 307.179 570.306 301.93 566.918C296.681 563.529 294.056 557.318 294.056 548.282C294.056 545.082 294.422 541.694 295.155 538.118C296.009 534.541 296.986 530.682 298.085 526.541L293.324 522.871C291.126 531.153 288.075 539.059 284.168 546.588C280.384 554.118 275.074 560.235 268.238 564.941C261.524 569.647 252.735 572 241.87 572ZM259.815 489.271H269.886V471.482H259.815V489.271Z" fill="url(#paint5_linear_284_533)"/>
<path d="M101.167 479.55V470.22H89.1628V454.67H101.167V445.34H83.3426V456.932C79.3412 457.874 74.4304 458.628 68.6101 459.194C62.7899 459.571 56.6665 459.759 50.24 459.759C43.8135 459.759 37.5689 459.571 31.5062 459.194C25.5647 458.628 20.4113 457.874 16.0462 456.932C15.3186 449.958 14.773 442.042 14.4092 433.183C14.0455 424.325 13.9242 415.372 14.0455 406.325C14.1667 397.089 14.4092 388.607 14.773 380.88C15.258 372.963 15.8643 366.461 16.5918 361.372C19.987 361.372 23.9884 361.466 28.596 361.654C33.325 361.843 38.2964 362.126 43.5104 362.503C48.7243 362.691 53.817 362.88 58.7885 363.068C63.8812 363.257 68.4283 363.351 72.4297 363.351C71.9446 369.759 71.5203 376.356 71.1565 383.141C70.914 389.738 71.4596 396.335 72.7934 402.932C73.1572 390.869 75.2792 381.445 79.1593 374.66C83.0395 367.874 88.5566 363.068 95.7106 360.241C102.865 357.414 111.534 356 121.72 356C128.268 356 134.937 356.848 141.727 358.545C148.517 360.052 154.701 362.974 160.279 367.309C165.978 371.644 170.525 377.77 173.92 385.686C177.436 393.414 179.195 403.497 179.195 415.937C179.195 422.534 178.285 429.037 176.466 435.445C174.648 441.853 172.04 447.414 168.645 452.126C165.371 456.649 161.37 459.759 156.641 461.455C160.279 463.34 163.916 466.073 167.554 469.654C171.192 473.236 174.223 478.136 176.648 484.356C179.195 490.576 180.468 498.681 180.468 508.67C180.468 521.298 178.346 531.759 174.102 540.052C169.979 548.346 164.28 554.848 157.005 559.56C149.73 564.084 141.363 567.288 131.905 569.173C122.447 571.058 112.504 572 102.076 572C79.7656 572 62.123 568.23 49.1487 560.691C36.2957 553.152 27.2016 541.749 21.8664 526.482C16.6524 511.026 14.3486 491.518 14.9549 467.958C22.1089 467.393 28.4748 467.016 34.0525 466.827C39.6302 466.639 44.9654 466.544 50.0582 466.544C55.1509 466.544 60.3042 466.639 65.5181 466.827C70.8534 467.016 76.7948 467.393 83.3426 467.958V479.55H101.167Z" fill="url(#paint6_linear_284_533)"/>
<path d="M1143.01 320C1064.44 320 1025.15 268.617 1025.15 165.851C1025.15 109.772 1035.04 68.61 1054.81 42.366C1074.75 16.122 1104.58 3 1144.3 3C1186.43 3 1217.03 15.9839 1236.11 41.9516C1255.37 67.6431 1265 105.628 1265 155.906C1265 212.538 1254.86 254.114 1234.57 280.634C1214.28 306.878 1183.76 320 1143.01 320ZM1138.11 184.084H1152.04V138.916H1138.11V184.084Z" fill="url(#paint7_linear_284_533)"/>
<path d="M767.114 313C765.399 304.157 764.113 293.657 763.256 281.498C762.57 269.339 762.398 257.181 762.741 245.022C763.084 232.863 763.942 222.777 765.314 214.763C769.258 213.105 772.859 208.822 776.117 201.914C779.375 194.729 781.004 182.847 781.004 166.267C781.004 152.174 780.061 141.259 778.175 133.521C776.46 125.508 774.488 119.843 772.259 116.527C770.029 113.211 768.057 111.414 766.343 111.138C764.628 102.019 763.427 91.2421 762.741 78.8071C762.227 66.0958 762.313 53.5226 762.999 41.0875C763.856 28.6525 765.314 18.4282 767.371 10.4145C775.431 12.0725 784.52 13.4542 794.637 14.5595C804.926 15.3885 815.73 15.803 827.048 15.803C838.194 15.803 849.083 15.2503 859.715 14.145C870.347 13.0397 879.607 11.658 887.495 10C888.696 16.632 889.553 25.751 890.068 37.3571C890.582 48.6867 890.668 60.4309 890.325 72.5896C890.153 84.7483 889.553 95.249 888.524 104.092H885.438V124.402H901.128V104.092H898.042C897.013 95.249 896.327 84.7483 895.984 72.5896C895.812 60.4309 895.984 48.6867 896.498 37.3571C897.013 25.751 897.87 16.632 899.07 10C906.959 11.658 916.219 13.0397 926.851 14.145C937.483 15.2503 948.372 15.803 959.518 15.803C970.836 15.803 981.554 15.3885 991.671 14.5595C1001.96 13.4542 1011.13 12.0725 1019.19 10.4145C1021.42 18.4282 1022.88 28.6525 1023.57 41.0875C1024.25 53.5226 1024.34 66.0958 1023.82 78.8071C1023.31 91.2421 1022.11 102.019 1020.22 111.138C1018.68 111.414 1016.71 113.211 1014.31 116.527C1012.08 119.843 1010.02 125.508 1008.13 133.521C1006.42 141.259 1005.56 152.174 1005.56 166.267C1005.56 182.847 1007.19 194.729 1010.45 201.914C1013.88 208.822 1017.48 213.105 1021.25 214.763C1022.62 222.777 1023.48 232.863 1023.82 245.022C1024.17 257.181 1024 269.339 1023.31 281.498C1022.62 293.657 1021.34 304.157 1019.45 313C1015.34 312.171 1010.79 311.204 1005.82 310.098C1000.85 309.269 994.758 308.44 987.556 307.611C980.525 307.059 971.522 306.782 960.547 306.782C947 306.782 935.082 307.473 924.793 308.855C914.504 310.237 905.844 311.618 898.813 313C897.784 306.092 897.013 296.973 896.498 285.643C895.984 274.313 895.812 262.569 895.984 250.41C896.327 238.252 897.013 227.751 898.042 218.908H901.128V200.67H885.438V218.908H888.524C889.725 227.751 890.411 238.252 890.582 250.41C890.925 262.569 890.839 274.313 890.325 285.643C889.81 296.973 888.953 306.092 887.753 313C883.637 312.171 879.093 311.204 874.12 310.098C869.147 309.269 863.059 308.44 855.857 307.611C848.826 307.059 839.823 306.782 828.848 306.782C815.301 306.782 803.383 307.473 793.094 308.855C782.805 310.237 774.145 311.618 767.114 313Z" fill="url(#paint8_linear_284_533)"/>
<path d="M753.467 10.4145C755.697 18.4282 757.155 28.6525 757.841 41.0875C758.528 53.5226 758.613 66.0958 758.099 78.8071C757.584 91.2421 756.383 102.019 754.496 111.138C752.952 111.414 750.98 113.211 748.578 116.527C746.348 119.843 744.29 125.508 742.403 133.521C740.687 141.259 739.83 152.174 739.83 166.267C739.83 182.847 741.459 194.729 744.718 201.914C748.149 208.822 751.752 213.105 755.526 214.763C756.898 222.777 757.756 232.863 758.099 245.022C758.442 257.181 758.27 269.339 757.584 281.498C756.898 293.657 755.611 304.157 753.724 313C745.834 312.171 736.485 310.927 725.677 309.269C714.87 307.611 703.12 306.782 690.426 306.782C682.192 306.782 673.786 307.059 665.209 307.611C656.632 308.44 648.57 309.269 641.022 310.098C633.474 311.204 627.127 312.171 621.981 313C620.78 306.644 619.922 297.525 619.408 285.643C619.065 273.761 619.236 259.944 619.922 244.193C625.412 240.601 630.472 236.732 635.104 232.587C639.735 228.166 644.71 222.086 650.028 214.349L645.139 205.23C637.591 215.454 629.614 223.606 621.209 229.685C612.975 235.488 604.912 239.633 597.022 242.12C589.302 244.607 582.269 245.851 575.922 245.851C567.002 245.851 558.768 244.469 551.22 241.706C543.672 238.666 537.411 233.692 532.436 226.784C527.462 219.599 524.202 209.789 522.659 197.354C521.458 186.854 521.2 177.182 521.887 168.339C522.573 159.22 522.916 149.549 522.916 139.324C522.916 128.271 521.458 120.81 518.542 116.941C515.625 113.073 512.28 111 508.506 110.724C507.306 105.473 506.362 98.4268 505.676 89.5841C504.99 80.7415 504.647 71.3461 504.647 61.3981C504.647 51.4501 505.076 41.9165 505.933 32.7975C506.791 23.6785 507.992 16.0793 509.536 10C513.996 10.5527 519.571 11.3817 526.261 12.487C532.951 13.316 540.156 14.0068 547.875 14.5595C555.594 15.1122 563.228 15.3885 570.776 15.3885C581.754 15.3885 591.875 14.8358 601.139 13.7305C610.402 12.3488 618.378 11.1053 625.069 10C626.956 21.8824 627.985 36.2517 628.156 53.1081C628.499 69.6881 627.727 88.4788 625.841 109.48V135.179H636.133V109.48C634.074 88.4788 633.303 69.6881 633.817 53.1081C634.332 36.2517 635.618 21.8824 637.677 10C643.681 11.1053 650.8 12.3488 659.034 13.7305C667.268 14.8358 678.675 15.3885 693.256 15.3885C699.603 15.3885 706.551 15.1122 714.098 14.5595C721.818 14.0068 729.194 13.316 736.227 12.487C743.26 11.658 749.007 10.9672 753.467 10.4145Z" fill="url(#paint9_linear_284_533)"/>
<path d="M383.165 320C304.917 320 265.792 268.617 265.792 165.851C265.792 109.772 275.638 68.61 295.328 42.366C315.19 16.122 344.897 3 384.449 3C426.398 3 456.876 15.9839 475.882 41.9516C495.058 67.6431 504.647 105.628 504.647 155.906C504.647 212.538 494.545 254.114 474.341 280.634C454.136 306.878 423.744 320 383.165 320ZM378.285 184.084H392.154V138.916H378.285V184.084Z" fill="url(#paint10_linear_284_533)"/>
<path d="M69.5916 313C68.2189 307.466 67.1037 300.41 66.2458 291.831C65.3879 282.977 64.8731 273.707 64.7016 264.022C64.7016 254.337 64.8731 245.205 65.2163 236.627C65.731 227.773 66.5889 220.578 67.79 215.044C71.5647 213.384 74.7389 211.17 77.3126 208.403C79.8863 205.359 81.8595 200.655 83.2321 194.29C84.6047 187.649 85.291 178.103 85.291 165.651V133.69H77.57C77.9131 141.715 77.9989 150.57 77.8273 160.255C77.6558 169.663 77.2268 180.178 76.5405 191.8C67.4468 194.567 58.2674 195.951 49.0021 195.951C39.7368 195.951 29.0132 194.567 16.8311 191.8C15.9732 182.115 15.2868 170.493 14.7721 156.934C14.2574 143.099 14 128.848 14 114.182C14 99.2397 14.1716 84.8507 14.5147 71.0151C14.8579 56.9027 15.2868 44.4507 15.8016 33.6589C16.4879 22.8671 17.26 14.9808 18.1179 10C27.3832 11.1069 42.2247 12.6288 62.6426 14.5658C83.2321 16.226 108.283 17.0562 137.794 17.0562C169.193 17.0562 194.501 16.226 213.718 14.5658C232.935 12.6288 247.262 11.1069 256.698 10C257.556 15.811 258.243 24.3891 258.757 35.7343C259.444 46.8028 259.958 59.3932 260.301 73.5055C260.645 87.6178 260.816 102.007 260.816 116.673C260.816 131.338 260.559 145.312 260.044 158.595C259.529 171.6 258.843 182.668 257.985 191.8C249.921 193.737 242.543 195.121 235.852 195.951C229.332 196.504 222.983 196.504 216.806 195.951C210.629 195.121 204.024 193.737 196.989 191.8C195.788 169.11 195.53 149.878 196.217 134.105H188.238V165.651C188.238 178.103 188.925 187.649 190.297 194.29C191.67 200.655 193.643 205.359 196.217 208.403C198.79 211.17 201.965 213.384 205.739 215.044C206.94 220.578 207.713 227.773 208.056 236.627C208.57 245.205 208.742 254.337 208.57 264.022C208.57 273.707 208.142 282.977 207.284 291.831C206.426 300.41 205.31 307.466 203.938 313C199.134 312.17 193.043 311.201 185.665 310.095C178.287 309.264 170.308 308.434 161.729 307.604C153.15 307.051 144.486 306.774 135.735 306.774C127.843 306.774 119.693 307.051 111.285 307.604C102.878 308.434 94.9852 309.264 87.6073 310.095C80.401 311.201 74.3958 312.17 69.5916 313Z" fill="url(#paint11_linear_284_533)"/>
<defs>
<linearGradient id="paint0_linear_284_533" x1="1177.78" y1="470.549" x2="1177.78" y2="574.145" gradientUnits="userSpaceOnUse">
<stop offset="0.207858" stop-color="#1736D2"/>
<stop offset="1" stop-color="white"/>
</linearGradient>
<linearGradient id="paint1_linear_284_533" x1="997.854" y1="468.65" x2="997.854" y2="574.287" gradientUnits="userSpaceOnUse">
<stop offset="0.207858" stop-color="#1736D2"/>
<stop offset="1" stop-color="white"/>
</linearGradient>
<linearGradient id="paint2_linear_284_533" x1="823.412" y1="470.549" x2="823.412" y2="574.145" gradientUnits="userSpaceOnUse">
<stop offset="0.207858" stop-color="#1736D2"/>
<stop offset="1" stop-color="white"/>
</linearGradient>
<linearGradient id="paint3_linear_284_533" x1="646.976" y1="470.872" x2="646.976" y2="579.571" gradientUnits="userSpaceOnUse">
<stop offset="0.207858" stop-color="#1736D2"/>
<stop offset="1" stop-color="white"/>
</linearGradient>
<linearGradient id="paint4_linear_284_533" x1="461.071" y1="471.499" x2="461.071" y2="574.074" gradientUnits="userSpaceOnUse">
<stop offset="0.207858" stop-color="#1736D2"/>
<stop offset="1" stop-color="white"/>
</linearGradient>
<linearGradient id="paint5_linear_284_533" x1="270.679" y1="470.872" x2="270.679" y2="579.571" gradientUnits="userSpaceOnUse">
<stop offset="0.207858" stop-color="#1736D2"/>
<stop offset="1" stop-color="white"/>
</linearGradient>
<linearGradient id="paint6_linear_284_533" x1="97.2339" y1="470.872" x2="97.2339" y2="579.571" gradientUnits="userSpaceOnUse">
<stop offset="0.207858" stop-color="#1736D2"/>
<stop offset="1" stop-color="white"/>
</linearGradient>
<linearGradient id="paint7_linear_284_533" x1="1146.67" y1="-59.2837" x2="1146.67" y2="227.456" gradientUnits="userSpaceOnUse">
<stop stop-color="white"/>
<stop offset="1" stop-color="#1736D2"/>
</linearGradient>
<linearGradient id="paint8_linear_284_533" x1="895.024" y1="-49.533" x2="895.024" y2="224.543" gradientUnits="userSpaceOnUse">
<stop stop-color="white"/>
<stop offset="1" stop-color="#1736D2"/>
</linearGradient>
<linearGradient id="paint9_linear_284_533" x1="633.226" y1="-49.533" x2="633.226" y2="224.543" gradientUnits="userSpaceOnUse">
<stop stop-color="white"/>
<stop offset="1" stop-color="#1736D2"/>
</linearGradient>
<linearGradient id="paint10_linear_284_533" x1="386.808" y1="-59.2837" x2="386.808" y2="227.456" gradientUnits="userSpaceOnUse">
<stop stop-color="white"/>
<stop offset="1" stop-color="#1736D2"/>
</linearGradient>
<linearGradient id="paint11_linear_284_533" x1="139.05" y1="-49.533" x2="139.05" y2="224.543" gradientUnits="userSpaceOnUse">
<stop stop-color="white"/>
<stop offset="1" stop-color="#1736D2"/>
</linearGradient>
</defs>
</svg>
