<svg width="371" height="45" viewBox="0 0 371 45" fill="none" xmlns="http://www.w3.org/2000/svg">
<path d="M335.256 24.7998C335.256 14.1598 341.556 5.5498 353.456 5.5498C369.556 5.5498 370.606 19.8998 370.606 19.8998H360.806C360.806 19.8998 360.456 12.8998 353.456 12.8998C347.226 12.8998 345.056 18.2198 345.056 24.7998C345.056 31.3798 347.226 36.6998 353.456 36.6998C360.456 36.6998 360.806 29.6998 360.806 29.6998H370.606C370.606 29.6998 369.556 44.0498 353.456 44.0498C341.556 44.0498 335.256 35.4398 335.256 24.7998Z" fill="white"/>
<path d="M305.134 24.7998C305.134 31.3798 307.654 36.6998 313.884 36.6998C320.114 36.6998 322.634 31.3798 322.634 24.7998C322.634 18.2198 320.114 12.8998 313.884 12.8998C307.654 12.8998 305.134 18.2198 305.134 24.7998ZM295.334 24.7998C295.334 14.1598 301.914 5.5498 313.884 5.5498C325.854 5.5498 332.434 14.1598 332.434 24.7998C332.434 35.4398 325.854 44.0498 313.884 44.0498C301.914 44.0498 295.334 35.4398 295.334 24.7998Z" fill="white"/>
<path d="M258.472 42.9996L271.562 6.59961H282.622L295.712 42.9996H285.212L276.812 17.1696L268.412 42.9996H258.472Z" fill="white"/>
<path d="M231.511 24.7998C231.511 31.3798 234.031 36.6998 240.261 36.6998C246.491 36.6998 249.011 31.3798 249.011 24.7998C249.011 18.2198 246.491 12.8998 240.261 12.8998C234.031 12.8998 231.511 18.2198 231.511 24.7998ZM221.711 24.7998C221.711 14.1598 228.291 5.5498 240.261 5.5498C252.231 5.5498 258.811 14.1598 258.811 24.7998C258.811 35.4398 252.231 44.0498 240.261 44.0498C228.291 44.0498 221.711 35.4398 221.711 24.7998Z" fill="white"/>
<path d="M210.177 31.0998H219.627C219.627 35.2998 216.827 44.0498 202.477 44.0498C191.977 44.0498 186.027 39.4998 186.027 32.4998C186.027 18.8498 209.127 22.3498 209.127 16.3998C209.127 14.1598 207.027 12.1998 203.177 12.1998C196.527 12.1998 196.527 17.0998 196.527 17.0998H187.077C187.077 13.5998 189.527 5.5498 203.177 5.5498C212.977 5.5498 218.927 10.0998 218.927 16.3998C218.927 30.0498 195.827 25.0798 195.827 32.8498C195.827 34.9498 197.227 37.3998 202.477 37.3998C210.177 37.3998 210.177 31.0998 210.177 31.0998Z" fill="white"/>
<path d="M135.6 3.09979V0.299805H162.55V3.09979H135.6ZM166.05 6.59979V42.9998H156.6V37.0498H156.25C156.25 37.0498 153.1 44.0498 145.05 44.0498C134.9 44.0498 132.1 37.3998 132.1 28.9998V6.59979H141.9V26.8998C141.9 33.1998 143.65 35.9998 148.2 35.9998C153.45 35.9998 156.25 32.8498 156.25 25.4998V6.59979H166.05Z" fill="white"/>
<path d="M101.628 24.7998C101.628 31.3798 104.148 36.6998 110.378 36.6998C116.608 36.6998 119.128 31.3798 119.128 24.7998C119.128 18.2198 116.608 12.8998 110.378 12.8998C104.148 12.8998 101.628 18.2198 101.628 24.7998ZM91.8281 24.7998C91.8281 14.1598 98.4081 5.5498 110.378 5.5498C122.348 5.5498 128.928 14.1598 128.928 24.7998C128.928 35.4398 122.348 44.0498 110.378 44.0498C98.4081 44.0498 91.8281 35.4398 91.8281 24.7998Z" fill="white"/>
<path d="M56.8359 42.9996V6.59961H74.3359C83.7859 6.59961 88.6859 9.74961 88.6859 16.3996C88.6859 22.3496 83.0859 23.7496 83.0859 23.7496V24.0996C83.0859 24.0996 89.7359 25.4996 89.7359 32.4996C89.7359 39.4996 85.1859 42.9996 75.3859 42.9996H56.8359ZM74.3359 27.5996H66.6359V35.9996H75.0359C78.1859 35.9996 79.9359 34.5996 79.9359 31.7996C79.9359 28.9996 77.8359 27.5996 74.3359 27.5996ZM66.6359 21.2996H73.6359C77.1359 21.2996 78.8859 19.8996 78.8859 17.4496C78.8859 14.9996 77.4859 13.5996 74.3359 13.5996H66.6359V21.2996Z" fill="white"/>
<path d="M22.1996 42.9998V22.6998C22.1996 16.3998 20.9396 13.5998 17.0896 13.5998C12.8896 13.5998 10.6496 16.7498 10.6496 24.0998V42.9998H0.849609V6.59979H10.2996V12.5498H10.6496C10.6496 12.5498 13.0996 5.5498 20.4496 5.5498C26.3296 5.5498 29.4796 8.3498 30.8796 12.6198L30.9496 12.5498H31.2996C31.2996 12.5498 34.4496 5.5498 41.7996 5.5498C50.8996 5.5498 53.3496 12.1998 53.3496 20.5998V42.9998H43.5496V22.6998C43.5496 16.3998 42.2896 13.5998 38.4396 13.5998C34.2396 13.5998 31.9996 16.7498 31.9996 24.0998V42.9998H22.1996Z" fill="white"/>
</svg>
