<svg width="135" height="133" viewBox="0 0 135 133" fill="none" xmlns="http://www.w3.org/2000/svg">
<path fill-rule="evenodd" clip-rule="evenodd" d="M80.8285 131.349C75.3616 134.365 69.6938 132.651 66.1289 130.515L65.9999 130.38L1.62235 62.9373C-1.48914 57.5255 0.51898 51.9142 2.77513 48.5777L34.564 18.2334C55.9286 -2.16038 73.8045 -5.61338 88.1556 9.42097C100.996 22.8728 91.3569 38.1231 91.3569 38.1231L92.1123 38.9144C92.1123 38.9144 110.168 27.7283 125.274 43.554C140.381 59.3796 137.647 77.1116 115.492 98.2607L81.8437 130.38L80.8285 131.349ZM79.8835 65.7103L62.4753 82.3274L80.603 101.318L99.5938 83.1904C106.715 76.3925 107.65 69.4507 101.608 63.1205C95.5653 56.7902 87.7963 58.157 79.8835 65.7103ZM48.8794 68.0843L64.7051 52.9779C72.6179 45.4246 73.553 38.4829 68.2657 32.9439C62.9785 27.4049 56.792 27.2611 49.6705 34.059L32.2623 50.6761L48.8794 68.0843Z" fill="#1736D2"/>
</svg>
